<svg width="143" height="194" viewBox="0 0 143 194" fill="none" xmlns="http://www.w3.org/2000/svg">
<g clip-path="url(#clip0_116_427)">
<path d="M3.70486 145.781C3.10249 146.663 2.86623 147.747 3.0461 148.801C5.91049 163.705 0.181725 169.603 0.181725 169.603C0.181725 171.156 -17.1479 172.48 -38.6307 172.48H-39.6046C-48.5129 172.48 -56.7909 172.249 -63.2644 171.875H-64.4388C-73.032 171.386 -78.3311 170.61 -78.3311 169.746C-78.3311 169.746 -84.0599 163.992 -81.1955 148.945C-81.0944 148.425 -81.0981 147.89 -81.2063 147.371C-81.3145 146.852 -81.5251 146.36 -81.8256 145.924C-82.4098 145.223 -82.7248 144.335 -82.7136 143.421C-82.7285 143.008 -82.6544 142.595 -82.4962 142.213C-82.338 141.831 -82.0994 141.487 -81.797 141.206C-81.3209 140.774 -80.9611 140.229 -80.7508 139.62C-80.5405 139.012 -80.4866 138.36 -80.594 137.725C-80.8804 135.999 -81.2527 133.409 -81.6251 130.158C-83.4762 114.425 -83.303 98.5187 -81.1095 82.8305C-80.4326 78.1355 -79.476 73.4855 -78.2452 68.9055C-77.8396 67.4164 -77.9925 65.8295 -78.6748 64.4461C-79.2407 63.1226 -79.2919 61.6339 -78.8181 60.2743C-77.2999 53.916 -50.7757 41.3145 -46.6797 26.21H-31.4411C-29.8657 31.9641 -25.0249 37.4018 -19.5253 42.264C-10.703 50.0608 -0.247955 56.3615 0.697289 60.2743C1.1711 61.6339 1.12003 63.1226 0.554108 64.4461C-0.128212 65.8295 -0.281174 67.4164 0.124374 68.9055C1.34161 73.4888 2.29796 78.1379 2.98876 82.8305C5.16767 98.5198 5.341 114.425 3.50442 130.158C3.13205 133.409 2.75964 135.912 2.4732 137.725C2.36578 138.36 2.41971 139.012 2.63001 139.62C2.84032 140.229 3.20022 140.774 3.67628 141.206C3.97876 141.487 4.21722 141.831 4.37541 142.213C4.5336 142.595 4.60773 143.008 4.59281 143.421C4.57077 144.286 4.25778 145.117 3.70486 145.781Z" fill="#D0E0FA"/>
<path opacity="0.5" d="M-39.6046 170.437C-48.1977 170.437 -56.3612 170.207 -63.1498 169.833H-64.3242C-68.3614 169.69 -72.3824 169.248 -76.3546 168.509L-77.3285 167.675C-78.0699 166.517 -78.6392 165.257 -79.0185 163.935C-80.2559 159.122 -80.3345 154.082 -79.2477 149.233C-79.0965 148.448 -79.1049 147.641 -79.2722 146.86C-79.4396 146.079 -79.7625 145.34 -80.2215 144.687C-80.5611 144.309 -80.7453 143.816 -80.7371 143.306C-80.7593 143.172 -80.7443 143.033 -80.6938 142.906C-80.6433 142.78 -80.5592 142.669 -80.4506 142.587C-79.7308 141.934 -79.1877 141.109 -78.8721 140.188C-78.5565 139.267 -78.4788 138.281 -78.6462 137.322C-78.904 135.74 -79.2763 133.15 -79.6486 129.87C-80.4251 123.05 -80.8458 116.193 -80.909 109.328C-81.0354 100.539 -80.4511 91.7546 -79.1617 83.0607C-78.4932 78.44 -77.5366 73.8661 -76.2973 69.3658C-75.7584 67.3933 -75.9729 65.2897 -76.8988 63.4679C-77.2312 62.5379 -77.2312 61.5208 -76.8988 60.5909C-76.8988 60.1881 -76.2973 59.181 -74.0345 57.1096C-71.7716 55.0381 -69.652 53.5132 -66.9881 51.3554C-58.71 44.9684 -48.5128 37.1141 -45.2187 27.965H-32.9019C-30.2423 34.0771 -26.0955 39.4196 -20.8428 43.5011C-17.6347 46.3782 -14.1688 48.9962 -11.1326 51.3554C-8.09633 53.7146 -5.94806 55.3545 -4.08621 57.1096C-2.22436 58.8646 -1.22182 60.1881 -1.22182 60.5909C-0.889488 61.5208 -0.889488 62.5379 -1.22182 63.4679C-2.14772 65.2897 -2.36224 67.3933 -1.82333 69.3658C-0.584099 73.8661 0.372574 78.44 1.04106 83.0607C2.33047 91.7546 2.91486 100.539 2.78838 109.328C2.72524 116.193 2.30455 123.05 1.52805 129.87C1.15568 133.15 0.783287 135.624 0.525497 137.322C0.358116 138.281 0.435844 139.267 0.751457 140.188C1.06708 141.109 1.61027 141.934 2.33007 142.587C2.43863 142.669 2.52267 142.78 2.57317 142.906C2.62366 143.033 2.63869 143.172 2.61652 143.306C2.6247 143.816 2.44041 144.309 2.10087 144.687C1.64184 145.34 1.31892 146.079 1.15156 146.86C0.984192 147.641 0.975853 148.448 1.12699 149.233C2.21384 154.082 2.13533 159.122 0.897881 163.935C0.518585 165.257 -0.0507278 166.517 -0.792099 167.675H-1.76607V168.509C-5.54662 169.23 -9.37745 169.653 -13.2236 169.775C-20.2414 170.235 -29.2928 170.466 -38.7166 170.494L-39.6046 170.437Z" fill="white"/>
<path d="M3.50443 130.014H-81.7397C-83.5908 114.282 -83.4175 98.3749 -81.2241 82.6866H2.98877C5.16768 98.376 5.34101 114.281 3.50443 130.014Z" fill="#21B9E5"/>
<path d="M-40.2348 141.321C-68.4203 141.321 -79.4482 139.077 -79.5627 139.048C-79.6773 139.019 -79.5627 139.048 -79.5627 139.048C-79.5627 139.048 -68.4203 141.292 -40.2634 141.292C-26.3351 141.572 -12.4053 140.822 1.4134 139.048C-12.3942 140.84 -26.3152 141.6 -40.2348 141.321Z" fill="white"/>
<path d="M-40.2348 149.175C-68.4203 149.175 -79.4482 146.96 -79.5627 146.931C-79.6773 146.902 -79.5627 146.931 -79.5627 146.931C-79.5627 146.931 -68.4203 149.175 -40.2634 149.175C-26.3354 149.436 -12.407 148.686 1.4134 146.931C-12.396 148.701 -26.3161 149.451 -40.2348 149.175Z" fill="white"/>
<path opacity="0.25" d="M3.70491 145.78C3.10254 146.663 2.86628 147.747 3.04616 148.801C5.91055 163.705 0.181774 169.603 0.181774 169.603C0.181774 171.156 -17.1478 172.48 -38.6307 172.48H-39.6046C-48.5128 172.48 -56.7908 172.249 -63.2643 171.875C-57.5356 172.163 -33.8472 172.623 -21.7022 163.244C-7.78126 152.398 -3.25547 63.583 -19.5825 42.264C-10.7602 50.0608 -0.305161 56.3615 0.640087 60.2743C1.11389 61.6339 1.06274 63.1225 0.496815 64.4461C-0.185505 65.8295 -0.338379 67.4164 0.0671768 68.9055C1.28441 73.4888 2.24075 78.1379 2.93156 82.8305C5.11047 98.5198 5.28371 114.425 3.44713 130.158C3.07476 133.409 2.70243 135.912 2.41599 137.725C2.30858 138.36 2.36251 139.012 2.57281 139.62C2.78312 140.229 3.14293 140.774 3.61899 141.206C3.92147 141.487 4.16002 141.831 4.31821 142.213C4.4764 142.595 4.55052 143.008 4.53561 143.421C4.52979 144.279 4.23722 145.11 3.70491 145.78Z" fill="#21B9E5"/>
<path d="M141.94 145.781C141.63 146.212 141.412 146.703 141.299 147.222C141.185 147.742 141.179 148.279 141.281 148.801C144.146 163.705 138.417 169.603 138.417 169.603C138.417 171.156 121.059 172.48 99.5759 172.48H98.602C89.6937 172.48 81.4157 172.249 74.9422 171.875H73.7678C65.1746 171.386 59.9042 170.61 59.9042 169.746C59.9042 169.746 54.1754 163.992 57.0398 148.945C57.1351 148.423 57.126 147.887 57.0129 147.368C56.8998 146.85 56.6849 146.359 56.381 145.924C55.8096 145.216 55.4963 144.333 55.493 143.421C55.4781 143.008 55.5522 142.595 55.7104 142.213C55.8686 141.831 56.1071 141.487 56.4096 141.206C56.8857 140.774 57.2455 140.229 57.4558 139.62C57.6661 139.012 57.72 138.36 57.6126 137.725C57.3262 135.999 56.9539 133.409 56.5815 130.158C54.7449 114.425 54.9182 98.5198 57.0971 82.8305C57.7879 78.1379 58.7442 73.4888 59.9614 68.9055C60.3809 67.4176 60.2275 65.8256 59.5318 64.4461C58.9659 63.1226 58.9147 61.6339 59.3885 60.2743C60.9067 53.916 87.4309 41.3145 91.5269 26.21H106.765C108.341 31.9641 113.182 37.4018 118.681 42.264C127.504 50.0608 137.987 56.3615 138.933 60.2743C139.381 61.6398 139.32 63.1225 138.761 64.4461C138.078 65.8295 137.925 67.4164 138.331 68.9055C139.562 73.4855 140.518 78.1355 141.195 82.8305C143.389 98.5187 143.562 114.425 141.711 130.158C141.339 133.409 140.966 135.912 140.68 137.725C140.58 138.36 140.638 139.009 140.848 139.617C141.058 140.224 141.413 140.77 141.883 141.206C142.199 141.477 142.446 141.818 142.605 142.203C142.765 142.588 142.831 143.006 142.799 143.421C142.773 144.28 142.471 145.107 141.94 145.781Z" fill="#D0E0FA"/>
<path opacity="0.5" d="M98.602 170.437C90.0089 170.437 81.8454 170.207 75.0568 169.833H73.8824C69.8545 169.694 65.8426 169.251 61.8806 168.509L60.8781 167.675C60.1368 166.517 59.5674 165.257 59.1881 163.935C57.9507 159.122 57.8721 154.082 58.9589 149.233C59.1101 148.448 59.1017 147.641 58.9344 146.86C58.767 146.079 58.4441 145.34 57.9851 144.687C57.6455 144.309 57.4613 143.816 57.4695 143.306C57.4473 143.172 57.4623 143.033 57.5128 142.906C57.5633 142.78 57.6474 142.669 57.756 142.587C58.4758 141.934 59.0189 141.109 59.3345 140.188C59.6501 139.267 59.7278 138.281 59.5604 137.322C59.3027 135.74 58.9304 133.15 58.558 129.87C57.7815 123.05 57.3608 116.193 57.2976 109.328C57.1712 100.539 57.7555 91.7546 59.0449 83.0607C59.7272 78.4425 60.6837 73.8694 61.9093 69.3658C62.4482 67.3933 62.2337 65.2897 61.3078 63.4679C60.9935 62.5349 60.9935 61.5239 61.3078 60.5909C61.3078 60.1881 61.9093 59.181 64.1722 57.1096C66.0054 55.4409 68.526 53.5132 71.1898 51.3554C79.4679 44.9684 89.6651 37.1141 92.9592 27.965H105.333C107.993 34.0771 112.14 39.4196 117.392 43.5011C120.601 46.3782 124.066 48.9962 127.103 51.3554C130.139 53.7146 132.316 55.3545 134.149 57.1096C136.412 59.181 137.013 60.1881 137.013 60.5909C137.353 61.5195 137.353 62.5392 137.013 63.4679C136.097 65.2934 135.893 67.3969 136.441 69.3658C137.666 73.8694 138.622 78.4425 139.305 83.0607C140.594 91.7546 141.179 100.539 141.052 109.328C140.989 116.193 140.568 123.05 139.792 129.87C139.42 133.15 139.047 135.624 138.789 137.322C138.622 138.281 138.7 139.267 139.015 140.188C139.331 141.109 139.874 141.934 140.594 142.587C140.823 142.788 140.88 142.846 140.88 143.306C140.89 143.559 140.85 143.812 140.762 144.049C140.673 144.286 140.538 144.503 140.365 144.687C139.906 145.34 139.583 146.079 139.416 146.86C139.248 147.641 139.24 148.448 139.391 149.233C140.493 154.081 140.415 159.124 139.162 163.935C138.788 165.255 138.229 166.514 137.5 167.675H136.498V168.509C132.717 169.23 128.886 169.653 125.04 169.775C118.023 170.235 108.971 170.466 99.5473 170.494L98.602 170.437Z" fill="white"/>
<path d="M141.711 130.014H56.4669C54.6303 114.281 54.8036 98.376 56.9825 82.6866H141.195C143.389 98.3749 143.562 114.282 141.711 130.014Z" fill="#21B9E5"/>
<path d="M98.1437 69.4521C73.7105 69.4521 64.1434 67.2368 64.0288 67.208C63.9143 67.1793 64.0288 67.208 64.0288 67.208C64.0288 67.208 73.6532 69.4521 98.0864 69.4521C110.168 69.7297 122.251 68.9789 134.206 67.208C122.27 68.9747 110.206 69.7255 98.1437 69.4521Z" fill="white"/>
<path d="M97.9718 141.321C69.7862 141.321 58.7584 139.077 58.6438 139.048C58.5293 139.019 58.6438 139.048 58.6438 139.048C58.6438 139.048 69.7863 141.292 97.9432 141.292C111.871 141.572 125.801 140.822 139.62 139.048C125.812 140.84 111.891 141.6 97.9718 141.321Z" fill="white"/>
<path d="M97.9718 149.175C69.7862 149.175 58.7584 146.96 58.6438 146.931C58.5293 146.903 58.6438 146.931 58.6438 146.931C58.6438 146.931 69.7863 149.175 97.9432 149.175C111.905 149.364 125.863 148.537 139.706 146.701C125.874 148.552 111.925 149.379 97.9718 149.175Z" fill="white"/>
<path d="M130.397 125.986H94.7924C94.5982 125.99 94.4051 125.955 94.2246 125.883C94.044 125.811 93.8795 125.704 93.7408 125.567C93.6021 125.43 93.492 125.267 93.4168 125.087C93.3416 124.907 93.3028 124.714 93.3029 124.519C93.3029 124.122 93.4598 123.742 93.7392 123.461C94.0185 123.181 94.3974 123.023 94.7924 123.023H130.397C130.591 123.023 130.783 123.062 130.962 123.137C131.142 123.213 131.304 123.324 131.44 123.463C131.576 123.602 131.683 123.767 131.755 123.949C131.826 124.13 131.861 124.324 131.858 124.519C131.858 124.908 131.704 125.281 131.43 125.557C131.156 125.832 130.784 125.986 130.397 125.986Z" fill="white"/>
<path d="M126.988 115.917H98.201C97.4575 115.917 96.8547 116.522 96.8547 117.269V117.528C96.8547 118.275 97.4575 118.88 98.201 118.88H126.988C127.732 118.88 128.334 118.275 128.334 117.528V117.269C128.334 116.522 127.732 115.917 126.988 115.917Z" fill="white"/>
<path d="M126.272 98.9996C126.278 101.721 125.479 104.382 123.978 106.648C122.477 108.913 120.341 110.68 117.84 111.726C115.338 112.771 112.584 113.047 109.927 112.52C107.269 111.993 104.827 110.685 102.909 108.763C100.991 106.841 99.6843 104.39 99.1536 101.722C98.623 99.0534 98.8925 96.2868 99.928 93.7722C100.963 91.2576 102.718 89.1081 104.971 87.5957C107.223 86.0833 109.871 85.276 112.58 85.276C116.207 85.276 119.685 86.7209 122.252 89.2937C124.818 91.8666 126.264 95.3572 126.272 98.9996Z" fill="white"/>
<path d="M112.609 110.997C119.19 110.997 124.525 105.638 124.525 99.0283C124.525 92.4183 119.19 87.0598 112.609 87.0598C106.028 87.0598 100.693 92.4183 100.693 99.0283C100.693 105.638 106.028 110.997 112.609 110.997Z" fill="#21B9E5"/>
<path d="M117.679 101.618C117.731 102.32 117.639 103.027 117.407 103.692C117.176 104.357 116.81 104.967 116.332 105.484C115.855 106.001 115.277 106.413 114.634 106.695C113.991 106.977 113.296 107.122 112.595 107.122C111.893 107.122 111.199 106.977 110.555 106.695C109.912 106.413 109.334 106.001 108.857 105.484C108.379 104.967 108.013 104.357 107.782 103.692C107.55 103.027 107.458 102.32 107.51 101.618C107.51 98.7406 112.58 90.2533 112.58 90.2533C112.58 90.2533 117.679 98.7981 117.679 101.618Z" fill="white"/>
<path d="M107.854 16.3129V28.1664C107.854 28.3102 107.653 28.4541 107.31 28.6267C106.141 29.1235 104.905 29.4435 103.643 29.5762C102.136 29.8046 100.614 29.9199 99.089 29.9214C96.1551 30.0655 93.2246 29.575 90.4958 28.4829C90.324 28.4829 90.238 28.2814 90.238 28.1664V16.3129H107.854Z" fill="#21B9E5"/>
<path d="M109.028 16.0252C108.984 16.1195 108.926 16.2068 108.857 16.2842C107.854 17.4062 104.589 18.2406 99.089 18.2406C93.5894 18.2406 90.3526 17.4062 89.3214 16.2842C89.2518 16.2068 89.1939 16.1195 89.1496 16.0252C89.0468 15.8353 88.9929 15.6227 88.9929 15.4066C88.9929 15.1905 89.0468 14.9779 89.1496 14.7881C89.8084 13.3495 93.5894 12.6016 99.089 12.6016C104.589 12.6016 108.37 13.3495 109.028 14.7881C109.131 14.9779 109.185 15.1905 109.185 15.4066C109.185 15.6227 109.131 15.8353 109.028 16.0252Z" fill="#92ACCC"/>
<path d="M107.682 12.6016C107.682 11.5658 103.844 10.7314 99.089 10.7314C94.3341 10.7314 90.4958 11.5658 90.4958 12.6016V14.5003C90.4958 15.5361 94.3341 16.3705 99.089 16.3705C103.844 16.3705 107.682 15.5361 107.682 14.5003V12.6016Z" fill="#21B9E5"/>
<path opacity="0.25" d="M99.089 18.2406C96.1219 18.4102 93.151 17.9797 90.3526 16.9746V18.2406C93.151 19.2457 96.1219 19.6761 99.089 19.5065C100.282 19.5065 101.425 19.9824 102.269 20.8295C103.112 21.6766 103.586 22.8254 103.586 24.0234V29.5762C106.107 29.2022 107.797 28.5691 107.797 28.1664V16.9746C105.006 17.9692 102.046 18.3994 99.089 18.2406Z" fill="#41D4FF"/>
<path opacity="0.25" d="M112.58 172.249C108.513 172.249 104.13 172.422 99.5759 172.422H98.602C77.1191 172.422 59.7896 171.156 59.7896 169.545C59.7896 169.545 54.0609 163.791 56.9252 148.744C57.0206 148.222 57.0114 147.686 56.8983 147.167C56.7852 146.648 56.5704 146.157 56.2664 145.723C55.695 145.015 55.3817 144.132 55.3784 143.22C55.3635 142.806 55.4377 142.394 55.5959 142.012C55.7541 141.629 55.9926 141.286 56.2951 141.005C56.7711 140.573 57.1309 140.028 57.3412 139.419C57.5515 138.811 57.6055 138.158 57.4981 137.523C57.2116 135.797 56.8393 133.208 56.4669 129.957C54.6303 114.223 54.8036 98.3185 56.9825 82.6291C57.6733 77.9366 58.6296 73.2874 59.8469 68.7042C60.2663 67.2163 60.1129 65.6242 59.4172 64.2447C58.8513 62.9211 58.8002 61.4326 59.2741 60.073C60.7062 54.06 84.5092 42.4654 90.5531 28.4254C93.2819 29.5175 96.2124 30.008 99.1463 29.8639C100.671 29.8624 102.193 29.747 103.701 29.5186C104.963 29.3859 106.198 29.066 107.367 28.5692C107.973 32.0541 107.628 35.6389 106.367 38.9422C105.106 42.2454 102.977 45.1433 100.206 47.3276C93.3602 52.7077 87.0872 57.0809 86.3711 60.073C85.8973 61.4326 85.9484 62.9211 86.5143 64.2447C87.21 65.6242 87.3634 67.2163 86.9439 68.7042C85.7267 73.2874 84.7704 77.9366 84.0796 82.6291C81.9006 98.3185 81.7274 114.223 83.564 129.957C83.9364 133.208 84.3088 135.711 84.5952 137.523C84.7026 138.158 84.6487 138.811 84.4384 139.419C84.2281 140.028 83.8682 140.573 83.3921 141.005C83.0896 141.286 82.8512 141.629 82.693 142.012C82.5348 142.394 82.4606 142.806 82.4755 143.22C82.4788 144.132 82.7921 145.015 83.3635 145.723C83.6734 146.154 83.8918 146.645 84.0052 147.165C84.1185 147.684 84.1243 148.222 84.0223 148.744C81.1579 163.647 86.8867 169.545 86.8867 169.545C86.7721 170.811 97.5136 171.847 112.58 172.249Z" fill="white"/>
<path opacity="0.25" d="M141.94 145.78C141.63 146.212 141.412 146.703 141.299 147.222C141.185 147.742 141.179 148.279 141.281 148.801C144.146 163.705 138.417 169.603 138.417 169.603C138.417 171.156 121.059 172.48 99.5759 172.48H98.602C89.6938 172.48 81.4158 172.249 74.9423 171.875C80.671 172.163 104.359 172.623 116.504 163.244C130.425 152.398 134.951 63.583 118.624 42.264C127.446 50.0608 137.93 56.3615 138.875 60.2743C139.324 61.6398 139.263 63.1225 138.703 64.4461C138.021 65.8295 137.868 67.4164 138.274 68.9055C139.505 73.4855 140.461 78.1355 141.138 82.8305C143.332 98.5187 143.505 114.425 141.654 130.158C141.281 133.409 140.909 135.912 140.623 137.725C140.523 138.36 140.581 139.009 140.791 139.617C141 140.224 141.356 140.77 141.826 141.206C142.141 141.477 142.389 141.818 142.548 142.203C142.707 142.588 142.774 143.006 142.742 143.421C142.732 144.273 142.451 145.1 141.94 145.78Z" fill="#21B9E5"/>
<path d="M81.2152 162.036C80.8507 162.557 80.5945 163.147 80.4617 163.769C80.3288 164.392 80.322 165.036 80.4418 165.661C83.7932 183.556 77.0045 190.605 77.0045 190.605C77.0045 192.446 56.1805 193.971 30.4297 193.971H29.2553C18.5425 193.971 8.71763 193.712 0.869215 193.281H-0.534307C-10.7315 192.677 -17.1764 191.756 -17.1764 190.72C-17.1764 190.72 -23.9936 183.671 -20.6137 165.776C-20.4996 165.149 -20.5118 164.505 -20.6495 163.882C-20.7873 163.259 -21.0478 162.671 -21.4157 162.151C-22.1005 161.294 -22.4743 160.229 -22.4755 159.13C-22.506 158.632 -22.421 158.134 -22.2272 157.675C-22.0333 157.215 -21.7359 156.807 -21.3584 156.483C-20.7973 155.959 -20.3731 155.305 -20.1233 154.577C-19.8735 153.85 -19.8059 153.071 -19.9263 152.311C-20.27 150.24 -20.6996 147.133 -21.1579 143.249C-23.4428 124.319 -23.2888 105.173 -20.6996 86.283C-19.8472 80.6474 -18.6708 75.0662 -17.1764 69.5673C-16.6848 67.7807 -16.8685 65.8746 -17.692 64.2159C-18.3566 62.6258 -18.4277 60.8484 -17.8925 59.2098C-16.0306 51.6144 15.7641 36.4811 20.6908 18.3269H38.9655C40.856 25.2893 46.6707 31.7914 53.2874 37.6031C63.8857 46.9535 76.4317 54.5202 77.5774 59.2098C78.1166 60.8457 78.0557 62.6212 77.4056 64.2159C76.5725 65.871 76.3786 67.7772 76.8614 69.5673C78.3558 75.0662 79.5322 80.6474 80.3846 86.283C83.0065 105.11 83.2087 124.197 80.9861 143.076C80.5564 146.96 80.0981 150.067 79.783 152.139C79.6486 152.897 79.7068 153.676 79.9521 154.405C80.1975 155.135 80.6221 155.79 81.1866 156.311C81.5676 156.632 81.8674 157.039 82.0616 157.499C82.2558 157.959 82.3387 158.459 82.3037 158.957C82.3199 160.081 81.9336 161.174 81.2152 162.036Z" fill="#D0E0FA"/>
<path opacity="0.5" d="M29.2553 191.583C18.9149 191.583 9.20456 191.353 1.01242 190.893H0.869234H-0.534286C-5.34091 190.725 -10.1283 190.196 -14.8562 189.31L-16.0593 188.303C-16.9191 186.915 -17.5842 185.415 -18.0357 183.844C-19.5569 178.066 -19.6552 172.003 -18.3222 166.179C-18.152 165.233 -18.1706 164.263 -18.3772 163.324C-18.5837 162.386 -18.9739 161.498 -19.5252 160.712C-19.9111 160.265 -20.1245 159.693 -20.1267 159.101C-20.1267 158.526 -20.1267 158.44 -19.783 158.238C-18.9322 157.443 -18.2889 156.449 -17.9093 155.346C-17.5298 154.242 -17.4257 153.062 -17.6061 151.909C-17.9212 150.01 -18.3794 146.874 -18.8091 142.932C-19.7428 134.755 -20.2495 126.535 -20.3272 118.305C-20.4793 107.716 -19.7801 97.1325 -18.2363 86.657C-17.3976 81.1184 -16.2403 75.6332 -14.7703 70.229C-14.1176 67.8754 -14.3628 65.3618 -15.4578 63.1802C-15.8665 62.0858 -15.8665 60.8797 -15.4578 59.7853C-15.4578 59.2962 -14.7416 58.1166 -11.9918 55.6423C-9.78625 53.6284 -6.75006 51.298 -3.54194 48.8237C6.36883 41.1707 18.6284 31.734 22.5526 20.7436H37.3329C39.4239 26.4977 44.0928 32.597 51.6548 39.4157C55.5217 42.8106 59.6464 46.0042 63.3128 48.8237C66.5209 51.298 69.5572 53.6284 71.906 55.6423C74.6271 58.1166 75.2287 59.2962 75.3719 59.7853C75.7473 60.8855 75.7473 62.08 75.3719 63.1802C74.2632 65.3578 74.0175 67.8767 74.6844 70.229C76.1447 75.6338 77.2924 81.119 78.1217 86.657C79.6757 97.1317 80.3845 107.715 80.2413 118.305C80.1494 126.534 79.6427 134.754 78.7232 142.932C78.2649 146.874 77.8066 150.01 77.5202 151.909C77.3193 153.046 77.3997 154.215 77.7543 155.314C78.1089 156.413 78.7269 157.407 79.5539 158.209C79.7831 158.411 79.8689 158.497 79.8689 159.072C79.8878 159.677 79.6722 160.265 79.2674 160.712C78.7141 161.491 78.3225 162.374 78.1159 163.308C77.9092 164.243 77.8917 165.209 78.0645 166.15C79.4023 171.973 79.3138 178.034 77.8067 183.815C77.3482 185.388 76.6733 186.889 75.8016 188.275H74.5985V189.282C70.1099 190.147 65.5607 190.657 60.9926 190.806C52.5427 191.353 41.6867 191.641 30.401 191.641L29.2553 191.583Z" fill="white"/>
<path d="M80.9574 143.134H-21.3011C-23.5286 124.236 -23.3265 105.129 -20.6996 86.283H80.3559C82.9828 105.129 83.1849 124.236 80.9574 143.134Z" fill="#21B9E5"/>
<path d="M28.6824 70.4591C-0.620311 70.4591 -12.1065 67.7835 -12.2211 67.7835V67.5821C-12.2211 67.5821 -0.763474 70.2865 28.6538 70.2865C58.071 70.2865 71.8486 67.6108 71.9918 67.5821C72.1351 67.5533 71.9918 67.5821 71.9918 67.5821C71.9059 67.8122 58.0137 70.4591 28.6824 70.4591Z" fill="white"/>
<path d="M28.4819 156.656C-5.31781 156.656 -18.5513 153.98 -18.6945 153.951C-18.8377 153.923 -18.6945 153.951 -18.6945 153.951C-18.6945 153.951 -5.34651 156.656 28.4246 156.656C62.1957 156.656 78.2649 153.98 78.4367 153.951C61.8706 156.048 45.1765 156.952 28.4819 156.656Z" fill="white"/>
<path d="M28.4819 166.121C-5.31781 166.121 -18.5513 163.446 -18.6945 163.417C-18.8377 163.388 -18.6945 163.417 -18.6945 163.417C-18.6945 163.417 -5.34651 166.121 28.4246 166.121C62.1957 166.121 78.2649 163.446 78.4367 163.417C78.4367 163.417 62.3676 166.121 28.4819 166.121Z" fill="white"/>
<path d="M72.3642 138.3H29.6562C29.1852 138.3 28.7336 138.112 28.4005 137.778C28.0675 137.443 27.8803 136.989 27.8803 136.516C27.8803 136.043 28.0675 135.59 28.4005 135.255C28.7336 134.921 29.1852 134.733 29.6562 134.733H72.3642C72.8352 134.733 73.2869 134.921 73.62 135.255C73.953 135.59 74.1401 136.043 74.1401 136.516C74.1401 136.989 73.953 137.443 73.62 137.778C73.2869 138.112 72.8352 138.3 72.3642 138.3Z" fill="white"/>
<path d="M68.2968 126.217H33.7523C32.8664 126.217 32.1483 126.938 32.1483 127.828V128.173C32.1483 129.063 32.8664 129.784 33.7523 129.784H68.2968C69.1827 129.784 69.9009 129.063 69.9009 128.173V127.828C69.9009 126.938 69.1827 126.217 68.2968 126.217Z" fill="white"/>
<path d="M67.4089 105.933C67.4088 109.19 66.4483 112.374 64.6486 115.083C62.8489 117.792 60.2906 119.905 57.2965 121.155C54.3025 122.406 51.0068 122.737 47.8254 122.108C44.644 121.479 41.7193 119.917 39.4205 117.62C37.1218 115.324 35.5519 112.394 34.9089 109.202C34.2659 106.01 34.5787 102.698 35.8078 99.6841C37.0369 96.6703 39.1272 94.0897 41.815 92.2679C44.5027 90.4461 47.6675 89.4648 50.91 89.4477C53.0736 89.4325 55.2188 89.8479 57.2218 90.6699C59.2248 91.4919 61.0458 92.7043 62.5798 94.237C64.1137 95.7697 65.3302 97.5924 66.159 99.5999C66.9879 101.607 67.4127 103.76 67.4089 105.933Z" fill="white"/>
<path d="M65.2319 105.933C65.2319 108.778 64.392 111.56 62.8183 113.925C61.2445 116.291 59.0078 118.135 56.3908 119.224C53.7738 120.312 50.8941 120.597 48.1159 120.042C45.3377 119.487 42.7859 118.117 40.7829 116.105C38.78 114.093 37.4159 111.53 36.8633 108.74C36.3106 105.949 36.5943 103.057 37.6783 100.428C38.7623 97.7997 40.5979 95.553 42.9531 93.9723C45.3084 92.3916 48.0774 91.5479 50.91 91.5479C54.7084 91.5479 58.3512 93.0636 61.0371 95.7613C63.723 98.4591 65.2319 102.118 65.2319 105.933Z" fill="#21B9E5"/>
<path d="M57.0971 109.069C57.0971 110.695 56.4543 112.253 55.3101 113.403C54.1659 114.552 52.6141 115.197 50.9959 115.197C49.3778 115.197 47.826 114.552 46.6818 113.403C45.5376 112.253 44.8948 110.695 44.8948 109.069C44.8948 105.674 50.9959 95.4033 50.9959 95.4033C50.9959 95.4033 57.0971 105.674 57.0971 109.069Z" fill="white"/>
<path d="M40.3404 6.70354V20.9162C40.3404 21.0888 40.1112 21.2903 39.6816 21.4917C38.2777 22.0678 36.8041 22.4548 35.2991 22.6425C33.4873 22.9071 31.659 23.0417 29.8282 23.0452C26.3557 23.1908 22.8915 22.6028 19.6596 21.319C19.459 21.1752 19.3445 21.0313 19.3445 20.9162V6.70354H40.3404Z" fill="#21B9E5"/>
<path d="M41.7726 6.3583C41.7093 6.47276 41.6324 6.57899 41.5435 6.67474C40.3405 7.99819 36.4163 9.00524 29.8282 9.00524C23.2401 9.00524 19.3445 7.99819 18.1415 6.67474C18.0526 6.57899 17.9756 6.47276 17.9123 6.3583C17.787 6.12909 17.7213 5.87177 17.7213 5.61024C17.7213 5.34872 17.787 5.09148 17.9123 4.86227C18.6857 3.1648 23.2401 2.24413 29.8282 2.24413C36.4163 2.24413 40.9706 3.1648 41.7726 4.86227C41.8908 5.09376 41.9524 5.35011 41.9524 5.61024C41.9524 5.87038 41.8908 6.12681 41.7726 6.3583Z" fill="#92ACCC"/>
<path d="M40.1399 2.24413C40.1399 1.007 35.5283 3.05176e-05 29.8282 3.05176e-05C24.128 3.05176e-05 19.5164 1.007 19.5164 2.24413V4.51694C19.5164 5.78285 24.128 6.78984 29.8282 6.78984C35.5283 6.78984 40.1399 5.78285 40.1399 4.51694V2.24413Z" fill="#21B9E5"/>
<path opacity="0.25" d="M29.8282 9.00524C26.2694 9.21077 22.7055 8.70213 19.3445 7.50911V9.03395C22.7055 10.227 26.2694 10.7356 29.8282 10.5301C30.5378 10.5263 31.241 10.6633 31.8977 10.9334C32.5544 11.2036 33.1514 11.6014 33.6545 12.1041C34.1575 12.6067 34.5568 13.2043 34.8292 13.8624C35.1016 14.5205 35.2418 15.2261 35.2418 15.9389V22.6425C38.2494 22.1821 40.2832 21.4341 40.2832 20.9162V7.50911C36.9294 8.69095 33.3771 9.19933 29.8282 9.00524Z" fill="#41D4FF"/>
<path opacity="0.25" d="M46.012 193.77C41.1425 193.914 35.9007 193.971 30.4297 193.971H29.2553C3.47582 193.971 -17.3197 192.446 -17.3197 190.605C-17.3197 190.605 -24.1368 183.556 -20.7569 165.661C-20.6428 165.034 -20.655 164.39 -20.7928 163.767C-20.9305 163.144 -21.191 162.556 -21.5589 162.036C-22.2437 161.179 -22.6176 160.114 -22.6188 159.015C-22.6493 158.517 -22.5642 158.019 -22.3703 157.56C-22.1765 157.1 -21.8791 156.692 -21.5016 156.368C-20.9404 155.844 -20.5162 155.19 -20.2665 154.462C-20.0167 153.734 -19.949 152.956 -20.0694 152.196C-20.4132 150.125 -20.8428 147.018 -21.3011 143.134C-23.5286 124.236 -23.3265 105.129 -20.6996 86.283C-19.8472 80.6475 -18.6708 75.0662 -17.1764 69.5673C-16.6848 67.7807 -16.8685 65.8746 -17.692 64.2159C-18.3566 62.6258 -18.4277 60.8484 -17.8925 59.2098C-16.1452 52.0172 12.4127 38.0922 19.6596 21.2614C22.8915 22.5452 26.3558 23.1333 29.8282 22.9877C31.6591 22.9842 33.4873 22.8495 35.2991 22.5849C36.8041 22.3971 38.2777 22.0102 39.6816 21.4341C40.404 25.614 39.9867 29.9126 38.4738 33.8736C36.9609 37.8346 34.4089 41.3105 31.0884 43.9327C22.8677 50.3773 15.363 55.6135 14.5037 59.2098C13.9645 60.8457 14.0255 62.6212 14.6756 64.2159C15.5126 65.8707 15.6967 67.782 15.1911 69.5673C13.6967 75.0662 12.5203 80.6475 11.6679 86.283C9.06777 105.112 8.87531 124.198 11.0951 143.076C11.5247 146.96 11.983 150.067 12.2981 152.139C12.4263 152.899 12.3624 153.679 12.1122 154.408C11.8619 155.137 11.4333 155.791 10.8659 156.311C10.4883 156.633 10.1926 157.042 10.0033 157.502C9.81401 157.962 9.73666 158.461 9.7775 158.957C9.75632 160.055 10.1215 161.125 10.8086 161.978C11.1765 162.498 11.4371 163.087 11.5748 163.709C11.7126 164.332 11.7247 164.976 11.6107 165.603C8.23068 183.499 15.048 190.548 15.048 190.548C15.048 192.072 27.995 193.309 46.012 193.77Z" fill="white"/>
<path opacity="0.25" d="M81.2152 162.036C80.8507 162.557 80.5945 163.147 80.4617 163.769C80.3288 164.392 80.322 165.036 80.4418 165.661C83.7932 183.556 77.0045 190.605 77.0045 190.605C77.0045 192.446 56.1805 193.971 30.4297 193.971H29.2553C18.5425 193.971 8.71762 193.712 0.869202 193.281C7.80101 193.597 36.1584 194.173 50.7382 182.808C67.4375 169.804 72.8512 63.2665 53.2588 37.6607C63.8571 47.0111 76.403 54.5777 77.5488 59.2673C78.088 60.9032 78.027 62.6788 77.3769 64.2735C76.5438 65.9286 76.3499 67.8347 76.8327 69.6248C78.3271 75.1237 79.5035 80.705 80.3559 86.3405C82.9778 105.167 83.18 124.255 80.9574 143.134C80.5277 147.018 80.0695 150.125 79.7544 152.196C79.62 152.954 79.6782 153.734 79.9235 154.463C80.1689 155.192 80.5934 155.847 81.1579 156.368C81.5389 156.689 81.8389 157.097 82.033 157.557C82.2272 158.017 82.3101 158.517 82.2751 159.015C82.2857 160.116 81.9105 161.185 81.2152 162.036Z" fill="#21B9E5"/>
</g>
<defs>
<clipPath id="clip0_116_427">
<rect width="226" height="194" fill="white" transform="translate(-83)"/>
</clipPath>
</defs>
</svg>
