<svg width="15" height="15" viewBox="0 0 15 15" fill="none" xmlns="http://www.w3.org/2000/svg">
<path d="M14.8712 2.57329C14.7606 2.42095 14.5871 2.31939 14.3976 2.31939H3.53627L3.10999 0.490918C3.0469 0.203118 2.81002 0 2.52591 0H0.599926C0.268347 0 0 0.2878 0 0.643381C0 0.998962 0.268361 1.28676 0.599926 1.28676H2.06804L4.49926 11.919C4.56236 12.2068 4.79924 12.4099 5.08334 12.4099H12.0137C12.3453 12.4099 12.6137 12.1221 12.6137 11.7665C12.6137 11.4109 12.3453 11.1231 12.0137 11.1231H5.54116L5.19385 9.61634H12.9609C13.2293 9.61634 13.4662 9.41321 13.545 9.14229L14.9817 3.11511C15.0291 2.92899 14.9818 2.72574 14.8712 2.5734V2.57329Z" fill="white"/>
<path d="M7.16708 13.9673C7.16708 14.5376 6.73596 14.9999 6.20409 14.9999C5.67233 14.9999 5.24121 14.5376 5.24121 13.9673C5.24121 13.3969 5.67233 12.9346 6.20409 12.9346C6.73596 12.9346 7.16708 13.3969 7.16708 13.9673Z" fill="white"/>
<path d="M12.1399 13.9673C12.1399 14.5376 11.7087 14.9999 11.1769 14.9999C10.645 14.9999 10.2139 14.5376 10.2139 13.9673C10.2139 13.3969 10.645 12.9346 11.1769 12.9346C11.7087 12.9346 12.1399 13.3969 12.1399 13.9673Z" fill="white"/>
</svg>
