<svg width="146" height="231" viewBox="0 0 146 231" fill="none" xmlns="http://www.w3.org/2000/svg">
<g clip-path="url(#clip0_116_360)">
<path d="M-185.257 119.215V127.244H18.9966C19.671 127.244 20.4492 125.897 20.6049 123.929V123.255C20.6049 120.976 19.7748 119.215 18.9966 119.215H-185.257Z" fill="#C3D8E9"/>
<path d="M69.5281 119.215V127.244H129.71C130.384 127.244 131.162 125.897 131.318 123.929V123.255C131.318 120.976 130.488 119.215 129.71 119.215H69.5281Z" fill="#C3D8E9"/>
<path d="M-184.582 37.1112V45.1403H129.71C130.384 45.1403 131.162 43.7417 131.318 41.8251V41.0998C131.318 38.8206 130.488 37.1112 129.71 37.1112H-184.582Z" fill="#C3D8E9"/>
<path d="M63.3026 123.255C63.3026 125.69 64.2364 127.71 65.3778 127.71H76.3245C77.2583 127.71 78.0885 126.363 78.3479 124.498C78.3748 124.084 78.3748 123.669 78.3479 123.255C78.3479 120.769 77.4141 118.8 76.2727 118.8H65.3258C64.2363 118.8 63.3026 120.769 63.3026 123.255Z" fill="#F2B297"/>
<path d="M61.5386 117.816H64.9627L66.6747 123.255L64.9627 128.642H61.5386L59.8784 123.255L61.5386 117.816Z" fill="#F5F9FB"/>
<path d="M70.4102 123.255H66.6748L64.9627 117.816H68.75L70.4102 123.255Z" fill="#F7D5C3"/>
<path d="M64.9627 128.642H68.75L69.0094 127.71L70.047 124.498L70.4102 123.255H66.6748L64.9627 128.642Z" fill="#F2B99B"/>
<path d="M57.0769 118.49H63.3026C64.2364 118.49 64.9626 120.613 64.9626 123.255C64.9626 125.897 64.2364 128.021 63.3026 128.021H57.0769C56.143 128.021 55.3649 125.897 55.3649 123.255C55.3649 120.613 56.143 118.49 57.0769 118.49Z" fill="#EF9F7D"/>
<path d="M34.5607 200.438V211.575C34.5727 215.033 35.877 218.363 38.2184 220.911C40.5598 223.46 43.7697 225.044 47.2196 225.354H48.4129C52.0825 225.34 55.5978 223.879 58.1926 221.288C60.7874 218.697 62.2512 215.187 62.2649 211.523V200.386L34.5607 200.438Z" fill="#21B9E5"/>
<path d="M34.1457 199.505H62.5762L63.7695 137.034H32.9525L34.1457 199.505Z" fill="#DAE5F9"/>
<path opacity="0.25" d="M38.5555 145.374V150.295V155.009L39.4375 187.539C39.4375 188.575 41.8239 189.456 45.1962 189.819H48.1015C52.8745 189.819 56.7656 188.783 56.7656 187.436L57.6476 154.905V150.191V145.27L38.5555 145.374Z" fill="#41D4FF"/>
<path d="M34.0938 196.294V208.415C34.1073 208.524 34.1473 208.629 34.2107 208.719C34.274 208.81 34.3586 208.883 34.457 208.933C35.7227 209.562 37.0953 209.949 38.5037 210.073C41.3571 210.473 44.2344 210.681 47.1159 210.694H50.955H54.9497L58.3738 210.28C59.0939 210.18 59.8051 210.024 60.501 209.814C61.194 209.683 61.8603 209.438 62.4724 209.088C62.5708 209.038 62.6553 208.965 62.7186 208.875C62.782 208.784 62.8222 208.68 62.8356 208.57V196.449C62.8356 196.915 61.9536 197.33 60.449 197.692C58.738 198.061 57.0051 198.321 55.261 198.469H51.2662H47.4271C44.5469 198.426 41.6715 198.218 38.815 197.848C35.8059 197.537 34.0938 196.915 34.0938 196.294Z" fill="#21B9E5"/>
<path d="M36.4803 136.775V148.845C36.4803 149.984 40.3714 150.968 45.6113 151.227H48.361C51.1798 151.269 53.9957 151.026 56.7656 150.502C58.9446 150.088 60.2416 149.466 60.2416 148.793V136.775H36.4803Z" fill="#97A1B7"/>
<path d="M32.6931 131.647V137.656C32.6931 138.226 34.0938 138.692 36.4803 139.054L38.5555 139.365C41.8129 139.7 45.0864 139.855 48.361 139.831H51.0069H55.0017C56.7413 139.75 58.474 139.56 60.1897 139.262C62.5762 138.899 63.977 138.433 63.977 137.863V131.854L32.6931 131.647Z" fill="#21B9E5"/>
<path d="M32.6931 131.647C32.6931 132.838 39.697 133.822 48.2573 133.822C56.8175 133.822 63.8214 132.838 63.8214 131.647C63.8214 130.455 56.8175 129.471 48.2573 129.471C39.697 129.471 32.6931 130.455 32.6931 131.647Z" fill="#41D4FF"/>
<path d="M35.1313 115.382V131.336C35.1313 132.32 40.8901 133.149 47.9978 133.149H48.361C55.6761 133.149 61.5904 132.32 61.5904 131.336V115.382H35.1313Z" fill="#F2B99B"/>
<path opacity="0.5" d="M35.1313 115.382V131.336C35.1313 132.32 40.8901 133.149 47.9978 133.149V117.195C40.8901 117.195 35.1313 116.573 35.1313 115.382Z" fill="#EF9F7D"/>
<path d="M35.1313 115.382C35.1313 116.366 40.8901 117.195 47.9978 117.195H48.361C55.6761 117.195 61.5904 116.366 61.5904 115.382C61.5904 114.397 55.6761 113.517 48.361 113.517C41.0458 113.517 35.1313 114.346 35.1313 115.382Z" fill="#F7D5C3"/>
<path d="M45.4037 109.373V114.864C45.4037 115.174 46.0263 115.382 47.012 115.537H48.4647C50.1767 115.537 51.5256 115.226 51.5256 114.812V109.321L45.4037 109.373Z" fill="#F2B99B"/>
<path d="M36.5323 101.033C36.5274 101.923 36.6319 102.81 36.8435 103.675C37.2892 105.666 38.3597 107.463 39.8994 108.805C41.4391 110.147 43.3675 110.962 45.4038 111.134H50.5918V109.839L51.3182 109.373C51.7228 109.055 52.1043 108.709 52.4596 108.337C54.3323 106.369 55.3568 103.747 55.313 101.033C55.3188 99.2906 54.8845 97.5751 54.0502 96.0449C53.2159 94.5148 52.0085 93.2193 50.5399 92.2786V90.9836H45.767C43.2164 91.1178 40.8203 92.2456 39.0935 94.1246C37.3668 96.0037 36.4472 98.4841 36.5323 101.033V101.033Z" fill="#689DC7"/>
<path d="M41.0458 101.033C41.0409 101.923 41.1455 102.81 41.3571 103.675C41.9608 106.06 43.3953 108.154 45.4038 109.58C46.9286 110.625 48.7425 111.169 50.5918 111.134H51.7332C53.7116 111.073 55.628 110.431 57.2428 109.287C58.8575 108.144 60.099 106.551 60.8116 104.708C61.5243 102.864 61.6766 100.851 61.2496 98.9215C60.8225 96.9917 59.8351 95.2305 58.4108 93.8581C56.9864 92.4858 55.1885 91.5632 53.2417 91.2058C51.295 90.8485 49.2859 91.0722 47.4658 91.849C45.6457 92.6258 44.0955 93.9211 43.0089 95.5731C41.9224 97.225 41.3478 99.1602 41.3571 101.136L41.0458 101.033Z" fill="#C3D8E9"/>
<path d="M50.6955 110.202C52.5357 110.347 54.3772 109.936 55.9797 109.021C57.5822 108.106 58.8715 106.731 59.6791 105.073C60.4868 103.416 60.7755 101.554 60.5075 99.7305C60.2395 97.9069 59.4272 96.2064 58.1768 94.8506C56.9263 93.4948 55.2956 92.5468 53.4974 92.1302C51.6993 91.7136 49.8171 91.8478 48.0964 92.5152C46.3758 93.1827 44.8966 94.3524 43.8517 95.8718C42.8068 97.3912 42.2449 99.1898 42.2391 101.033C42.1905 102.19 42.3706 103.344 42.7694 104.431C43.1682 105.519 43.7778 106.516 44.5632 107.368C45.3487 108.22 46.2947 108.908 47.3469 109.394C48.3992 109.881 49.537 110.155 50.6955 110.202V110.202Z" fill="#689DC7"/>
<path d="M50.1249 110.202C51.9651 110.347 53.8065 109.936 55.4091 109.021C57.0116 108.106 58.3007 106.731 59.1084 105.073C59.916 103.416 60.2047 101.554 59.9367 99.7305C59.6687 97.9069 58.8566 96.2064 57.6062 94.8506C56.3557 93.4948 54.725 92.5468 52.9268 92.1302C51.1286 91.7136 49.2465 91.8478 47.5258 92.5152C45.8052 93.1827 44.3259 94.3524 43.2811 95.8718C42.2362 97.3912 41.6741 99.1898 41.6684 101.033C41.6197 102.19 41.8 103.344 42.1988 104.431C42.5976 105.519 43.2071 106.516 43.9926 107.368C44.778 108.22 45.7239 108.908 46.7761 109.394C47.8284 109.881 48.9664 110.155 50.1249 110.202V110.202Z" fill="white"/>
<path d="M55.3129 95.8528L55.7799 95.3348L55.261 95.9046L55.3129 95.8528Z" fill="#689DC7"/>
<path d="M45.3518 95.8528L44.8331 95.283L45.3518 95.801V95.8528Z" fill="#689DC7"/>
<path d="M55.313 99.3234L50.5399 100.618C50.4241 100.654 50.3268 100.734 50.2687 100.84C50.2106 100.947 50.1962 101.071 50.2287 101.188C50.2342 101.248 50.2529 101.306 50.2831 101.358C50.3134 101.41 50.3545 101.455 50.4039 101.49C50.4533 101.524 50.5097 101.547 50.5691 101.558C50.6284 101.569 50.6892 101.566 50.7475 101.551V101.551L55.313 99.6861V99.3234Z" fill="#EB856E"/>
<path d="M50.1249 102.017C50.2476 102.01 50.3678 101.98 50.4786 101.927C50.5893 101.874 50.6886 101.799 50.7705 101.708C50.8525 101.616 50.9154 101.51 50.9559 101.394C50.9965 101.278 51.0139 101.155 51.0069 101.033C51.0073 100.794 50.9159 100.565 50.7518 100.391C50.5878 100.218 50.3634 100.114 50.1249 100.1C50.0045 100.1 49.8855 100.125 49.775 100.172C49.6644 100.22 49.5647 100.289 49.4821 100.376C49.3994 100.464 49.3357 100.567 49.2946 100.68C49.2535 100.793 49.2357 100.913 49.2428 101.033C49.2281 101.157 49.24 101.283 49.2777 101.402C49.3153 101.521 49.3781 101.631 49.4615 101.724C49.5449 101.817 49.6471 101.891 49.7615 101.942C49.8759 101.992 49.9998 102.018 50.1249 102.017V102.017Z" fill="#21B9E5"/>
<path d="M37.3623 118.49C38.2962 118.49 39.0743 120.613 39.0743 123.255C39.0743 125.897 38.2962 128.021 37.3623 128.021H33.9901V118.49H37.3623Z" fill="#EF9F7D"/>
<path d="M32.278 123.255C32.278 125.897 33.0563 128.021 33.9901 128.021C34.924 128.021 35.7021 125.897 35.7021 123.255C35.7021 120.613 34.924 118.49 33.9901 118.49C33.0563 118.49 32.278 120.613 32.278 123.255Z" fill="white"/>
<path d="M32.278 123.255C32.278 120.613 33.0563 118.438 33.9901 118.438C34.924 118.438 35.7021 120.613 35.7021 123.255C35.7021 125.897 34.924 128.073 33.9901 128.073C33.0563 128.073 32.278 125.897 32.278 123.255ZM32.278 123.255C32.278 125.845 33.0043 128.021 33.9382 128.021C34.872 128.021 35.5984 125.845 35.5984 123.255C35.5984 120.665 34.872 118.49 33.9382 118.49C33.0043 118.49 32.3299 120.613 32.3299 123.255H32.278Z" fill="black"/>
<path d="M28.0238 117.816H31.4479L33.16 123.255L31.4479 128.642H28.0238L26.3118 123.255L28.0238 117.816Z" fill="#F5F9FB"/>
<path d="M36.8954 123.255H33.16L31.4479 117.816H35.1833L36.8954 123.255Z" fill="#F7D5C3"/>
<path d="M35.1833 128.642H31.4479L33.16 123.255H36.8954L35.1833 128.642Z" fill="#F2B99B"/>
<path d="M18.9966 118.8V127.71H29.9433C30.8771 127.71 31.7073 126.363 31.9667 124.498C31.9937 124.084 31.9937 123.669 31.9667 123.255C31.9667 120.769 31.0329 118.8 29.8915 118.8H18.9966Z" fill="#F2B297"/>
<path d="M16.7139 123.255C16.6257 124.676 17.0286 126.084 17.8552 127.244C17.9605 127.393 18.1004 127.516 18.2629 127.6C18.4255 127.684 18.6059 127.728 18.789 127.728C18.9722 127.728 19.1528 127.684 19.3153 127.6C19.4779 127.516 19.6177 127.393 19.723 127.244C20.3453 126.454 20.7238 125.5 20.8125 124.498C20.8394 124.084 20.8394 123.669 20.8125 123.255C20.9001 121.818 20.4978 120.394 19.6711 119.215C19.4178 118.972 19.0874 118.825 18.7373 118.8C18.3848 118.816 18.0512 118.964 17.8033 119.215C16.9949 120.401 16.6111 121.824 16.7139 123.255V123.255Z" fill="#F5F9FB"/>
<path d="M17.129 123.255C17.1013 123.479 17.1013 123.705 17.129 123.929C17.129 125.897 18.0109 127.244 18.7373 127.244C19.4636 127.244 20.1899 125.897 20.3455 123.929V123.255C20.3455 120.976 19.5155 119.215 18.7373 119.215C17.959 119.215 17.129 120.976 17.129 123.255Z" fill="#EF9F7D"/>
<path d="M18.9966 127.71H29.9433C30.8771 127.71 31.7073 126.363 31.9667 124.498H21.02C20.5531 126.363 19.7229 127.71 18.9966 127.71Z" fill="#EF9F7D"/>
<path d="M69.0612 127.71H76.3245C77.2583 127.71 78.0885 126.363 78.3479 124.498H70.047L69.0612 127.71Z" fill="#EF9F7D"/>
<path d="M45.4037 111.393V115.123C45.4037 115.433 46.0263 115.641 47.012 115.796C47.0085 114.941 47.3262 114.115 47.9024 113.482C48.4787 112.849 49.2717 112.455 50.1249 112.377H51.5256V111.445H50.3842H45.1962L45.4037 111.393Z" fill="#EF9F7D"/>
<path opacity="0.15" d="M36.8435 103.675C37.2892 105.666 38.3597 107.463 39.8994 108.805C41.439 110.146 43.3674 110.962 45.4038 111.134H50.5918C48.7425 111.169 46.9286 110.625 45.4038 109.58C43.3953 108.154 41.9608 106.06 41.3571 103.675H36.8435Z" fill="#21B9E5"/>
<path opacity="0.15" d="M36.4803 139.054V148.845C36.4803 149.984 40.3714 150.968 45.6113 151.227V147.653C45.6112 147.295 45.6828 146.94 45.8216 146.61C45.9604 146.28 46.1637 145.981 46.4197 145.73C46.6758 145.479 46.9794 145.282 47.3127 145.15C47.646 145.017 48.0023 144.953 48.361 144.96V144.96C51.1798 145.001 53.9957 144.758 56.7656 144.234C58.9446 143.82 60.2416 143.198 60.2416 142.525V139.106C52.3552 140.142 44.3667 140.142 36.4803 139.106V139.054Z" fill="#21B9E5"/>
<path opacity="0.5" d="M38.7111 150.295C40.9739 150.837 43.2857 151.149 45.6113 151.227H48.361C51.1798 151.269 53.9957 151.026 56.7656 150.502L58.0107 150.243V154.957L56.8693 155.216C54.0959 155.714 51.2826 155.957 48.4647 155.941V155.941C47.8631 155.941 47.2845 156.172 46.8496 156.587C46.4146 157.002 46.1569 157.569 46.1302 158.169L45.5594 189.767C42.1872 189.404 39.8007 188.524 39.8007 187.488L38.9187 154.957V152.833L38.7111 150.295Z" fill="#97A1B7"/>
<path opacity="0.25" d="M55.0017 139.624V198.314C56.7458 198.165 58.4787 197.906 60.1897 197.537V139.054C58.4741 139.353 56.7413 139.543 55.0017 139.624V139.624Z" fill="white"/>
<path opacity="0.25" d="M38.5555 139.365V197.951C41.8062 198.378 45.0822 198.586 48.361 198.573H51.0069V139.831H48.361C45.0864 139.856 41.8129 139.7 38.5555 139.365Z" fill="white"/>
<path opacity="0.25" d="M34.5607 208.933V211.575C34.5727 215.033 35.877 218.363 38.2184 220.911C40.5598 223.46 43.7697 225.044 47.2196 225.354V210.694C44.3381 210.681 41.4609 210.473 38.6074 210.073C37.199 209.949 35.8264 209.562 34.5607 208.933V208.933Z" fill="#21B9E5"/>
<path opacity="0.5" d="M34.0938 196.294V208.415C34.1073 208.524 34.1473 208.629 34.2107 208.719C34.274 208.81 34.3586 208.883 34.457 208.933C35.7227 209.562 37.0953 209.949 38.5037 210.073C41.3571 210.473 44.2344 210.681 47.1159 210.694V198.573C44.2356 198.529 41.3602 198.322 38.5037 197.951C35.8059 197.537 34.0938 196.915 34.0938 196.294Z" fill="#21B9E5"/>
<path d="M127.064 208.881L127.064 37.0594H132.252C133.105 37.0594 133.923 37.3977 134.526 38C135.129 38.6023 135.468 39.4193 135.468 40.271V208.881H126.96H127.064Z" fill="#C3D8E9"/>
<path d="M127.017 111.053L124.621 112.174L135.492 135.347L137.888 134.226L127.017 111.053Z" fill="#B06B5D"/>
<path d="M142.272 116.48L119.065 127.339L120.188 129.731L143.395 118.872L142.272 116.48Z" fill="#B06B5D"/>
<path d="M116.428 123.255C116.428 120.335 117.295 117.481 118.92 115.053C120.545 112.625 122.854 110.733 125.556 109.616C128.257 108.498 131.23 108.206 134.099 108.776C136.967 109.345 139.602 110.751 141.669 112.816C143.737 114.881 145.145 117.511 145.716 120.375C146.286 123.239 145.994 126.207 144.875 128.905C143.755 131.602 141.86 133.908 139.429 135.53C136.997 137.152 134.138 138.018 131.214 138.018C127.297 138.005 123.544 136.445 120.774 133.679C118.004 130.914 116.442 127.166 116.428 123.255V123.255ZM120.423 123.255C120.423 125.399 121.06 127.494 122.254 129.275C123.448 131.057 125.144 132.444 127.129 133.262C129.113 134.08 131.296 134.291 133.4 133.87C135.505 133.448 137.437 132.411 138.952 130.892C140.466 129.373 141.494 127.439 141.907 125.335C142.319 123.232 142.097 121.054 141.269 119.076C140.44 117.099 139.042 115.412 137.252 114.228C135.462 113.045 133.361 112.419 131.214 112.429C129.793 112.429 128.385 112.709 127.072 113.254C125.76 113.799 124.568 114.597 123.565 115.603C122.562 116.609 121.769 117.803 121.229 119.116C120.69 120.429 120.416 121.836 120.423 123.255V123.255Z" fill="#EB8E7C"/>
<path d="M128.361 123.255C128.361 124.011 128.661 124.735 129.196 125.27C129.732 125.804 130.457 126.104 131.214 126.104C131.589 126.104 131.96 126.031 132.306 125.887C132.652 125.744 132.967 125.534 133.232 125.27C133.497 125.005 133.707 124.691 133.85 124.345C133.994 124 134.067 123.629 134.067 123.255C134.067 122.881 133.994 122.511 133.85 122.165C133.707 121.819 133.497 121.505 133.232 121.241C132.967 120.976 132.652 120.766 132.306 120.623C131.96 120.48 131.589 120.406 131.214 120.406C130.457 120.406 129.732 120.706 129.196 121.241C128.661 121.775 128.361 122.5 128.361 123.255V123.255Z" fill="#A4AEC9"/>
<path d="M129.606 123.255C129.606 123.573 129.7 123.883 129.877 124.147C130.054 124.411 130.305 124.617 130.599 124.739C130.893 124.86 131.216 124.892 131.528 124.83C131.84 124.768 132.126 124.615 132.351 124.391C132.576 124.166 132.729 123.88 132.791 123.568C132.854 123.257 132.822 122.934 132.7 122.641C132.578 122.347 132.372 122.096 132.108 121.92C131.843 121.744 131.532 121.649 131.214 121.649C130.788 121.649 130.378 121.819 130.077 122.12C129.775 122.421 129.606 122.829 129.606 123.255V123.255Z" fill="#C8CEDF"/>
</g>
<defs>
<clipPath id="clip0_116_360">
<rect width="349" height="246" fill="white" transform="translate(-203 -15)"/>
</clipPath>
</defs>
</svg>
