<svg width="238" height="280" viewBox="0 0 238 280" fill="none" xmlns="http://www.w3.org/2000/svg">
<path d="M206.618 233.538C206.375 268.582 195.592 302.083 176.614 326.751C157.635 351.419 131.999 365.258 105.281 365.258C78.5631 365.258 52.9263 351.419 33.9482 326.751C14.9702 302.083 4.1865 268.582 3.94336 233.538C3.94336 117.462 105.277 -36 105.277 -36C105.277 -36 206.618 117.462 206.618 233.538Z" fill="#58CBEC"/>
<ellipse cx="104.73" cy="73.6846" rx="20.3777" ry="20.3936" fill="white"/>
<g clip-path="url(#clip0_116_4896)">
<path d="M114.126 76.1538L113.74 80.6845L112.055 100.637L110.722 116.456L109.962 125.506C109.962 131.261 107.44 135.924 104.323 135.924C102.769 135.924 101.36 134.755 100.346 132.87C99.207 130.586 98.6399 128.059 98.694 125.506L98.1101 116.456L95.775 80.6845L95.5106 76.6058C95.5664 74.9059 96.0894 73.2544 97.0222 71.8327C97.9549 70.4111 99.2614 69.2744 100.798 68.5475C101.882 67.9521 103.087 67.6128 104.323 67.5554C106.506 67.6926 108.608 68.4371 110.392 69.705C111.5 70.3853 112.422 71.331 113.074 72.4568C113.726 73.5826 114.087 74.8532 114.126 76.1538Z" fill="#BDAEA7"/>
<path d="M114.126 76.1538L113.74 80.6845H95.775L95.5106 76.6058C95.5664 74.9059 96.0894 73.2544 97.0222 71.8327C97.9549 70.4111 99.2614 69.2744 100.798 68.5475C101.882 67.9521 103.087 67.6128 104.323 67.5554C106.506 67.6926 108.608 68.4371 110.392 69.705C111.5 70.3853 112.422 71.3309 113.074 72.4568C113.726 73.5826 114.087 74.8532 114.126 76.1538Z" fill="#41D4FF"/>
<g style="mix-blend-mode:screen" opacity="0.5">
<path d="M107.506 125.738C107.506 127.237 106.856 128.45 106.041 128.45C105.226 128.45 104.576 127.237 104.576 125.738V80.0011C104.576 73.3869 110.689 72.0861 111.185 80.6845L107.506 125.738Z" fill="white"/>
</g>
</g>
<path d="M32 224H183L193 258H19L32 224Z" fill="#25C0ED"/>
<path d="M36.2529 227H178.575L188 254H24L36.2529 227Z" fill="#53D5FB"/>
<defs>
<clipPath id="clip0_116_4896">
<rect width="18.7254" height="68.3462" fill="white" transform="translate(95.3674 67.6216)"/>
</clipPath>
</defs>
</svg>
