<svg width="438" height="265" viewBox="0 0 438 265" fill="none" xmlns="http://www.w3.org/2000/svg">
<g clip-path="url(#clip0_116_4908)">
<path d="M336.37 -100.79C334.59 -118.15 441.38 -138 441.38 -138H333.82C333.82 -138 293.99 -117.64 316.17 -88C338.35 -58.36 287.32 -44.15 225.03 -57.42C162.74 -70.69 164.26 -43.13 177.03 -25.83C189.8 -8.53 172.3 0.339996 172.3 0.339996H188.87C203.63 -19.13 182.93 -25.25 180.67 -38.8C178.41 -52.35 204.89 -52.57 230.42 -39.55C255.95 -26.53 328.17 -10.4 357.82 -42.06C387.47 -73.72 338.17 -83.43 336.37 -100.79Z" fill="white"/>
<path d="M196.35 264.3H164.98L171.98 3.31006H189.35L196.35 264.3Z" fill="#544E4D"/>
<path d="M189.35 3.31006H183.29L190.29 264.3H196.35L189.35 3.31006Z" fill="#3F3936"/>
<path d="M192.67 0.380005H168.67V4.78999H192.67V0.380005Z" fill="#AA9F9D"/>
<path d="M192.66 0.380005H188.87V4.78999H192.66V0.380005Z" fill="#8F8583"/>
<path d="M159.96 225.16H128.59L135.59 -35.84H152.96L159.96 225.16Z" fill="#544E4D"/>
<path d="M152.96 -35.84H146.9L153.9 225.16H159.96L152.96 -35.84Z" fill="#3F3936"/>
<path d="M283.82 -28.9399H215.83V236.06H283.82V-28.9399Z" fill="#7A716E"/>
<path d="M283.82 -28.9399H268.92V236.06H283.82V-28.9399Z" fill="#68615F"/>
<path d="M291.16 23.3201H208.48V29.6001H291.16V23.3201Z" fill="#AA9F9D"/>
<path d="M291.16 23.3201H283.82V29.6001H291.16V23.3201Z" fill="#8F8583"/>
<path d="M291.16 75.5701H208.48V81.8501H291.16V75.5701Z" fill="#AA9F9D"/>
<path d="M291.16 75.5701H283.82V81.8501H291.16V75.5701Z" fill="#8F8583"/>
<path d="M422.81 196.55H456.17" stroke="#544E4D" stroke-width="11" stroke-linejoin="round"/>
<path d="M422.81 226.19H456.17" stroke="#68615F" stroke-width="5" stroke-linejoin="round"/>
<path d="M422.81 243.38H456.17" stroke="#3F3936" stroke-width="8" stroke-linejoin="round"/>
<path d="M20.54 263.81V208.31H49.48" stroke="#3F3936" stroke-width="8" stroke-linejoin="round"/>
<path d="M2.5 263.81V226.7H47.44" stroke="#68615F" stroke-width="5" stroke-linejoin="round"/>
<path d="M79.53 66.47H68.64V112.77H79.53V66.47Z" fill="#3F3936"/>
<path d="M404.97 145.34H120.39V263.81H404.97V145.34Z" fill="#669622"/>
<path d="M404.97 145.34H120.39V152.99H404.97V145.34Z" fill="#9ACC52"/>
<path d="M201.08 125.36H39.7V263.81H201.08V125.36Z" fill="#78AF31"/>
<path d="M140.15 200.66H100.63V263.81H140.15V200.66Z" fill="#3F3936"/>
<path d="M80.42 215.08H59.69V249.4H80.42V215.08Z" fill="#57CCFF"/>
<path d="M79.42 216.07V248.39H60.69V216.07H79.42ZM81.42 214.07H58.69V250.39H81.42V214.07Z" fill="#F8ECE0"/>
<path d="M80.42 146.34H59.69V180.66H80.42V146.34Z" fill="#57CCFF"/>
<path d="M79.42 147.34V179.66H60.69V147.34H79.42ZM81.42 145.34H58.69V181.66H81.42V145.34Z" fill="#F8ECE0"/>
<path d="M130.75 146.34H110.02V180.66H130.75V146.34Z" fill="#57CCFF"/>
<path d="M129.75 147.34V179.66H111.02V147.34H129.75ZM131.75 145.34H109.02V181.66H131.75V145.34Z" fill="#F8ECE0"/>
<path d="M181.09 146.34H160.36V180.66H181.09V146.34Z" fill="#57CCFF"/>
<path d="M180.09 147.34V179.66H161.36V147.34H180.09ZM182.09 145.34H159.36V181.66H182.09V145.34Z" fill="#F8ECE0"/>
<path d="M181.09 215.08H160.36V249.4H181.09V215.08Z" fill="#57CCFF"/>
<path d="M180.09 216.07V248.39H161.36V216.07H180.09ZM182.09 214.07H159.36V250.39H182.09V214.07Z" fill="#F8ECE0"/>
<path d="M120.39 57.8799L39.7 125.36H120.39H201.07L120.39 57.8799Z" fill="#78AF31"/>
<path d="M120.39 57.8799L168.72 125.36H201.07L120.39 57.8799Z" fill="#669622"/>
<path d="M208.48 125.36H32.29V131.64H208.48V125.36Z" fill="#9ACC52"/>
<path d="M377.63 89.6201H305.94V172.75" stroke="#68615F" stroke-width="5" stroke-linejoin="round"/>
<path d="M377.63 69.79H341.48V175.89" stroke="#3F3936" stroke-width="8" stroke-linejoin="round"/>
<path d="M383.13 133.24H271.47V172.75" stroke="#544E4D" stroke-width="11" stroke-linejoin="round"/>
<path d="M437.71 -1.18994H369.72V263.81H437.71V-1.18994Z" fill="#7A716E"/>
<path d="M437.71 -1.18994H422.81V263.81H437.71V-1.18994Z" fill="#68615F"/>
<path d="M437.71 1.43994H369.72V7.71994H437.71V1.43994Z" fill="#7A716E"/>
<path d="M445.05 -1.18994H362.37V5.09006H445.05V-1.18994Z" fill="#AA9F9D"/>
<path d="M445.05 -1.18994H437.71V5.09006H445.05V-1.18994Z" fill="#8F8583"/>
<path d="M445.05 51.0701H362.37V57.3501H445.05V51.0701Z" fill="#AA9F9D"/>
<path d="M445.05 51.0701H437.71V57.3501H445.05V51.0701Z" fill="#8F8583"/>
<path d="M445.05 103.32H362.37V109.6H445.05V103.32Z" fill="#AA9F9D"/>
<path d="M445.05 103.32H437.71V109.6H445.05V103.32Z" fill="#8F8583"/>
<path d="M398.68 172.75H218.63V263.81H398.68V172.75Z" fill="#AA9F9D"/>
<path d="M407.5 172.75H209.82V179.03H407.5V172.75Z" fill="#C6BDBD"/>
<path d="M369.77 208.31H247.53V263.81H369.77V208.31Z" fill="#3F3936"/>
<path d="M362.42 186.9H254.88V200.45H362.42V186.9Z" fill="#57CCFF"/>
<path d="M361.43 187.9V199.45H255.89V187.9H361.43ZM363.43 185.9H253.89V201.45H363.43V185.9Z" fill="#F8ECE0"/>
</g>
<defs>
<clipPath id="clip0_116_4908">
<rect width="456.17" height="402.3" fill="white" transform="translate(0 -138)"/>
</clipPath>
</defs>
</svg>
