<svg width="259" height="280" viewBox="0 0 259 280" fill="none" xmlns="http://www.w3.org/2000/svg">
<g clip-path="url(#clip0_116_4348)">
<path d="M216.171 262.839V263.515H234.032V262.839H216.171Z" fill="#2B2D3C"/>
<path d="M227.402 246.834H235.144V242.768H227.402V246.834Z" fill="#2B2D3C"/>
<path d="M232.74 262.839H233.45V245.824H232.74V262.839Z" fill="#2B2D3C"/>
<path d="M230.525 262.839H231.235V245.824H230.525V262.839Z" fill="#2B2D3C"/>
<path d="M228.301 262.839H229.011V245.824H228.301V262.839Z" fill="#2B2D3C"/>
<path d="M207.002 162.837V163.016H211.835V162.837H207.002Z" fill="#2B2D3C"/>
<path d="M210.038 158.502H212.134V157.402H210.038V158.502Z" fill="#2B2D3C"/>
<path d="M211.484 162.837H211.672V158.233H211.484V162.837Z" fill="#2B2D3C"/>
<path d="M210.894 162.837H211.082V158.233H210.894V162.837Z" fill="#2B2D3C"/>
<path d="M210.286 162.837H210.475V158.233H210.286V162.837Z" fill="#2B2D3C"/>
<path d="M207.002 133.461V133.64H211.835V133.461H207.002Z" fill="#2B2D3C"/>
<path d="M210.038 129.134H212.134V128.034H210.038V129.134Z" fill="#2B2D3C"/>
<path d="M211.484 133.461H211.672V128.857H211.484V133.461Z" fill="#2B2D3C"/>
<path d="M210.894 133.461H211.082V128.857H210.894V133.461Z" fill="#2B2D3C"/>
<path d="M210.286 133.461H210.475V128.857H210.286V133.461Z" fill="#2B2D3C"/>
<path d="M207.002 104.084V104.264H211.835V104.084H207.002Z" fill="#2B2D3C"/>
<path d="M210.038 99.7491H212.134V98.6491H210.038V99.7491Z" fill="#2B2D3C"/>
<path d="M211.484 104.076H211.672V99.4721H211.484V104.076Z" fill="#2B2D3C"/>
<path d="M210.894 104.076H211.082V99.4721H210.894V104.076Z" fill="#2B2D3C"/>
<path d="M210.286 104.076H210.475V99.4721H210.286V104.076Z" fill="#2B2D3C"/>
<path d="M207.002 74.6999V74.8792H211.835V74.6999H207.002Z" fill="#2B2D3C"/>
<path d="M210.038 70.3728H212.134V69.2727H210.038V70.3728Z" fill="#2B2D3C"/>
<path d="M211.484 74.6998H211.672V70.0958H211.484V74.6998Z" fill="#2B2D3C"/>
<path d="M210.894 74.6998H211.082V70.0958H210.894V74.6998Z" fill="#2B2D3C"/>
<path d="M210.286 74.6998H210.475V70.0958H210.286V74.6998Z" fill="#2B2D3C"/>
<path d="M117.068 0H68.089H19.1189L-0.332344 18.5303L68.089 20.0378L136.519 18.5303L117.068 0Z" fill="#56618F"/>
<path d="M35.6361 26.9236H-13.334H-62.3128L-81.7554 42.4714L-13.334 43.7345L55.0873 42.4714L35.6361 26.9236Z" fill="#56618F"/>
<path d="M198.012 26.9316H149.033H100.063L80.6117 42.4713L149.033 43.7344L217.463 42.4713L198.012 26.9316Z" fill="#56618F"/>
<path d="M123.586 49.0231L213.032 49.0231V46.6192L123.586 46.6192V49.0231Z" fill="#FA99A0"/>
<path d="M123.586 47.2629L217.454 47.2629V42.4633L123.586 42.4633V47.2629Z" fill="#2B2D3C"/>
<path d="M131.318 173.536H210.081L210.081 49.023L131.318 49.023V173.536Z" fill="#C8CEDF"/>
<path d="M186.421 152.749V163.342H195.831V152.749C195.824 151.843 195.525 150.961 194.975 150.223C194.917 150.129 194.851 150.039 194.778 149.954C194.354 149.446 193.819 149.033 193.211 148.742C192.602 148.45 191.935 148.288 191.254 148.267H190.921C189.728 148.302 188.593 148.768 187.747 149.571C187.621 149.692 187.501 149.82 187.388 149.954C187.318 150.039 187.256 150.129 187.2 150.223C186.674 150.968 186.402 151.851 186.421 152.749V152.749Z" fill="#2B2D3C"/>
<path d="M186.421 153.947H195.856V153.474H186.421V153.947Z" fill="#FEDEDD"/>
<path d="M186.421 163.31H195.856V162.837H186.421V163.31Z" fill="#FEDEDD"/>
<path d="M165.978 152.749V163.342H175.387V152.749C175.381 151.843 175.082 150.961 174.532 150.223C174.473 150.129 174.407 150.039 174.335 149.954C173.912 149.446 173.377 149.031 172.768 148.74C172.16 148.449 171.492 148.287 170.811 148.267H170.477C169.285 148.304 168.151 148.77 167.304 149.571L166.945 149.954C166.885 150.035 166.816 150.125 166.756 150.223C166.23 150.968 165.959 151.851 165.978 152.749V152.749Z" fill="#2B2D3C"/>
<path d="M165.987 153.947H175.421V153.474H165.987V153.947Z" fill="#FEDEDD"/>
<path d="M165.987 163.31H175.421V162.837H165.987V163.31Z" fill="#FEDEDD"/>
<path d="M145.543 152.749V163.342H154.952V152.749C154.949 151.843 154.65 150.96 154.097 150.223C154.037 150.125 153.969 150.035 153.909 149.954C153.483 149.445 152.947 149.031 152.337 148.74C151.727 148.449 151.058 148.287 150.376 148.267H150.051C148.857 148.301 147.722 148.767 146.878 149.571C146.751 149.692 146.631 149.82 146.518 149.954C146.446 150.039 146.38 150.129 146.322 150.223C145.799 150.97 145.527 151.851 145.543 152.749V152.749Z" fill="#2B2D3C"/>
<path d="M145.535 153.947H154.969V153.474H145.535V153.947Z" fill="#FEDEDD"/>
<path d="M145.535 163.31H154.969V162.837H145.535V163.31Z" fill="#FEDEDD"/>
<path d="M186.421 123.079V133.672H195.831V123.079C195.824 122.173 195.525 121.292 194.975 120.553C194.917 120.459 194.851 120.369 194.778 120.284C194.353 119.777 193.819 119.363 193.211 119.07C192.602 118.778 191.935 118.614 191.254 118.589H190.921C189.727 118.631 188.594 119.099 187.747 119.901C187.621 120.023 187.501 120.151 187.388 120.284C187.318 120.369 187.256 120.459 187.2 120.553C186.674 121.299 186.402 122.181 186.421 123.079V123.079Z" fill="#2B2D3C"/>
<path d="M186.421 124.269H195.856V123.796H186.421V124.269Z" fill="#FEDEDD"/>
<path d="M186.421 133.64H195.856V133.167H186.421V133.64Z" fill="#FEDEDD"/>
<path d="M165.978 123.079V133.672H175.387V123.079C175.381 122.173 175.082 121.292 174.532 120.553C174.473 120.459 174.407 120.369 174.335 120.284C173.911 119.776 173.376 119.361 172.768 119.069C172.159 118.776 171.492 118.613 170.811 118.589H170.477C169.284 118.632 168.152 119.1 167.304 119.901L166.945 120.284C166.885 120.366 166.816 120.455 166.756 120.553C166.23 121.299 165.959 122.181 165.978 123.079V123.079Z" fill="#2B2D3C"/>
<path d="M165.987 124.269H175.421V123.796H165.987V124.269Z" fill="#FEDEDD"/>
<path d="M165.987 133.64H175.421V133.167H165.987V133.64Z" fill="#FEDEDD"/>
<path d="M145.543 123.079V133.672H154.952V123.079C154.949 122.173 154.65 121.29 154.097 120.553C154.037 120.455 153.969 120.366 153.909 120.284C153.482 119.776 152.946 119.362 152.336 119.069C151.727 118.777 151.058 118.613 150.376 118.589H150.051C148.857 118.629 147.724 119.098 146.878 119.901C146.751 120.023 146.631 120.151 146.518 120.284C146.446 120.369 146.38 120.459 146.322 120.553C145.799 121.3 145.527 122.181 145.543 123.079V123.079Z" fill="#2B2D3C"/>
<path d="M145.535 124.269H154.969V123.796H145.535V124.269Z" fill="#FEDEDD"/>
<path d="M145.535 133.64H154.969V133.167H145.535V133.64Z" fill="#FEDEDD"/>
<path d="M186.421 93.4013V103.995H195.831V93.4013C195.823 92.4958 195.525 91.6142 194.975 90.8751C194.915 90.785 194.849 90.6979 194.778 90.6144C194.356 90.1047 193.822 89.689 193.213 89.3962C192.604 89.1035 191.936 88.9408 191.254 88.9194H190.921C189.727 88.9577 188.592 89.4267 187.747 90.2314C187.619 90.3512 187.499 90.4792 187.388 90.6144C187.32 90.698 187.258 90.7851 187.2 90.8751C186.675 91.6213 186.403 92.5031 186.421 93.4013V93.4013Z" fill="#2B2D3C"/>
<path d="M186.421 94.5909H195.856V94.1183H186.421V94.5909Z" fill="#FEDEDD"/>
<path d="M186.421 103.97H195.856V103.498H186.421V103.97Z" fill="#FEDEDD"/>
<path d="M165.978 93.4013V103.995H175.387V93.4013C175.38 92.4958 175.081 91.6142 174.532 90.8751C174.471 90.785 174.405 90.6979 174.335 90.6144C173.913 90.1038 173.379 89.6875 172.77 89.3947C172.161 89.1019 171.493 88.9397 170.811 88.9194H170.477C169.284 88.9594 168.15 89.428 167.304 90.2314C167.184 90.3536 167.064 90.4758 166.945 90.6144L166.756 90.8751C166.231 91.6213 165.96 92.5031 165.978 93.4013V93.4013Z" fill="#2B2D3C"/>
<path d="M165.987 94.5909H175.421V94.1183H165.987V94.5909Z" fill="#FEDEDD"/>
<path d="M165.987 103.97H175.421V103.498H165.987V103.97Z" fill="#FEDEDD"/>
<path d="M145.543 93.4013V103.995H154.952V93.4013C154.948 92.4952 154.649 91.6127 154.097 90.8751L153.909 90.6144C153.485 90.1036 152.949 89.6873 152.339 89.3945C151.729 89.1018 151.059 88.9396 150.376 88.9194H150.051C148.856 88.9561 147.722 89.4253 146.878 90.2314C146.749 90.3512 146.629 90.4792 146.518 90.6144C146.448 90.6979 146.382 90.785 146.322 90.8751C145.8 91.6227 145.528 92.5036 145.543 93.4013V93.4013Z" fill="#2B2D3C"/>
<path d="M145.535 94.5909H154.969V94.1183H145.535V94.5909Z" fill="#FEDEDD"/>
<path d="M145.535 103.97H154.969V103.498H145.535V103.97Z" fill="#FEDEDD"/>
<path d="M186.421 63.7316V74.325H195.831V63.7316C195.823 62.8261 195.525 61.9445 194.975 61.2055C194.917 61.1114 194.851 61.0215 194.778 60.9365C194.354 60.4292 193.819 60.0156 193.211 59.7244C192.602 59.4331 191.935 59.2712 191.254 59.2498H190.921C189.726 59.284 188.59 59.7535 187.747 60.5617C187.619 60.6787 187.499 60.804 187.388 60.9365C187.319 61.0217 187.256 61.1115 187.2 61.2055C186.675 61.9516 186.403 62.8335 186.421 63.7316V63.7316Z" fill="#2B2D3C"/>
<path d="M186.421 64.9213H195.856V64.4486H186.421V64.9213Z" fill="#FEDEDD"/>
<path d="M186.421 74.2924H195.856V73.8197H186.421V74.2924Z" fill="#FEDEDD"/>
<path d="M165.978 63.7316V74.325H175.387V63.7316C175.38 62.8261 175.081 61.9445 174.532 61.2055C174.473 61.1114 174.407 61.0215 174.335 60.9365C173.912 60.4283 173.377 60.0142 172.768 59.7229C172.16 59.4316 171.492 59.2701 170.811 59.2498H170.477C169.283 59.2856 168.147 59.7549 167.304 60.5617C167.184 60.6758 167.064 60.8062 166.945 60.9365C166.825 61.0669 166.816 61.1077 166.756 61.2055C166.231 61.9516 165.96 62.8335 165.978 63.7316Z" fill="#2B2D3C"/>
<path d="M165.987 64.9213H175.421V64.4486H165.987V64.9213Z" fill="#FEDEDD"/>
<path d="M165.987 74.2924H175.421V73.8197H165.987V74.2924Z" fill="#FEDEDD"/>
<path d="M145.543 63.7316V74.325H154.952V63.7316C154.948 62.8256 154.649 61.9431 154.097 61.2055C154.037 61.1077 153.969 61.018 153.909 60.9365C153.483 60.4281 152.947 60.0139 152.337 59.7227C151.727 59.4314 151.058 59.27 150.376 59.2498H150.051C148.855 59.2823 147.719 59.7521 146.878 60.5617C146.749 60.6787 146.629 60.804 146.518 60.9365C146.446 61.0215 146.38 61.1114 146.322 61.2055C145.8 61.953 145.528 62.8339 145.543 63.7316Z" fill="#2B2D3C"/>
<path d="M145.535 64.9213H154.969V64.4486H145.535V64.9213Z" fill="#FEDEDD"/>
<path d="M145.535 74.2924H154.969V73.8197H145.535V74.2924Z" fill="#FEDEDD"/>
<path d="M12.1048 46.6273H-77.3417V49.0312H12.1048V46.6273Z" fill="#FA99A0"/>
<path d="M12.1133 42.4633H-81.7554V47.2629H12.1133V42.4633Z" fill="#2B2D3C"/>
<path d="M4.86831 49.0231H-74.3821V173.536H4.86831V49.0231Z" fill="#C8CEDF"/>
<path d="M12.1133 178.222H-91.3527V278.24H12.1133V178.222Z" fill="#C8CEDF"/>
<path d="M227.539 178.222H124.073V278.24H227.539V178.222Z" fill="#C8CEDF"/>
<path d="M131.327 20.0378H4.86831V169.209H131.327V20.0378Z" fill="#DBF4FC"/>
<path d="M136.51 186.175H-0.323799V192.678H136.51V186.175Z" fill="#FA99A0"/>
<path d="M115.289 192.678H20.898V278.232H115.289V192.678Z" fill="#C8CEDF"/>
<path d="M104.194 195.522H31.9837V278.232H104.194V195.522Z" fill="#FEDEDD"/>
<path d="M43.3003 198.618H35.5848V212.007H43.3003V198.618Z" fill="#2B2D3C"/>
<path d="M87.3863 198.618H48.8003V212.007H87.3863V198.618Z" fill="#2B2D3C"/>
<path d="M43.3003 216.293H35.5848V270.735H43.3003V216.293Z" fill="#2B2D3C"/>
<path d="M100.696 198.618H92.9804V212.007H100.696V198.618Z" fill="#2B2D3C"/>
<path d="M100.696 216.293H92.9804V270.735H100.696V216.293Z" fill="#2B2D3C"/>
<path d="M87.3863 216.293H48.8003V278.232H87.3863V216.293Z" fill="#B74E50"/>
<path d="M83.9391 219.569H52.256V270.743H83.9391V219.569Z" fill="#2B2D3C"/>
<path d="M51.1184 243.909C51.1184 244.04 51.0778 244.167 51.0016 244.276C50.9255 244.384 50.8173 244.469 50.6907 244.519C50.5641 244.569 50.4248 244.582 50.2904 244.556C50.156 244.531 50.0325 244.468 49.9356 244.376C49.8387 244.283 49.7727 244.166 49.746 244.038C49.7193 243.91 49.733 243.777 49.7854 243.656C49.8379 243.536 49.9267 243.433 50.0406 243.36C50.1546 243.288 50.2885 243.249 50.4255 243.249C50.6093 243.249 50.7855 243.319 50.9155 243.442C51.0454 243.566 51.1184 243.734 51.1184 243.909V243.909Z" fill="white"/>
<path d="M51.1184 249.141C51.1184 249.271 51.0778 249.399 51.0016 249.507C50.9255 249.616 50.8173 249.7 50.6907 249.75C50.5641 249.8 50.4248 249.813 50.2904 249.788C50.156 249.763 50.0325 249.7 49.9356 249.607C49.8387 249.515 49.7727 249.397 49.746 249.269C49.7193 249.141 49.733 249.009 49.7854 248.888C49.8379 248.767 49.9267 248.664 50.0406 248.592C50.1546 248.519 50.2885 248.481 50.4255 248.481C50.6093 248.481 50.7855 248.55 50.9155 248.674C51.0454 248.798 51.1184 248.966 51.1184 249.141V249.141Z" fill="white"/>
<path d="M50.7078 244.292H50.1604V249.149H50.7078V244.292Z" fill="white"/>
<g style="mix-blend-mode:screen" opacity="0.5">
<g style="mix-blend-mode:screen" opacity="0.5">
<path d="M83.9306 219.569V232.338L52.2561 255.244V234.171L72.4429 219.569H83.9306Z" fill="#2B2D3C"/>
</g>
<g style="mix-blend-mode:screen" opacity="0.5">
<path d="M35.5848 211.485L43.3088 205.911V212.007H35.5848V211.485Z" fill="#2B2D3C"/>
</g>
<g style="mix-blend-mode:screen" opacity="0.5">
<path d="M35.5848 216.293H43.3088V217.996L35.5848 223.586V216.293Z" fill="#2B2D3C"/>
</g>
<g style="mix-blend-mode:screen" opacity="0.5">
<path d="M70.1077 198.618L51.5974 212.007H48.8003V201.935L53.3851 198.618H70.1077Z" fill="#2B2D3C"/>
</g>
<g style="mix-blend-mode:screen" opacity="0.5">
<path d="M43.3088 198.618V199.107L35.5848 204.681V198.618H43.3088Z" fill="#2B2D3C"/>
</g>
<g style="mix-blend-mode:screen" opacity="0.5">
<path d="M100.696 208.348V212.007H95.6321L100.696 208.348Z" fill="#2B2D3C"/>
</g>
<g style="mix-blend-mode:screen" opacity="0.5">
<path d="M92.9804 216.293H100.696V220.449L92.9804 226.022V216.293Z" fill="#2B2D3C"/>
</g>
<g style="mix-blend-mode:screen" opacity="0.5">
<path d="M100.696 248.823V260.916L92.9804 266.497V254.405L100.696 248.823Z" fill="#2B2D3C"/>
</g>
<g style="mix-blend-mode:screen" opacity="0.5">
<path d="M43.3088 242.133V254.225L35.5848 259.807V247.714L43.3088 242.133Z" fill="#2B2D3C"/>
</g>
<g style="mix-blend-mode:screen" opacity="0.5">
<path d="M87.3863 198.618V206.873L80.2867 212.007H61.1519L79.6622 198.618H87.3863Z" fill="#2B2D3C"/>
</g>
<g style="mix-blend-mode:screen" opacity="0.5">
<path d="M83.9306 241.913V254.038L60.8355 270.743H52.2561V264.819L83.9306 241.913Z" fill="#2B2D3C"/>
</g>
</g>
<path d="M28.7333 169.209V143.948H32.4285V154.867H39.2715V143.948H42.9753V169.209H39.2715V157.377H32.4285V169.209H28.7333Z" fill="#414F7C"/>
<path d="M53.8813 169.486C52.3849 169.554 50.8999 169.209 49.6044 168.492C48.5229 167.813 47.7149 166.805 47.312 165.632C46.8239 164.229 46.5896 162.758 46.6191 161.281V151.706C46.5845 150.245 46.825 148.791 47.3291 147.411C47.7466 146.276 48.5544 145.308 49.6215 144.665C50.9246 143.97 52.407 143.64 53.8984 143.712C55.3923 143.636 56.8774 143.973 58.1753 144.682C59.2315 145.332 60.0317 146.298 60.4505 147.428C60.9557 148.801 61.1962 150.251 61.1605 151.706V161.313C61.1903 162.776 60.95 164.232 60.4505 165.616C60.0349 166.777 59.237 167.781 58.1753 168.476C56.8837 169.218 55.3868 169.57 53.8813 169.486V169.486ZM53.8813 166.708C54.6716 166.762 55.4581 166.561 56.1138 166.137C56.6352 165.718 56.9936 165.144 57.1317 164.507C57.3148 163.705 57.4009 162.884 57.3883 162.063V150.981C57.4047 150.159 57.3186 149.338 57.1317 148.536C56.9934 147.918 56.6335 147.364 56.1138 146.971C55.4495 146.568 54.6675 146.377 53.8813 146.425C53.0926 146.379 52.3085 146.57 51.6402 146.971C51.1128 147.359 50.7487 147.914 50.6137 148.536C50.4193 149.337 50.3302 150.158 50.3486 150.981V162.063C50.3342 162.885 50.4232 163.706 50.6137 164.507C50.7476 165.148 51.1104 165.724 51.6402 166.137C52.3002 166.559 53.0885 166.759 53.8813 166.708V166.708Z" fill="#414F7C"/>
<path d="M67.6699 169.209V146.556H63.1877V143.932H75.7275V146.556H71.3737V169.209H67.6699Z" fill="#414F7C"/>
<path d="M78.2851 169.209V143.948H88.5496V146.572H81.9632V154.933H87.3007V157.426H81.9632V166.699H88.6693V169.226L78.2851 169.209Z" fill="#414F7C"/>
<path d="M91.6204 169.209V143.948H95.3156V166.699H102.099V169.226L91.6204 169.209Z" fill="#414F7C"/>
<path d="M28.7333 169.209V143.948H34.6011V154.15H38.6813V143.948H44.5491V169.209H38.6813V158.143H34.6011V169.209H28.7333Z" fill="#414F7C"/>
<path d="M56.1651 169.559C54.8852 169.589 53.6102 169.399 52.4015 168.997C51.4327 168.682 50.5742 168.118 49.9209 167.367C49.2931 166.599 48.8414 165.713 48.595 164.768C48.3021 163.616 48.1641 162.433 48.1845 161.248V151.901C48.1632 150.713 48.3012 149.527 48.595 148.373C48.8398 147.432 49.2917 146.551 49.9209 145.789C50.5736 145.038 51.4323 144.474 52.4015 144.16C53.6124 143.768 54.8866 143.583 56.1651 143.614C59.0306 143.614 61.0921 144.306 62.3323 145.708C63.5726 147.11 64.1971 149.171 64.1971 151.917V161.24C64.1971 163.986 63.5726 166.055 62.3323 167.465C61.0921 168.875 59.0392 169.559 56.1651 169.559ZM55.3097 165.428C55.593 165.555 55.9036 165.616 56.2164 165.607C56.531 165.615 56.8434 165.556 57.1317 165.436C57.3646 165.34 57.5678 165.188 57.7219 164.996C57.8736 164.786 57.9837 164.551 58.0469 164.303C58.1204 164.036 58.1719 163.764 58.2009 163.489C58.2009 163.244 58.2009 162.943 58.2009 162.6V150.499C58.2009 150.165 58.2009 149.872 58.2009 149.619C58.1728 149.344 58.1213 149.072 58.0469 148.805C57.9856 148.561 57.8752 148.331 57.7219 148.128C57.5655 147.938 57.3629 147.787 57.1317 147.688C56.8434 147.568 56.531 147.51 56.2164 147.517C55.9046 147.51 55.595 147.568 55.3097 147.688C55.0852 147.79 54.8867 147.937 54.7281 148.12C54.5683 148.322 54.4599 148.556 54.4116 148.805C54.3397 149.072 54.2938 149.344 54.2747 149.619C54.2747 149.856 54.2747 150.149 54.2747 150.508V162.617C54.2747 162.975 54.2747 163.269 54.2747 163.505C54.2941 163.78 54.3399 164.053 54.4116 164.32C54.465 164.569 54.5728 164.805 54.7281 165.012C54.8885 165.189 55.0868 165.331 55.3097 165.428V165.428Z" fill="#414F7C"/>
<path d="M70.1676 169.209V148.071H66.0874V143.948H80.0643V148.071H76.0355V169.209H70.1676Z" fill="#414F7C"/>
<path d="M82.3396 169.209V143.948H94.2549V147.754H88.1903V154.004H92.8179V157.923H88.1903V165.461H94.3148V169.242L82.3396 169.209Z" fill="#414F7C"/>
<path d="M96.975 169.209V143.948H102.826V165.428H108.907V169.209H96.975Z" fill="#414F7C"/>
<g opacity="0.5">
<g style="mix-blend-mode:screen">
<path d="M39.9643 167.987V156.929H33.3181V167.987H30.0163V145.171H33.3181V155.381H39.9643V145.171H43.2661V167.987H39.9643Z" fill="#414F7C"/>
</g>
<g style="mix-blend-mode:screen">
<path d="M56.1651 168.338C55.0377 168.365 53.9142 168.202 52.8463 167.857C52.0921 167.61 51.4254 167.167 50.9217 166.577C50.4054 165.944 50.0353 165.214 49.8354 164.434C49.5701 163.383 49.4464 162.304 49.4675 161.224V151.902C49.445 150.818 49.5686 149.736 49.8354 148.683C50.0336 147.908 50.404 147.183 50.9217 146.556C51.4242 145.969 52.0918 145.531 52.8463 145.293C53.9148 144.951 55.0383 144.791 56.1651 144.82C58.6286 144.82 60.3736 145.374 61.3487 146.45C62.3238 147.526 62.914 149.432 62.914 151.869V161.191C62.914 163.636 62.3837 165.453 61.3487 166.626C60.3137 167.8 58.6371 168.338 56.1651 168.338ZM56.1651 146.336C55.6567 146.326 55.1529 146.429 54.6939 146.637C54.2974 146.819 53.9471 147.08 53.6674 147.403C53.4 147.745 53.2106 148.137 53.1114 148.552C53.0252 148.881 52.9679 149.217 52.9404 149.555C52.9404 149.807 52.9404 150.125 52.9404 150.516V162.625C52.9404 163.016 52.9404 163.334 52.9404 163.595C52.9679 163.936 53.0251 164.274 53.1114 164.605C53.2114 165.017 53.3976 165.405 53.6589 165.746C53.9318 166.085 54.2792 166.363 54.6768 166.561C55.1412 166.772 55.6506 166.878 56.1651 166.871C56.6723 166.878 57.1748 166.778 57.6364 166.577C58.0539 166.392 58.4179 166.112 58.697 165.763C58.9521 165.431 59.1353 165.054 59.2359 164.654C59.3329 164.324 59.3959 163.986 59.4241 163.644C59.4241 163.367 59.4669 163.033 59.4669 162.65V150.5C59.4669 150.125 59.4669 149.799 59.4241 149.522C59.3974 149.18 59.3344 148.842 59.2359 148.512C59.1287 148.115 58.9429 147.742 58.6885 147.412C58.4101 147.061 58.0459 146.782 57.6278 146.597C57.1684 146.4 56.6684 146.306 56.1651 146.32V146.336Z" fill="#414F7C"/>
</g>
<g style="mix-blend-mode:screen">
<path d="M71.4507 167.987V146.857H67.3791V145.171H78.7898V146.857H74.761V167.987H71.4507Z" fill="#414F7C"/>
</g>
<g style="mix-blend-mode:screen">
<path d="M83.6226 167.987V145.171H92.9719V146.532H86.9158V155.226H91.5348V156.669H86.9158V166.651H93.0403V167.987H83.6226Z" fill="#414F7C"/>
</g>
<g style="mix-blend-mode:screen">
<path d="M98.2581 167.987V145.171H101.543V166.651H107.624V167.987H98.2581Z" fill="#414F7C"/>
</g>
</g>
<g style="mix-blend-mode:multiply" opacity="0.5">
<path d="M131.327 111.532H4.86831V114.547H131.327V111.532Z" fill="#DBF4FC"/>
</g>
<g style="mix-blend-mode:multiply" opacity="0.5">
<path d="M131.327 81.0396H4.86831V84.0546H131.327V81.0396Z" fill="#DBF4FC"/>
</g>
<g style="mix-blend-mode:multiply" opacity="0.5">
<path d="M131.327 50.5387H4.86831V53.5537H131.327V50.5387Z" fill="#DBF4FC"/>
</g>
<path d="M135.339 110.017H0.839514C0.192313 110.017 -0.332344 110.516 -0.332344 111.133V111.923C-0.332344 112.54 0.192313 113.04 0.839514 113.04H135.339C135.986 113.04 136.51 112.54 136.51 111.923V111.133C136.51 110.516 135.986 110.017 135.339 110.017Z" fill="#FEDEDD"/>
<path d="M26.3981 123.218V133.811H16.989V123.218C16.9932 122.312 17.2921 121.429 17.8443 120.692C17.9021 120.599 17.9649 120.509 18.0325 120.423C18.4568 119.915 18.9916 119.502 19.6001 119.21C20.2085 118.919 20.8761 118.757 21.5567 118.736H21.8903C23.0848 118.773 24.2197 119.242 25.0637 120.048C25.1902 120.167 25.3101 120.292 25.423 120.423C25.4934 120.509 25.559 120.599 25.6197 120.692C26.1417 121.439 26.4131 122.32 26.3981 123.218Z" fill="#2B2D3C"/>
<path d="M26.4066 123.935H16.9719V124.407H26.4066V123.935Z" fill="#FEDEDD"/>
<path d="M26.4066 133.306H16.9719V133.778H26.4066V133.306Z" fill="#FEDEDD"/>
<path d="M44.9597 123.218V133.811H35.5506V123.218C35.5549 122.312 35.8537 121.429 36.406 120.692C36.4637 120.599 36.5265 120.509 36.5941 120.423C37.0184 119.915 37.5533 119.502 38.1617 119.21C38.7702 118.919 39.4377 118.757 40.1183 118.736H40.4519C41.6464 118.773 42.7813 119.242 43.6253 120.048C43.7518 120.167 43.8717 120.292 43.9846 120.423C44.055 120.509 44.1207 120.599 44.1813 120.692C44.7033 121.439 44.9747 122.32 44.9597 123.218Z" fill="#2B2D3C"/>
<path d="M44.9683 123.935H35.5335V124.407H44.9683V123.935Z" fill="#FEDEDD"/>
<path d="M44.9683 133.306H35.5335V133.778H44.9683V133.306Z" fill="#FEDEDD"/>
<path d="M63.5213 123.218V133.811H54.1122V123.218C54.1165 122.312 54.4153 121.429 54.9676 120.692C55.0275 120.594 55.0959 120.512 55.1558 120.423C55.5801 119.915 56.1149 119.502 56.7234 119.21C57.3318 118.919 57.9994 118.757 58.6799 118.736H59.0135C60.208 118.773 61.3429 119.242 62.187 120.048C62.3134 120.167 62.4334 120.292 62.5462 120.423C62.6166 120.509 62.6823 120.599 62.743 120.692C63.265 121.439 63.5364 122.32 63.5213 123.218V123.218Z" fill="#2B2D3C"/>
<path d="M63.5299 123.935H54.0951V124.407H63.5299V123.935Z" fill="#FEDEDD"/>
<path d="M63.5299 133.306H54.0951V133.778H63.5299V133.306Z" fill="#FEDEDD"/>
<path d="M82.0829 123.218V133.811H72.6738V123.218C72.6781 122.312 72.9769 121.429 73.5292 120.692C73.5891 120.594 73.6575 120.512 73.7174 120.423C74.1426 119.914 74.6788 119.5 75.2888 119.209C75.8988 118.917 76.5681 118.756 77.2501 118.736H77.5495C78.744 118.773 79.8789 119.242 80.7229 120.048C80.8494 120.167 80.9693 120.292 81.0822 120.423C81.1526 120.509 81.2182 120.599 81.2789 120.692C81.8099 121.436 82.0904 122.317 82.0829 123.218V123.218Z" fill="#2B2D3C"/>
<path d="M82.0915 123.935H72.6567V124.407H82.0915V123.935Z" fill="#FEDEDD"/>
<path d="M82.0915 133.306H72.6567V133.778H82.0915V133.306Z" fill="#FEDEDD"/>
<path d="M100.645 123.218V133.811H91.2355V123.218C91.2431 122.312 91.5416 121.431 92.0908 120.692C92.1515 120.599 92.2172 120.509 92.2876 120.423C92.7111 119.914 93.2457 119.5 93.8544 119.209C94.463 118.918 95.1309 118.756 95.8117 118.736H96.1453C97.337 118.774 98.4688 119.243 99.3102 120.048C99.4367 120.167 99.5566 120.292 99.6694 120.423C99.7399 120.509 99.8055 120.599 99.8662 120.692C100.388 121.439 100.66 122.32 100.645 123.218V123.218Z" fill="#2B2D3C"/>
<path d="M100.653 123.935H91.2184V124.407H100.653V123.935Z" fill="#FEDEDD"/>
<path d="M100.653 133.306H91.2184V133.778H100.653V133.306Z" fill="#FEDEDD"/>
<path d="M119.206 123.218V133.811H109.797V123.218C109.805 122.312 110.103 121.431 110.652 120.692C110.713 120.599 110.779 120.509 110.849 120.423C111.273 119.914 111.807 119.5 112.416 119.209C113.025 118.918 113.693 118.756 114.373 118.736H114.707C115.901 118.776 117.034 119.244 117.88 120.048L118.24 120.423C118.299 120.512 118.368 120.594 118.428 120.692C118.95 121.439 119.221 122.32 119.206 123.218Z" fill="#2B2D3C"/>
<path d="M119.215 123.935H109.78V124.407H119.215V123.935Z" fill="#FEDEDD"/>
<path d="M119.215 133.306H109.78V133.778H119.215V133.306Z" fill="#FEDEDD"/>
<path d="M135.339 79.5239H0.839514C0.192313 79.5239 -0.332344 80.0237 -0.332344 80.6403V81.4307C-0.332344 82.0473 0.192313 82.5471 0.839514 82.5471H135.339C135.986 82.5471 136.51 82.0473 136.51 81.4307V80.6403C136.51 80.0237 135.986 79.5239 135.339 79.5239Z" fill="#FEDEDD"/>
<path d="M26.3981 92.733V103.326H16.989V92.733C16.9921 91.8268 17.291 90.944 17.8443 90.2069C17.9001 90.113 17.963 90.0231 18.0325 89.938C18.4575 89.4307 18.9923 89.0168 19.6005 88.7243C20.2087 88.4318 20.8759 88.2676 21.5567 88.243H21.8903C23.084 88.283 24.2177 88.7517 25.0637 89.555C25.1903 89.6767 25.3102 89.8045 25.423 89.938C25.4953 90.0229 25.5611 90.1128 25.6197 90.2069C26.1427 90.954 26.4142 91.8352 26.3981 92.733V92.733Z" fill="#2B2D3C"/>
<path d="M26.4066 93.442H16.9719V93.9146H26.4066V93.442Z" fill="#FEDEDD"/>
<path d="M26.4066 102.813H16.9719V103.286H26.4066V102.813Z" fill="#FEDEDD"/>
<path d="M44.9597 92.733V103.326H35.5506V92.733C35.5537 91.8268 35.8527 90.944 36.406 90.2069C36.4617 90.113 36.5246 90.0231 36.5941 89.938C37.0191 89.4307 37.554 89.0168 38.1621 88.7243C38.7703 88.4318 39.4375 88.2676 40.1183 88.243H40.4519C41.6456 88.283 42.7793 88.7517 43.6253 89.555C43.7519 89.6767 43.8718 89.8045 43.9846 89.938C44.057 90.0229 44.1227 90.1128 44.1813 90.2069C44.7043 90.954 44.9758 91.8352 44.9597 92.733V92.733Z" fill="#2B2D3C"/>
<path d="M44.9683 93.442H35.5335V93.9146H44.9683V93.442Z" fill="#FEDEDD"/>
<path d="M44.9683 102.813H35.5335V103.286H44.9683V102.813Z" fill="#FEDEDD"/>
<path d="M63.5213 92.733V103.326H54.1122V92.733C54.1154 91.8268 54.4143 90.944 54.9676 90.2069C55.0275 90.1091 55.0959 90.0195 55.1558 89.938C55.5808 89.4307 56.1156 89.0168 56.7238 88.7243C57.3319 88.4318 57.9991 88.2676 58.6799 88.243H59.0135C60.2073 88.283 61.341 88.7517 62.187 89.555C62.3135 89.6767 62.4334 89.8045 62.5462 89.938C62.6186 90.0229 62.6844 90.1128 62.743 90.2069C63.2659 90.954 63.5375 91.8352 63.5213 92.733V92.733Z" fill="#2B2D3C"/>
<path d="M63.5299 93.442H54.0951V93.9146H63.5299V93.442Z" fill="#FEDEDD"/>
<path d="M63.5299 102.813H54.0951V103.286H63.5299V102.813Z" fill="#FEDEDD"/>
<path d="M82.0829 92.733V103.326H72.6738V92.733C72.677 91.8268 72.9759 90.944 73.5292 90.2069C73.5891 90.1091 73.6575 90.0195 73.7174 89.938C74.1437 89.4301 74.68 89.0158 75.2896 88.7233C75.8993 88.4308 76.5679 88.267 77.2501 88.243H77.5495C78.7432 88.283 79.8769 88.7517 80.7229 89.555C80.8494 89.6767 80.9694 89.8045 81.0822 89.938C81.1545 90.0229 81.2203 90.1128 81.2789 90.2069C81.8109 90.9512 82.0915 91.8326 82.0829 92.733V92.733Z" fill="#2B2D3C"/>
<path d="M82.0915 93.442H72.6567V93.9146H82.0915V93.442Z" fill="#FEDEDD"/>
<path d="M82.0915 102.813H72.6567V103.286H82.0915V102.813Z" fill="#FEDEDD"/>
<path d="M100.645 92.733V103.326H91.2355V92.733C91.242 91.8273 91.5406 90.9455 92.0908 90.2069C92.1494 90.1128 92.2152 90.0229 92.2876 89.938C92.7118 89.4299 93.2465 89.0154 93.8548 88.7228C94.4631 88.4302 95.1307 88.2666 95.8117 88.243H96.1453C97.3361 88.285 98.4663 88.7535 99.3102 89.555C99.4368 89.6767 99.5566 89.8045 99.6694 89.938C99.7418 90.0229 99.8076 90.1128 99.8662 90.2069C100.389 90.954 100.661 91.8352 100.645 92.733V92.733Z" fill="#2B2D3C"/>
<path d="M100.653 93.442H91.2184V93.9146H100.653V93.442Z" fill="#FEDEDD"/>
<path d="M100.653 102.813H91.2184V103.286H100.653V102.813Z" fill="#FEDEDD"/>
<path d="M119.206 92.733V103.326H109.797V92.733C109.804 91.8273 110.102 90.9455 110.652 90.2069C110.711 90.1128 110.777 90.0229 110.849 89.938C111.273 89.4299 111.808 89.0154 112.416 88.7228C113.025 88.4302 113.692 88.2666 114.373 88.243H114.707C115.9 88.2861 117.032 88.7544 117.88 89.555L118.24 89.938C118.299 90.0195 118.368 90.1091 118.428 90.2069C118.951 90.954 119.222 91.8352 119.206 92.733V92.733Z" fill="#2B2D3C"/>
<path d="M119.215 93.442H109.78V93.9146H119.215V93.442Z" fill="#FEDEDD"/>
<path d="M119.215 102.813H109.78V103.286H119.215V102.813Z" fill="#FEDEDD"/>
<path d="M135.339 49.0231H0.839514C0.192313 49.0231 -0.332344 49.5229 -0.332344 50.1395V50.9299C-0.332344 51.5464 0.192313 52.0463 0.839514 52.0463H135.339C135.986 52.0463 136.51 51.5464 136.51 50.9299V50.1395C136.51 49.5229 135.986 49.0231 135.339 49.0231Z" fill="#FEDEDD"/>
<path d="M26.3981 62.2322V72.8256H16.989V62.2322C16.992 61.3235 17.2909 60.438 17.8443 59.6979C17.9021 59.6078 17.9649 59.5208 18.0325 59.4371C18.4564 58.9287 18.9909 58.5138 19.5993 58.2212C20.2077 57.9286 20.8755 57.7652 21.5567 57.7422H21.8903C23.0848 57.7789 24.2197 58.2481 25.0637 59.0541C25.1923 59.174 25.3124 59.3019 25.423 59.4371C25.4933 59.5207 25.559 59.6077 25.6197 59.6979C26.1429 60.4479 26.4143 61.3318 26.3981 62.2322V62.2322Z" fill="#2B2D3C"/>
<path d="M26.4066 62.9412H16.9719V63.4138H26.4066V62.9412Z" fill="#FEDEDD"/>
<path d="M26.4066 72.3203H16.9719V72.7929H26.4066V72.3203Z" fill="#FEDEDD"/>
<path d="M44.9597 62.2322V72.8256H35.5506V62.2322C35.5537 61.3235 35.8525 60.438 36.406 59.6979C36.4637 59.6078 36.5266 59.5208 36.5941 59.4371C37.018 58.9287 37.5525 58.5138 38.161 58.2212C38.7694 57.9286 39.4372 57.7652 40.1183 57.7422H40.4519C41.6464 57.7789 42.7813 58.2481 43.6253 59.0541C43.754 59.174 43.874 59.3019 43.9846 59.4371C44.055 59.5207 44.1206 59.6077 44.1813 59.6979C44.7045 60.4479 44.9759 61.3318 44.9597 62.2322V62.2322Z" fill="#2B2D3C"/>
<path d="M44.9683 62.9412H35.5335V63.4138H44.9683V62.9412Z" fill="#FEDEDD"/>
<path d="M44.9683 72.3203H35.5335V72.7929H44.9683V72.3203Z" fill="#FEDEDD"/>
<path d="M63.5213 62.2322V72.8256H54.1122V62.2322C54.1153 61.3235 54.4142 60.438 54.9676 59.6979L55.1558 59.4371C55.5796 58.9287 56.1142 58.5138 56.7226 58.2212C57.331 57.9286 57.9988 57.7652 58.6799 57.7422H59.0135C60.208 57.7789 61.3429 58.2481 62.187 59.0541C62.3156 59.174 62.4356 59.3019 62.5462 59.4371C62.6166 59.5207 62.6823 59.6077 62.743 59.6979C63.2661 60.4479 63.5376 61.3318 63.5213 62.2322V62.2322Z" fill="#2B2D3C"/>
<path d="M63.5299 62.9412H54.0951V63.4138H63.5299V62.9412Z" fill="#FEDEDD"/>
<path d="M63.5299 72.3203H54.0951V72.7929H63.5299V72.3203Z" fill="#FEDEDD"/>
<path d="M82.0829 62.2322V72.8256H72.6738V62.2322C72.6769 61.3235 72.9758 60.438 73.5292 59.6979L73.7174 59.4371C74.1422 58.9276 74.6781 58.5122 75.288 58.2195C75.898 57.9269 76.5675 57.764 77.2501 57.7422H77.5495C78.744 57.7789 79.8789 58.2481 80.7229 59.0541C80.8515 59.174 80.9716 59.3019 81.0822 59.4371C81.1525 59.5207 81.2182 59.6077 81.2789 59.6979C81.8111 60.4451 82.0916 61.3292 82.0829 62.2322Z" fill="#2B2D3C"/>
<path d="M82.0915 62.9412H72.6567V63.4138H82.0915V62.9412Z" fill="#FEDEDD"/>
<path d="M82.0915 72.3203H72.6567V72.7929H82.0915V72.3203Z" fill="#FEDEDD"/>
<path d="M100.645 62.2322V72.8256H91.2355V62.2322C91.2419 61.324 91.5404 60.4395 92.0908 59.6979C92.1515 59.6077 92.2172 59.5207 92.2876 59.4371C92.7106 58.9279 93.245 58.5124 93.8536 58.2197C94.4622 57.927 95.1304 57.7641 95.8117 57.7422H96.1453C97.337 57.7801 98.4688 58.2493 99.3102 59.0541C99.4388 59.174 99.5588 59.3019 99.6694 59.4371C99.7398 59.5207 99.8055 59.6077 99.8662 59.6979C100.389 60.4479 100.661 61.3318 100.645 62.2322V62.2322Z" fill="#2B2D3C"/>
<path d="M100.653 62.9412H91.2184V63.4138H100.653V62.9412Z" fill="#FEDEDD"/>
<path d="M100.653 72.3203H91.2184V72.7929H100.653V72.3203Z" fill="#FEDEDD"/>
<path d="M119.206 62.2322V72.8256H109.797V62.2322C109.803 61.324 110.102 60.4395 110.652 59.6979C110.713 59.6077 110.779 59.5207 110.849 59.4371C111.272 58.9279 111.807 58.5124 112.415 58.2197C113.024 57.927 113.692 57.7641 114.373 57.7422H114.707C115.901 57.7821 117.034 58.2508 117.88 59.0541C118 59.1764 118.12 59.2986 118.24 59.4371L118.428 59.6979C118.951 60.4479 119.222 61.3318 119.206 62.2322V62.2322Z" fill="#2B2D3C"/>
<path d="M119.215 62.9412H109.78V63.4138H119.215V62.9412Z" fill="#FEDEDD"/>
<path d="M119.215 72.3203H109.78V72.7929H119.215V72.3203Z" fill="#FEDEDD"/>
<path d="M136.51 18.5303H-0.332344V21.5535H136.51V18.5303Z" fill="#2B2D3C"/>
<path d="M26.3981 31.7313V42.3247H16.989V31.7313C16.9932 30.8253 17.2921 29.9428 17.8443 29.2052C17.9001 29.1113 17.963 29.0214 18.0325 28.9363C18.4568 28.4289 18.9916 28.0153 19.6001 27.7241C20.2085 27.4329 20.8761 27.271 21.5567 27.2495H21.8903C23.0857 27.2821 24.2222 27.7519 25.0637 28.5615C25.1922 28.6785 25.3123 28.8037 25.423 28.9363C25.4953 29.0212 25.5611 29.1111 25.6197 29.2052C26.1417 29.9527 26.4131 30.8336 26.3981 31.7313V31.7313Z" fill="#2B2D3C"/>
<path d="M26.4066 32.4484H16.9719V32.921H26.4066V32.4484Z" fill="#FEDEDD"/>
<path d="M26.4066 41.8195H16.9719V42.2921H26.4066V41.8195Z" fill="#FEDEDD"/>
<path d="M44.9597 31.7313V42.3247H35.5506V31.7313C35.5549 30.8253 35.8537 29.9428 36.406 29.2052C36.4617 29.1113 36.5246 29.0214 36.5941 28.9363C37.0184 28.4289 37.5533 28.0153 38.1617 27.7241C38.7702 27.4329 39.4377 27.271 40.1183 27.2495H40.4519C41.6474 27.2821 42.7838 27.7519 43.6253 28.5615C43.7539 28.6785 43.8739 28.8037 43.9846 28.9363C44.057 29.0212 44.1227 29.1111 44.1813 29.2052C44.7033 29.9527 44.9747 30.8336 44.9597 31.7313V31.7313Z" fill="#2B2D3C"/>
<path d="M44.9683 32.4484H35.5335V32.921H44.9683V32.4484Z" fill="#FEDEDD"/>
<path d="M44.9683 41.8195H35.5335V42.2921H44.9683V41.8195Z" fill="#FEDEDD"/>
<path d="M63.5213 31.7313V42.3247H54.1122V31.7313C54.1165 30.8253 54.4153 29.9428 54.9676 29.2052C55.0275 29.1074 55.0959 29.0178 55.1558 28.9363C55.5801 28.4289 56.1149 28.0153 56.7234 27.7241C57.3318 27.4329 57.9994 27.271 58.6799 27.2495H59.0135C60.209 27.2821 61.3454 27.7519 62.187 28.5615C62.3155 28.6785 62.4355 28.8037 62.5462 28.9363C62.6186 29.0212 62.6844 29.1111 62.743 29.2052C63.265 29.9527 63.5364 30.8336 63.5213 31.7313V31.7313Z" fill="#2B2D3C"/>
<path d="M63.5299 32.4484H54.0951V32.921H63.5299V32.4484Z" fill="#FEDEDD"/>
<path d="M63.5299 41.8195H54.0951V42.2921H63.5299V41.8195Z" fill="#FEDEDD"/>
<path d="M82.0829 31.7313V42.3247H72.6738V31.7313C72.6781 30.8253 72.9769 29.9428 73.5292 29.2052C73.5891 29.1074 73.6575 29.0178 73.7174 28.9363C74.1426 28.4279 74.6788 28.0137 75.2888 27.7224C75.8988 27.4312 76.5681 27.2698 77.2501 27.2495H77.5495C78.7449 27.2821 79.8814 27.7519 80.7229 28.5615C80.8514 28.6785 80.9715 28.8037 81.0822 28.9363C81.1545 29.0212 81.2203 29.1111 81.2789 29.2052C81.8099 29.9499 82.0904 30.831 82.0829 31.7313Z" fill="#2B2D3C"/>
<path d="M82.0915 32.4484H72.6567V32.921H82.0915V32.4484Z" fill="#FEDEDD"/>
<path d="M82.0915 41.8195H72.6567V42.2921H82.0915V41.8195Z" fill="#FEDEDD"/>
<path d="M100.645 31.7313V42.3247H91.2355V31.7313C91.2431 30.8258 91.5416 29.9443 92.0908 29.2052C92.1494 29.1111 92.2152 29.0212 92.2876 28.9363C92.7111 28.4281 93.2457 28.0139 93.8544 27.7226C94.463 27.4313 95.1309 27.2699 95.8117 27.2495H96.1453C97.3378 27.2841 98.4708 27.7538 99.3102 28.5615C99.4387 28.6785 99.5588 28.8037 99.6694 28.9363C99.7418 29.0212 99.8076 29.1111 99.8662 29.2052C100.388 29.9527 100.66 30.8336 100.645 31.7313Z" fill="#2B2D3C"/>
<path d="M100.653 32.4484H91.2184V32.921H100.653V32.4484Z" fill="#FEDEDD"/>
<path d="M100.653 41.8195H91.2184V42.2921H100.653V41.8195Z" fill="#FEDEDD"/>
<path d="M119.206 31.7313V42.3247H109.797V31.7313C109.805 30.8258 110.103 29.9443 110.652 29.2052C110.711 29.1111 110.777 29.0212 110.849 28.9363C111.273 28.4281 111.807 28.0139 112.416 27.7226C113.025 27.4313 113.693 27.2699 114.373 27.2495H114.707C115.902 27.2854 117.037 27.7547 117.88 28.5615C118 28.6755 118.12 28.8059 118.24 28.9363C118.359 29.0667 118.368 29.1074 118.428 29.2052C118.95 29.9527 119.221 30.8336 119.206 31.7313Z" fill="#2B2D3C"/>
<path d="M119.215 32.4484H109.78V32.921H119.215V32.4484Z" fill="#FEDEDD"/>
<path d="M119.215 41.8195H109.78V42.2921H119.215V41.8195Z" fill="#FEDEDD"/>
<g style="mix-blend-mode:multiply" opacity="0.3">
<path d="M227.539 178.89H141.403V181.294H227.539V178.89Z" fill="#C8CEDF"/>
</g>
<path d="M230.85 177.692H141.403V180.096H230.85V177.692Z" fill="#FA99A0"/>
<path d="M234.288 173.536H140.419V178.336H234.288V173.536Z" fill="#FEDEDD"/>
<path d="M174.104 263.515H141.557V226.789C141.557 222.682 143.269 218.744 146.317 215.841C149.365 212.937 153.499 211.306 157.809 211.306V211.306C162.12 211.306 166.253 212.937 169.301 215.841C172.349 218.744 174.061 222.682 174.061 226.789L174.104 263.515Z" fill="#FEDEDD"/>
<path d="M143.73 260.598V227.579C143.732 224.018 145.218 220.603 147.861 218.085C150.504 215.567 154.088 214.152 157.826 214.15V214.15C161.567 214.15 165.155 215.565 167.8 218.085C170.445 220.605 171.931 224.023 171.931 227.587V260.598H143.73Z" fill="#2B2D3C"/>
<path d="M151.129 214.688H149.589V262.774H151.129V214.688Z" fill="#FEDEDD"/>
<path d="M166.962 215.339H165.422V262.773H166.962V215.339Z" fill="#FEDEDD"/>
<path d="M171.931 222.796H142.986V225.061H171.931V222.796Z" fill="#FEDEDD"/>
<path d="M216.163 263.515H183.616V226.789C183.616 222.682 185.328 218.744 188.376 215.841C191.424 212.937 195.558 211.306 199.868 211.306V211.306C204.178 211.306 208.312 212.937 211.36 215.841C214.408 218.744 216.12 222.682 216.12 226.789L216.163 263.515Z" fill="#FEDEDD"/>
<path d="M185.789 260.598V227.579C185.791 224.021 187.274 220.609 189.914 218.091C192.553 215.574 196.133 214.156 199.868 214.15C203.608 214.152 207.195 215.568 209.839 218.088C212.484 220.607 213.971 224.024 213.973 227.587V260.598H185.789Z" fill="#2B2D3C"/>
<path d="M193.196 214.688H191.656V262.774H193.196V214.688Z" fill="#FEDEDD"/>
<path d="M209.029 215.339H207.489V262.773H209.029V215.339Z" fill="#FEDEDD"/>
<path d="M214.341 222.796H185.789V225.061H214.341V222.796Z" fill="#FEDEDD"/>
<g style="mix-blend-mode:multiply" opacity="0.5">
<path d="M136.51 186.175H-0.323799V188.579H136.51V186.175Z" fill="#DBF4FC"/>
</g>
<path d="M144.825 169.209H-8.64658V186.175H144.825V169.209Z" fill="#FEDEDD"/>
<g style="mix-blend-mode:multiply">
<path d="M47.6456 177.326V176.804L44.4722 176.723L43.1891 174.058L41.7521 176.649L38.553 176.56V177.081L40.7598 179.257L40.2637 181.604L40.1354 181.701V182.223L42.9838 180.887L45.7552 182.378V181.848L45.6697 181.783L45.3104 179.379L47.6456 177.326Z" fill="#FEDEDD"/>
</g>
<path d="M44.5149 176.291L47.6456 176.804L45.3104 178.857L45.7552 181.848L42.9838 180.365L40.1354 181.701L40.7598 178.735L38.553 176.559L41.7093 176.209L43.1891 173.536L44.5149 176.291Z" fill="#56618F"/>
<g style="mix-blend-mode:multiply">
<path d="M60.1426 177.326V176.804L56.9692 176.723L55.6861 174.058L54.2491 176.649L51.05 176.56V177.081L53.2568 179.257L52.7607 181.604L52.6324 181.701V182.223L55.4808 180.887L58.2522 182.378V181.848L58.1667 181.783L57.8074 179.379L60.1426 177.326Z" fill="#FEDEDD"/>
</g>
<path d="M57.0119 176.291L60.1426 176.804L57.8074 178.857L58.2522 181.848L55.4808 180.365L52.6324 181.701L53.2568 178.735L51.05 176.559L54.2063 176.209L55.6861 173.536L57.0119 176.291Z" fill="#56618F"/>
<g style="mix-blend-mode:multiply">
<path d="M72.6396 177.326V176.804L69.4662 176.723L68.1831 174.058L66.7461 176.649L63.547 176.56V177.081L65.7539 179.257L65.2577 181.604L65.1294 181.701V182.223L67.9778 180.887L70.7492 182.378V181.848L70.6637 181.783L70.3044 179.379L72.6396 177.326Z" fill="#FEDEDD"/>
</g>
<path d="M69.509 176.291L72.6396 176.804L70.3044 178.857L70.7492 181.848L67.9778 180.365L65.1294 181.701L65.7539 178.735L63.547 176.559L66.7033 176.209L68.1831 173.536L69.509 176.291Z" fill="#56618F"/>
<g style="mix-blend-mode:multiply">
<path d="M85.1366 177.326V176.804L81.9632 176.723L80.6801 174.058L79.2431 176.649L76.044 176.56V177.081L78.2509 179.257L77.7548 181.604L77.6265 181.701V182.223L80.4748 180.887L83.2463 182.378V181.848L83.1607 181.783L82.8015 179.379L85.1366 177.326Z" fill="#FEDEDD"/>
</g>
<path d="M82.006 176.291L85.1366 176.804L82.8015 178.857L83.2463 181.848L80.4748 180.365L77.6265 181.701L78.2509 178.735L76.044 176.559L79.2003 176.209L80.6801 173.536L82.006 176.291Z" fill="#56618F"/>
<g style="mix-blend-mode:multiply">
<path d="M97.6336 177.326V176.804L94.4602 176.723L93.1771 174.058L91.7401 176.649L88.541 176.56V177.081L90.7479 179.257L90.2518 181.604L90.1235 181.701V182.223L92.9718 180.887L95.7433 182.378V181.848L95.6577 181.783L95.2985 179.379L97.6336 177.326Z" fill="#FEDEDD"/>
</g>
<path d="M94.503 176.291L97.6336 176.804L95.2985 178.857L95.7433 181.848L92.9718 180.365L90.1235 181.701L90.7479 178.735L88.541 176.559L91.6973 176.209L93.1771 173.536L94.503 176.291Z" fill="#56618F"/>
<g style="mix-blend-mode:multiply" opacity="0.3">
<path d="M168.801 52.8367H163.592C163.034 52.8367 162.582 53.2672 162.582 53.7982V54.4746C162.582 55.0056 163.034 55.4361 163.592 55.4361H168.801C169.358 55.4361 169.81 55.0056 169.81 54.4746V53.7982C169.81 53.2672 169.358 52.8367 168.801 52.8367Z" fill="#C8CEDF"/>
</g>
<g style="mix-blend-mode:multiply" opacity="0.3">
<path d="M178.218 52.8367H173.009C172.452 52.8367 172 53.2672 172 53.7982V54.4746C172 55.0056 172.452 55.4361 173.009 55.4361H178.218C178.776 55.4361 179.228 55.0056 179.228 54.4746V53.7982C179.228 53.2672 178.776 52.8367 178.218 52.8367Z" fill="#C8CEDF"/>
</g>
<g style="mix-blend-mode:multiply" opacity="0.3">
<path d="M186.387 65.4753H181.178C180.621 65.4753 180.169 65.9058 180.169 66.4369V67.1132C180.169 67.6443 180.621 68.0748 181.178 68.0748H186.387C186.945 68.0748 187.397 67.6443 187.397 67.1132V66.4369C187.397 65.9058 186.945 65.4753 186.387 65.4753Z" fill="#C8CEDF"/>
</g>
<g style="mix-blend-mode:multiply" opacity="0.3">
<path d="M162.839 77.3807H157.63C157.072 77.3807 156.62 77.8112 156.62 78.3423V79.0186C156.62 79.5497 157.072 79.9802 157.63 79.9802H162.839C163.396 79.9802 163.848 79.5497 163.848 79.0186V78.3423C163.848 77.8112 163.396 77.3807 162.839 77.3807Z" fill="#C8CEDF"/>
</g>
<g style="mix-blend-mode:multiply" opacity="0.3">
<path d="M154.627 81.2433H149.418C148.861 81.2433 148.409 81.6738 148.409 82.2048V82.8812C148.409 83.4122 148.861 83.8427 149.418 83.8427H154.627C155.185 83.8427 155.637 83.4122 155.637 82.8812V82.2048C155.637 81.6738 155.185 81.2433 154.627 81.2433Z" fill="#C8CEDF"/>
</g>
<g style="mix-blend-mode:multiply" opacity="0.3">
<path d="M186.823 86.9392H181.614C181.057 86.9392 180.605 87.3697 180.605 87.9008V88.5771C180.605 89.1082 181.057 89.5387 181.614 89.5387H186.823C187.381 89.5387 187.833 89.1082 187.833 88.5771V87.9008C187.833 87.3697 187.381 86.9392 186.823 86.9392Z" fill="#C8CEDF"/>
</g>
<g style="mix-blend-mode:multiply" opacity="0.3">
<path d="M202.494 110.229H197.285C196.727 110.229 196.275 110.659 196.275 111.19V111.866C196.275 112.397 196.727 112.828 197.285 112.828H202.494C203.051 112.828 203.503 112.397 203.503 111.866V111.19C203.503 110.659 203.051 110.229 202.494 110.229Z" fill="#C8CEDF"/>
</g>
<g style="mix-blend-mode:multiply" opacity="0.3">
<path d="M168.27 108.933H163.061C162.504 108.933 162.052 109.363 162.052 109.894V110.571C162.052 111.102 162.504 111.532 163.061 111.532H168.27C168.828 111.532 169.28 111.102 169.28 110.571V109.894C169.28 109.363 168.828 108.933 168.27 108.933Z" fill="#C8CEDF"/>
</g>
<g style="mix-blend-mode:multiply" opacity="0.3">
<path d="M162.984 113.04H157.775C157.218 113.04 156.766 113.47 156.766 114.001V114.678C156.766 115.209 157.218 115.639 157.775 115.639H162.984C163.542 115.639 163.994 115.209 163.994 114.678V114.001C163.994 113.47 163.542 113.04 162.984 113.04Z" fill="#C8CEDF"/>
</g>
<g style="mix-blend-mode:multiply" opacity="0.3">
<path d="M168.27 138.937H163.061C162.504 138.937 162.052 139.367 162.052 139.898V140.575C162.052 141.106 162.504 141.536 163.061 141.536H168.27C168.828 141.536 169.28 141.106 169.28 140.575V139.898C169.28 139.367 168.828 138.937 168.27 138.937Z" fill="#C8CEDF"/>
</g>
<g style="mix-blend-mode:multiply" opacity="0.3">
<path d="M184.488 142.604H179.279C178.722 142.604 178.27 143.034 178.27 143.565V144.241C178.27 144.772 178.722 145.203 179.279 145.203H184.488C185.046 145.203 185.498 144.772 185.498 144.241V143.565C185.498 143.034 185.046 142.604 184.488 142.604Z" fill="#C8CEDF"/>
</g>
<g style="mix-blend-mode:multiply" opacity="0.3">
<path d="M200.929 167.123H195.719C195.162 167.123 194.71 167.554 194.71 168.085V168.761C194.71 169.292 195.162 169.723 195.719 169.723H200.929C201.486 169.723 201.938 169.292 201.938 168.761V168.085C201.938 167.554 201.486 167.123 200.929 167.123Z" fill="#C8CEDF"/>
</g>
<g style="mix-blend-mode:multiply" opacity="0.3">
<path d="M159.879 166.61H154.67C154.113 166.61 153.661 167.04 153.661 167.571V168.248C153.661 168.779 154.113 169.209 154.67 169.209H159.879C160.437 169.209 160.889 168.779 160.889 168.248V167.571C160.889 167.04 160.437 166.61 159.879 166.61Z" fill="#C8CEDF"/>
</g>
<g style="mix-blend-mode:multiply" opacity="0.3">
<path d="M7.41735 224.197H0.0867834C-0.702142 224.197 -1.34169 224.807 -1.34169 225.558V226.503C-1.34169 227.255 -0.702142 227.864 0.0867834 227.864H7.41735C8.20627 227.864 8.84582 227.255 8.84582 226.503V225.558C8.84582 224.807 8.20627 224.197 7.41735 224.197Z" fill="#C8CEDF"/>
</g>
<g style="mix-blend-mode:multiply" opacity="0.3">
<path d="M161.522 196.793H154.191C153.402 196.793 152.762 197.402 152.762 198.154V199.099C152.762 199.851 153.402 200.46 154.191 200.46H161.522C162.31 200.46 162.95 199.851 162.95 199.099V198.154C162.95 197.402 162.31 196.793 161.522 196.793Z" fill="#C8CEDF"/>
</g>
<g style="mix-blend-mode:multiply" opacity="0.3">
<path d="M169.092 190.852H161.761C160.972 190.852 160.333 191.462 160.333 192.213V193.159C160.333 193.91 160.972 194.519 161.761 194.519H169.092C169.881 194.519 170.52 193.91 170.52 193.159V192.213C170.52 191.462 169.881 190.852 169.092 190.852Z" fill="#C8CEDF"/>
</g>
<g style="mix-blend-mode:multiply" opacity="0.3">
<path d="M212.69 203.483H205.359C204.571 203.483 203.931 204.092 203.931 204.844V205.789C203.931 206.541 204.571 207.15 205.359 207.15H212.69C213.479 207.15 214.118 206.541 214.118 205.789V204.844C214.118 204.092 213.479 203.483 212.69 203.483Z" fill="#C8CEDF"/>
</g>
<g style="mix-blend-mode:multiply" opacity="0.3">
<path d="M185.925 267.076H178.595C177.806 267.076 177.166 267.685 177.166 268.437V269.382C177.166 270.134 177.806 270.743 178.595 270.743H185.925C186.714 270.743 187.354 270.134 187.354 269.382V268.437C187.354 267.685 186.714 267.076 185.925 267.076Z" fill="#C8CEDF"/>
</g>
<g style="mix-blend-mode:multiply" opacity="0.3">
<path d="M196.857 272.568H189.526C188.738 272.568 188.098 273.178 188.098 273.929V274.874C188.098 275.626 188.738 276.235 189.526 276.235H196.857C197.646 276.235 198.286 275.626 198.286 274.874V273.929C198.286 273.178 197.646 272.568 196.857 272.568Z" fill="#C8CEDF"/>
</g>
<path d="M20.898 192.678H4.86831V278.232H20.898V192.678Z" fill="#DBF4FC"/>
<path d="M131.318 192.678H115.289V278.232H131.318V192.678Z" fill="#DBF4FC"/>
<path d="M259 278.232H-116.492V280H259V278.232Z" fill="#2B2D3C"/>
<path d="M248.325 257.656H243.133V278.232H248.325V257.656Z" fill="#56618F"/>
<path d="M245.733 260.582V192.368" stroke="#56618F" stroke-width="1.01" stroke-miterlimit="10"/>
<path d="M237.436 203.483V198.3H254.022V203.483" stroke="#56618F" stroke-width="1.01" stroke-miterlimit="10"/>
<path d="M257.717 206.857C257.719 207.555 257.503 208.239 257.096 208.82C256.69 209.402 256.112 209.855 255.434 210.123C254.757 210.391 254.012 210.462 253.293 210.326C252.573 210.19 251.913 209.854 251.394 209.36C250.876 208.866 250.523 208.236 250.38 207.551C250.238 206.866 250.312 206.156 250.593 205.511C250.874 204.866 251.35 204.315 251.961 203.928C252.571 203.541 253.288 203.335 254.022 203.336C255.002 203.336 255.942 203.707 256.635 204.367C257.328 205.028 257.717 205.923 257.717 206.857Z" fill="#FEDEDD"/>
<g style="mix-blend-mode:screen" opacity="0.5">
<path d="M255.202 205.871C255.204 206.245 255.089 206.612 254.871 206.924C254.654 207.236 254.344 207.48 253.981 207.624C253.618 207.768 253.218 207.806 252.833 207.733C252.447 207.661 252.092 207.48 251.814 207.216C251.536 206.951 251.347 206.613 251.271 206.246C251.195 205.878 251.235 205.497 251.386 205.152C251.537 204.806 251.793 204.511 252.121 204.304C252.448 204.096 252.833 203.987 253.226 203.988C253.75 203.988 254.253 204.187 254.623 204.54C254.994 204.893 255.202 205.371 255.202 205.871Z" fill="#FEDEDD"/>
</g>
<g style="mix-blend-mode:multiply" opacity="0.5">
<path d="M257.725 206.857C257.725 207.604 257.476 208.331 257.014 208.935C256.552 209.538 255.9 209.987 255.154 210.215C254.407 210.443 253.604 210.44 252.859 210.205C252.115 209.971 251.467 209.517 251.011 208.91C251.564 209.288 252.215 209.514 252.894 209.562C253.573 209.609 254.252 209.478 254.857 209.181C255.462 208.884 255.97 208.434 256.323 207.88C256.677 207.326 256.863 206.69 256.862 206.042C256.862 205.304 256.617 204.585 256.16 203.988C256.644 204.311 257.039 204.74 257.312 205.24C257.584 205.739 257.726 206.294 257.725 206.857Z" fill="#FEDEDD"/>
</g>
<path d="M241.14 206.857C241.141 207.555 240.926 208.238 240.52 208.819C240.114 209.401 239.536 209.854 238.859 210.122C238.183 210.391 237.438 210.462 236.719 210.326C236 210.191 235.339 209.856 234.82 209.363C234.301 208.87 233.948 208.241 233.804 207.556C233.66 206.872 233.733 206.162 234.013 205.516C234.293 204.871 234.768 204.32 235.377 203.932C235.987 203.544 236.703 203.336 237.436 203.336C238.417 203.336 239.358 203.707 240.052 204.367C240.746 205.027 241.138 205.922 241.14 206.857Z" fill="#FEDEDD"/>
<g style="mix-blend-mode:screen" opacity="0.5">
<path d="M238.616 205.871C238.618 206.245 238.503 206.612 238.286 206.924C238.068 207.236 237.758 207.48 237.395 207.624C237.032 207.768 236.633 207.806 236.247 207.733C235.861 207.661 235.507 207.48 235.229 207.216C234.951 206.951 234.761 206.613 234.685 206.246C234.609 205.878 234.649 205.497 234.8 205.152C234.951 204.806 235.207 204.511 235.535 204.304C235.862 204.096 236.247 203.987 236.64 203.988C237.165 203.988 237.667 204.187 238.038 204.54C238.408 204.893 238.616 205.371 238.616 205.871Z" fill="#FEDEDD"/>
</g>
<g style="mix-blend-mode:multiply" opacity="0.5">
<path d="M241.14 206.857C241.139 207.604 240.89 208.331 240.428 208.935C239.966 209.538 239.315 209.987 238.568 210.215C237.821 210.443 237.018 210.44 236.273 210.205C235.529 209.971 234.882 209.517 234.425 208.91C234.978 209.288 235.63 209.514 236.308 209.562C236.987 209.609 237.666 209.478 238.271 209.181C238.877 208.884 239.384 208.434 239.738 207.88C240.091 207.326 240.278 206.69 240.276 206.042C240.277 205.304 240.031 204.585 239.574 203.988C240.058 204.311 240.454 204.74 240.726 205.24C240.999 205.739 241.141 206.294 241.14 206.857Z" fill="#FEDEDD"/>
</g>
<path d="M245.767 192.849C246.622 192.849 247.316 192.189 247.316 191.374C247.316 190.559 246.622 189.899 245.767 189.899C244.912 189.899 244.219 190.559 244.219 191.374C244.219 192.189 244.912 192.849 245.767 192.849Z" fill="#56618F"/>
</g>
<defs>
<clipPath id="clip0_116_4348">
<rect width="380" height="280" fill="white" transform="translate(-121)"/>
</clipPath>
</defs>
</svg>
