<svg width="266" height="253" viewBox="0 0 266 253" fill="none" xmlns="http://www.w3.org/2000/svg">
<g clip-path="url(#clip0_116_695)">
<path d="M257.565 93.9781H-67.4218L-0.00739288 29.4324H190.151L257.565 93.9781Z" fill="#643C25"/>
<path d="M187.805 37.6971H2.27598C2.0082 37.6971 1.75139 37.5905 1.56204 37.4008C1.3727 37.211 1.26633 36.9537 1.26633 36.6854C1.26633 36.5525 1.29244 36.421 1.34318 36.2982C1.39392 36.1755 1.46829 36.064 1.56204 35.97C1.6558 35.8761 1.76711 35.8016 1.8896 35.7507C2.0121 35.6999 2.14339 35.6737 2.27598 35.6737H187.805C187.938 35.6737 188.069 35.6999 188.192 35.7507C188.314 35.8016 188.426 35.8761 188.519 35.97C188.613 36.064 188.688 36.1755 188.738 36.2982C188.789 36.421 188.815 36.5525 188.815 36.6854C188.815 36.9537 188.709 37.211 188.519 37.4008C188.33 37.5905 188.073 37.6971 187.805 37.6971Z" fill="#845640"/>
<path d="M195.355 45.0124H-5.27318C-5.54096 45.0124 -5.79777 44.9058 -5.98712 44.7161C-6.17647 44.5263 -6.28284 44.269 -6.28284 44.0007C-6.28284 43.8678 -6.25672 43.7363 -6.20598 43.6135C-6.15524 43.4908 -6.08088 43.3793 -5.98712 43.2853C-5.89336 43.1914 -5.78206 43.1169 -5.65956 43.066C-5.53706 43.0152 -5.40577 42.989 -5.27318 42.989H195.355C195.487 42.989 195.619 43.0152 195.741 43.066C195.864 43.1169 195.975 43.1914 196.069 43.2853C196.162 43.3793 196.237 43.4908 196.287 43.6135C196.338 43.7363 196.364 43.8678 196.364 44.0007C196.364 44.269 196.258 44.5263 196.069 44.7161C195.879 44.9058 195.622 45.0124 195.355 45.0124Z" fill="#845640"/>
<path d="M202.904 52.3276H-12.8224C-13.0874 52.3235 -13.3403 52.2151 -13.5263 52.0258C-13.7123 51.8365 -13.8165 51.5815 -13.8165 51.3159C-13.8165 51.0502 -13.7123 50.7953 -13.5263 50.606C-13.3403 50.4167 -13.0874 50.3083 -12.8224 50.3042H202.904C203.169 50.3083 203.422 50.4167 203.608 50.606C203.794 50.7953 203.898 51.0502 203.898 51.3159C203.898 51.5815 203.794 51.8365 203.608 52.0258C203.422 52.2151 203.169 52.3235 202.904 52.3276Z" fill="#845640"/>
<path d="M210.438 59.6429H-20.356C-20.6238 59.6429 -20.8806 59.5363 -21.0699 59.3466C-21.2593 59.1568 -21.3657 58.8995 -21.3657 58.6312C-21.3657 58.4983 -21.3395 58.3668 -21.2888 58.244C-21.2381 58.1213 -21.1637 58.0098 -21.0699 57.9158C-20.9762 57.8219 -20.8649 57.7474 -20.7424 57.6965C-20.6199 57.6457 -20.4886 57.6195 -20.356 57.6195H210.438C210.57 57.6195 210.701 57.6457 210.824 57.6965C210.946 57.7474 211.058 57.8219 211.151 57.9158C211.245 58.0098 211.32 58.1213 211.37 58.244C211.421 58.3668 211.447 58.4983 211.447 58.6312C211.447 58.8995 211.341 59.1568 211.151 59.3466C210.962 59.5363 210.705 59.6429 210.438 59.6429Z" fill="#845640"/>
<path d="M217.987 67.0048H-27.9052C-28.1729 67.0048 -28.4298 66.8982 -28.6191 66.7085C-28.8085 66.5188 -28.9148 66.2615 -28.9148 65.9931C-28.9148 65.8603 -28.8887 65.7287 -28.838 65.606C-28.7872 65.4832 -28.7129 65.3717 -28.6191 65.2778C-28.5253 65.1838 -28.414 65.1093 -28.2915 65.0585C-28.169 65.0076 -28.0378 64.9814 -27.9052 64.9814H217.987C218.119 64.9814 218.251 65.0076 218.373 65.0585C218.496 65.1093 218.607 65.1838 218.701 65.2778C218.794 65.3717 218.869 65.4832 218.919 65.606C218.97 65.7287 218.996 65.8603 218.996 65.9931C218.996 66.2615 218.89 66.5188 218.701 66.7085C218.511 66.8982 218.254 67.0048 217.987 67.0048Z" fill="#845640"/>
<path d="M225.536 74.2735H-35.4233C-35.6898 74.2695 -35.9443 74.1616 -36.1328 73.9727C-36.3213 73.7839 -36.4289 73.5289 -36.433 73.2618C-36.4289 72.9947 -36.3213 72.7397 -36.1328 72.5509C-35.9443 72.362 -35.6898 72.2541 -35.4233 72.2501H225.536C225.804 72.2501 226.06 72.3567 226.25 72.5464C226.439 72.7362 226.545 72.9935 226.545 73.2618C226.545 73.5301 226.439 73.7875 226.25 73.9772C226.06 74.1669 225.804 74.2735 225.536 74.2735Z" fill="#845640"/>
<path d="M233.069 81.5888H-42.988C-43.1206 81.5888 -43.2519 81.5626 -43.3744 81.5118C-43.4969 81.4609 -43.6082 81.3864 -43.7019 81.2925C-43.7957 81.1985 -43.8701 81.087 -43.9208 80.9643C-43.9715 80.8415 -43.9977 80.71 -43.9977 80.5771C-43.9977 80.3088 -43.8913 80.0515 -43.7019 79.8618C-43.5126 79.672 -43.2558 79.5654 -42.988 79.5654H233.069C233.337 79.5654 233.594 79.672 233.783 79.8618C233.973 80.0515 234.079 80.3088 234.079 80.5771C234.079 80.71 234.053 80.8415 234.002 80.9643C233.952 81.087 233.877 81.1985 233.783 81.2925C233.69 81.3864 233.578 81.4609 233.456 81.5118C233.333 81.5626 233.202 81.5888 233.069 81.5888Z" fill="#845640"/>
<path d="M240.619 88.904H-50.5371C-50.8049 88.904 -51.0617 88.7974 -51.2511 88.6077C-51.4404 88.4179 -51.5468 88.1606 -51.5468 87.8923C-51.5428 87.6252 -51.4351 87.3702 -51.2467 87.1814C-51.0582 86.9925 -50.8037 86.8846 -50.5371 86.8806H240.619C240.885 86.8846 241.14 86.9925 241.328 87.1814C241.517 87.3702 241.624 87.6252 241.628 87.8923C241.628 88.1606 241.522 88.4179 241.333 88.6077C241.143 88.7974 240.886 88.904 240.619 88.904Z" fill="#845640"/>
<path d="M221.575 93.978H-35.2679V246.011H221.575V93.978Z" fill="#21B9E5"/>
<path d="M221.575 93.978H-35.2679V103.628H221.575V93.978Z" fill="#1E1E1E"/>
<path d="M152.188 95.8458V246.011H33.4047V95.8458L35.2531 93.9625L92.7884 35.6737L150.339 93.9625L152.188 95.8458Z" fill="#21B9E5"/>
<path d="M148.475 145.932L37.1016 148.858V143.006H148.475V145.932Z" fill="#1E1E1E"/>
<path d="M148.475 136.127H37.1016V143.006H148.475V136.127Z" fill="#F9F0E1"/>
<path d="M221.575 213.342H-35.2679V246.011H221.575V213.342Z" fill="#1E1E1E"/>
<path d="M113.556 163.053H72.0359V246.011H113.556V163.053Z" fill="#3B2018"/>
<path d="M109.44 246.011V167.178H76.1523V246.011H109.44Z" fill="#643C25"/>
<path d="M109.44 169.434H76.1523V170.571H109.44V169.434Z" fill="#3B2018"/>
<path d="M109.44 174.275H76.1523V175.411H109.44V174.275Z" fill="#3B2018"/>
<path d="M109.44 179.131H76.1523V180.267H109.44V179.131Z" fill="#3B2018"/>
<path d="M109.44 183.972H76.1523V185.108H109.44V183.972Z" fill="#3B2018"/>
<path d="M109.44 188.828H76.1523V189.964H109.44V188.828Z" fill="#3B2018"/>
<path d="M109.44 193.668H76.1523V194.804H109.44V193.668Z" fill="#3B2018"/>
<path d="M109.44 198.524H76.1523V199.661H109.44V198.524Z" fill="#3B2018"/>
<path d="M109.44 203.365H76.1523V204.501H109.44V203.365Z" fill="#3B2018"/>
<path d="M109.44 208.221H76.1523V209.357H109.44V208.221Z" fill="#3B2018"/>
<path d="M109.44 213.062H76.1523V214.198H109.44V213.062Z" fill="#3B2018"/>
<path d="M109.44 217.918H76.1523V219.054H109.44V217.918Z" fill="#3B2018"/>
<path d="M109.44 222.758H76.1523V223.894H109.44V222.758Z" fill="#3B2018"/>
<path d="M109.44 227.614H76.1523V228.75H109.44V227.614Z" fill="#3B2018"/>
<path d="M109.44 232.455H76.1523V233.591H109.44V232.455Z" fill="#3B2018"/>
<path d="M109.44 237.311H76.1523V238.447H109.44V237.311Z" fill="#3B2018"/>
<path d="M109.44 242.151H76.1523V243.288H109.44V242.151Z" fill="#3B2018"/>
<path d="M108.073 205.777C108.076 206.551 107.85 207.309 107.423 207.954C106.995 208.598 106.387 209.102 105.674 209.399C104.96 209.697 104.175 209.775 103.418 209.625C102.66 209.475 101.964 209.103 101.417 208.555C100.871 208.008 100.5 207.311 100.35 206.551C100.2 205.792 100.278 205.005 100.575 204.291C100.872 203.576 101.374 202.966 102.018 202.538C102.661 202.11 103.417 201.883 104.19 201.886C105.22 201.886 106.207 202.296 106.936 203.026C107.664 203.756 108.073 204.745 108.073 205.777Z" fill="#3B2018"/>
<path d="M37.1171 93.978H33.4047V246.011H37.1171V93.978Z" fill="#1E1E1E"/>
<path d="M152.188 93.978H148.475V246.011H152.188V93.978Z" fill="#1E1E1E"/>
<path d="M150.339 93.9625V108.033L93.1612 51.7673L35.2531 108.827V93.9625L92.7884 35.6737L150.339 93.9625Z" fill="#1E1E1E"/>
<path d="M165.81 113.807C165.159 113.809 164.514 113.682 163.911 113.434C163.309 113.185 162.761 112.82 162.3 112.36L93.1301 43.0512L23.9294 112.36C22.9963 113.295 21.7307 113.82 20.4111 113.82C19.0915 113.82 17.8259 113.295 16.8928 112.36C15.9597 111.425 15.4355 110.157 15.4355 108.834C15.4355 107.512 15.9597 106.244 16.8928 105.309L89.5886 32.483C90.0489 32.0199 90.596 31.6524 91.1984 31.4017C91.8009 31.151 92.4467 31.022 93.0991 31.022C93.7514 31.022 94.3973 31.151 94.9997 31.4017C95.6021 31.6524 96.1492 32.0199 96.6096 32.483L169.305 105.309C170 106.006 170.472 106.895 170.663 107.861C170.853 108.827 170.754 109.829 170.376 110.739C169.999 111.648 169.36 112.425 168.542 112.972C167.724 113.518 166.762 113.809 165.779 113.807H165.81Z" fill="#3B2018"/>
<path d="M247.391 223.583C244.67 223.6 241.992 222.899 239.626 221.553C237.26 220.206 235.288 218.26 233.908 215.91C230.802 210.462 227.881 201.902 229.031 189.17C231.314 163.831 247.391 123.566 247.391 123.566C247.391 123.566 263.453 163.831 265.751 189.17C266.901 201.855 264.027 210.462 260.858 215.91C259.48 218.258 257.511 220.202 255.148 221.549C252.784 222.895 250.11 223.597 247.391 223.583Z" fill="url(#paint0_linear_116_695)"/>
<path d="M246.646 199.676H248.028C248.304 199.676 248.569 199.786 248.764 199.982C248.959 200.177 249.069 200.442 249.069 200.719V246.027H245.62V200.781C245.612 200.64 245.632 200.499 245.68 200.367C245.727 200.234 245.801 200.112 245.897 200.009C245.993 199.906 246.109 199.823 246.237 199.766C246.366 199.708 246.505 199.678 246.646 199.676Z" fill="#3B2018"/>
<path d="M264.043 246.011H-74.7535V253.498H264.043V246.011Z" fill="#3B2018"/>
<path d="M16.4423 122.321H-16.83V174.726H16.4423V122.321Z" fill="#3B2018"/>
<path d="M16.4423 174.726H-16.83V177.746H16.4423V174.726Z" fill="#1E1E1E"/>
<path d="M13.8483 172.143L13.8483 124.92H-14.2359L-14.2359 172.143H13.8483Z" fill="#F9F0E1"/>
<path d="M15.3084 137.854H-15.6339V140.967H15.3084V137.854Z" fill="#3B2018"/>
<path d="M1.35952 124.142H-1.74713V173.575H1.35952V124.142Z" fill="#3B2018"/>
<path d="M205.7 122.321H172.428V174.726H205.7V122.321Z" fill="#3B2018"/>
<path d="M205.7 174.726H172.428V177.746H205.7V174.726Z" fill="#1E1E1E"/>
<path d="M203.09 172.143V124.92H175.006V172.143H203.09Z" fill="#F9F0E1"/>
<path d="M204.55 137.854H173.608V140.967H204.55V137.854Z" fill="#3B2018"/>
<path d="M190.617 124.142H187.51V173.575H190.617V124.142Z" fill="#3B2018"/>
<path d="M118.201 126.85H67.4225V118.741C67.4225 115.398 68.08 112.087 69.3573 108.999C70.6345 105.91 72.5066 103.104 74.8666 100.741C77.2266 98.3777 80.0281 96.5036 83.1112 95.2256C86.1943 93.9476 89.4985 93.2909 92.835 93.293C99.5707 93.293 106.03 95.9741 110.793 100.746C115.556 105.519 118.232 111.992 118.232 118.741L118.201 126.85Z" fill="#3B2018"/>
<path d="M118.201 126.85H67.3915V129.87H118.201V126.85Z" fill="#1E1E1E"/>
<path d="M70.5292 123.784V118.741C70.4506 115.753 70.9699 112.78 72.0567 109.996C73.1435 107.213 74.7757 104.676 76.8569 102.535C78.9381 100.394 81.4263 98.6919 84.1745 97.5299C86.9227 96.3679 89.8754 95.7693 92.8583 95.7693C95.8412 95.7693 98.7939 96.3679 101.542 97.5299C104.29 98.6919 106.778 100.394 108.86 102.535C110.941 104.676 112.573 107.213 113.66 109.996C114.747 112.78 115.266 115.753 115.187 118.741V123.784H70.5292Z" fill="#F9F0E1"/>
<path d="M94.3417 93.293H91.235V125.371H94.3417V93.293Z" fill="#3B2018"/>
<path d="M115.141 108.515H70.4671V111.628H115.141V108.515Z" fill="#3B2018"/>
<path d="M65.9624 220.361H-28.6197V226.805H65.9624V220.361Z" fill="#EADBC5"/>
<path d="M4.23318 246.011H-7.57211V206.416L-1.66947 199.676L4.23318 206.416V246.011Z" fill="#F9F0E1"/>
<path d="M25.2963 246.011H13.491V206.416L19.3937 199.676L25.2963 206.416V246.011Z" fill="#F9F0E1"/>
<path d="M46.3439 246.011H34.5386V206.416L40.4412 199.676L46.3439 206.416V246.011Z" fill="#F9F0E1"/>
<path d="M67.3915 246.011H55.5862V206.416L61.4888 199.676L67.3915 206.416V246.011Z" fill="#F9F0E1"/>
<path d="M214.43 220.361H119.847V226.805H214.43V220.361Z" fill="#EADBC5"/>
<path d="M131.653 246.011H119.847V206.416L125.75 199.676L131.653 206.416V246.011Z" fill="#F9F0E1"/>
<path d="M152.7 246.011H140.895V206.416L146.798 199.676L152.7 206.416V246.011Z" fill="#F9F0E1"/>
<path d="M173.748 246.011H161.958V206.416L167.861 199.676L173.748 206.416V246.011Z" fill="#F9F0E1"/>
<path d="M194.811 246.011H183.006V206.416L188.908 199.676L194.811 206.416V246.011Z" fill="#F9F0E1"/>
<path d="M215.859 246.011H204.053V206.416L209.956 199.676L215.859 206.416V246.011Z" fill="#F9F0E1"/>
<path d="M53.9086 165.419H38.7637V170.835H53.9086V165.419Z" fill="#1E1E1E"/>
<path d="M69.0535 170.835H53.9086V176.252H69.0535V170.835Z" fill="#1E1E1E"/>
<path d="M196.349 182.384H181.204V187.8H196.349V182.384Z" fill="#1E1E1E"/>
<path d="M211.494 187.8H196.349V193.217H211.494V187.8Z" fill="#1E1E1E"/>
<path d="M-10.8962 187.8H4.24872L4.24872 182.384H-10.8962V187.8Z" fill="#1E1E1E"/>
<path d="M130.27 155.271H145.415V149.854H130.27V155.271Z" fill="#1E1E1E"/>
<path d="M115.141 160.687H130.286V155.271H115.141V160.687Z" fill="#1E1E1E"/>
<path d="M92.7884 76.1724H107.933V70.7559H92.7884V76.1724Z" fill="#1E1E1E"/>
<path d="M77.659 81.5887H92.8039V76.1723H77.659V81.5887Z" fill="#1E1E1E"/>
<path d="M55.5706 4.68494H21.91V29.4324H55.5706V4.68494Z" fill="#21B9E5"/>
<path d="M55.5551 11.2687V14.0858L21.91 18.2882V11.2687H55.5551Z" fill="#1E1E1E"/>
<path d="M58.1647 0H18.6481V11.2687H58.1647V0Z" fill="#3B2018"/>
</g>
<defs>
<linearGradient id="paint0_linear_116_695" x1="247.018" y1="187.038" x2="235.79" y2="-42.7845" gradientUnits="userSpaceOnUse">
<stop stop-color="#595B29"/>
<stop offset="1" stop-color="#A3984C"/>
</linearGradient>
<clipPath id="clip0_116_695">
<rect width="344" height="261" fill="white" transform="translate(-78)"/>
</clipPath>
</defs>
</svg>
