<svg width="200" height="280" viewBox="0 0 200 280" fill="none" xmlns="http://www.w3.org/2000/svg">
<path d="M172.866 230.752C172.655 261.014 163.331 289.942 146.922 311.244C130.512 332.545 108.345 344.496 85.2429 344.496C62.1411 344.496 39.9739 332.545 23.5643 311.244C7.15471 289.942 -2.16953 261.014 -2.37976 230.752C-2.37976 130.518 85.2393 -2 85.2393 -2C85.2393 -2 172.866 130.518 172.866 230.752Z" fill="#58CBEC"/>
<ellipse cx="84.7666" cy="92.7154" rx="17.6198" ry="17.6104" fill="white"/>
<g clip-path="url(#clip0_180_21)">
<path d="M92.8909 94.8475L92.5575 98.7599L91.1003 115.989L89.9478 129.649L89.2907 137.465C89.2907 142.434 87.1096 146.46 84.4143 146.46C83.0714 146.46 81.8523 145.451 80.9761 143.823C79.991 141.851 79.5007 139.669 79.5474 137.465L79.0426 129.649L77.0235 98.7599L76.7949 95.2378C76.8431 93.7699 77.2953 92.3438 78.1019 91.1162C78.9084 89.8885 80.038 88.9069 81.3665 88.2793C82.3038 87.7652 83.3463 87.4721 84.4143 87.4226C86.3023 87.5411 88.1198 88.184 89.6621 89.2788C90.6205 89.8662 91.4175 90.6829 91.9812 91.6551C92.5448 92.6272 92.8575 93.7244 92.8909 94.8475V94.8475Z" fill="#BDAEA7"/>
<path d="M92.8909 94.8475L92.5575 98.7599H77.0235L76.7949 95.2378C76.8431 93.7699 77.2953 92.3438 78.1019 91.1162C78.9084 89.8885 80.038 88.9069 81.3665 88.2793C82.3038 87.7652 83.3463 87.4721 84.4143 87.4226C86.3023 87.5411 88.1198 88.184 89.6621 89.2788C90.6205 89.8662 91.4175 90.6829 91.9812 91.6551C92.5448 92.6272 92.8575 93.7244 92.8909 94.8475Z" fill="#41D4FF"/>
<g style="mix-blend-mode:screen" opacity="0.5">
<path d="M87.1668 137.665C87.1668 138.959 86.6048 140.006 85.9 140.006C85.1952 140.006 84.6333 138.959 84.6333 137.665V98.1697C84.6333 92.4582 89.9192 91.335 90.3478 98.7599L87.1668 137.665Z" fill="white"/>
</g>
</g>
<path d="M21.8798 222.516H152.444L161.09 251.876H10.6392L21.8798 222.516Z" fill="#25C0ED"/>
<path d="M25.557 225.107H148.617L156.767 248.422H14.9624L25.557 225.107Z" fill="#53D5FB"/>
<defs>
<clipPath id="clip0_180_21">
<rect width="16.1911" height="59.0185" fill="white" transform="translate(76.6711 87.4797)"/>
</clipPath>
</defs>
</svg>
