<svg width="19" height="19" viewBox="0 0 19 19" fill="none" xmlns="http://www.w3.org/2000/svg">
<path d="M15.2725 15.9546H3.27246C2.87464 15.9546 2.49311 15.7966 2.2118 15.5153C1.9305 15.2339 1.77246 14.8524 1.77246 14.4546V5.38934C1.78929 5.00293 1.95472 4.63796 2.23422 4.37062C2.51372 4.10327 2.88569 3.95422 3.27246 3.95459H15.2725C15.6703 3.95459 16.0518 4.11263 16.3331 4.39393C16.6144 4.67523 16.7725 5.05677 16.7725 5.45459V14.4546C16.7725 14.8524 16.6144 15.2339 16.3331 15.5153C16.0518 15.7966 15.6703 15.9546 15.2725 15.9546ZM3.27246 6.85559V14.4546H15.2725V6.85559L9.27246 10.8546L3.27246 6.85559ZM3.87246 5.45459L9.27246 9.05459L14.6725 5.45459H3.87246Z" fill="white"/>
</svg>
