<svg width="415" height="344" viewBox="0 0 415 344" fill="none" xmlns="http://www.w3.org/2000/svg">
<g clip-path="url(#clip0_237_968)">
<path d="M155.089 66.0906C155.093 69.5143 156.445 72.7966 158.85 75.2162C161.254 77.6359 164.514 78.9951 167.913 78.9951C171.31 78.9951 174.568 77.6355 176.971 75.2154C179.373 72.7954 180.723 69.513 180.723 66.0906V57.1257C180.723 53.7032 179.373 50.4209 176.971 48.0009C174.568 45.5808 171.31 44.2212 167.913 44.2212C164.514 44.2212 161.254 45.5804 158.85 48C156.445 50.4197 155.093 53.702 155.089 57.1257V66.0906Z" fill="#21B9E5"/>
<path d="M24.4494 207.049C27.9877 189.628 43.2852 142.633 80.5445 125.642C117.804 108.65 152.748 122.479 165.678 130.372C178.608 138.265 193.533 169.112 200.197 197.963C206.862 226.814 229.622 226.412 247.273 232.737L239.119 262.781L57.0795 263.96L56.6804 259.216C9.21843 256.456 20.9775 224.442 24.4494 207.049ZM210.679 253.092C203.416 253.092 171.052 228.596 164.375 229.374C161.049 247.357 160.65 256.844 160.264 258.037C159.878 259.23 208.711 267.913 210.679 253.092Z" fill="#21B9E5"/>
<path d="M146.004 138.68C148.358 150.003 158.042 219.31 141.561 264.884C128.751 265.943 109.635 264.884 109.635 264.884C113.294 240.911 120.623 174.513 105.459 136.576C120.636 136.817 146.004 138.68 146.004 138.68Z" fill="#FFE4B5"/>
<path d="M137.637 118.124C150.58 118.915 153.6 133.012 147.707 141.709C141.814 150.405 130.707 143.29 128.752 138.935C114.744 152.241 96.5736 140.275 92.6495 120.496C92.6495 118.915 114.904 114.573 137.637 118.124Z" fill="#FFE4B5"/>
<path d="M100.764 46.6868C101.349 33.5411 114.744 8.44223 146.523 9.86266C169.136 11.6181 171.903 33.206 171.903 33.206C172.688 35.6315 176.732 40.7504 176.732 40.7504C177.916 30.6332 171.571 3.83251 142.998 3.12229C110.833 2.30487 95.4693 27.6717 94.8707 45.8828C97.4247 50.1307 100.764 46.6868 100.764 46.6868Z" fill="#21B9E5"/>
<path d="M163.869 21.8023C174.737 29.3065 181.242 41.7822 175.734 54.1909C170.227 66.5996 168.671 72.0803 174.005 81.7956C181.521 95.4505 184.647 108.208 179.033 119.799C144.953 115.055 129.962 111.196 129.962 111.196C129.962 111.196 143.144 20.355 163.869 21.8023Z" fill="#31241C"/>
<path d="M113.281 84.3149C113.281 84.3149 104.86 109.896 104.062 120.71C103.331 130.613 135.894 137.233 138.196 126.848C140.603 114.479 144.182 93.4674 144.182 93.4674" fill="#C97440"/>
<path d="M110.58 94.9949L113.241 84.2747L144.168 93.4673C144.168 93.4673 143.064 99.9263 141.654 108.02C139.314 108.471 136.931 108.651 134.551 108.556C129.782 108.336 125.13 106.995 120.968 104.641C116.806 102.286 113.248 98.9825 110.58 94.9949Z" fill="#AB5D2D"/>
<path d="M167.301 71.8794C167.13 75.9281 166.168 79.9031 164.471 83.5769C162.773 87.2507 160.373 90.5512 157.408 93.2895C154.442 96.0277 150.97 98.15 147.19 99.5349C143.409 100.92 139.395 101.54 135.376 101.36C131.357 101.188 127.411 100.219 123.764 98.5089C120.117 96.7987 116.841 94.3808 114.123 91.3936C111.405 88.4064 109.298 84.9085 107.923 81.1002C106.548 77.2918 105.933 73.2477 106.111 69.1994L107.561 36.5696C107.732 32.515 108.696 28.5343 110.398 24.856C112.1 21.1776 114.506 17.8741 117.478 15.1349C120.451 12.3958 123.931 10.275 127.719 8.89423C131.507 7.51346 135.529 6.89992 139.553 7.08883C143.572 7.26103 147.518 8.22994 151.165 9.94013C154.811 11.6503 158.088 14.0682 160.806 17.0554C163.524 20.0426 165.631 23.5405 167.006 27.3488C168.38 31.1572 168.996 35.2013 168.818 39.2496L167.301 71.8794Z" fill="#C97440"/>
<path d="M126.877 38.1105C130.748 36.02 135.829 35.0418 139.873 37.1456C141.389 37.9363 140.046 40.2277 138.543 39.4505C135.39 37.8023 131.2 38.7939 128.22 40.4019C126.717 41.2193 125.387 38.9279 126.89 38.1105H126.877Z" fill="#31241C"/>
<path d="M163.816 42.412C162.898 41.5701 161.795 40.9607 160.596 40.6344C159.398 40.3082 158.14 40.2744 156.926 40.536C155.263 40.8844 154.558 38.3249 156.221 37.9765C157.885 37.6011 159.615 37.6378 161.262 38.0836C162.91 38.5293 164.425 39.3708 165.679 40.536C166.916 41.7152 165.04 43.5913 163.816 42.412Z" fill="#31241C"/>
<path d="M145.498 66.2111C145.738 66.2059 145.969 66.1157 146.15 65.9565L152.122 60.5963C152.243 60.4884 152.336 60.353 152.394 60.2015C152.451 60.05 152.472 59.8867 152.455 59.7253C152.438 59.5664 152.383 59.4139 152.295 59.281C152.207 59.148 152.089 59.0384 151.949 58.9615L145.937 55.5444C145.706 55.4129 145.432 55.3793 145.177 55.4509C144.921 55.5225 144.704 55.6935 144.573 55.9263C144.443 56.1591 144.41 56.4346 144.481 56.6922C144.552 56.9498 144.721 57.1684 144.953 57.2999L149.755 59.9799L144.833 64.3351C144.677 64.4695 144.566 64.6492 144.515 64.8497C144.464 65.0501 144.475 65.2615 144.548 65.455C144.621 65.6485 144.751 65.8147 144.921 65.9308C145.091 66.047 145.293 66.1074 145.498 66.1039V66.2111Z" fill="#31241C"/>
<path d="M143.331 74.7335C144.9 74.757 146.441 74.3142 147.761 73.4605C147.98 73.3095 148.13 73.0771 148.178 72.8145C148.227 72.5518 148.17 72.2805 148.02 72.0602C147.87 71.8398 147.64 71.6885 147.379 71.6395C147.118 71.5905 146.849 71.6478 146.63 71.7989C145.651 72.3757 144.542 72.6909 143.408 72.7143C142.274 72.7378 141.154 72.4688 140.152 71.9329C139.328 71.4759 138.657 70.7819 138.226 69.9394C137.795 69.0969 137.622 68.1441 137.731 67.2026C137.738 67.0705 137.719 66.9384 137.676 66.8137C137.632 66.689 137.565 66.5741 137.477 66.4758C137.389 66.3775 137.283 66.2975 137.164 66.2406C137.046 66.1836 136.918 66.1508 136.787 66.1439C136.521 66.133 136.261 66.2282 136.064 66.4088C135.868 66.5894 135.749 66.8409 135.736 67.1087C135.611 68.4244 135.871 69.748 136.483 70.917C137.095 72.0859 138.033 73.0492 139.181 73.6883C140.455 74.3825 141.883 74.742 143.331 74.7335Z" fill="#31241C"/>
<path d="M138.849 55.0754C138.588 55.7695 138.13 56.3701 137.53 56.8014C136.931 57.2327 136.218 57.4752 135.482 57.4985C134.746 57.5217 134.019 57.3245 133.394 56.9318C132.769 56.5391 132.274 55.9685 131.971 55.2923C131.668 54.616 131.57 53.8644 131.691 53.1324C131.812 52.4005 132.146 51.7211 132.65 51.1801C133.154 50.6391 133.806 50.2609 134.523 50.0932C135.241 49.9255 135.992 49.9759 136.681 50.2379C137.139 50.412 137.558 50.6753 137.915 51.0127C138.271 51.35 138.558 51.7549 138.76 52.2041C138.961 52.6534 139.073 53.1382 139.088 53.6308C139.103 54.1235 139.022 54.6144 138.849 55.0754Z" fill="#1A191F"/>
<path d="M161.115 56.4153C160.854 57.1093 160.395 57.7099 159.796 58.1412C159.196 58.5725 158.484 58.8151 157.747 58.8383C157.011 58.8615 156.285 58.6643 155.66 58.2716C155.035 57.8789 154.539 57.3084 154.236 56.6321C153.933 55.9558 153.836 55.2042 153.957 54.4723C154.078 53.7403 154.411 53.0609 154.915 52.52C155.42 51.979 156.072 51.6007 156.789 51.433C157.507 51.2653 158.257 51.3157 158.946 51.5778C159.404 51.7519 159.823 52.0151 160.18 52.3525C160.537 52.6899 160.824 53.0947 161.025 53.544C161.227 53.9932 161.338 54.478 161.354 54.9707C161.369 55.4634 161.288 55.9543 161.115 56.4153Z" fill="#1A191F"/>
<path d="M160.131 55.5444C160.291 55.5396 160.447 55.4934 160.584 55.4104L164.215 53.1725C164.414 53.0499 164.557 52.8526 164.612 52.6239C164.667 52.3952 164.629 52.1539 164.508 51.9531C164.386 51.7523 164.19 51.6085 163.963 51.5532C163.736 51.4979 163.497 51.5357 163.297 51.6583L159.666 53.9096C159.568 53.9698 159.484 54.049 159.417 54.1424C159.35 54.2358 159.302 54.3417 159.276 54.4539C159.25 54.566 159.247 54.6823 159.265 54.7958C159.284 54.9094 159.325 55.0181 159.386 55.1156C159.464 55.2453 159.573 55.3528 159.703 55.4279C159.834 55.503 159.981 55.5431 160.131 55.5444Z" fill="#1A191F"/>
<path d="M133.765 54.2177C133.951 54.2151 134.131 54.1533 134.279 54.0412C134.428 53.9292 134.537 53.7726 134.592 53.594C134.647 53.4154 134.644 53.2239 134.584 53.0471C134.524 52.8702 134.409 52.7171 134.258 52.6097L130.466 49.9296C130.371 49.8636 130.264 49.8172 130.151 49.7929C130.038 49.7686 129.921 49.767 129.808 49.7882C129.694 49.8093 129.586 49.8528 129.489 49.9162C129.392 49.9795 129.308 50.0615 129.243 50.1574C129.177 50.2533 129.131 50.3613 129.107 50.4752C129.083 50.589 129.081 50.7065 129.102 50.821C129.123 50.9355 129.166 51.0447 129.229 51.1424C129.292 51.24 129.374 51.3243 129.469 51.3903L133.26 54.0703C133.41 54.1688 133.586 54.2201 133.765 54.2177Z" fill="#1A191F"/>
<path d="M76.9121 72.0803C82.0068 61.0519 75.7281 54.1909 78.4285 43.685C80.8096 34.4924 91.6641 34.7738 97.2643 21.7487C105.857 1.78218 150.021 -16.2011 166.502 24.3215C148.185 11.819 129.416 18.3182 122.299 27.5644C107.933 46.2177 122.671 54.1105 117.124 65.206C113.134 73.2462 110.473 78.7269 115.661 90.948C120.849 103.169 113.573 114.801 113.573 114.801C96.4795 112.898 77.1515 111.196 59.5927 108.208C59.5927 78.3651 71.8439 83.1088 76.9121 72.0803Z" fill="#31241C"/>
<path d="M154.637 224.831C169.549 226.171 175.295 230.633 188.637 237.749C201.98 244.864 204.853 246.446 201.714 247.759C209.562 248.281 204.986 252.503 199.492 250.653C203.15 252.235 198.055 253.95 190.726 251.189C188.904 254.084 179.486 252.771 173.433 249.34C167.381 245.91 153.028 243.015 139.952 247.491C138.382 239.33 143.344 225.099 143.344 225.099L154.637 224.831Z" fill="#C97440"/>
<path d="M145.152 225.032C137.171 223.249 114.624 221.414 101.255 222.204C100.47 232.737 106.217 254.084 106.217 254.084L141.8 246.177C141.8 246.177 140.058 234.908 145.152 225.032Z" fill="#21B9E5"/>
<path d="M145.831 225.26C129.948 222.955 113.906 222.995 97.8766 222.58C90.1614 222.365 82.7654 221.454 75.13 220.583C67.867 219.739 59.2605 221.333 52.2902 223.451C52.2028 223.474 52.1117 223.481 52.022 223.469C51.9323 223.457 51.8457 223.428 51.7673 223.382C51.6888 223.337 51.6201 223.276 51.5649 223.204C51.5097 223.132 51.4691 223.05 51.4455 222.962C51.4219 222.874 51.4158 222.782 51.4274 222.691C51.4391 222.601 51.4682 222.514 51.5133 222.435C51.5584 222.356 51.6185 222.286 51.6902 222.231C51.7619 222.175 51.8437 222.134 51.931 222.111C58.6477 220.023 65.64 218.975 72.6691 219.002C76.0267 219.207 79.3679 219.628 82.6723 220.261C87.2852 220.824 91.9264 221.119 96.573 221.146C113.134 221.682 129.735 221.561 146.177 223.96C147.028 224.08 146.669 225.367 145.831 225.3V225.26Z" fill="#1F0E03"/>
<path d="M74.9964 184.174C73.4783 195.276 72.7006 206.468 72.6686 217.675C72.6686 217.853 72.5985 218.023 72.4738 218.149C72.349 218.275 72.1799 218.345 72.0035 218.345C71.8271 218.345 71.6579 218.275 71.5332 218.149C71.4084 218.023 71.3384 217.853 71.3384 217.675C71.3709 206.348 72.1486 195.036 73.6662 183.813C73.786 182.968 75.0763 183.33 74.9964 184.174Z" fill="#1F0E03"/>
<path d="M142.839 246.848C138.037 246.848 133.528 248.938 129.018 250.184C123.591 251.658 118.283 253.521 112.869 255.022C101.871 258.063 90.5871 259.94 79.2018 260.623C61.1641 261.668 39.2954 260.784 25.7139 247.223C25.5886 247.097 25.5183 246.926 25.5183 246.747C25.5183 246.569 25.5886 246.398 25.7139 246.271C25.8391 246.145 26.009 246.074 26.1861 246.074C26.3632 246.074 26.5331 246.145 26.6583 246.271C40.9182 260.449 64.3566 260.462 82.9796 259.029C94.2074 258.078 105.307 255.958 116.102 252.704C120.931 251.283 125.746 249.796 130.561 248.349C134.618 247.129 138.543 245.454 142.852 245.508C143.029 245.508 143.198 245.578 143.323 245.704C143.447 245.83 143.518 246 143.518 246.178C143.518 246.355 143.447 246.526 143.323 246.651C143.198 246.777 143.029 246.848 142.852 246.848H142.839Z" fill="#1F0E03"/>
<path d="M169.444 170.385C170.628 173.977 170.282 177.849 170.229 181.575C170.149 186.72 169.776 191.853 169.51 196.972C169.244 202.091 169.098 207.116 168.699 212.168C168.326 216.844 166.571 221.266 166.331 225.89C166.331 226.747 165.001 226.761 165.001 225.89C165.214 221.668 166.823 217.662 167.249 213.427C167.715 208.804 167.861 204.141 168.06 199.504C168.26 194.868 168.593 190.124 168.779 185.461C168.965 180.797 169.657 175.25 168.167 170.72C167.888 169.903 169.178 169.555 169.497 170.372L169.444 170.385Z" fill="#1F0E03"/>
<path d="M149.263 124.529C151.351 131.953 152.815 141.414 144.567 145.581C141.588 147.095 138.196 146.345 135.322 145.032C133.335 143.993 131.503 142.675 129.882 141.119C128.192 139.658 127.447 141.869 125.958 142.941C113.826 151.678 97.8502 139.578 93.833 127.531C93.5669 126.7 94.8439 126.352 95.1632 127.169C99.4465 140.033 117.777 151.853 128.312 138.734C128.374 138.671 128.447 138.621 128.529 138.587C128.61 138.553 128.696 138.535 128.784 138.535C128.872 138.535 128.959 138.553 129.04 138.587C129.121 138.621 129.195 138.671 129.257 138.734C133.633 142.687 139.313 147.377 145.286 143.665C151.79 139.645 149.702 130.868 148.026 124.904C147.978 124.727 148.003 124.537 148.094 124.378C148.185 124.218 148.335 124.102 148.511 124.054C148.688 124.006 148.876 124.03 149.034 124.122C149.193 124.214 149.308 124.365 149.356 124.543L149.263 124.529Z" fill="#1F0E03"/>
<path d="M191.338 252.355C187.148 251.605 183.782 248.965 180.257 246.74C175.402 243.672 169.935 241.903 164.667 239.705C163.882 239.384 164.215 238.084 165.013 238.365C169.363 240.174 173.832 241.702 178.036 243.859C182.611 246.191 186.509 250.091 191.697 251.015C192.535 251.163 192.176 252.449 191.338 252.355Z" fill="#1F0E03"/>
<path d="M200.861 252.288C190.219 247.786 180.509 241.447 169.628 237.548C168.829 237.266 169.175 235.966 169.987 236.208C180.974 240.094 190.831 246.472 201.526 251.028C202.311 251.363 201.632 252.516 200.861 252.181V252.288Z" fill="#1F0E03"/>
<path d="M203.217 249.126C199.027 246.566 194.251 245.387 189.915 243.082C185.578 240.777 181.428 238.472 177.012 236.489C176.24 236.127 176.905 234.975 177.69 235.323C182.093 237.307 186.336 239.638 190.58 241.93C194.823 244.221 199.652 245.414 203.882 247.973C204.613 248.415 203.948 249.581 203.217 249.126Z" fill="#1F0E03"/>
<path d="M134.231 150.124C133.779 152.496 130.44 152.415 129.363 150.579C129.245 150.334 129.178 150.068 129.163 149.796C129.149 149.524 129.187 149.252 129.278 148.996C129.368 148.739 129.508 148.503 129.689 148.301C129.87 148.099 130.089 147.935 130.334 147.819C130.912 147.47 131.594 147.339 132.259 147.45C132.924 147.56 133.529 147.905 133.965 148.422C134.444 149.132 133.3 149.762 132.808 149.092C132.316 148.422 129.775 149.092 130.64 150.084C131.291 150.821 132.728 150.874 132.941 149.762C133.1 148.918 134.377 149.28 134.271 150.124H134.231Z" fill="#1F0E03"/>
<path d="M135.988 160.04C136.334 162.412 133.593 163.069 131.997 161.755C131.563 161.433 131.264 160.958 131.161 160.425C131.058 159.891 131.157 159.338 131.438 158.874C131.842 158.49 132.352 158.238 132.9 158.152C133.449 158.065 134.011 158.149 134.511 158.392C135.336 158.647 134.977 159.933 134.165 159.732C133.909 159.62 133.633 159.562 133.354 159.562C133.075 159.562 132.799 159.62 132.542 159.732C132.13 159.973 132.675 160.724 132.902 160.884C133.38 161.246 134.817 161.501 134.684 160.496C134.551 159.491 135.841 159.29 136.014 160.147L135.988 160.04Z" fill="#1F0E03"/>
<path d="M136.799 172.864C136.679 175.544 132.808 174.472 132.356 172.449C131.864 169.97 136.16 168.616 136.573 171.296C136.706 172.141 135.429 172.502 135.242 171.658C135.056 170.814 133.606 171.337 133.593 172.141C133.58 172.945 135.376 173.628 135.415 172.864C135.455 172.1 136.746 171.993 136.746 172.864H136.799Z" fill="#1F0E03"/>
<path d="M162.685 246.178C162.888 248.249 162.615 250.34 161.887 252.288C161.567 253.079 160.277 252.73 160.556 251.926C161.258 250.098 161.518 248.127 161.315 246.178C161.235 245.32 162.565 245.32 162.645 246.178H162.685Z" fill="#1F0E03"/>
<path d="M146.084 225.42C143.597 227.176 143.424 230.66 142.692 233.367C141.774 236.958 141.083 241.407 142.692 244.918C143.051 245.695 141.894 246.379 141.548 245.588C139.766 241.635 140.511 237.105 141.455 233.018C142.187 229.842 142.626 226.251 145.446 224.255C146.151 223.759 146.776 224.925 146.124 225.42H146.084Z" fill="#1F0E03"/>
<path d="M178.169 73.8357C180.257 89.4605 157.338 89.5141 147.441 89.0317C146.59 89.0317 146.59 87.6917 147.441 87.6917C156.181 88.1071 178.808 88.5359 176.879 74.1841C176.772 73.3399 178.049 72.9781 178.209 73.8357H178.169Z" fill="#1F0E03"/>
<path d="M139.726 88.1607C139.726 90.3718 141.92 92.1808 144.634 92.1808C147.348 92.1808 149.529 90.3852 149.529 88.1607C149.529 85.9363 147.334 84.1406 144.634 84.1406C141.934 84.1406 139.726 85.8961 139.726 88.1607Z" fill="#21B9E5"/>
<path d="M142.998 3.12229C159.293 3.5243 168.351 12.4221 172.914 21.8828C171.309 22.0752 169.746 22.5277 168.285 23.2228C164.906 17.3266 158.495 10.8409 146.523 9.91627C114.744 8.49584 101.295 33.5947 100.763 46.7404C100.763 46.7404 97.4245 50.1843 94.8705 45.9364C95.4691 27.6717 110.833 2.30487 142.998 3.12229Z" fill="#21B9E5"/>
<path d="M84.5348 66.0906C84.5383 69.5143 85.8908 72.7966 88.2953 75.2162C90.6997 77.6359 93.9594 78.9951 97.358 78.9951C100.755 78.9951 104.014 77.6355 106.416 75.2154C108.818 72.7954 110.168 69.513 110.168 66.0906V57.1257C110.168 53.7032 108.818 50.4209 106.416 48.0009C104.014 45.5808 100.755 44.2212 97.358 44.2212C93.9594 44.2212 90.6997 45.5804 88.2953 48C85.8908 50.4197 84.5383 53.702 84.5348 57.1257V66.0906Z" fill="#21B9E5"/>
<path d="M87.5559 64.7102C87.6146 66.5491 88.3049 68.3106 89.509 69.6939C90.7131 71.0773 92.3564 71.9969 94.1586 72.2958C95.9607 72.5947 97.81 72.2543 99.3908 71.3328C100.972 70.4113 102.186 68.9658 102.827 67.2429C103.771 64.7906 103.226 61.3333 103.226 58.7604C103.226 49.8492 91.0544 48.3082 87.9683 56.2412C87.0238 58.68 87.5559 62.1373 87.5559 64.7102C87.5559 64.8879 87.4858 65.0583 87.3611 65.184C87.2363 65.3096 87.0672 65.3802 86.8908 65.3802C86.7144 65.3802 86.5452 65.3096 86.4205 65.184C86.2958 65.0583 86.2257 64.8879 86.2257 64.7102C86.2257 59.3501 85.7069 54.1507 90.775 50.8006C96.9073 46.7805 104.21 52.1407 104.556 58.7604C104.849 64.0536 104.889 69.4807 100.02 72.6834C93.8877 76.7035 86.5848 71.3434 86.2257 64.7102C86.1858 63.8526 87.516 63.8526 87.5559 64.7102Z" fill="#1F0E03"/>
<path d="M237.549 252.235H135.282C130.573 252.235 129.523 261.722 137.371 261.722H371.981C379.044 247.491 410.69 160.549 413.829 152.375C416.968 144.201 414.095 134.727 401.272 134.727H311.31C301.892 134.727 291.423 136.308 284.892 150.807C278.36 165.307 237.549 252.235 237.549 252.235Z" fill="#5F7E91"/>
<path d="M134.964 261.347C134.672 261.243 134.387 261.118 134.113 260.972H134.046C130.056 258.707 131.386 252.275 135.284 252.275H237.55L237.63 252.101L237.83 251.685C238.189 250.908 238.894 249.394 239.905 247.263C248.671 228.503 279.306 163.216 284.893 150.781C291.424 136.295 301.893 134.7 311.311 134.7H319.678C310.26 134.7 299.804 136.281 293.26 150.781C286.715 165.28 245.917 252.221 245.917 252.221L242.392 261.454L230.939 261.709H137.372C136.926 261.71 136.481 261.674 136.042 261.601C135.794 261.559 135.55 261.501 135.31 261.427L134.964 261.347Z" fill="#49687A"/>
<path d="M322.55 199.544C319.969 205.976 323.029 211.189 329.387 211.189C335.746 211.189 342.982 205.976 345.563 199.544C348.143 193.112 345.084 187.899 338.739 187.899C332.393 187.899 325.077 193.099 322.55 199.544Z" stroke="#1F0E03" stroke-miterlimit="10"/>
<path d="M15.2981 269.079H384.246V328.04C343.741 336.724 289.149 342.995 235.395 343.678C161.808 344.617 85.5068 343.786 15.2981 340.342V269.079Z" fill="#E1DBD7"/>
<path d="M-0.0128784 267.618C-0.0093689 269.307 0.659302 270.926 1.84637 272.12C3.03342 273.313 4.64194 273.983 6.31894 273.983H393.238C394.914 273.983 396.521 273.313 397.706 272.119C398.891 270.925 399.557 269.306 399.557 267.618C399.557 265.929 398.891 264.308 397.707 263.112C396.522 261.917 394.915 261.243 393.238 261.24H6.31894C4.63965 261.24 3.02914 261.912 1.84171 263.108C0.654266 264.304 -0.0128784 265.926 -0.0128784 267.618Z" fill="#595552"/>
</g>
<defs>
<clipPath id="clip0_237_968">
<rect width="415" height="344" fill="white" transform="matrix(-1 0 0 1 415 0)"/>
</clipPath>
</defs>
</svg>
