<svg width="7" height="13" viewBox="0 0 7 13" fill="none" xmlns="http://www.w3.org/2000/svg">
<path d="M1.54687 0.8125L6.8125 6.0625C6.875 6.125 6.91917 6.19271 6.945 6.26563C6.97125 6.33854 6.98437 6.41667 6.98437 6.5C6.98437 6.58333 6.97125 6.66146 6.945 6.73438C6.91917 6.80729 6.875 6.875 6.8125 6.9375L1.54687 12.2031C1.40104 12.349 1.21875 12.4219 1 12.4219C0.78125 12.4219 0.59375 12.3438 0.4375 12.1875C0.28125 12.0313 0.203125 11.849 0.203125 11.6406C0.203125 11.4323 0.28125 11.25 0.4375 11.0938L5.03125 6.5L0.4375 1.90625C0.291666 1.76042 0.218749 1.58083 0.218749 1.3675C0.218749 1.15375 0.296874 0.968751 0.453124 0.812501C0.609374 0.656251 0.791666 0.578126 0.999999 0.578126C1.20833 0.578126 1.39062 0.65625 1.54687 0.8125Z" fill="#21B9E5"/>
</svg>
