<svg width="421" height="657" viewBox="0 0 421 657" fill="none" xmlns="http://www.w3.org/2000/svg">
<path d="M381.916 439.42C381.521 496.552 363.967 551.167 333.074 591.382C302.181 631.598 260.449 654.161 216.957 654.161C173.466 654.161 131.733 631.598 100.841 591.382C69.9477 551.167 52.3938 496.552 51.998 439.42C51.998 250.184 216.95 0 216.95 0C216.95 0 381.916 250.184 381.916 439.42Z" fill="#58CBEC"/>
<ellipse cx="216.061" cy="178.816" rx="33.1711" ry="33.2472" fill="white"/>
<g clip-path="url(#clip0_116_277)">
<path d="M231.355 182.841L230.728 190.228L227.985 222.756L225.815 248.545L224.578 263.3C224.578 272.681 220.472 280.283 215.397 280.283C212.869 280.283 210.574 278.378 208.925 275.304C207.07 271.581 206.147 267.461 206.235 263.3L205.285 248.545L201.483 190.228L201.053 183.578C201.144 180.807 201.995 178.115 203.514 175.797C205.032 173.479 207.159 171.626 209.66 170.441C211.424 169.47 213.387 168.917 215.397 168.824C218.952 169.047 222.373 170.261 225.277 172.328C227.081 173.437 228.582 174.979 229.643 176.814C230.704 178.65 231.293 180.721 231.355 182.841V182.841Z" fill="#BDAEA7"/>
<path d="M231.355 182.841L230.728 190.228H201.483L201.053 183.578C201.144 180.807 201.995 178.115 203.514 175.797C205.032 173.479 207.159 171.626 209.66 170.441C211.424 169.47 213.387 168.917 215.397 168.824C218.952 169.047 222.373 170.261 225.277 172.328C227.081 173.437 228.582 174.979 229.643 176.814C230.704 178.65 231.293 180.721 231.355 182.841Z" fill="#41D4FF"/>
<g style="mix-blend-mode:screen" opacity="0.5">
<path d="M220.579 263.677C220.579 266.121 219.521 268.098 218.194 268.098C216.868 268.098 215.81 266.121 215.81 263.677V189.113C215.81 178.331 225.761 176.21 226.568 190.228L220.579 263.677Z" fill="white"/>
</g>
</g>
<defs>
<clipPath id="clip0_116_277">
<rect width="30.4816" height="111.423" fill="white" transform="translate(200.82 168.932)"/>
</clipPath>
</defs>
</svg>
