<svg width="60" height="48" viewBox="0 0 60 48" fill="none" xmlns="http://www.w3.org/2000/svg">
<g clip-path="url(#clip0_116_4974)">
<path fill-rule="evenodd" clip-rule="evenodd" d="M10.374 47.3239H36.7147C39.4626 47.3184 42.0965 46.2187 44.0401 44.2654C45.9838 42.3121 47.0789 39.6642 47.086 36.901V10.4229C47.0847 9.83169 47.035 9.24158 46.9373 8.65859C51.966 4.58123 56.6305 2.30706 59.9983 3.12642C44.9805 -3.12941 26.3941 30.0397 22.8255 36.5796L9.71978 16.9449L21.9601 24.1606C29.3396 14.6438 37.3214 7.38619 44.2118 3.23557C43.2448 2.21428 42.0818 1.40093 40.7932 0.84478C39.5045 0.288627 38.117 0.00123362 36.7147 0H10.374C7.62652 0.00592226 4.99318 1.10585 3.05012 3.05916C1.10705 5.01246 0.0124455 7.66012 0.00576782 10.4229V36.901C0.0128365 39.6637 1.10757 42.3111 3.05055 44.2644C4.99353 46.2176 7.62664 47.3176 10.374 47.3239Z" fill="#41D4FF"/>
</g>
<defs>
<clipPath id="clip0_116_4974">
<rect width="60" height="47.3239" fill="white"/>
</clipPath>
</defs>
</svg>
