<svg width="22" height="22" viewBox="0 0 22 22" fill="none" xmlns="http://www.w3.org/2000/svg">
<path d="M3.4375 3.78125C4.00704 3.78125 4.46875 3.31954 4.46875 2.75C4.46875 2.18046 4.00704 1.71875 3.4375 1.71875C2.86796 1.71875 2.40625 2.18046 2.40625 2.75C2.40625 3.31954 2.86796 3.78125 3.4375 3.78125Z" fill="#41D4FF" stroke="#41D4FF" stroke-width="1.5" stroke-linecap="round" stroke-linejoin="round"/>
<path d="M3.4375 11.6875C4.00704 11.6875 4.46875 11.2258 4.46875 10.6562C4.46875 10.0867 4.00704 9.625 3.4375 9.625C2.86796 9.625 2.40625 10.0867 2.40625 10.6562C2.40625 11.2258 2.86796 11.6875 3.4375 11.6875Z" fill="#41D4FF" stroke="#41D4FF" stroke-width="1.5" stroke-linecap="round" stroke-linejoin="round"/>
<path d="M11 3.78125C11.5695 3.78125 12.0312 3.31954 12.0312 2.75C12.0312 2.18046 11.5695 1.71875 11 1.71875C10.4305 1.71875 9.96875 2.18046 9.96875 2.75C9.96875 3.31954 10.4305 3.78125 11 3.78125Z" fill="#41D4FF" stroke="#41D4FF" stroke-width="1.5" stroke-linecap="round" stroke-linejoin="round"/>
<path d="M11 11.6875C11.5695 11.6875 12.0312 11.2258 12.0312 10.6562C12.0312 10.0867 11.5695 9.625 11 9.625C10.4305 9.625 9.96875 10.0867 9.96875 10.6562C9.96875 11.2258 10.4305 11.6875 11 11.6875Z" fill="#41D4FF" stroke="#41D4FF" stroke-width="1.5" stroke-linecap="round" stroke-linejoin="round"/>
<path d="M18.5625 3.78125C19.132 3.78125 19.5938 3.31954 19.5938 2.75C19.5938 2.18046 19.132 1.71875 18.5625 1.71875C17.993 1.71875 17.5312 2.18046 17.5312 2.75C17.5312 3.31954 17.993 3.78125 18.5625 3.78125Z" fill="#41D4FF" stroke="#41D4FF" stroke-width="1.5" stroke-linecap="round" stroke-linejoin="round"/>
<path d="M18.5625 11.6875C19.132 11.6875 19.5938 11.2258 19.5938 10.6562C19.5938 10.0867 19.132 9.625 18.5625 9.625C17.993 9.625 17.5312 10.0867 17.5312 10.6562C17.5312 11.2258 17.993 11.6875 18.5625 11.6875Z" fill="#41D4FF" stroke="#41D4FF" stroke-width="1.5" stroke-linecap="round" stroke-linejoin="round"/>
<path d="M11 19.9375C11.5695 19.9375 12.0312 19.4758 12.0312 18.9062C12.0312 18.3367 11.5695 17.875 11 17.875C10.4305 17.875 9.96875 18.3367 9.96875 18.9062C9.96875 19.4758 10.4305 19.9375 11 19.9375Z" fill="#41D4FF" stroke="#41D4FF" stroke-width="1.5" stroke-linecap="round" stroke-linejoin="round"/>
<path d="M18.5625 19.9375C19.132 19.9375 19.5938 19.4758 19.5938 18.9062C19.5938 18.3367 19.132 17.875 18.5625 17.875C17.993 17.875 17.5312 18.3367 17.5312 18.9062C17.5312 19.4758 17.993 19.9375 18.5625 19.9375Z" fill="#41D4FF" stroke="#41D4FF" stroke-width="1.5" stroke-linecap="round" stroke-linejoin="round"/>
</svg>
