<svg width="30" height="30" viewBox="0 0 26 25" fill="none" xmlns="http://www.w3.org/2000/svg">
<path d="M25.7767 4.198C25.5851 3.94947 25.2843 3.78379 24.9558 3.78379H6.12953L5.39066 0.800869C5.28129 0.331361 4.8707 0 4.37825 0H1.03987C0.465135 0 0 0.469508 0 1.04959C0 1.62968 0.465159 2.09919 1.03987 2.09919H3.5846L7.79872 19.4443C7.90809 19.9138 8.31868 20.2452 8.81113 20.2452H20.8238C21.3985 20.2452 21.8637 19.7757 21.8637 19.1956C21.8637 18.6155 21.3985 18.146 20.8238 18.146H9.60468L9.00267 15.6878H22.4656C22.9308 15.6878 23.3414 15.3565 23.478 14.9145L25.9682 5.08191C26.0505 4.77828 25.9684 4.4467 25.7767 4.19818V4.198Z" fill="#2F4085"/>
<path d="M12.4233 22.7861C12.4233 23.7165 11.676 24.4707 10.7541 24.4707C9.83236 24.4707 9.08508 23.7165 9.08508 22.7861C9.08508 21.8556 9.83236 21.1013 10.7541 21.1013C11.676 21.1013 12.4233 21.8556 12.4233 22.7861Z" fill="#2F4085"/>
<path d="M21.0428 22.7861C21.0428 23.7165 20.2956 24.4707 19.3737 24.4707C18.4517 24.4707 17.7045 23.7165 17.7045 22.7861C17.7045 21.8556 18.4517 21.1013 19.3737 21.1013C20.2956 21.1013 21.0428 21.8556 21.0428 22.7861Z" fill="#2F4085"/>
</svg>
