<svg width="189" height="222" viewBox="0 0 189 222" fill="none" xmlns="http://www.w3.org/2000/svg">
<path d="M188.114 78.8151C188.234 82.6373 187.581 86.4446 186.194 90.011C184.807 93.5774 182.714 96.83 180.04 99.576C177.365 102.322 174.163 104.505 170.624 105.996C167.085 107.487 163.281 108.256 159.438 108.256C155.595 108.256 151.791 107.487 148.252 105.996C144.713 104.505 141.511 102.322 138.836 99.576C136.162 96.83 134.069 93.5774 132.681 90.011C131.294 86.4446 130.641 82.6373 130.762 78.8151C130.762 54.9503 153.008 46.2519 159.452 22.3314C174.329 42.7112 188.114 63.0632 188.114 78.8151Z" fill="#69DAFF"/>
<g style="mix-blend-mode:screen">
<path d="M159.396 99.1391C153.208 99.1318 147.276 96.6826 142.901 92.329C138.526 87.9753 136.064 82.0726 136.057 75.9156C136.057 54.1418 154.773 58.1285 160.853 30.5558C172.256 46.6143 182.707 63.5371 182.707 75.9156C182.707 82.07 180.252 87.9728 175.881 92.3273C171.51 96.6817 165.581 99.1318 159.396 99.1391Z" fill="#69DAFF"/>
</g>
<g style="mix-blend-mode:screen">
<path d="M159.396 93.8142C154.623 93.8142 150.045 91.9293 146.667 88.5735C143.289 85.2177 141.388 80.6652 141.38 75.9156C141.38 62.3105 159.396 59.188 161.301 40.5366C169.202 52.2739 177.383 66.353 177.383 75.9156C177.376 80.6603 175.478 85.2086 172.107 88.5637C168.735 91.9187 164.164 93.8068 159.396 93.8142Z" fill="#69DAFF"/>
</g>
<g style="mix-blend-mode:screen">
<path d="M159.396 88.4892C156.042 88.4892 152.825 87.1654 150.451 84.8082C148.077 82.451 146.739 79.2529 146.732 75.9156C146.732 66.6039 159.396 67.2451 161.105 50.0435C168.362 61.6692 172.032 70.3397 172.032 75.9156C172.032 79.2503 170.701 82.4485 168.331 84.8065C165.961 87.1645 162.747 88.4892 159.396 88.4892Z" fill="#728A91"/>
</g>
<path d="M135.076 221.028H21.1836C18.113 221.041 15.0849 220.314 12.358 218.909C7.16414 216.054 3.22155 211.381 1.29557 205.796C-0.630421 200.212 -0.402409 194.114 1.93534 188.688L47.7166 77.7835V42.2652H108.543V77.7835L154.493 188.688C160.601 203.882 150.402 221.028 135.076 221.028Z" fill="#83AFC0"/>
<path d="M118.63 35.1281H37.6582C36.8845 35.1281 36.2573 35.7522 36.2573 36.522V49.5417C36.2573 50.3116 36.8845 50.9357 37.6582 50.9357H118.63C119.404 50.9357 120.031 50.3116 120.031 49.5417V36.522C120.031 35.7522 119.404 35.1281 118.63 35.1281Z" fill="#A0E6FF"/>
<path d="M88.1744 66.0184L138.438 0H79.9371H76.3508H17.8495L68.3097 66.0184V119.937L88.1744 130.671V66.0184Z" fill="#59A2C0"/>
<g style="mix-blend-mode:screen">
<path d="M76.3508 11.6536H79.9371H129.557L138.438 0H79.9371H76.3508H17.8495L26.7312 11.6536H76.3508Z" fill="#59A2C0"/>
</g>
<g style="mix-blend-mode:screen" opacity="0.2">
<path d="M135.076 221.028H21.1836C18.113 221.041 15.0849 220.314 12.358 218.909C7.16414 216.054 3.22155 211.381 1.29557 205.796C-0.630421 200.212 -0.402409 194.114 1.93534 188.688L47.7166 77.7835V42.2652H108.543V77.7835L154.493 188.688C160.601 203.882 150.402 221.028 135.076 221.028Z" fill="#83AFC0"/>
</g>
<g style="mix-blend-mode:screen" opacity="0.5">
<path d="M118.63 35.1281H37.6582C36.8845 35.1281 36.2573 35.7522 36.2573 36.522V49.5417C36.2573 50.3116 36.8845 50.9357 37.6582 50.9357H118.63C119.404 50.9357 120.031 50.3116 120.031 49.5417V36.522C120.031 35.7522 119.404 35.1281 118.63 35.1281Z" fill="#A0E6FF"/>
</g>
<g style="mix-blend-mode:screen">
<path d="M87.8382 35.1281V77.7835L46.3437 221.028H24.6018C21.5316 221.037 18.5043 220.311 15.7762 218.909L60.913 77.7835V35.1281H87.8382Z" fill="#83AFC0"/>
</g>
<g style="mix-blend-mode:screen">
<path d="M118.238 111.044H38.0224L9.80835 185.677C5.38153 197.442 10.1726 210.378 19.1663 215.285C21.5796 216.633 24.2998 217.343 27.0674 217.348H129.277C143.005 217.348 152.139 200.62 146.564 185.677L118.238 111.044Z" fill="#32A2FF"/>
</g>
<g style="mix-blend-mode:screen">
<path d="M96.6358 195.184C98.6319 195.184 100.25 193.324 100.25 191.03C100.25 188.735 98.6319 186.876 96.6358 186.876C94.6397 186.876 93.0215 188.735 93.0215 191.03C93.0215 193.324 94.6397 195.184 96.6358 195.184Z" fill="#9CDAFF"/>
</g>
<g style="mix-blend-mode:screen">
<path d="M69.8226 156.208C69.7156 156.892 69.4139 157.532 68.9531 158.05C68.4924 158.569 67.892 158.946 67.2229 159.136C66.5538 159.326 65.844 159.321 65.1776 159.122C64.5111 158.923 63.9158 158.539 63.4621 158.014C63.0085 157.489 62.7154 156.846 62.6175 156.16C62.5197 155.475 62.6213 154.776 62.9101 154.146C63.199 153.516 63.6632 152.982 64.2477 152.606C64.8322 152.23 65.5126 152.029 66.2083 152.026C67.2446 152.105 68.2073 152.589 68.885 153.373C69.5626 154.157 69.8999 155.177 69.8226 156.208Z" fill="#9CDAFF"/>
</g>
<g style="mix-blend-mode:screen">
<path d="M53.6283 186.876C53.5264 187.562 53.2288 188.205 52.7706 188.728C52.3125 189.25 51.7131 189.632 51.0438 189.826C50.3744 190.02 49.6632 190.018 48.9945 189.822C48.3258 189.626 47.7278 189.243 47.2714 188.718C46.8151 188.194 46.5196 187.55 46.4201 186.863C46.3206 186.177 46.4212 185.476 46.71 184.845C46.9988 184.213 47.4636 183.678 48.0493 183.301C48.6349 182.925 49.3169 182.724 50.014 182.722C51.0451 182.8 52.0033 183.281 52.6802 184.059C53.3571 184.837 53.6978 185.849 53.6283 186.876Z" fill="#9CDAFF"/>
</g>
<g style="mix-blend-mode:screen">
<path d="M92.9935 135.801C94.9896 135.801 96.6078 133.941 96.6078 131.647C96.6078 129.352 94.9896 127.493 92.9935 127.493C90.9973 127.493 89.3792 129.352 89.3792 131.647C89.3792 133.941 90.9973 135.801 92.9935 135.801Z" fill="#9CDAFF"/>
</g>
</svg>
