<svg width="137" height="250" viewBox="0 0 137 250" fill="none" xmlns="http://www.w3.org/2000/svg">
<g clip-path="url(#clip0_116_177)">
<path d="M121.6 205.481L32.4027 229.585L-24.6724 33.2392L72.0125 7.11228L121.6 205.481Z" fill="#DAE5F9"/>
<path opacity="0.25" d="M61.3906 38.2535L65.5916 53.7998L67.7585 61.8186L69.7927 69.3464L94.9596 172.82C95.844 176.093 88.9453 180.942 78.8376 184.902L69.7226 187.366C54.5851 191.456 41.6561 191.438 40.5063 187.183L9.96778 85.1615L5.94359 70.2696L1.74255 54.7233L61.3906 38.2535Z" fill="#41D4FF"/>
<path d="M119.021 195.291L129.369 233.584C129.394 233.961 129.329 234.338 129.179 234.684C129.03 235.029 128.8 235.334 128.509 235.573C125.092 238.657 121.111 241.044 116.786 242.604C108.175 246.288 99.3254 249.383 90.2968 251.869L78.415 255.08L65.8815 258.467L54.7849 260.06L48.6159 260.498C46.3815 260.668 44.1339 260.443 41.9744 259.835C41.623 259.76 41.2948 259.6 41.019 259.368C40.7432 259.136 40.5283 258.84 40.3927 258.506L30.0448 220.213C30.4428 221.686 33.5635 222.247 38.5933 222.117C44.2746 221.81 49.9316 221.161 55.5336 220.173L68.0671 216.786L79.949 213.576C88.9521 211.009 97.7969 207.915 106.438 204.311C114.711 200.67 119.552 197.255 119.021 195.291Z" fill="#21B9E5"/>
<path d="M60.7228 9.28491L71.0265 47.4145C71.9994 51.0147 60.6323 57.4228 44.4137 62.6835L35.1358 65.1907C26.2733 67.7258 17.1775 69.3602 7.98522 70.0692C0.957911 70.5634 -3.80448 69.7431 -4.37936 67.6157L-14.6388 29.6497L60.7228 9.28491Z" fill="#97A1B7"/>
<path d="M68.2273 -10.1268L73.357 8.85618C73.8434 10.6563 69.6837 13.3605 62.6686 16.4854L56.2608 19.2705C46.3828 23.0794 36.2996 26.332 26.0582 29.0126L17.7568 31.2559L5.22379 34.6427C-0.306324 35.845 -5.90417 36.7127 -11.5396 37.241C-19.1737 38.0748 -23.9665 37.7895 -24.453 35.9894L-29.5827 17.0064L68.2273 -10.1268Z" fill="#21B9E5"/>
<path d="M68.2273 -10.1268C69.2444 -6.36294 47.948 2.72823 21.2538 9.94172C-5.4403 17.1552 -28.4171 20.0279 -29.4342 16.264C-30.4513 12.5002 -9.31768 3.45299 17.5392 -3.80449C44.3961 -11.062 67.2102 -13.8907 68.2273 -10.1268Z" fill="#41D4FF"/>
<path opacity="0.15" d="M62.6686 16.4854L71.0265 47.4145C71.9994 51.0147 60.6323 57.4229 44.4137 62.6835L41.3624 51.3919C41.0569 50.2605 40.5298 49.2009 39.8124 48.2753C39.095 47.3498 38.2016 46.5768 37.1842 46.0015C36.1668 45.4262 35.0459 45.0603 33.8872 44.925C32.7285 44.7897 31.5554 44.8877 30.4361 45.2135C21.5737 47.7486 12.4778 49.383 3.28556 50.0919C-3.74175 50.5862 -8.50463 49.766 -9.07951 47.6386L-11.9981 36.8382C13.6837 33.4105 38.8001 26.6234 62.7129 16.6492L62.6686 16.4854Z" fill="#21B9E5"/>
<path opacity="0.5" d="M65.2658 53.8879C58.6289 57.5175 51.643 60.4643 44.4137 62.6836L35.1358 65.1907C26.2733 67.7259 17.1775 69.3602 7.98521 70.0692L4.02072 70.2625L8.04491 85.1544L11.684 85.049C20.8651 84.2547 29.9528 82.6218 38.8346 80.1705C40.706 79.6643 42.7023 79.9145 44.3963 80.8679C46.0902 81.8213 47.3471 83.4022 47.898 85.2718L76.8264 184.568C86.934 180.608 93.8322 175.758 92.9477 172.486L67.7809 69.012L65.7467 61.4842L65.2658 53.8879Z" fill="#97A1B7"/>
<path opacity="0.25" d="M5.04686 33.9879L55.15 219.399C49.548 220.387 43.8911 221.036 38.2098 221.343L-11.7165 36.5863C-6.0811 36.058 -0.483253 35.1903 5.04686 33.9879Z" fill="white"/>
<path opacity="0.25" d="M56.2608 19.2705L106.276 204.354C96.4981 208.451 86.4512 211.869 76.2056 214.587L67.9042 216.83L17.7568 31.2559L25.407 29.1886C35.8721 26.4739 46.1735 23.1623 56.2608 19.2705Z" fill="white"/>
<path opacity="0.5" d="M119.021 195.291L129.369 233.584C129.394 233.961 129.329 234.338 129.179 234.684C129.03 235.029 128.8 235.334 128.509 235.573C125.092 238.656 121.111 241.044 116.786 242.604C108.175 246.287 99.3254 249.383 90.2968 251.869L79.949 213.576C88.9521 211.008 97.7969 207.915 106.438 204.31C114.711 200.67 119.552 197.255 119.021 195.291Z" fill="#21B9E5"/>
</g>
<defs>
<clipPath id="clip0_116_177">
<rect width="101.839" height="269.279" fill="white" transform="translate(-31.9426 9.56677) rotate(-15.1217)"/>
</clipPath>
</defs>
</svg>
