<svg width="632" height="788" viewBox="0 0 632 788" fill="none" xmlns="http://www.w3.org/2000/svg">
<g clip-path="url(#clip0_116_652)">
<path d="M280.037 356.651C280.037 356.651 315.512 339.233 344.114 343.975C372.717 348.718 411.341 355.853 432.804 355.853C454.267 355.853 503.977 346.369 503.977 346.369C503.977 346.369 511.117 333.072 484.199 308.43C457.282 283.787 428.857 255.466 427.261 245.982C425.664 236.497 424.112 230.159 424.112 230.159L507.924 237.295C507.924 237.295 506.372 246.159 514.265 264.153C522.158 282.148 586.902 323.056 611.38 361.659C635.858 400.263 633.907 394.9 618.12 414.845C602.333 434.789 562.556 451.232 490.718 461.116C397.151 473.969 333.96 455.487 333.96 455.487L274.493 369.947L280.037 356.651Z" fill="white" stroke="#263238" stroke-linecap="round" stroke-linejoin="round"/>
<path d="M389.169 392.994C389.169 392.994 364.646 436.473 361.498 460.185" stroke="#263238" stroke-linecap="round" stroke-linejoin="round"/>
<path d="M547.878 407.62C552.715 407.854 557.562 407.72 562.379 407.221" stroke="#263238" stroke-linecap="round" stroke-linejoin="round"/>
<path d="M502.292 352.706C502.292 352.706 494.354 367.687 500.696 379.565C504.367 386.596 509.623 392.678 516.049 397.331C522.475 401.985 529.895 405.082 537.723 406.379" stroke="#263238" stroke-linecap="round" stroke-linejoin="round"/>
<path d="M305.269 86.9577C305.269 86.9577 322.696 108.01 321.987 119.622C321.277 131.234 317.552 134.824 323.406 142.093C329.259 149.362 344.469 155.168 343.006 163.855C341.542 172.542 327.796 179.101 327.796 179.101C327.796 179.101 334.314 188.541 332.851 193.594L331.388 198.691C331.388 198.691 338.66 207.555 337.197 211.766C335.733 215.976 333.605 222.624 333.605 222.624C333.605 222.624 339.414 243.677 334.314 253.649C329.215 263.621 313.251 270.358 294.404 269.605C275.558 268.851 261.722 310.956 259.549 324.031C257.376 337.106 258.84 343.621 261.722 347.964C264.605 352.308 297.198 352.396 324.159 374.823C351.121 397.249 362.606 424.861 369.169 488.728C375.732 552.594 389.479 749.158 389.479 749.158L409.168 883.406L430.986 966.951C430.986 966.951 284.382 1006.84 220.171 1000.86C155.96 994.874 120.839 975.417 120.839 975.417C120.839 975.417 143.854 795.03 143.854 782.886C143.854 770.742 67.5369 480.174 67.5369 480.174C67.5369 480.174 49.3556 412.363 54.2335 390.601C59.1114 368.839 105.141 333.693 118.445 320.352C131.748 307.012 154.807 281.616 154.807 258.613C154.807 235.61 110.063 176.885 104.432 147.811C101.135 129.267 101.135 110.288 104.432 91.7444C104.432 91.7444 98.8442 109.827 96.3609 99.8552C93.8776 89.8829 107.536 73.2626 107.536 73.2626C107.536 73.2626 98.2235 73.8831 102.569 59.9663C106.915 46.0495 116.272 38.1603 116.272 44.3653C116.027 48.5269 116.235 52.7028 116.892 56.8195C117.513 58.681 126.87 53.0965 171.126 26.3266C215.382 -0.443241 263.939 6.38222 267.044 10.1495C270.148 13.9168 262.609 -4.83102 278.883 5.14121C295.158 15.1134 318.794 35.6784 316.266 58.681C313.738 81.6836 305.269 86.9577 305.269 86.9577Z" fill="white" stroke="#263238" stroke-linecap="round" stroke-linejoin="round"/>
<path d="M213.431 157.738C209.706 160.885 207.843 167.711 204.074 159.644C200.305 151.578 191.613 137.218 170.461 142.802C149.309 148.387 152.989 170.857 156.714 184.553C160.173 197.051 156.714 236.187 151.437 244.652C140.972 217.084 109.088 172.187 104.387 147.811C101.09 129.267 101.09 110.288 104.387 91.7444C104.387 91.7444 98.8 109.827 96.3167 99.8552C93.8334 89.883 107.491 73.2626 107.491 73.2626C107.491 73.2626 98.1791 73.8831 102.525 59.9663C106.871 46.0495 116.227 38.1603 116.227 44.3653C115.983 48.5269 116.191 52.7028 116.848 56.8195C117.469 58.681 126.826 53.0965 171.082 26.3266C215.338 -0.443241 263.895 6.38222 266.999 10.1495C270.103 13.9168 262.565 -4.83102 278.839 5.14121C295.114 15.1134 318.749 35.6784 316.222 58.681C313.694 81.6836 305.712 86.6476 305.313 86.8692C304.914 87.0908 306.2 84.9633 283.141 71.1352C258.219 56.199 220.836 69.8942 235.781 85.4952C250.725 101.096 240.215 106.636 224.561 117.85C208.908 129.063 217.245 154.636 213.431 157.738Z" fill="#263238" stroke="#263238" stroke-linecap="round" stroke-linejoin="round"/>
<path d="M192.855 155.877C192.855 155.877 175.428 137.838 162.967 147.013C150.506 156.187 158 183.755 165.45 190.58C172.9 197.406 197.245 209.904 202.212 199.445" fill="white"/>
<path d="M192.855 155.877C192.855 155.877 175.428 137.838 162.967 147.013C150.506 156.187 158 183.755 165.45 190.58C172.9 197.406 197.245 209.904 202.212 199.445" stroke="#263238" stroke-linecap="round" stroke-linejoin="round"/>
<path d="M301.499 118.381C295.827 115.548 289.476 114.354 283.161 114.933C276.846 115.513 270.819 117.843 265.758 121.661" stroke="#263238" stroke-width="2" stroke-linecap="round" stroke-linejoin="round"/>
<path d="M301.145 139.079C301.145 139.079 292.276 147.944 272.631 139.079" stroke="#263238" stroke-linecap="round" stroke-linejoin="round"/>
<path d="M294.404 269.782C294.404 269.782 260.791 272.353 242.698 255.511C242.698 255.511 257.066 287.289 268.862 294.779C268.862 294.602 281.278 269.117 294.404 269.782Z" fill="#263238" stroke="#263238" stroke-linecap="round" stroke-linejoin="round"/>
<path d="M108.334 329.748C116.138 331.561 123.777 334.022 131.171 337.106C148.022 343.975 214.673 399.377 244.605 420.562C274.538 441.748 302.519 450.434 312.497 431.155C322.474 411.875 303.628 384.44 296.932 372.607C290.236 360.773 273.873 359.31 266.999 353.903C265.088 352.424 263.464 350.606 262.21 348.54C266.911 352.529 298.218 353.239 324.293 375.133C351.121 397.604 362.739 425.171 369.302 489.038C375.865 552.905 389.612 749.468 389.612 749.468L409.301 883.717L431.119 967.262C431.119 967.262 284.515 1007.15 220.304 1001.17C156.093 995.184 120.972 975.727 120.972 975.727C120.972 975.727 143.987 795.34 143.987 783.197C143.987 771.053 67.6699 480.484 67.6699 480.484C67.6699 480.484 49.4886 412.673 54.3665 390.911C58.1802 372.917 89.7093 346.191 108.334 329.748Z" fill="#41D4FF" stroke="#263238" stroke-linecap="round" stroke-linejoin="round"/>
<path d="M190.638 715.651C185.392 720.465 179.689 724.755 173.609 728.46" stroke="#263238" stroke-linecap="round" stroke-linejoin="round"/>
<path d="M292.63 590.799C292.63 590.799 240.88 666.632 199.285 707.541" stroke="#263238" stroke-linecap="round" stroke-linejoin="round"/>
<path d="M459.499 241.062C459.499 241.062 485.441 250.635 484.244 260.607C483.908 264.652 482.096 268.432 479.152 271.227C476.208 274.023 472.338 275.638 468.279 275.765" stroke="#263238" stroke-linecap="round" stroke-linejoin="round"/>
<path d="M364.336 186.591C362.606 205.073 364.691 220.408 369.036 220.807C373.382 221.206 378.26 206.536 379.989 188.054C381.719 169.572 379.635 154.281 375.333 153.838C371.032 153.395 366.11 168.11 364.336 186.591Z" fill="white" stroke="#263238" stroke-linecap="round" stroke-linejoin="round"/>
<path d="M344.248 184.686C345.977 166.204 350.899 151.578 355.201 151.977L375.333 153.838L369.036 220.807L348.904 218.902C344.558 218.503 342.474 203.168 344.248 184.686Z" fill="#41D4FF" stroke="#263238" stroke-linecap="round" stroke-linejoin="round"/>
<path d="M573.731 163.855C570.617 161.957 567.145 160.72 563.532 160.22C557.102 159.201 388.991 148.919 382.295 150.47C375.599 152.021 375.333 153.838 375.333 153.838L369.036 220.807C372.559 224.521 377.26 226.901 382.34 227.544C392.095 229.361 557.146 238.846 560.472 239.378C563.798 239.91 564.907 238.048 566.459 238.447C568.011 238.846 573.731 163.855 573.731 163.855Z" fill="white" stroke="#263238" stroke-linecap="round" stroke-linejoin="round"/>
<path d="M466.284 153.351C468.073 150.042 470.868 147.388 474.266 145.772C479.055 144.176 492.004 144.974 490.585 149.362L489.432 153.794L466.284 153.351Z" fill="white" stroke="#263238" stroke-linecap="round" stroke-linejoin="round"/>
<path d="M433.558 150.957C433.558 150.957 442.427 142.581 449.921 144.176C455.774 145.417 453.912 153.04 453.912 153.04L433.558 150.957Z" fill="white" stroke="#263238" stroke-linecap="round" stroke-linejoin="round"/>
<path d="M407.217 150.16C407.217 150.16 416.086 141.783 423.58 143.378C429.434 144.619 427.571 152.243 427.571 152.243L407.217 150.16Z" fill="white" stroke="#263238" stroke-linecap="round" stroke-linejoin="round"/>
<path d="M409.213 156.941C409.213 156.941 407.616 179.677 411.607 192.043C415.598 204.408 420.476 216.73 420.476 216.73" stroke="#263238" stroke-linecap="round" stroke-linejoin="round"/>
<path d="M450.719 158.536C450.719 158.536 443.136 171.301 445.531 176.265C447.925 181.229 449.123 184.641 449.123 184.641" stroke="#263238" stroke-linecap="round" stroke-linejoin="round"/>
<path d="M465.575 158.935C462.394 164.813 460.107 171.132 458.79 177.683" stroke="#263238" stroke-linecap="round" stroke-linejoin="round"/>
<path d="M483.312 160.531C480.585 166.384 478.574 172.545 477.326 178.88C476.927 184.863 478.922 189.65 480.519 189.251C482.115 188.852 499.232 170.104 505.618 167.09" stroke="#263238" stroke-linecap="round" stroke-linejoin="round"/>
<path d="M518.522 176.087C518.522 176.087 503.356 191.644 501.76 197.627C500.163 203.611 506.194 227.101 506.194 227.101" stroke="#263238" stroke-linecap="round" stroke-linejoin="round"/>
<path d="M345.4 174.093H333.827C331.17 178.114 329.78 182.837 329.836 187.655C329.548 192.987 330.504 198.313 332.629 203.212L344.203 204.807C344.203 204.807 341.809 182.868 345.4 174.093Z" fill="#41D4FF" stroke="#263238" stroke-linecap="round" stroke-linejoin="round"/>
<path d="M561.226 188.852L571.824 189.384C570.095 211.101 567.745 238.713 566.68 238.447C565.616 238.181 564.02 239.865 560.694 239.378C557.368 238.89 392.184 229.361 382.561 227.544C377.482 226.901 372.781 224.521 369.258 220.807L372.229 189.251L561.226 188.852Z" fill="#41D4FF" stroke="#263238" stroke-linecap="round" stroke-linejoin="round"/>
<path d="M454.621 279.577C454.621 279.577 427.305 259.101 421.052 251.167C414.8 243.234 415.598 241.86 416.618 238.669C417.638 235.478 421.052 231.888 423.403 225.372C425.753 218.857 435.376 215.799 438.968 226.569C440.236 229.902 440.68 233.492 440.263 237.034C439.846 240.575 438.58 243.964 436.573 246.912C435.618 248.335 435.067 249.989 434.977 251.699" fill="white"/>
<path d="M454.621 279.577C454.621 279.577 427.305 259.101 421.052 251.167C414.8 243.234 415.598 241.86 416.618 238.669C417.638 235.478 421.052 231.888 423.403 225.372C425.753 218.857 435.376 215.799 438.968 226.569C440.236 229.902 440.68 233.492 440.263 237.034C439.846 240.575 438.58 243.964 436.573 246.912C435.618 248.335 435.067 249.989 434.977 251.699" stroke="#263238" stroke-linecap="round" stroke-linejoin="round"/>
<path d="M561.492 200.331C559.541 220.94 561.891 238.004 566.68 238.447C571.47 238.89 576.968 222.58 578.919 201.971C580.871 181.362 578.52 164.298 573.731 163.855C568.942 163.412 563.443 179.722 561.492 200.331Z" fill="white" stroke="#263238" stroke-linecap="round" stroke-linejoin="round"/>
<path d="M91.8378 345.571C91.8378 345.571 124.254 347.166 158.355 396.141C192.456 445.116 191.569 508.406 174.141 536.86C163.011 554.743 149.743 571.204 134.63 585.879L106.161 724.959C106.161 724.959 130.639 811.119 136.182 845.911C141.726 880.703 205.804 1016.64 206.602 1019.03C207.4 1021.42 251.656 1075.14 252.454 1081.48C253.252 1087.81 269.837 1130.5 273.784 1139.09C277.731 1147.69 273.784 1150.13 264.915 1147.96C256.046 1145.79 245.137 1132.93 245.137 1132.93C245.137 1132.93 249.882 1163.96 251.479 1172.47C253.075 1180.98 264.782 1181.33 260.347 1189.04C255.913 1196.76 232.676 1186.69 228.73 1185.1C224.783 1183.5 186.026 1180.36 174.94 1170.87C162.395 1159.09 154.061 1143.52 151.215 1126.55C149.619 1111.53 148.067 1061.75 143.322 1038.84C138.577 1015.93 34.9435 864.127 21.5071 826.099C8.07065 788.072 0.975525 733.025 2.52759 723.363C4.07965 713.701 2.52759 558.134 5.7204 505.969C8.91321 453.803 31.7951 397.692 45.2315 377.925C58.6679 358.158 91.8378 345.571 91.8378 345.571Z" fill="white" stroke="#263238" stroke-linecap="round" stroke-linejoin="round"/>
<path d="M134.542 585.879L145.096 528.262C154.769 521.709 163.106 513.376 169.663 503.708" stroke="#263238" stroke-linecap="round" stroke-linejoin="round"/>
</g>
<defs>
<clipPath id="clip0_116_652">
<rect width="632" height="813" fill="white" transform="matrix(-1 0 0 1 632 0)"/>
</clipPath>
</defs>
</svg>
