<svg width="588" height="259" viewBox="0 0 588 259" fill="none" xmlns="http://www.w3.org/2000/svg">
<g clip-path="url(#clip0_116_4304)" filter="url(#filter0_d_116_4304)">
<path d="M584.099 369.353C584.918 430.122 297.888 393.805 -27.1545 398.074C-121.913 399.315 -216.622 394.425 -311.058 387.102C-348.872 384.173 -386.885 378.836 -424.476 381.467C-456.93 383.726 -493.057 360.119 -493.95 325.192C-494.844 290.265 -460.677 269.487 -437.75 252.657C-407.157 230.315 -362.221 228.478 -325.797 217.779C-230.07 189.654 -129.605 179.352 -30.1071 178.061C294.886 173.816 583.231 308.609 584.099 369.353Z" fill="#D1C024"/>
<path d="M251.141 4.89026L311.684 36.6895L366.742 108.331L354.857 108.083L227.992 11.2451L251.141 4.89026Z" fill="#751231"/>
<path d="M317.366 242.479L164.521 239.425L194.371 71.2938L195.115 67.0986L237.247 72.1627L312.9 81.2482L313.991 120.668L317.366 242.479Z" fill="#A5193E"/>
<path opacity="0.75" d="M320.716 73.8011L313.991 120.668L309.873 149.514L194.495 240.046L164.521 239.425L194.396 71.2939L320.716 73.8011Z" fill="#751231"/>
<path d="M-8.07373 97.9049L5.72196 237.117L133.084 239.649L137.253 94.4048L-8.07373 97.9049Z" fill="#E0764C"/>
<path d="M195.314 100.66L192.535 239.996H190.053L192.807 100.66C192.885 100.391 193.047 100.153 193.271 99.9845C193.495 99.8155 193.768 99.7241 194.048 99.7241C194.329 99.7241 194.601 99.8155 194.825 99.9845C195.049 100.153 195.212 100.391 195.289 100.66H195.314Z" fill="#751231"/>
<path d="M202.956 100.834L200.177 240.145H197.696L200.45 100.834C200.395 100.642 200.385 100.44 200.422 100.243C200.458 100.047 200.54 99.8617 200.66 99.7022C200.781 99.5427 200.936 99.4133 201.115 99.3242C201.294 99.2351 201.491 99.1887 201.69 99.1887C201.89 99.1887 202.087 99.2351 202.266 99.3242C202.445 99.4133 202.6 99.5427 202.72 99.7022C202.841 99.8617 202.922 100.047 202.959 100.243C202.995 100.44 202.986 100.642 202.931 100.834H202.956Z" fill="#751231"/>
<path d="M210.598 100.983L207.819 240.294H205.338L208.092 100.983C208.105 100.643 208.249 100.321 208.494 100.085C208.74 99.8486 209.067 99.7168 209.407 99.717C209.728 99.7417 210.027 99.8852 210.248 100.119C210.468 100.354 210.593 100.662 210.598 100.983V100.983Z" fill="#751231"/>
<path d="M218.24 101.132L215.461 240.468H212.98L215.734 101.157C215.679 100.965 215.67 100.763 215.706 100.566C215.743 100.37 215.825 100.184 215.945 100.025C216.065 99.8654 216.221 99.736 216.399 99.6469C216.578 99.5578 216.775 99.5115 216.975 99.5115C217.175 99.5115 217.372 99.5578 217.55 99.6469C217.729 99.736 217.885 99.8654 218.005 100.025C218.125 100.184 218.207 100.37 218.243 100.566C218.28 100.763 218.27 100.965 218.215 101.157L218.24 101.132Z" fill="#751231"/>
<path d="M225.882 101.281L223.103 240.617H220.622L223.376 101.306C223.453 101.036 223.616 100.799 223.84 100.63C224.064 100.461 224.337 100.37 224.617 100.37C224.897 100.37 225.17 100.461 225.394 100.63C225.618 100.799 225.781 101.036 225.858 101.306L225.882 101.281Z" fill="#751231"/>
<path d="M233.525 101.455L230.746 240.791H228.264L230.969 101.455C231.046 101.185 231.209 100.948 231.433 100.779C231.657 100.61 231.929 100.519 232.21 100.519C232.49 100.519 232.763 100.61 232.987 100.779C233.211 100.948 233.373 101.185 233.45 101.455H233.525Z" fill="#751231"/>
<path d="M241.167 101.579L238.388 240.915H235.907L238.611 101.455C238.614 101.286 238.651 101.12 238.719 100.966C238.787 100.812 238.886 100.673 239.008 100.558C239.131 100.442 239.275 100.352 239.433 100.293C239.59 100.234 239.758 100.207 239.926 100.214C240.099 100.216 240.269 100.255 240.427 100.326C240.584 100.397 240.725 100.5 240.842 100.628C240.958 100.756 241.047 100.906 241.103 101.07C241.159 101.233 241.181 101.407 241.167 101.579V101.579Z" fill="#751231"/>
<path d="M248.809 101.728L246.03 241.064H243.549L246.303 101.728C246.306 101.562 246.342 101.397 246.409 101.245C246.475 101.093 246.571 100.955 246.691 100.84C246.811 100.724 246.952 100.634 247.107 100.573C247.262 100.513 247.427 100.483 247.593 100.487C247.916 100.499 248.222 100.635 248.448 100.866C248.674 101.096 248.803 101.405 248.809 101.728V101.728Z" fill="#751231"/>
<path d="M256.575 101.902L253.796 241.213H251.315L254.069 101.877C254.146 101.607 254.309 101.37 254.533 101.201C254.757 101.032 255.03 100.94 255.31 100.94C255.59 100.94 255.863 101.032 256.087 101.201C256.311 101.37 256.474 101.607 256.551 101.877L256.575 101.902Z" fill="#751231"/>
<path d="M264.019 102.051L261.265 241.362H258.784L261.538 101.976C261.557 101.644 261.7 101.332 261.939 101.102C262.179 100.872 262.496 100.741 262.828 100.735C263.159 100.754 263.47 100.903 263.693 101.149C263.915 101.395 264.033 101.719 264.019 102.051V102.051Z" fill="#751231"/>
<path d="M271.736 102.2L268.982 241.511H266.5L269.255 102.2C269.2 102.007 269.19 101.805 269.227 101.609C269.263 101.412 269.345 101.227 269.465 101.068C269.585 100.908 269.741 100.779 269.92 100.69C270.098 100.601 270.295 100.554 270.495 100.554C270.695 100.554 270.892 100.601 271.071 100.69C271.249 100.779 271.405 100.908 271.525 101.068C271.646 101.227 271.727 101.412 271.764 101.609C271.8 101.805 271.791 102.007 271.736 102.2V102.2Z" fill="#751231"/>
<path d="M279.378 102.349L276.599 241.66H274.118L276.872 102.349C276.817 102.156 276.808 101.954 276.844 101.758C276.881 101.561 276.962 101.376 277.083 101.217C277.203 101.057 277.358 100.928 277.537 100.839C277.716 100.75 277.913 100.703 278.113 100.703C278.312 100.703 278.509 100.75 278.688 100.839C278.867 100.928 279.022 101.057 279.143 101.217C279.263 101.376 279.345 101.561 279.381 101.758C279.418 101.954 279.408 102.156 279.353 102.349H279.378Z" fill="#751231"/>
<path d="M287.02 102.497L284.241 241.833H281.76L284.539 102.522C284.484 102.33 284.475 102.128 284.511 101.931C284.548 101.735 284.629 101.55 284.75 101.39C284.87 101.231 285.025 101.101 285.204 101.012C285.383 100.923 285.58 100.877 285.78 100.877C285.979 100.877 286.176 100.923 286.355 101.012C286.534 101.101 286.689 101.231 286.81 101.39C286.93 101.55 287.011 101.735 287.048 101.931C287.085 102.128 287.075 102.33 287.02 102.522V102.497Z" fill="#751231"/>
<path d="M294.663 102.646L291.884 241.982H289.402L292.181 102.671C292.258 102.401 292.421 102.164 292.645 101.995C292.869 101.826 293.141 101.735 293.422 101.735C293.702 101.735 293.975 101.826 294.199 101.995C294.423 102.164 294.585 102.401 294.663 102.671V102.646Z" fill="#751231"/>
<path d="M302.305 102.795L299.526 242.131H297.044L299.823 102.795C299.9 102.525 300.063 102.288 300.287 102.119C300.511 101.95 300.784 101.859 301.064 101.859C301.344 101.859 301.617 101.95 301.841 102.119C302.065 102.288 302.228 102.525 302.305 102.795V102.795Z" fill="#751231"/>
<path d="M309.922 102.944L307.168 242.28H304.687L307.466 102.944C307.469 102.778 307.505 102.614 307.571 102.462C307.638 102.309 307.734 102.172 307.854 102.056C307.974 101.941 308.115 101.851 308.27 101.79C308.425 101.729 308.59 101.7 308.756 101.703C309.074 101.716 309.374 101.853 309.592 102.085C309.811 102.317 309.929 102.626 309.922 102.944V102.944Z" fill="#751231"/>
<path d="M361.681 106.966L360.986 113.966L348.332 243.496L308.855 242.727L302.454 115.977L197.596 113.892L179.781 240.592L133.084 239.649L137.004 103.341L137.253 94.4049L183.056 33.7107L247.271 7.37268L309.724 39.6436L361.681 106.966Z" fill="#FFC552"/>
<path opacity="0.3" d="M361.681 107.164V106.966L309.724 39.6436L247.271 7.37268L183.056 33.7107L137.253 94.4049L137.004 103.341L146.309 103.515L187.324 43.1437L248.065 15.3659L302.602 45.1297L351.061 106.941L361.681 107.164Z" fill="#A5193E"/>
<path d="M251.142 4.89028L181.295 36.2179L136.434 103.317L-10.679 100.387L36.539 30.3347L36.5886 30.2602L122.564 0.421997L251.142 4.89028Z" fill="#751231"/>
<path d="M235.024 47.5595L234.548 71.3655L258.343 71.8416L258.819 48.0356L235.024 47.5595Z" fill="#9E3057"/>
<path d="M239.624 49.8606L239.253 68.3792L257.763 68.7495L258.134 50.231L239.624 49.8606Z" fill="#84244B"/>
<path d="M29.0862 127.533L28.6133 151.31L52.4037 151.783L52.8766 128.007L29.0862 127.533Z" fill="#9E3057"/>
<path d="M76.9323 128.53L76.4589 152.331L100.249 152.804L100.723 129.003L76.9323 128.53Z" fill="#9E3057"/>
<path opacity="0.5" d="M251.142 4.89028L182.386 35.3987V35.6966L36.539 30.3347L36.5886 30.2602L122.564 0.421997L251.142 4.89028Z" fill="#FCA2BE"/>
<path d="M1.00762 100.437C0.910981 100.469 0.806531 100.469 0.709888 100.437C0.649537 100.399 0.597477 100.35 0.557006 100.291C0.516535 100.233 0.488492 100.167 0.474545 100.097C0.460599 100.027 0.461117 99.9552 0.475984 99.8856C0.490851 99.816 0.519779 99.7502 0.561019 99.6923L47.7046 31.2531C47.7771 31.1585 47.8705 31.082 47.9775 31.0297L139.064 0.124068C139.132 0.100784 139.205 0.0913271 139.277 0.096228C139.349 0.101129 139.419 0.1203 139.484 0.152628C139.548 0.184956 139.606 0.229801 139.653 0.284558C139.7 0.339314 139.736 0.402919 139.759 0.471638C139.782 0.540073 139.791 0.612429 139.786 0.68455C139.782 0.756672 139.762 0.827088 139.73 0.891744C139.698 0.9564 139.653 1.01402 139.598 1.06121C139.543 1.1084 139.48 1.14427 139.411 1.1667L48.3993 31.9482L1.25576 100.238C1.19169 100.325 1.10616 100.393 1.00762 100.437V100.437Z" fill="#F5F5F5"/>
<path d="M15.0515 100.834C14.9555 100.87 14.8497 100.87 14.7537 100.834C14.6926 100.794 14.6401 100.742 14.5993 100.682C14.5586 100.621 14.5305 100.553 14.5166 100.481C14.5027 100.409 14.5034 100.335 14.5186 100.264C14.5337 100.192 14.5631 100.125 14.6049 100.065L61.3515 31.7744C61.3781 31.7221 61.4167 31.6769 61.4641 31.6424C61.5116 31.6079 61.5664 31.5851 61.6244 31.5759L150.105 0.521285C150.174 0.498001 150.246 0.488544 150.318 0.493445C150.39 0.498346 150.461 0.517517 150.525 0.549845C150.59 0.582173 150.648 0.627018 150.695 0.681775C150.742 0.736531 150.778 0.800098 150.8 0.868817C150.848 1.00384 150.842 1.1524 150.781 1.28245C150.721 1.41249 150.612 1.51358 150.478 1.56388L62.1455 32.544L15.4981 100.685C15.4418 100.745 15.3715 100.79 15.2936 100.816C15.2156 100.842 15.1324 100.848 15.0515 100.834Z" fill="#F5F5F5"/>
<path d="M29.1945 101.231C29.09 101.267 28.9765 101.267 28.872 101.231C28.7554 101.151 28.6747 101.028 28.6469 100.889C28.6192 100.75 28.6465 100.606 28.7231 100.487L75.0975 32.2957C75.1273 32.2164 75.1738 32.1444 75.2337 32.0844C75.2936 32.0245 75.3656 31.9781 75.4449 31.9482L161.345 0.819177C161.414 0.791447 161.487 0.777823 161.561 0.77914C161.634 0.780457 161.707 0.796676 161.774 0.826828C161.841 0.856981 161.902 0.900447 161.952 0.954591C162.002 1.00874 162.04 1.07242 162.065 1.14186C162.088 1.2103 162.098 1.28269 162.093 1.35481C162.088 1.42693 162.069 1.49735 162.036 1.562C162.004 1.62666 161.959 1.68428 161.905 1.73147C161.85 1.77866 161.786 1.81449 161.718 1.83692L75.9163 32.9411L29.6412 101.008C29.5914 101.08 29.5244 101.138 29.4463 101.177C29.3683 101.216 29.2817 101.235 29.1945 101.231V101.231Z" fill="#F5F5F5"/>
<path d="M43.3375 101.629C43.2325 101.661 43.12 101.661 43.015 101.629C42.9566 101.589 42.9068 101.538 42.8687 101.478C42.8307 101.419 42.8051 101.352 42.7935 101.283C42.7819 101.213 42.7845 101.142 42.8013 101.073C42.818 101.005 42.8485 100.94 42.8909 100.884L88.8683 32.8171C88.8938 32.7686 88.929 32.726 88.9717 32.6918C89.0144 32.6577 89.0637 32.6327 89.1165 32.6185L172.461 1.34048C172.528 1.31304 172.599 1.2997 172.671 1.30127C172.743 1.30284 172.814 1.31929 172.879 1.3496C172.945 1.37992 173.003 1.42343 173.051 1.4774C173.098 1.53137 173.134 1.59464 173.156 1.6632C173.204 1.79822 173.197 1.94678 173.137 2.07683C173.077 2.20687 172.968 2.30796 172.834 2.35826L89.6623 33.5617L43.7841 101.455C43.7304 101.519 43.6613 101.569 43.5832 101.599C43.5051 101.63 43.4206 101.64 43.3375 101.629Z" fill="#F5F5F5"/>
<path d="M57.4807 102.026C57.3746 102.051 57.2641 102.051 57.1581 102.026C57.097 101.986 57.0444 101.934 57.0037 101.873C56.963 101.812 56.9348 101.744 56.9209 101.672C56.9071 101.601 56.9077 101.527 56.9229 101.455C56.9381 101.384 56.9674 101.316 57.0092 101.256L102.738 33.2391C102.807 33.1468 102.902 33.0776 103.011 33.0405L183.726 1.63835C183.862 1.58761 184.011 1.59015 184.145 1.64544C184.278 1.70073 184.386 1.80468 184.446 1.93626C184.473 2.00456 184.487 2.07775 184.486 2.15145C184.484 2.22515 184.468 2.29782 184.438 2.36508C184.408 2.43235 184.365 2.49282 184.31 2.54284C184.256 2.59286 184.193 2.6314 184.123 2.65614L103.557 34.0086L58.0513 101.802C57.992 101.895 57.9048 101.967 57.8023 102.007C57.6997 102.047 57.5872 102.054 57.4807 102.026V102.026Z" fill="#F5F5F5"/>
<path d="M71.5989 102.448C71.5009 102.469 71.3992 102.469 71.3011 102.448C71.24 102.408 71.1875 102.356 71.1468 102.295C71.1061 102.235 71.0779 102.166 71.064 102.095C71.0502 102.023 71.0508 101.949 71.0659 101.877C71.0811 101.806 71.1105 101.738 71.1523 101.678L116.36 33.8597C116.425 33.7731 116.51 33.7046 116.609 33.6611L194.793 2.15972C194.928 2.10897 195.077 2.11151 195.211 2.1668C195.345 2.22209 195.452 2.326 195.512 2.45759C195.563 2.593 195.56 2.74264 195.505 2.87626C195.45 3.00987 195.346 3.11754 195.214 3.1775L117.179 34.4306L72.0704 102.2C72.014 102.272 71.9428 102.332 71.8615 102.375C71.7802 102.417 71.6907 102.442 71.5989 102.448V102.448Z" fill="#F5F5F5"/>
<path d="M85.742 102.82H85.4442C85.3831 102.78 85.3306 102.728 85.2898 102.668C85.2491 102.607 85.221 102.539 85.2071 102.467C85.1932 102.395 85.1939 102.321 85.209 102.25C85.2242 102.178 85.2536 102.111 85.2954 102.051L130.032 34.2817C130.091 34.1901 130.178 34.1203 130.28 34.0831L205.859 2.43279C205.994 2.38204 206.144 2.38458 206.277 2.43987C206.411 2.49516 206.518 2.59907 206.578 2.73066C206.607 2.79741 206.622 2.86915 206.622 2.94168C206.622 3.0142 206.608 3.08606 206.58 3.15308C206.553 3.22009 206.512 3.2809 206.46 3.33197C206.409 3.38305 206.348 3.42338 206.281 3.45057L130.851 35.0264L86.1886 102.597C86.1337 102.663 86.0656 102.717 85.9887 102.755C85.9119 102.794 85.8278 102.816 85.742 102.82Z" fill="#F5F5F5"/>
<path d="M99.8851 103.242C99.7791 103.267 99.6686 103.267 99.5625 103.242C99.4442 103.157 99.3629 103.03 99.3352 102.887C99.3075 102.744 99.3356 102.596 99.4137 102.473L143.877 34.9022C143.943 34.8171 144.028 34.7489 144.126 34.7036L217.124 2.954C217.253 2.90766 217.395 2.91177 217.521 2.96552C217.648 3.01927 217.749 3.1187 217.806 3.244C217.862 3.36929 217.869 3.51124 217.825 3.64153C217.782 3.77182 217.691 3.88087 217.57 3.94694L144.696 35.6469L100.257 102.994C100.216 103.059 100.162 103.115 100.098 103.158C100.034 103.201 99.9612 103.229 99.8851 103.242V103.242Z" fill="#F5F5F5"/>
<path d="M114.003 103.639C113.905 103.661 113.804 103.661 113.706 103.639C113.645 103.599 113.592 103.547 113.551 103.487C113.511 103.426 113.482 103.358 113.468 103.286C113.455 103.214 113.455 103.14 113.47 103.069C113.486 102.997 113.515 102.93 113.557 102.87L157.624 35.4235C157.695 35.3441 157.779 35.277 157.872 35.2249L228.289 3.35117C228.425 3.29131 228.578 3.28633 228.717 3.33727C228.856 3.38821 228.969 3.49109 229.034 3.62423C229.092 3.75596 229.097 3.9056 229.046 4.04047C228.994 4.17535 228.892 4.28454 228.761 4.34414L158.467 36.1682L114.475 103.49C114.412 103.549 114.338 103.593 114.256 103.619C114.174 103.644 114.088 103.651 114.003 103.639V103.639Z" fill="#F5F5F5"/>
<path d="M128.171 103.937C128.067 103.973 127.953 103.973 127.849 103.937C127.788 103.9 127.736 103.85 127.696 103.791C127.655 103.733 127.627 103.667 127.613 103.597C127.599 103.527 127.6 103.455 127.615 103.386C127.63 103.316 127.659 103.25 127.7 103.192L171.394 35.8456C171.457 35.7666 171.532 35.6994 171.618 35.647L239.455 3.64914C239.59 3.58929 239.743 3.5843 239.882 3.63524C240.021 3.68618 240.135 3.78906 240.199 3.92221C240.258 4.05394 240.262 4.20357 240.211 4.33845C240.16 4.47333 240.058 4.58247 239.926 4.64208L172.213 36.5655L128.593 103.788C128.537 103.841 128.471 103.882 128.398 103.908C128.325 103.934 128.248 103.944 128.171 103.937V103.937Z" fill="#F5F5F5"/>
<path d="M80.4219 129.289L80.0536 147.804L98.56 148.172L98.9283 129.658L80.4219 129.289Z" fill="#84244B"/>
<path d="M33.3284 128.55L32.9666 147.065L51.4732 147.427L51.835 128.912L33.3284 128.55Z" fill="#84244B"/>
</g>
<defs>
<filter id="filter0_d_116_4304" x="-498" y="0" width="1086" height="413" filterUnits="userSpaceOnUse" color-interpolation-filters="sRGB">
<feFlood flood-opacity="0" result="BackgroundImageFix"/>
<feColorMatrix in="SourceAlpha" type="matrix" values="0 0 0 0 0 0 0 0 0 0 0 0 0 0 0 0 0 0 127 0" result="hardAlpha"/>
<feOffset dy="4"/>
<feGaussianBlur stdDeviation="2"/>
<feComposite in2="hardAlpha" operator="out"/>
<feColorMatrix type="matrix" values="0 0 0 0 0 0 0 0 0 0 0 0 0 0 0 0 0 0 0.25 0"/>
<feBlend mode="normal" in2="BackgroundImageFix" result="effect1_dropShadow_116_4304"/>
<feBlend mode="normal" in="SourceGraphic" in2="effect1_dropShadow_116_4304" result="shape"/>
</filter>
<clipPath id="clip0_116_4304">
<rect width="1078" height="405" fill="white" transform="translate(-494)"/>
</clipPath>
</defs>
</svg>
