<svg width="307" height="261" viewBox="0 0 307 261" fill="none" xmlns="http://www.w3.org/2000/svg">
<g clip-path="url(#clip0_116_4717)">
<path d="M133.242 21.996L141.369 13.8513V21.996" stroke="#263238" stroke-width="0.75" stroke-linecap="round" stroke-linejoin="round"/>
<path d="M142.667 21.996L150.784 13.8513V21.996" stroke="#263238" stroke-width="0.75" stroke-linecap="round" stroke-linejoin="round"/>
<path d="M152.082 21.996L160.209 13.8513V21.996" stroke="#263238" stroke-width="0.75" stroke-linecap="round" stroke-linejoin="round"/>
<path d="M158.234 21.996L166.362 13.8513V21.996" stroke="#263238" stroke-width="0.75" stroke-linecap="round" stroke-linejoin="round"/>
<path d="M170.932 21.996L179.06 13.8513V21.996" stroke="#263238" stroke-width="0.75" stroke-linecap="round" stroke-linejoin="round"/>
<path d="M180.347 21.996L188.485 13.8513V21.996" stroke="#263238" stroke-width="0.75" stroke-linecap="round" stroke-linejoin="round"/>
<path d="M195.238 21.996L203.354 13.8513V21.996" stroke="#263238" stroke-width="0.75" stroke-linecap="round" stroke-linejoin="round"/>
<path d="M204.652 21.996L212.779 13.8513V21.996" stroke="#263238" stroke-width="0.75" stroke-linecap="round" stroke-linejoin="round"/>
<path d="M211.896 21.996L220.023 13.8513V21.996" stroke="#263238" stroke-width="0.75" stroke-linecap="round" stroke-linejoin="round"/>
<path d="M224.594 21.996L232.721 13.8513V21.996" stroke="#263238" stroke-width="0.75" stroke-linecap="round" stroke-linejoin="round"/>
<path d="M229.645 21.996L237.772 13.8513V21.996" stroke="#263238" stroke-width="0.75" stroke-linecap="round" stroke-linejoin="round"/>
<path d="M237.292 21.996L245.419 13.8513V21.996" stroke="#263238" stroke-width="0.75" stroke-linecap="round" stroke-linejoin="round"/>
<path d="M295.993 9.36902H269.495V24.7728H295.993V9.36902Z" fill="#263238"/>
<path opacity="0.4" d="M295.993 9.36902H269.495V24.7728H295.993V9.36902Z" fill="white"/>
<path opacity="0.4" d="M295.993 9.36902H281.418V24.7728H295.993V9.36902Z" fill="white"/>
<path d="M267.815 9.36902H241.317V24.7728H267.815V9.36902Z" fill="#263238"/>
<path opacity="0.4" d="M267.815 9.36902H241.317V24.7728H267.815V9.36902Z" fill="white"/>
<path opacity="0.4" d="M267.815 9.36902H253.241V24.7728H267.815V9.36902Z" fill="white"/>
<path d="M130.067 9.36902H18.1525V24.7728H130.067V9.36902Z" fill="#263238"/>
<path opacity="0.4" d="M130.067 9.36902H18.1525V24.7728H130.067V9.36902Z" fill="white"/>
<path opacity="0.4" d="M130.078 9.36902H68.5083V24.7728H130.078V9.36902Z" fill="white"/>
<path d="M302.418 211.968H10.6799V260.989H302.418V211.968Z" fill="#263238"/>
<path opacity="0.3" d="M302.418 211.968H10.6799V260.989H302.418V211.968Z" fill="white"/>
<path opacity="0.3" d="M302.418 211.968H71.53V260.989H302.418V211.968Z" fill="white"/>
<path opacity="0.2" d="M225.761 219.238H153.293V260.989H225.761V219.238Z" fill="black"/>
<path d="M146.246 224.092H133.013V257.873H146.246V224.092Z" fill="#407BFF"/>
<path d="M128.791 224.092H115.559V257.873H128.791V224.092Z" fill="#407BFF"/>
<path d="M111.337 224.092H98.1042V257.873H111.337V224.092Z" fill="#407BFF"/>
<path d="M93.8825 224.092H80.6499V257.873H93.8825V224.092Z" fill="#407BFF"/>
<path d="M296.876 224.092H283.644V257.873H296.876V224.092Z" fill="#407BFF"/>
<path d="M279.422 224.092H266.19V257.873H279.422V224.092Z" fill="#407BFF"/>
<path d="M261.968 224.092H248.735V257.873H261.968V224.092Z" fill="#407BFF"/>
<path d="M244.513 224.092H231.281V257.873H244.513V224.092Z" fill="#407BFF"/>
<path d="M67.6573 224.092H56.9993V257.873H67.6573V224.092Z" fill="#407BFF"/>
<path d="M53.5957 224.092H42.9376V257.873H53.5957V224.092Z" fill="#407BFF"/>
<path d="M39.545 224.092H28.887V257.873H39.545V224.092Z" fill="#407BFF"/>
<path d="M25.4942 224.092H14.8362V257.873H25.4942V224.092Z" fill="#407BFF"/>
<g opacity="0.5">
<path d="M146.246 224.092H133.013V257.873H146.246V224.092Z" fill="white"/>
<path d="M128.791 224.092H115.559V257.873H128.791V224.092Z" fill="white"/>
<path d="M111.337 224.092H98.1042V257.873H111.337V224.092Z" fill="white"/>
<path d="M93.8825 224.092H80.6499V257.873H93.8825V224.092Z" fill="white"/>
</g>
<g opacity="0.5">
<path d="M296.876 224.092H283.644V257.873H296.876V224.092Z" fill="white"/>
<path d="M279.422 224.092H266.19V257.873H279.422V224.092Z" fill="white"/>
<path d="M261.968 224.092H248.735V257.873H261.968V224.092Z" fill="white"/>
<path d="M244.513 224.092H231.281V257.873H244.513V224.092Z" fill="white"/>
</g>
<g opacity="0.5">
<path d="M67.6573 224.092H56.9993V257.873H67.6573V224.092Z" fill="white"/>
<path d="M53.5957 224.092H42.9376V257.873H53.5957V224.092Z" fill="white"/>
<path d="M39.545 224.092H28.887V257.873H39.545V224.092Z" fill="white"/>
<path d="M25.4942 224.092H14.8362V257.873H25.4942V224.092Z" fill="white"/>
</g>
<g opacity="0.5">
<path d="M221.561 224.092H208.394V257.873H221.561V224.092Z" fill="white"/>
<path d="M204.194 224.092H191.027V257.873H204.194V224.092Z" fill="white"/>
<path d="M186.827 224.092H153.293V257.873H186.827V224.092Z" fill="white"/>
</g>
<path opacity="0.1" d="M225.75 219.238L200.485 261H153.293V219.238H225.75Z" fill="black"/>
<path d="M69.6538 24.7728H7.16724V210.634H69.6538V24.7728Z" fill="#407BFF"/>
<path opacity="0.4" d="M69.6538 24.7728H7.16724V210.634H69.6538V24.7728Z" fill="white"/>
<path opacity="0.1" d="M14.9889 24.7728V210.634" stroke="black" stroke-miterlimit="10"/>
<path opacity="0.1" d="M24.0433 24.7728V210.634" stroke="black" stroke-miterlimit="10"/>
<path opacity="0.1" d="M33.0978 24.7728V210.634" stroke="black" stroke-miterlimit="10"/>
<path opacity="0.1" d="M42.1522 24.7728V210.634" stroke="black" stroke-miterlimit="10"/>
<path opacity="0.1" d="M51.2067 24.7728V210.634" stroke="black" stroke-miterlimit="10"/>
<path opacity="0.1" d="M60.2502 24.7728V210.634" stroke="black" stroke-miterlimit="10"/>
<g opacity="0.1">
<path d="M35.9778 24.7728L7.16724 71.3339V48.7913L22.0252 24.7728H35.9778Z" fill="white"/>
<path d="M52.494 24.7728L7.16724 98.0199V91.4386L48.4249 24.7728H52.494Z" fill="white"/>
</g>
<g opacity="0.1">
<path d="M69.6538 79.3801V101.912L7.16724 202.905V180.374L69.6538 79.3801Z" fill="white"/>
<path d="M69.6537 122.049V128.631L18.9161 210.624H14.8362L69.6537 122.049Z" fill="white"/>
</g>
<path d="M307 17.5028H65.9993V219.249H307V17.5028Z" fill="#407BFF"/>
<path d="M6.10352e-05 219.238H65.9993V204.698H6.10352e-05V219.238Z" fill="#407BFF"/>
<path d="M6.10352e-05 32.0428L65.9993 32.0428V17.5028L6.10352e-05 17.5028V32.0428Z" fill="#407BFF"/>
<path d="M6.10352e-05 69.4863L65.9993 69.4863V54.9463L6.10352e-05 54.9463V69.4863Z" fill="#407BFF"/>
<path d="M6.10352e-05 106.919L65.9993 106.919V92.3788L6.10352e-05 92.3788V106.919Z" fill="#407BFF"/>
<path d="M6.10352e-05 144.362H65.9993V129.822H6.10352e-05V144.362Z" fill="#407BFF"/>
<path d="M6.10352e-05 181.806H65.9993V167.266H6.10352e-05V181.806Z" fill="#407BFF"/>
<g opacity="0.6">
<path d="M6.10352e-05 219.238H65.9993V204.698H6.10352e-05V219.238Z" fill="white"/>
<path d="M6.10352e-05 32.0428L65.9993 32.0428V17.5028L6.10352e-05 17.5028V32.0428Z" fill="white"/>
<path d="M6.10352e-05 69.4863L65.9993 69.4863V54.9463L6.10352e-05 54.9463V69.4863Z" fill="white"/>
<path d="M6.10352e-05 106.919L65.9993 106.919V92.3788L6.10352e-05 92.3788V106.919Z" fill="white"/>
<path d="M6.10352e-05 144.362H65.9993V129.822H6.10352e-05V144.362Z" fill="white"/>
<path d="M6.10352e-05 181.806H65.9993V167.266H6.10352e-05V181.806Z" fill="white"/>
</g>
<path opacity="0.6" d="M307 17.5028H65.9993V219.249H307V17.5028Z" fill="white"/>
<path opacity="0.4" d="M307 17.5028H73.7555V219.249H307V17.5028Z" fill="white"/>
<path d="M227.517 17.5028H153.293V219.249H227.517V17.5028Z" fill="#407BFF"/>
<path d="M299.069 32.0428H233.474V204.709H299.069V32.0428Z" fill="#407BFF"/>
<path opacity="0.5" d="M299.069 32.0428H233.474V204.709H299.069V32.0428Z" fill="white"/>
<g opacity="0.1">
<path d="M243.335 32.0428V204.698" stroke="black" stroke-miterlimit="10"/>
<path d="M254.801 32.0428V204.698" stroke="black" stroke-miterlimit="10"/>
<path d="M266.266 32.0428V204.698" stroke="black" stroke-miterlimit="10"/>
<path d="M277.731 32.0428V204.698" stroke="black" stroke-miterlimit="10"/>
<path d="M289.197 32.0428V204.698" stroke="black" stroke-miterlimit="10"/>
<path d="M299.069 32.0428H233.474V204.698H299.069V32.0428Z" stroke="black" stroke-miterlimit="10"/>
<path d="M299.069 54.9462H233.474" stroke="black" stroke-miterlimit="10"/>
<path d="M233.474 69.4863H299.069" stroke="black" stroke-miterlimit="10"/>
<path d="M299.069 92.3788H233.474" stroke="black" stroke-miterlimit="10"/>
<path d="M233.474 106.919H299.069" stroke="black" stroke-miterlimit="10"/>
<path d="M299.069 129.822H233.474" stroke="black" stroke-miterlimit="10"/>
<path d="M233.474 144.362H299.069" stroke="black" stroke-miterlimit="10"/>
<path d="M299.069 167.266H233.474" stroke="black" stroke-miterlimit="10"/>
<path d="M233.474 181.806H299.069" stroke="black" stroke-miterlimit="10"/>
</g>
<g opacity="0.1">
<path d="M299.069 70.4812V93.0129L233.474 199.035V176.482L299.069 70.4812Z" fill="white"/>
<path d="M299.069 113.128V119.71L246.488 204.709H242.408L299.069 113.128Z" fill="white"/>
</g>
<g opacity="0.1">
<path d="M299.069 158.684V181.215L284.538 204.709H270.597L299.069 158.684Z" fill="white"/>
<path d="M299.069 201.331V204.709H296.986L299.069 201.331Z" fill="white"/>
</g>
<path d="M147.336 32.0428H81.7408V204.709H147.336V32.0428Z" fill="#407BFF"/>
<path opacity="0.5" d="M147.336 32.0428H81.7408V204.709H147.336V32.0428Z" fill="white"/>
<g opacity="0.1">
<path d="M91.6134 32.0428V204.698" stroke="black" stroke-miterlimit="10"/>
<path d="M103.079 32.0428V204.698" stroke="black" stroke-miterlimit="10"/>
<path d="M114.533 32.0428V204.698" stroke="black" stroke-miterlimit="10"/>
<path d="M125.999 32.0428V204.698" stroke="black" stroke-miterlimit="10"/>
<path d="M137.464 32.0428V204.698" stroke="black" stroke-miterlimit="10"/>
<path d="M147.336 32.0428H81.7408V204.698H147.336V32.0428Z" stroke="black" stroke-miterlimit="10"/>
<path d="M147.336 54.9462H81.7408" stroke="black" stroke-miterlimit="10"/>
<path d="M81.7408 69.4863H147.336" stroke="black" stroke-miterlimit="10"/>
<path d="M147.336 92.3788H81.7408" stroke="black" stroke-miterlimit="10"/>
<path d="M81.7408 106.919H147.336" stroke="black" stroke-miterlimit="10"/>
<path d="M147.336 129.822H81.7408" stroke="black" stroke-miterlimit="10"/>
<path d="M81.7408 144.362H147.336" stroke="black" stroke-miterlimit="10"/>
<path d="M147.336 167.266H81.7408" stroke="black" stroke-miterlimit="10"/>
<path d="M81.7408 181.806H147.336" stroke="black" stroke-miterlimit="10"/>
</g>
<g opacity="0.1">
<path d="M112.21 32.0319L81.7408 81.2714V58.7397L98.2679 32.0319H112.21Z" fill="white"/>
<path d="M128.737 32.0319L81.7408 107.99V101.398L124.657 32.0319H128.737Z" fill="white"/>
</g>
<g opacity="0.1">
<path d="M147.336 84.3325V106.864L86.8026 204.709H81.7408V190.322L147.336 84.3325Z" fill="white"/>
<path d="M147.336 126.969V133.561L103.319 204.709H99.2388L147.336 126.969Z" fill="white"/>
</g>
<path opacity="0.7" d="M227.517 17.5028H153.293V219.249H227.517V17.5028Z" fill="white"/>
<path d="M264.15 210.624H260.866H187.361H184.089H153.293V219.238H184.089V261H187.361H189.227H192.5V219.238H255.739V261H259.011H260.866H264.15V219.238V210.624Z" fill="#407BFF"/>
<path opacity="0.3" d="M264.15 210.624V261H259.011V219.238H192.5V261H187.361V210.624H264.15Z" fill="white"/>
<path d="M176.169 92.3788H161.213V204.698H176.169V92.3788Z" fill="#407BFF"/>
<path d="M197.998 92.3788H183.042V204.698H197.998V92.3788Z" fill="#407BFF"/>
<path d="M219.827 92.3788H204.87V204.698H219.827V92.3788Z" fill="#407BFF"/>
<g opacity="0.5">
<path d="M176.169 92.3788H161.213V204.698H176.169V92.3788Z" fill="white"/>
<path d="M197.998 92.3788H183.042V204.698H197.998V92.3788Z" fill="white"/>
<path d="M219.827 92.3788H204.87V204.698H219.827V92.3788Z" fill="white"/>
</g>
<path d="M212.91 49.5784H210.717H197.736V34.3715H195.543H185.496H183.314V49.5784H170.322H168.14V61.8336H170.322H183.314V77.0406H185.496H195.543H197.736V61.8336H210.717H212.91V49.5784Z" fill="#407BFF"/>
<path opacity="0.3" d="M170.332 49.5784H168.14V61.8336H170.332V49.5784Z" fill="black"/>
<path opacity="0.3" d="M185.507 34.3715H183.325V49.5784H185.507V34.3715Z" fill="black"/>
<path opacity="0.3" d="M185.507 61.8336H183.325V77.0406H185.507V61.8336Z" fill="black"/>
<path d="M163.362 6.86394e-05H162.871H162.325C161.301 -0.0551617 160.277 0.0992804 159.314 0.453973C158.352 0.808665 157.471 1.35616 156.727 2.06307C155.983 2.76998 155.39 3.62147 154.985 4.56558C154.58 5.50969 154.371 6.52663 154.371 7.55434C154.371 8.58206 154.58 9.599 154.985 10.5431C155.39 11.4872 155.983 12.3387 156.727 13.0456C157.471 13.7525 158.352 14.3 159.314 14.6547C160.277 15.0094 161.301 15.1639 162.325 15.1086H162.871H163.362C167.911 15.1086 171.26 11.9164 171.26 7.55434C171.26 3.19232 167.911 6.86394e-05 163.362 6.86394e-05ZM160.962 12.146C160.703 12.0161 160.455 11.8662 160.22 11.6977L160.133 11.6321C159.927 11.4716 159.734 11.2962 159.554 11.1074C159.504 11.0518 159.457 10.9934 159.413 10.9325C159.259 10.7625 159.12 10.5796 158.998 10.3858C158.79 9.97091 158.79 9.97091 158.583 9.55546C158.518 9.38006 158.474 9.1942 158.42 9.00835C158.365 8.8225 158.333 8.74598 158.311 8.60386C158.244 8.26173 158.211 7.91387 158.213 7.56528C158.211 7.22032 158.244 6.87608 158.311 6.53764C158.311 6.38458 158.387 6.26432 158.42 6.1222C158.453 5.98008 158.518 5.76144 158.584 5.58652C158.65 5.40934 158.731 5.23756 158.824 5.0727C158.889 4.96338 158.933 4.85405 158.998 4.74472C159.12 4.55445 159.259 4.37521 159.413 4.20903C159.454 4.14598 159.501 4.08736 159.554 4.03411C159.728 3.83948 159.922 3.66361 160.133 3.50936C160.157 3.4816 160.187 3.45925 160.22 3.44377C160.452 3.26791 160.701 3.11419 160.962 2.98461C161.536 2.70279 162.157 2.53216 162.794 2.48171C164.056 2.61264 165.224 3.20758 166.074 4.15155C166.923 5.09551 167.393 6.3215 167.393 7.59261C167.393 8.86372 166.923 10.0897 166.074 11.0337C165.224 11.9776 164.056 12.5726 162.794 12.7035C162.158 12.6442 161.537 12.4701 160.962 12.1897V12.146Z" fill="#407BFF"/>
<path d="M175.929 4.26365C175.918 4.14001 175.918 4.01559 175.929 3.89195C175.929 3.83729 175.929 3.79356 175.929 3.7389C175.95 3.67155 175.975 3.60577 176.005 3.54211C176.035 3.47997 176.072 3.4213 176.114 3.36718C176.141 3.31568 176.174 3.2679 176.212 3.22507C176.261 3.15817 176.316 3.09595 176.376 3.03923L176.496 2.94082L176.747 2.77684L176.856 2.71125L177.194 2.5582H177.303L177.74 2.43794H177.827L178.383 2.35048C179.648 2.43142 180.877 2.80567 181.972 3.44372L182.158 2.98456L182.714 3.2688L183.074 3.44372L183.925 1.32283C182.452 0.444164 180.763 -0.00628966 179.049 0.0218741H178.896H178.503C178.318 0.0218741 178.143 0.0218741 177.958 0.0218741C173.932 0.0218741 172.056 2.03343 172.056 4.39483C172.056 9.86103 180.783 7.77294 180.783 10.9543C180.783 11.96 179.965 12.7144 178.078 12.8456C177.686 12.8095 177.296 12.7511 176.911 12.6707H176.834C176.463 12.5949 176.098 12.4889 175.743 12.3536H175.623C175.3 12.2323 174.986 12.0861 174.685 11.9163H174.587C174.297 11.7559 174.02 11.5731 173.758 11.3697L173.671 11.5665L173.507 11.9273C173.209 11.7697 172.928 11.5829 172.667 11.3697L171.729 13.4906C173.411 14.6973 175.443 15.3158 177.511 15.2507H177.914H178.602C182.616 15.2507 184.525 13.2391 184.525 10.8777C184.623 5.35689 175.929 7.39031 175.929 4.26365Z" fill="#407BFF"/>
<path d="M193.361 0.207764H186.238V14.9009H190.045V10.6591H193.318C197.169 10.6591 199.558 8.66945 199.558 5.43346C199.558 2.19747 197.212 0.207764 193.361 0.207764ZM190.089 8.35241V2.52544H192.183C194.572 2.52544 195.805 3.61869 195.805 5.43346C195.805 7.24824 194.572 8.35241 192.183 8.35241H190.089Z" fill="#407BFF"/>
<path d="M228.085 0.207764H224.31L217.71 14.9009H221.616L223.056 11.5009H229.295L230.757 14.9009H234.695L228.085 0.207764ZM223.983 9.35819L225.325 6.20965L226.175 4.20902L228.357 9.35819H223.983Z" fill="#407BFF"/>
<path d="M246.957 12.5941H245.866H239.288V0.218628H238.197H236.572H235.47V14.9008H236.572H245.866H246.957V12.5941Z" fill="#407BFF"/>
<path d="M151.482 0.218628H149.856H148.766V6.27517H142.275V0.218628H141.184H139.547H138.457V14.9008H139.547H141.184H142.275V8.60377H148.766V14.9008H149.856H151.482H152.584V0.218628H151.482Z" fill="#407BFF"/>
<path d="M203.954 0.218628H202.328H201.227V14.9008H202.328H203.954H205.045V0.218628H203.954Z" fill="#407BFF"/>
<path d="M219.554 2.52536V0.218628H218.463H207.118H206.027V2.52536H207.118H210.881V14.9008H211.983H213.608H214.699V2.52536H218.463H219.554Z" fill="#407BFF"/>
<g opacity="0.2">
<path d="M139.558 0.21875H138.467V14.901H139.558V0.21875Z" fill="black"/>
<path d="M149.856 0.21875H148.766V6.2753H149.856V0.21875Z" fill="black"/>
<path d="M149.856 8.60388H148.766V14.9009H149.856V8.60388Z" fill="black"/>
<path d="M163.373 2.39425C162.339 2.38152 161.324 2.67845 160.46 3.24699C161.175 2.79623 161.986 2.52263 162.827 2.44891C164.089 2.57984 165.257 3.17478 166.107 4.11875C166.956 5.06271 167.426 6.2887 167.426 7.55981C167.426 8.83092 166.956 10.0569 166.107 11.0009C165.257 11.9448 164.089 12.5398 162.827 12.6707C161.583 12.5723 160.419 12.0199 159.554 11.1183C160.043 11.6397 160.635 12.0522 161.293 12.3291C161.951 12.606 162.659 12.741 163.373 12.7254C164.699 12.6642 165.95 12.0933 166.867 11.1313C167.784 10.1692 168.295 8.8901 168.295 7.55981C168.295 6.22952 167.784 4.95041 166.867 3.98838C165.95 3.02635 164.699 2.4554 163.373 2.39425ZM155.475 7.55434C155.457 5.59632 156.207 3.70964 157.564 2.30073C158.921 0.891822 160.776 0.0734421 162.729 0.0219192H162.282C161.258 -0.0333111 160.233 0.121131 159.271 0.475823C158.308 0.830515 157.428 1.37803 156.683 2.08494C155.939 2.79185 155.346 3.64334 154.941 4.58745C154.536 5.53156 154.327 6.54849 154.327 7.57621C154.327 8.60392 154.536 9.62087 154.941 10.565C155.346 11.5091 155.939 12.3606 156.683 13.0675C157.428 13.7744 158.308 14.3219 159.271 14.6766C160.233 15.0313 161.258 15.1857 162.282 15.1305H162.816C161.837 15.1177 160.871 14.9114 159.971 14.5234C159.072 14.1354 158.258 13.5734 157.576 12.8696C156.894 12.1658 156.357 11.334 155.997 10.4219C155.636 9.50977 155.459 8.53531 155.475 7.55434Z" fill="black"/>
<path d="M178.154 2.3396C177.893 2.38154 177.634 2.43995 177.38 2.51451C177.631 2.42843 177.89 2.3698 178.154 2.3396Z" fill="black"/>
<path d="M172.918 13.3486C174.402 14.4296 176.178 15.0355 178.012 15.0868H177.609C175.541 15.1503 173.51 14.5319 171.827 13.3267L172.776 11.2058C173.038 11.4214 173.319 11.6117 173.616 11.7743L172.918 13.3486Z" fill="black"/>
<path d="M181.95 10.9325C181.95 12.0258 180.98 12.8457 178.678 12.8457H178.154C180.02 12.7145 180.838 11.9492 180.838 10.9544C180.838 7.79491 172.111 9.86113 172.111 4.39493C172.111 2.0226 173.998 0.0219727 178.012 0.0219727H178.285C174.838 0.295283 173.201 2.20845 173.201 4.39493C173.234 9.8502 181.95 7.77305 181.95 10.9325Z" fill="black"/>
<path d="M182.201 2.97366L182.027 3.42188C180.931 2.78457 179.702 2.41037 178.438 2.32864C178.649 2.31689 178.86 2.31689 179.071 2.32864C180.147 2.32908 181.212 2.54853 182.201 2.97366Z" fill="black"/>
<path d="M182.714 3.18133L182.245 2.97363L182.714 3.18133Z" fill="black"/>
<path d="M193.23 2.52549H192.14C194.529 2.52549 195.761 3.61872 195.761 5.44443C195.761 7.27014 194.529 8.35245 192.14 8.35245H193.23C195.619 8.35245 196.863 7.25921 196.863 5.44443C196.863 3.62966 195.619 2.52549 193.23 2.52549ZM186.238 0.21875V14.9009H187.329V0.21875H186.238Z" fill="black"/>
<path d="M202.328 0.21875H201.238V14.901H202.328V0.21875Z" fill="black"/>
<path d="M207.118 0.21875H206.027V2.52549H207.118V0.21875Z" fill="black"/>
<path d="M211.983 2.52539H210.892V14.9009H211.983V2.52539Z" fill="black"/>
<path d="M224.31 0.21875L217.765 14.9009H218.856L225.401 0.21875H224.31ZM226.721 2.94091L223.983 9.36916L226.165 4.22001L228.346 9.36916H229.437L226.721 2.94091ZM230.386 11.501H229.295L230.768 14.9009H231.859L230.386 11.501Z" fill="black"/>
<path d="M236.572 0.21875H235.481V14.901H236.572V0.21875Z" fill="black"/>
</g>
</g>
<defs>
<clipPath id="clip0_116_4717">
<rect width="307" height="261" fill="white"/>
</clipPath>
</defs>
</svg>
