<svg width="210" height="183" viewBox="0 0 210 183" fill="none" xmlns="http://www.w3.org/2000/svg">
<g clip-path="url(#clip0_143_4016)">
<path d="M22.6583 23.6816L31.4208 14.9128V23.6816" stroke="#263238" stroke-width="0.75" stroke-linecap="round" stroke-linejoin="round"/>
<path d="M32.8206 23.6816L41.5713 14.9128V23.6816" stroke="#263238" stroke-width="0.75" stroke-linecap="round" stroke-linejoin="round"/>
<path d="M42.9709 23.6816L51.7335 14.9128V23.6816" stroke="#263238" stroke-width="0.75" stroke-linecap="round" stroke-linejoin="round"/>
<path d="M49.6046 23.6816L58.3671 14.9128V23.6816" stroke="#263238" stroke-width="0.75" stroke-linecap="round" stroke-linejoin="round"/>
<path d="M63.2953 23.6816L72.0578 14.9128V23.6816" stroke="#263238" stroke-width="0.75" stroke-linecap="round" stroke-linejoin="round"/>
<path d="M73.4458 23.6816L82.2201 14.9128V23.6816" stroke="#263238" stroke-width="0.75" stroke-linecap="round" stroke-linejoin="round"/>
<path d="M89.5006 23.6816L98.2514 14.9128V23.6816" stroke="#263238" stroke-width="0.75" stroke-linecap="round" stroke-linejoin="round"/>
<path d="M99.651 23.6816L108.414 14.9128V23.6816" stroke="#263238" stroke-width="0.75" stroke-linecap="round" stroke-linejoin="round"/>
<path d="M107.461 23.6816L116.223 14.9128V23.6816" stroke="#263238" stroke-width="0.75" stroke-linecap="round" stroke-linejoin="round"/>
<path d="M121.151 23.6816L129.914 14.9128V23.6816" stroke="#263238" stroke-width="0.75" stroke-linecap="round" stroke-linejoin="round"/>
<path d="M126.597 23.6816L135.36 14.9128V23.6816" stroke="#263238" stroke-width="0.75" stroke-linecap="round" stroke-linejoin="round"/>
<path d="M134.842 23.6816L143.605 14.9128V23.6816" stroke="#263238" stroke-width="0.75" stroke-linecap="round" stroke-linejoin="round"/>
<path d="M198.132 10.0869H169.563V26.671H198.132V10.0869Z" fill="#263238"/>
<path opacity="0.4" d="M198.132 10.0869H169.563V26.671H198.132V10.0869Z" fill="white"/>
<path opacity="0.4" d="M198.132 10.0869H182.419V26.671H198.132V10.0869Z" fill="white"/>
<path d="M167.752 10.0869H139.182V26.671H167.752V10.0869Z" fill="#263238"/>
<path opacity="0.4" d="M167.752 10.0869H139.182V26.671H167.752V10.0869Z" fill="white"/>
<path opacity="0.4" d="M167.752 10.0869H152.038V26.671H167.752V10.0869Z" fill="white"/>
<path d="M19.2357 10.0869H-101.428V26.671H19.2357V10.0869Z" fill="#263238"/>
<path opacity="0.4" d="M19.2357 10.0869H-101.428V26.671H19.2357V10.0869Z" fill="white"/>
<path opacity="0.4" d="M19.2475 10.0869H-47.136V26.671H19.2475V10.0869Z" fill="white"/>
<path d="M210 18.844H-49.8412V236.05H210V18.844Z" fill="#407BFF"/>
<path opacity="0.6" d="M210 18.844H-49.8412V236.05H210V18.844Z" fill="white"/>
<path opacity="0.4" d="M210 18.844H-41.4786V236.05H210V18.844Z" fill="white"/>
<path d="M124.304 18.844H44.2765V236.05H124.304V18.844Z" fill="#407BFF"/>
<path d="M201.449 34.4983H130.726V220.396H201.449V34.4983Z" fill="#407BFF"/>
<path opacity="0.5" d="M201.449 34.4983H130.726V220.396H201.449V34.4983Z" fill="white"/>
<g opacity="0.1">
<path d="M141.358 34.4983V220.384" stroke="black" stroke-miterlimit="10"/>
<path d="M153.72 34.4983V220.384" stroke="black" stroke-miterlimit="10"/>
<path d="M166.082 34.4983V220.384" stroke="black" stroke-miterlimit="10"/>
<path d="M178.443 34.4983V220.384" stroke="black" stroke-miterlimit="10"/>
<path d="M190.805 34.4983V220.384" stroke="black" stroke-miterlimit="10"/>
<path d="M201.449 34.4983H130.726V220.384H201.449V34.4983Z" stroke="black" stroke-miterlimit="10"/>
<path d="M201.449 59.1567H130.726" stroke="black" stroke-miterlimit="10"/>
<path d="M130.726 74.811H201.449" stroke="black" stroke-miterlimit="10"/>
<path d="M201.449 99.4575H130.726" stroke="black" stroke-miterlimit="10"/>
<path d="M130.726 115.112H201.449" stroke="black" stroke-miterlimit="10"/>
<path d="M201.449 139.77H130.726" stroke="black" stroke-miterlimit="10"/>
<path d="M130.726 155.425H201.449" stroke="black" stroke-miterlimit="10"/>
<path d="M201.449 180.083H130.726" stroke="black" stroke-miterlimit="10"/>
</g>
<g opacity="0.1">
<path d="M201.449 75.8821V100.14L130.726 214.287V190.005L201.449 75.8821Z" fill="white"/>
<path d="M201.449 121.797V128.883L144.757 220.396H140.359L201.449 121.797Z" fill="white"/>
</g>
<g opacity="0.1">
<path d="M201.449 170.843V195.101L185.783 220.395H170.751L201.449 170.843Z" fill="white"/>
</g>
<path d="M37.8546 34.4983H-32.869V220.396H37.8546V34.4983Z" fill="#407BFF"/>
<path opacity="0.5" d="M37.8546 34.4983H-32.869V220.396H37.8546V34.4983Z" fill="white"/>
<g opacity="0.1">
<path d="M2.48694 34.4983V220.384" stroke="black" stroke-miterlimit="10"/>
<path d="M14.8485 34.4983V220.384" stroke="black" stroke-miterlimit="10"/>
<path d="M27.2102 34.4983V220.384" stroke="black" stroke-miterlimit="10"/>
<path d="M37.8546 34.4983H-32.869V220.384H37.8546V34.4983Z" stroke="black" stroke-miterlimit="10"/>
<path d="M37.8546 59.1567H-32.869" stroke="black" stroke-miterlimit="10"/>
<path d="M-32.869 74.811H37.8546" stroke="black" stroke-miterlimit="10"/>
<path d="M37.8546 99.4575H-32.869" stroke="black" stroke-miterlimit="10"/>
<path d="M-32.869 115.112H37.8546" stroke="black" stroke-miterlimit="10"/>
<path d="M37.8546 139.77H-32.869" stroke="black" stroke-miterlimit="10"/>
<path d="M-32.869 155.425H37.8546" stroke="black" stroke-miterlimit="10"/>
<path d="M37.8546 180.083H-32.869" stroke="black" stroke-miterlimit="10"/>
</g>
<g opacity="0.1">
<path d="M17.8007 34.4866L-32.869 116.265V109.168L13.4018 34.4866H17.8007Z" fill="white"/>
</g>
<g opacity="0.1">
<path d="M37.8546 90.7947V115.053L-27.4116 220.396H-32.869V204.906L37.8546 90.7947Z" fill="white"/>
<path d="M37.8545 136.698V143.796L-9.60427 220.396H-14.0032L37.8545 136.698Z" fill="white"/>
</g>
<path opacity="0.7" d="M124.304 18.844H44.2765V236.05H124.304V18.844Z" fill="white"/>
<path d="M68.941 99.4575H52.8156V220.384H68.941V99.4575Z" fill="#407BFF"/>
<path d="M92.4762 99.4575H76.3508V220.384H92.4762V99.4575Z" fill="#407BFF"/>
<path d="M116.012 99.4575H99.8862V220.384H116.012V99.4575Z" fill="#407BFF"/>
<g opacity="0.5">
<path d="M68.941 99.4575H52.8156V220.384H68.941V99.4575Z" fill="white"/>
<path d="M92.4762 99.4575H76.3508V220.384H92.4762V99.4575Z" fill="white"/>
<path d="M116.012 99.4575H99.8862V220.384H116.012V99.4575Z" fill="white"/>
</g>
<path d="M108.555 53.3776H106.191H92.194V37.0054H89.8299H78.9973H76.6449V53.3776H62.6367H60.2843V66.5719H62.6367H76.6449V82.9442H78.9973H89.8299H92.194V66.5719H106.191H108.555V53.3776Z" fill="#407BFF"/>
<path opacity="0.3" d="M62.6484 53.3774H60.2843V66.5718H62.6484V53.3774Z" fill="black"/>
<path opacity="0.3" d="M79.0091 37.0054H76.6567V53.3776H79.0091V37.0054Z" fill="black"/>
<path opacity="0.3" d="M79.0091 66.5718H76.6567V82.944H79.0091V66.5718Z" fill="black"/>
<path d="M55.1326 5.19166e-05H54.6034H54.0153C52.9112 -0.0594106 51.8066 0.106866 50.7688 0.488738C49.7311 0.870609 48.782 1.46006 47.9794 2.22114C47.1768 2.98222 46.5376 3.89895 46.1008 4.91541C45.664 5.93187 45.4387 7.02673 45.4387 8.1332C45.4387 9.23966 45.664 10.3345 46.1008 11.351C46.5376 12.3675 47.1768 13.2842 47.9794 14.0453C48.782 14.8063 49.7311 15.3958 50.7688 15.7777C51.8066 16.1595 52.9112 16.3258 54.0153 16.2664H54.6034H55.1326C60.0373 16.2664 63.6482 12.8295 63.6482 8.1332C63.6482 3.43691 60.0373 5.19166e-05 55.1326 5.19166e-05ZM52.5451 13.0767C52.2663 12.9368 51.9989 12.7755 51.7453 12.5941L51.6512 12.5235C51.4298 12.3507 51.2215 12.1618 51.0278 11.9585C50.9733 11.8986 50.9223 11.8358 50.8749 11.7702C50.7093 11.5872 50.5598 11.3903 50.4279 11.1817C50.2039 10.7349 50.2039 10.7349 49.9804 10.2877C49.9104 10.0988 49.8634 9.89872 49.8046 9.69862C49.7457 9.49853 49.7105 9.41615 49.6869 9.26314C49.6151 8.89479 49.5796 8.52027 49.5811 8.14498C49.5796 7.77358 49.6151 7.40296 49.6869 7.03858C49.6869 6.8738 49.7693 6.74432 49.8046 6.59131C49.8398 6.4383 49.9104 6.20291 49.981 6.01459C50.053 5.82383 50.1395 5.63888 50.2398 5.46139C50.3103 5.34369 50.3574 5.22598 50.4279 5.10828C50.5599 4.90343 50.7095 4.71045 50.8749 4.53154C50.9192 4.46366 50.9705 4.40055 51.0278 4.34321C51.2153 4.13367 51.4243 3.94433 51.6512 3.77825C51.6772 3.74836 51.7093 3.7243 51.7453 3.70763C51.9959 3.51831 52.2637 3.35281 52.5451 3.21329C53.1638 2.90987 53.8342 2.72617 54.521 2.67186C55.8813 2.81282 57.1411 3.45335 58.0569 4.46965C58.9728 5.48595 59.4796 6.80588 59.4796 8.1744C59.4796 9.54291 58.9728 10.8628 58.0569 11.8791C57.1411 12.8954 55.8813 13.536 54.521 13.6769C53.8345 13.6131 53.1651 13.4256 52.5451 13.1237V13.0767Z" fill="#407BFF"/>
<path d="M68.6822 4.59037C68.67 4.45726 68.67 4.32331 68.6822 4.19019C68.6822 4.13134 68.6822 4.08426 68.6822 4.02541C68.7045 3.9529 68.7321 3.88209 68.7646 3.81354C68.7967 3.74664 68.8362 3.68348 68.8822 3.62521C68.9106 3.56976 68.9461 3.51832 68.988 3.47221C69.0405 3.40018 69.0996 3.3332 69.1645 3.27212L69.2938 3.16618L69.5644 2.98963L69.682 2.91902L70.0466 2.75423H70.1642L70.6347 2.62476H70.7288L71.3286 2.5306C72.6922 2.61775 74.0169 3.02067 75.1982 3.70761L75.3982 3.21327L75.9981 3.51929L76.3862 3.70761L77.3036 1.4242C75.7149 0.478206 73.8945 -0.00676554 72.0461 0.0235564H71.8814H71.458C71.2581 0.0235564 71.0699 0.0235564 70.8699 0.0235564C66.5298 0.0235564 64.5068 2.18926 64.5068 4.73161C64.5068 10.6167 73.9162 8.36858 73.9162 11.7937C73.9162 12.8765 73.0341 13.6887 70.9993 13.8299C70.5766 13.7911 70.1564 13.7282 69.7408 13.6416H69.6585C69.2578 13.5601 68.8644 13.4459 68.4823 13.3003H68.3529C68.0041 13.1697 67.6659 13.0123 67.3414 12.8295H67.2355C66.9228 12.6567 66.6239 12.46 66.3416 12.241L66.2475 12.4528L66.0711 12.8412C65.7501 12.6716 65.4468 12.4705 65.1654 12.241L64.1539 14.5244C65.9677 15.8235 68.1583 16.4894 70.3877 16.4193H70.8229H71.5639C75.8922 16.4193 77.9505 14.2536 77.9505 11.7113C78.0564 5.76739 68.6822 7.95663 68.6822 4.59037Z" fill="#407BFF"/>
<path d="M87.4776 0.223633H79.7971V16.0427H83.902V11.4759H87.4305C91.5824 11.4759 94.1583 9.33373 94.1583 5.84977C94.1583 2.36581 91.6295 0.223633 87.4776 0.223633ZM83.949 8.99239V2.71891H86.2073C88.7831 2.71891 90.1122 3.89593 90.1122 5.84977C90.1122 7.80361 88.7831 8.99239 86.2073 8.99239H83.949Z" fill="#407BFF"/>
<path d="M124.915 0.223633H120.846L113.73 16.0427H117.941L119.493 12.3822H126.221L127.797 16.0427H132.043L124.915 0.223633ZM120.493 10.0752L121.94 6.68544L122.857 4.5315L125.209 10.0752H120.493Z" fill="#407BFF"/>
<path d="M145.263 13.5591H144.087H136.995V0.235352H135.818H134.066H132.878V16.0426H134.066H144.087H145.263V13.5591Z" fill="#407BFF"/>
<path d="M42.3241 0.235352H40.5716H39.3954V6.756H32.3971V0.235352H31.221H29.4567H28.2805V16.0426H29.4567H31.221H32.3971V9.26304H39.3954V16.0426H40.5716H42.3241H43.512V0.235352H42.3241Z" fill="#407BFF"/>
<path d="M98.8982 0.235352H97.1457H95.9578V16.0426H97.1457H98.8982H100.074V0.235352H98.8982Z" fill="#407BFF"/>
<path d="M115.718 2.71885V0.235352H114.541H102.309H101.133V2.71885H102.309H106.367V16.0426H107.555H109.307H110.484V2.71885H114.541H115.718Z" fill="#407BFF"/>
<g opacity="0.2">
<path d="M29.4684 0.235352H28.2922V16.0426H29.4684V0.235352Z" fill="black"/>
<path d="M40.5716 0.235352H39.3954V6.756H40.5716V0.235352Z" fill="black"/>
<path d="M40.5716 9.26294H39.3954V16.0425H40.5716V9.26294Z" fill="black"/>
<path d="M55.1443 2.5776C54.0295 2.5639 52.936 2.88359 52.0039 3.49569C52.7744 3.01039 53.6493 2.71583 54.5562 2.63646C55.9165 2.77742 57.1763 3.41795 58.0921 4.43425C59.008 5.45055 59.5149 6.77048 59.5149 8.139C59.5149 9.50751 59.008 10.8274 58.0921 11.8437C57.1763 12.86 55.9165 13.5006 54.5562 13.6415C53.2152 13.5356 51.9597 12.9409 51.0277 11.9702C51.5541 12.5315 52.1927 12.9757 52.902 13.2738C53.6112 13.5719 54.3752 13.7172 55.1443 13.7004C56.574 13.6346 57.9234 13.0199 58.9118 11.9841C59.9003 10.9484 60.4519 9.57122 60.4519 8.139C60.4519 6.70677 59.9003 5.32965 58.9118 4.2939C57.9234 3.25814 56.574 2.64344 55.1443 2.5776ZM46.6288 8.13311C46.6096 6.02504 47.4186 3.99379 48.8816 2.47692C50.3446 0.960051 52.3445 0.0789604 54.4504 0.0234894H53.9682C52.8641 -0.0359731 51.7594 0.130304 50.7217 0.512175C49.684 0.894047 48.7348 1.48352 47.9323 2.24459C47.1297 3.00567 46.4905 3.92241 46.0537 4.93887C45.6169 5.95533 45.3916 7.05018 45.3916 8.15665C45.3916 9.26312 45.6169 10.358 46.0537 11.3745C46.4905 12.3909 47.1297 13.3076 47.9323 14.0687C48.7348 14.8298 49.684 15.4193 50.7217 15.8011C51.7594 16.183 52.8641 16.3493 53.9682 16.2898H54.5445C53.489 16.276 52.4467 16.0539 51.4772 15.6362C50.5077 15.2185 49.6301 14.6134 48.8948 13.8557C48.1594 13.0979 47.5807 12.2024 47.1919 11.2204C46.803 10.2384 46.6117 9.18924 46.6288 8.13311Z" fill="black"/>
<path d="M71.0815 2.5188C70.7995 2.56396 70.5206 2.62684 70.2465 2.70711C70.5172 2.61444 70.7972 2.55131 71.0815 2.5188Z" fill="black"/>
<path d="M65.4359 14.3714C67.0364 15.5352 68.9511 16.1876 70.9287 16.2428H70.4935C68.2643 16.3112 66.0743 15.6454 64.2598 14.3478L65.283 12.0645C65.565 12.2965 65.8682 12.5015 66.1887 12.6765L65.4359 14.3714Z" fill="black"/>
<path d="M75.1747 11.77C75.1747 12.947 74.1279 13.8298 71.6461 13.8298H71.0816C73.0928 13.6886 73.975 12.8646 73.975 11.7936C73.975 8.392 64.5656 10.6166 64.5656 4.73149C64.5656 2.17737 66.6003 0.0234375 70.9287 0.0234375H71.2227C67.506 0.317691 65.7417 2.37746 65.7417 4.73149C65.777 10.6048 75.1747 8.36847 75.1747 11.77Z" fill="black"/>
<path d="M75.4453 3.2015L75.2571 3.68406C74.0753 2.99791 72.7509 2.59504 71.3875 2.50705C71.6147 2.4944 71.8424 2.4944 72.0696 2.50705C73.2302 2.50752 74.3786 2.74379 75.4453 3.2015Z" fill="black"/>
<path d="M75.998 3.42503L75.4922 3.20142L75.998 3.42503Z" fill="black"/>
<path d="M87.3364 2.71885H86.1602C88.7361 2.71885 90.0651 3.89586 90.0651 5.86147C90.0651 7.82708 88.7361 8.99233 86.1602 8.99233H87.3364C89.9122 8.99233 91.2531 7.81531 91.2531 5.86147C91.2531 3.90763 89.9122 2.71885 87.3364 2.71885ZM79.7971 0.235352V16.0426H80.9733V0.235352H79.7971Z" fill="black"/>
<path d="M97.1457 0.235352H95.9695V16.0426H97.1457V0.235352Z" fill="black"/>
<path d="M102.309 0.235352H101.133V2.71885H102.309V0.235352Z" fill="black"/>
<path d="M107.555 2.71875H106.379V16.0425H107.555V2.71875Z" fill="black"/>
<path d="M120.846 0.235352L113.789 16.0426H114.965L122.022 0.235352H120.846ZM123.445 3.1661L120.493 10.0869L122.845 4.54322L125.197 10.0869H126.374L123.445 3.1661ZM127.397 12.3821H126.221L127.809 16.0426H128.985L127.397 12.3821Z" fill="black"/>
<path d="M134.066 0.235352H132.89V16.0426H134.066V0.235352Z" fill="black"/>
</g>
</g>
<defs>
<clipPath id="clip0_143_4016">
<rect width="331" height="281" fill="white" transform="translate(-121)"/>
</clipPath>
</defs>
</svg>
