<svg width="259" height="280" viewBox="0 0 259 280" fill="none" xmlns="http://www.w3.org/2000/svg">
<path d="M216.171 261.981V262.691H234.032V261.981H216.171Z" fill="#2B2D3C"/>
<path d="M227.402 245.176H235.144V240.907H227.402V245.176Z" fill="#2B2D3C"/>
<path d="M232.74 261.981H233.45V244.115H232.74V261.981Z" fill="#2B2D3C"/>
<path d="M230.525 261.981H231.235V244.115H230.525V261.981Z" fill="#2B2D3C"/>
<path d="M228.301 261.981H229.011V244.115H228.301V261.981Z" fill="#2B2D3C"/>
<path d="M207.002 156.979V157.167H211.835V156.979H207.002Z" fill="#2B2D3C"/>
<path d="M210.038 152.427H212.134V151.272H210.038V152.427Z" fill="#2B2D3C"/>
<path d="M211.484 156.979H211.672V152.145H211.484V156.979Z" fill="#2B2D3C"/>
<path d="M210.894 156.979H211.082V152.145H210.894V156.979Z" fill="#2B2D3C"/>
<path d="M210.286 156.979H210.475V152.145H210.286V156.979Z" fill="#2B2D3C"/>
<path d="M207.002 126.134V126.322H211.835V126.134H207.002Z" fill="#2B2D3C"/>
<path d="M210.038 121.59H212.134V120.435H210.038V121.59Z" fill="#2B2D3C"/>
<path d="M211.484 126.134H211.672V121.299H211.484V126.134Z" fill="#2B2D3C"/>
<path d="M210.894 126.134H211.082V121.299H210.894V126.134Z" fill="#2B2D3C"/>
<path d="M210.286 126.134H210.475V121.299H210.286V126.134Z" fill="#2B2D3C"/>
<path d="M207.002 95.2886V95.4768H211.835V95.2886H207.002Z" fill="#2B2D3C"/>
<path d="M210.038 90.7366H212.134V89.5815H210.038V90.7366Z" fill="#2B2D3C"/>
<path d="M211.484 95.2799H211.672V90.4457H211.484V95.2799Z" fill="#2B2D3C"/>
<path d="M210.894 95.2799H211.082V90.4457H210.894V95.2799Z" fill="#2B2D3C"/>
<path d="M210.286 95.2799H210.475V90.4457H210.286V95.2799Z" fill="#2B2D3C"/>
<path d="M207.002 64.4348V64.623H211.835V64.4348H207.002Z" fill="#2B2D3C"/>
<path d="M210.038 59.8915H212.134V58.7364H210.038V59.8915Z" fill="#2B2D3C"/>
<path d="M211.484 64.4348H211.672V59.6006H211.484V64.4348Z" fill="#2B2D3C"/>
<path d="M210.894 64.4348H211.082V59.6006H210.894V64.4348Z" fill="#2B2D3C"/>
<path d="M210.286 64.4348H210.475V59.6006H210.286V64.4348Z" fill="#2B2D3C"/>
<path d="M117.068 -14H68.089H19.1189L-0.332344 5.45683L68.089 7.03973L136.519 5.45683L117.068 -14Z" fill="#56618F"/>
<path d="M35.6361 14.2698H-13.334H-62.3128L-81.7554 30.595L-13.334 31.9212L55.0873 30.595L35.6361 14.2698Z" fill="#56618F"/>
<path d="M198.012 14.2783H149.033H100.063L80.6117 30.595L149.033 31.9212L217.463 30.595L198.012 14.2783Z" fill="#56618F"/>
<path d="M123.586 37.4741L213.032 37.4741V34.95L123.586 34.95V37.4741Z" fill="#FA99A0"/>
<path d="M123.586 35.626L217.454 35.626V30.5864L123.586 30.5864V35.626Z" fill="#2B2D3C"/>
<path d="M131.318 168.213H210.081L210.081 37.4742H131.318V168.213Z" fill="#C8CEDF"/>
<path d="M186.421 146.386V157.509H195.831V146.386C195.824 145.435 195.525 144.509 194.975 143.734C194.917 143.635 194.851 143.541 194.778 143.451C194.354 142.919 193.819 142.484 193.211 142.179C192.602 141.873 191.935 141.703 191.254 141.68H190.921C189.728 141.717 188.593 142.207 187.747 143.049C187.621 143.177 187.501 143.311 187.388 143.451C187.318 143.541 187.256 143.635 187.2 143.734C186.674 144.517 186.402 145.443 186.421 146.386Z" fill="#2B2D3C"/>
<path d="M186.421 147.644H195.856V147.148H186.421V147.644Z" fill="#FEDEDD"/>
<path d="M186.421 157.475H195.856V156.979H186.421V157.475Z" fill="#FEDEDD"/>
<path d="M165.978 146.386V157.509H175.387V146.386C175.381 145.435 175.082 144.509 174.532 143.734C174.473 143.635 174.407 143.541 174.335 143.451C173.912 142.918 173.377 142.483 172.768 142.177C172.16 141.871 171.492 141.702 170.811 141.68H170.477C169.285 141.719 168.151 142.208 167.304 143.049L166.945 143.451C166.885 143.537 166.816 143.631 166.756 143.734C166.23 144.517 165.959 145.443 165.978 146.386Z" fill="#2B2D3C"/>
<path d="M165.987 147.644H175.421V147.148H165.987V147.644Z" fill="#FEDEDD"/>
<path d="M165.987 157.475H175.421V156.979H165.987V157.475Z" fill="#FEDEDD"/>
<path d="M145.543 146.386V157.509H154.952V146.386C154.949 145.435 154.65 144.508 154.097 143.734C154.037 143.631 153.969 143.537 153.909 143.451C153.483 142.918 152.947 142.483 152.337 142.177C151.727 141.871 151.058 141.702 150.376 141.68H150.051C148.857 141.716 147.722 142.205 146.878 143.049C146.751 143.177 146.631 143.311 146.518 143.451C146.446 143.541 146.38 143.635 146.322 143.734C145.799 144.518 145.527 145.443 145.543 146.386Z" fill="#2B2D3C"/>
<path d="M145.535 147.644H154.969V147.148H145.535V147.644Z" fill="#FEDEDD"/>
<path d="M145.535 157.475H154.969V156.979H145.535V157.475Z" fill="#FEDEDD"/>
<path d="M186.421 115.233V126.356H195.831V115.233C195.824 114.282 195.525 113.356 194.975 112.581C194.917 112.482 194.851 112.387 194.778 112.298C194.353 111.766 193.819 111.331 193.211 111.024C192.602 110.717 191.935 110.544 191.254 110.519H190.921C189.727 110.562 188.594 111.054 187.747 111.896C187.621 112.024 187.501 112.158 187.388 112.298C187.318 112.388 187.256 112.482 187.2 112.581C186.674 113.364 186.402 114.29 186.421 115.233Z" fill="#2B2D3C"/>
<path d="M186.421 116.482H195.856V115.986H186.421V116.482Z" fill="#FEDEDD"/>
<path d="M186.421 126.322H195.856V125.826H186.421V126.322Z" fill="#FEDEDD"/>
<path d="M165.978 115.233V126.356H175.387V115.233C175.381 114.282 175.082 113.356 174.532 112.581C174.473 112.482 174.407 112.387 174.335 112.298C173.911 111.765 173.376 111.33 172.768 111.022C172.159 110.715 171.492 110.543 170.811 110.519H170.477C169.284 110.564 168.152 111.055 167.304 111.896L166.945 112.298C166.885 112.384 166.816 112.478 166.756 112.581C166.23 113.364 165.959 114.29 165.978 115.233Z" fill="#2B2D3C"/>
<path d="M165.987 116.482H175.421V115.986H165.987V116.482Z" fill="#FEDEDD"/>
<path d="M165.987 126.322H175.421V125.826H165.987V126.322Z" fill="#FEDEDD"/>
<path d="M145.543 115.233V126.356H154.952V115.233C154.949 114.282 154.65 113.355 154.097 112.581C154.037 112.478 153.969 112.384 153.909 112.298C153.482 111.765 152.946 111.33 152.336 111.023C151.727 110.716 151.058 110.544 150.376 110.519H150.051C148.857 110.56 147.724 111.053 146.878 111.896C146.751 112.024 146.631 112.158 146.518 112.298C146.446 112.387 146.38 112.482 146.322 112.581C145.799 113.365 145.527 114.29 145.543 115.233Z" fill="#2B2D3C"/>
<path d="M145.535 116.482H154.969V115.986H145.535V116.482Z" fill="#FEDEDD"/>
<path d="M145.535 126.322H154.969V125.826H145.535V126.322Z" fill="#FEDEDD"/>
<path d="M186.421 84.0713V95.1943H195.831V84.0713C195.823 83.1205 195.524 82.1948 194.975 81.4188C194.915 81.3242 194.849 81.2328 194.778 81.145C194.356 80.6099 193.822 80.1734 193.213 79.866C192.604 79.5586 191.936 79.3878 191.254 79.3654H190.921C189.727 79.4056 188.592 79.8979 187.747 80.7429C187.619 80.8687 187.499 81.0031 187.388 81.145C187.32 81.2329 187.258 81.3243 187.2 81.4188C186.675 82.2023 186.403 83.1282 186.421 84.0713Z" fill="#2B2D3C"/>
<path d="M186.421 85.3206H195.856V84.8243H186.421V85.3206Z" fill="#FEDEDD"/>
<path d="M186.421 95.1687H195.856V94.6724H186.421V95.1687Z" fill="#FEDEDD"/>
<path d="M165.978 84.0713V95.1943H175.387V84.0713C175.38 83.1205 175.081 82.1948 174.532 81.4188C174.471 81.3242 174.405 81.2328 174.335 81.145C173.913 80.609 173.379 80.1719 172.77 79.8644C172.161 79.5569 171.493 79.3866 170.811 79.3654H170.477C169.284 79.4073 168.15 79.8994 167.304 80.7429C167.184 80.8712 167.064 80.9996 166.945 81.145L166.756 81.4188C166.231 82.2023 165.96 83.1282 165.978 84.0713Z" fill="#2B2D3C"/>
<path d="M165.987 85.3206H175.421V84.8243H165.987V85.3206Z" fill="#FEDEDD"/>
<path d="M165.987 95.1687H175.421V94.6724H165.987V95.1687Z" fill="#FEDEDD"/>
<path d="M145.543 84.0713V95.1943H154.952V84.0713C154.948 83.12 154.649 82.1933 154.097 81.4188L153.909 81.145C153.485 80.6088 152.949 80.1716 152.339 79.8642C151.729 79.5568 151.059 79.3865 150.376 79.3654H150.051C148.856 79.4039 147.722 79.8965 146.878 80.7429C146.749 80.8687 146.629 81.0031 146.518 81.145C146.448 81.2328 146.382 81.3242 146.322 81.4188C145.8 82.2037 145.528 83.1287 145.543 84.0713Z" fill="#2B2D3C"/>
<path d="M145.535 85.3206H154.969V84.8243H145.535V85.3206Z" fill="#FEDEDD"/>
<path d="M145.535 95.1687H154.969V94.6724H145.535V95.1687Z" fill="#FEDEDD"/>
<path d="M186.421 52.9182V64.0413H195.831V52.9182C195.823 51.9674 195.524 51.0418 194.975 50.2658C194.917 50.167 194.851 50.0726 194.778 49.9834C194.354 49.4507 193.819 49.0164 193.211 48.7106C192.602 48.4048 191.935 48.2348 191.254 48.2123H190.921C189.726 48.2482 188.59 48.7412 187.747 49.5898C187.619 49.7127 187.499 49.8442 187.388 49.9834C187.319 50.0728 187.256 50.1672 187.2 50.2658C186.675 51.0493 186.403 51.9752 186.421 52.9182Z" fill="#2B2D3C"/>
<path d="M186.421 54.1674H195.856V53.6711H186.421V54.1674Z" fill="#FEDEDD"/>
<path d="M186.421 64.007H195.856V63.5107H186.421V64.007Z" fill="#FEDEDD"/>
<path d="M165.978 52.9182V64.0413H175.387V52.9182C175.38 51.9674 175.081 51.0418 174.532 50.2658C174.473 50.167 174.407 50.0726 174.335 49.9834C173.912 49.4498 173.377 49.0149 172.768 48.7091C172.16 48.4032 171.492 48.2337 170.811 48.2123H170.477C169.283 48.2499 168.147 48.7427 167.304 49.5898C167.184 49.7096 167.064 49.8465 166.945 49.9834C166.825 50.1203 166.816 50.1631 166.756 50.2658C166.231 51.0493 165.96 51.9752 165.978 52.9182Z" fill="#2B2D3C"/>
<path d="M165.987 54.1674H175.421V53.6711H165.987V54.1674Z" fill="#FEDEDD"/>
<path d="M165.987 64.007H175.421V63.5107H165.987V64.007Z" fill="#FEDEDD"/>
<path d="M145.543 52.9182V64.0413H154.952V52.9182C154.948 51.9669 154.649 51.0403 154.097 50.2658C154.037 50.1631 153.969 50.069 153.909 49.9834C153.483 49.4496 152.947 49.0147 152.337 48.7088C151.727 48.403 151.058 48.2336 150.376 48.2123H150.051C148.855 48.2465 147.719 48.7398 146.878 49.5898C146.749 49.7127 146.629 49.8442 146.518 49.9834C146.446 50.0726 146.38 50.167 146.322 50.2658C145.8 51.0507 145.528 51.9756 145.543 52.9182Z" fill="#2B2D3C"/>
<path d="M145.535 54.1674H154.969V53.6711H145.535V54.1674Z" fill="#FEDEDD"/>
<path d="M145.535 64.007H154.969V63.5107H145.535V64.007Z" fill="#FEDEDD"/>
<path d="M12.1048 34.9586H-77.3417V37.4827H12.1048V34.9586Z" fill="#FA99A0"/>
<path d="M12.1133 30.5864H-81.7554V35.626H12.1133V30.5864Z" fill="#2B2D3C"/>
<path d="M4.86831 37.4741H-74.3821V168.213H4.86831V37.4741Z" fill="#C8CEDF"/>
<path d="M12.1133 173.133H-91.3527V278.152H12.1133V173.133Z" fill="#C8CEDF"/>
<path d="M227.539 173.133H124.073V278.152H227.539V173.133Z" fill="#C8CEDF"/>
<path d="M131.327 7.03967H4.86831V163.67H131.327V7.03967Z" fill="#DBF4FC"/>
<path d="M136.51 181.484H-0.323799V188.312H136.51V181.484Z" fill="#FA99A0"/>
<path d="M115.289 188.312H20.898V278.143H115.289V188.312Z" fill="#C8CEDF"/>
<path d="M104.194 191.298H31.9837V278.143H104.194V191.298Z" fill="#FEDEDD"/>
<path d="M43.3003 194.549H35.5848V208.607H43.3003V194.549Z" fill="#2B2D3C"/>
<path d="M87.3863 194.549H48.8003V208.607H87.3863V194.549Z" fill="#2B2D3C"/>
<path d="M43.3003 213.108H35.5848V270.272H43.3003V213.108Z" fill="#2B2D3C"/>
<path d="M100.696 194.549H92.9804V208.607H100.696V194.549Z" fill="#2B2D3C"/>
<path d="M100.696 213.108H92.9804V270.272H100.696V213.108Z" fill="#2B2D3C"/>
<path d="M87.3863 213.108H48.8003V278.143H87.3863V213.108Z" fill="#B74E50"/>
<path d="M83.9391 216.547H52.256V270.28H83.9391V216.547Z" fill="#2B2D3C"/>
<path d="M51.1184 242.105C51.1184 242.242 51.0778 242.376 51.0016 242.49C50.9255 242.604 50.8173 242.692 50.6907 242.745C50.5641 242.797 50.4248 242.811 50.2904 242.784C50.156 242.758 50.0325 242.692 49.9356 242.595C49.8387 242.498 49.7727 242.374 49.746 242.24C49.7193 242.105 49.733 241.966 49.7854 241.839C49.8379 241.713 49.9267 241.604 50.0406 241.528C50.1546 241.452 50.2885 241.411 50.4255 241.411C50.6093 241.411 50.7855 241.485 50.9155 241.614C51.0454 241.744 51.1184 241.921 51.1184 242.105Z" fill="white"/>
<path d="M51.1184 247.598C51.1184 247.735 51.0778 247.869 51.0016 247.983C50.9255 248.097 50.8173 248.185 50.6907 248.238C50.5641 248.29 50.4248 248.304 50.2904 248.277C50.156 248.251 50.0325 248.185 49.9356 248.088C49.8387 247.991 49.7727 247.867 49.746 247.733C49.7193 247.598 49.733 247.459 49.7854 247.332C49.8379 247.206 49.9267 247.097 50.0406 247.021C50.1546 246.945 50.2885 246.905 50.4255 246.905C50.6093 246.905 50.7855 246.978 50.9155 247.108C51.0454 247.238 51.1184 247.414 51.1184 247.598Z" fill="white"/>
<path d="M50.7078 242.507H50.1604V247.606H50.7078V242.507Z" fill="white"/>
<g style="mix-blend-mode:screen" opacity="0.5">
<g style="mix-blend-mode:screen" opacity="0.5">
<path d="M83.9306 216.547V229.955L52.2561 254.006V231.88L72.4429 216.547H83.9306Z" fill="#2B2D3C"/>
</g>
<g style="mix-blend-mode:screen" opacity="0.5">
<path d="M35.5848 208.059L43.3088 202.207V208.607H35.5848V208.059Z" fill="#2B2D3C"/>
</g>
<g style="mix-blend-mode:screen" opacity="0.5">
<path d="M35.5848 213.108H43.3088V214.896L35.5848 220.765V213.108Z" fill="#2B2D3C"/>
</g>
<g style="mix-blend-mode:screen" opacity="0.5">
<path d="M70.1077 194.549L51.5974 208.607H48.8003V198.031L53.3851 194.549H70.1077Z" fill="#2B2D3C"/>
</g>
<g style="mix-blend-mode:screen" opacity="0.5">
<path d="M43.3088 194.549V195.062L35.5848 200.915V194.549H43.3088Z" fill="#2B2D3C"/>
</g>
<g style="mix-blend-mode:screen" opacity="0.5">
<path d="M100.696 204.765V208.607H95.6321L100.696 204.765Z" fill="#2B2D3C"/>
</g>
<g style="mix-blend-mode:screen" opacity="0.5">
<path d="M92.9804 213.108H100.696V217.471L92.9804 223.324V213.108Z" fill="#2B2D3C"/>
</g>
<g style="mix-blend-mode:screen" opacity="0.5">
<path d="M100.696 247.264V259.961L92.9804 265.822V253.125L100.696 247.264Z" fill="#2B2D3C"/>
</g>
<g style="mix-blend-mode:screen" opacity="0.5">
<path d="M43.3088 240.239V252.937L35.5848 258.798V246.1L43.3088 240.239Z" fill="#2B2D3C"/>
</g>
<g style="mix-blend-mode:screen" opacity="0.5">
<path d="M87.3863 194.549V203.217L80.2867 208.607H61.1519L79.6622 194.549H87.3863Z" fill="#2B2D3C"/>
</g>
<g style="mix-blend-mode:screen" opacity="0.5">
<path d="M83.9306 240.008V252.74L60.8355 270.28H52.2561V264.06L83.9306 240.008Z" fill="#2B2D3C"/>
</g>
</g>
<path d="M28.7333 163.67V137.146H32.4285V148.611H39.2715V137.146H42.9753V163.67H39.2715V151.246H32.4285V163.67H28.7333Z" fill="#414F7C"/>
<path d="M53.8813 163.961C52.3849 164.032 50.8999 163.669 49.6044 162.917C48.5229 162.204 47.7149 161.145 47.312 159.914C46.8239 158.441 46.5896 156.896 46.6191 155.345V145.291C46.5845 143.758 46.825 142.23 47.3291 140.782C47.7466 139.59 48.5544 138.574 49.6215 137.898C50.9246 137.169 52.407 136.822 53.8984 136.897C55.3923 136.818 56.8774 137.171 58.1753 137.916C59.2315 138.599 60.0317 139.613 60.4505 140.799C60.9557 142.241 61.1962 143.763 61.1605 145.291V155.379C61.1903 156.915 60.95 158.444 60.4505 159.896C60.0349 161.116 59.237 162.17 58.1753 162.9C56.8837 163.679 55.3868 164.048 53.8813 163.961ZM53.8813 161.043C54.6716 161.1 55.4581 160.889 56.1138 160.444C56.6352 160.004 56.9936 159.401 57.1317 158.733C57.3148 157.89 57.4009 157.029 57.3883 156.166V144.53C57.4047 143.667 57.3186 142.805 57.1317 141.963C56.9934 141.313 56.6335 140.733 56.1138 140.32C55.4495 139.896 54.6675 139.695 53.8813 139.747C53.0926 139.698 52.3085 139.898 51.6402 140.32C51.1128 140.727 50.7487 141.31 50.6137 141.963C50.4193 142.804 50.3302 143.666 50.3486 144.53V156.166C50.3342 157.029 50.4232 157.891 50.6137 158.733C50.7476 159.405 51.1104 160.01 51.6402 160.444C52.3002 160.887 53.0885 161.097 53.8813 161.043Z" fill="#414F7C"/>
<path d="M67.6699 163.67V139.884H63.1877V137.128H75.7275V139.884H71.3737V163.67H67.6699Z" fill="#414F7C"/>
<path d="M78.2851 163.67V137.146H88.5496V139.901H81.9632V148.679H87.3007V151.297H81.9632V161.034H88.6693V163.687L78.2851 163.67Z" fill="#414F7C"/>
<path d="M91.6204 163.67V137.146H95.3156V161.034H102.099V163.687L91.6204 163.67Z" fill="#414F7C"/>
<path d="M28.7333 163.67V137.146H34.6011V147.858H38.6813V137.146H44.5491V163.67H38.6813V152.05H34.6011V163.67H28.7333Z" fill="#414F7C"/>
<path d="M56.1651 164.037C54.8852 164.069 53.6102 163.869 52.4015 163.447C51.4327 163.116 50.5742 162.524 49.9209 161.736C49.2931 160.929 48.8414 159.999 48.595 159.006C48.3021 157.797 48.1641 156.555 48.1845 155.31V145.496C48.1632 144.249 48.3012 143.004 48.595 141.791C48.8398 140.803 49.2917 139.879 49.9209 139.079C50.5736 138.29 51.4323 137.698 52.4015 137.368C53.6124 136.956 54.8866 136.762 56.1651 136.794C59.0306 136.794 61.0921 137.522 62.3323 138.993C63.5726 140.465 64.1971 142.63 64.1971 145.513V155.302C64.1971 158.185 63.5726 160.358 62.3323 161.838C61.0921 163.319 59.0392 164.037 56.1651 164.037ZM55.3097 159.699C55.593 159.833 55.9036 159.897 56.2164 159.888C56.531 159.895 56.8434 159.834 57.1317 159.708C57.3646 159.607 57.5678 159.448 57.7219 159.246C57.8736 159.025 57.9837 158.779 58.0469 158.519C58.1204 158.238 58.1719 157.952 58.2009 157.663C58.2009 157.406 58.2009 157.09 58.2009 156.73V144.024C58.2009 143.674 58.2009 143.366 58.2009 143.1C58.1728 142.811 58.1213 142.525 58.0469 142.245C57.9856 141.989 57.8752 141.748 57.7219 141.535C57.5655 141.335 57.3629 141.176 57.1317 141.073C56.8434 140.947 56.531 140.885 56.2164 140.893C55.9046 140.885 55.595 140.946 55.3097 141.073C55.0852 141.18 54.8867 141.334 54.7281 141.526C54.5683 141.738 54.4599 141.984 54.4116 142.245C54.3397 142.525 54.2938 142.812 54.2747 143.1C54.2747 143.349 54.2747 143.657 54.2747 144.033V156.748C54.2747 157.124 54.2747 157.432 54.2747 157.68C54.2941 157.969 54.3399 158.255 54.4116 158.536C54.465 158.798 54.5728 159.046 54.7281 159.263C54.8885 159.449 55.0868 159.597 55.3097 159.699Z" fill="#414F7C"/>
<path d="M70.1676 163.67V141.475H66.0874V137.146H80.0643V141.475H76.0355V163.67H70.1676Z" fill="#414F7C"/>
<path d="M82.3396 163.67V137.146H94.2549V141.141H88.1903V147.704H92.8179V151.819H88.1903V159.734H94.3148V163.704L82.3396 163.67Z" fill="#414F7C"/>
<path d="M96.975 163.67V137.146H102.826V159.7H108.907V163.67H96.975Z" fill="#414F7C"/>
<g opacity="0.5">
<g style="mix-blend-mode:screen">
<path d="M39.9643 162.387V150.776H33.3181V162.387H30.0163V138.429H33.3181V149.15H39.9643V138.429H43.2661V162.387H39.9643Z" fill="#414F7C"/>
</g>
<g style="mix-blend-mode:screen">
<path d="M56.1651 162.754C55.0377 162.783 53.9142 162.612 52.8463 162.25C52.0921 161.99 51.4254 161.525 50.9217 160.906C50.4054 160.241 50.0353 159.474 49.8354 158.656C49.5701 157.553 49.4464 156.42 49.4675 155.285V145.497C49.445 144.359 49.5686 143.223 49.8354 142.117C50.0336 141.303 50.404 140.542 50.9217 139.884C51.4242 139.268 52.0918 138.808 52.8463 138.558C53.9148 138.198 55.0383 138.03 56.1651 138.061C58.6286 138.061 60.3736 138.643 61.3487 139.773C62.3238 140.902 62.914 142.904 62.914 145.462V155.251C62.914 157.818 62.3837 159.726 61.3487 160.958C60.3137 162.19 58.6371 162.754 56.1651 162.754ZM56.1651 139.653C55.6567 139.642 55.1529 139.75 54.6939 139.969C54.2974 140.16 53.9471 140.434 53.6674 140.774C53.4 141.133 53.2106 141.543 53.1114 141.98C53.0252 142.325 52.9679 142.677 52.9404 143.032C52.9404 143.298 52.9404 143.631 52.9404 144.042V156.757C52.9404 157.167 52.9404 157.501 52.9404 157.775C52.9679 158.133 53.0251 158.487 53.1114 158.836C53.2114 159.268 53.3976 159.675 53.6589 160.034C53.9318 160.39 54.2792 160.682 54.6768 160.889C55.1412 161.111 55.6506 161.222 56.1651 161.214C56.6723 161.222 57.1748 161.117 57.6364 160.906C58.0539 160.711 58.4179 160.418 58.697 160.051C58.9521 159.702 59.1353 159.307 59.2359 158.887C59.3329 158.54 59.3959 158.185 59.4241 157.826C59.4241 157.535 59.4669 157.184 59.4669 156.782V144.025C59.4669 143.631 59.4669 143.289 59.4241 142.998C59.3974 142.639 59.3344 142.284 59.2359 141.937C59.1287 141.521 58.9429 141.129 58.6885 140.782C58.4101 140.415 58.0459 140.121 57.6278 139.927C57.1684 139.72 56.6684 139.621 56.1651 139.636V139.653Z" fill="#414F7C"/>
</g>
<g style="mix-blend-mode:screen">
<path d="M71.4507 162.387V140.2H67.3791V138.429H78.7898V140.2H74.761V162.387H71.4507Z" fill="#414F7C"/>
</g>
<g style="mix-blend-mode:screen">
<path d="M83.6226 162.387V138.429H92.9719V139.858H86.9158V148.988H91.5348V150.502H86.9158V160.983H93.0403V162.387H83.6226Z" fill="#414F7C"/>
</g>
<g style="mix-blend-mode:screen">
<path d="M98.2581 162.387V138.429H101.543V160.983H107.624V162.387H98.2581Z" fill="#414F7C"/>
</g>
</g>
<g style="mix-blend-mode:multiply" opacity="0.5">
<path d="M131.327 103.109H4.86831V106.275H131.327V103.109Z" fill="#DBF4FC"/>
</g>
<g style="mix-blend-mode:multiply" opacity="0.5">
<path d="M131.327 71.0916H4.86831V74.2574H131.327V71.0916Z" fill="#DBF4FC"/>
</g>
<g style="mix-blend-mode:multiply" opacity="0.5">
<path d="M131.327 39.0657H4.86831V42.2315H131.327V39.0657Z" fill="#DBF4FC"/>
</g>
<path d="M135.339 101.517H0.839514C0.192313 101.517 -0.332344 102.042 -0.332344 102.69V103.52C-0.332344 104.167 0.192313 104.692 0.839514 104.692H135.339C135.986 104.692 136.51 104.167 136.51 103.52V102.69C136.51 102.042 135.986 101.517 135.339 101.517Z" fill="#FEDEDD"/>
<path d="M26.3981 115.379V126.502H16.989V115.379C16.9932 114.427 17.2921 113.501 17.8443 112.726C17.9021 112.629 17.9649 112.534 18.0325 112.444C18.4568 111.911 18.9916 111.477 19.6001 111.171C20.2085 110.865 20.8761 110.695 21.5567 110.673H21.8903C23.0848 110.711 24.2197 111.204 25.0637 112.05C25.1902 112.175 25.3101 112.306 25.423 112.444C25.4934 112.534 25.559 112.629 25.6197 112.726C26.1417 113.511 26.4131 114.436 26.3981 115.379Z" fill="#2B2D3C"/>
<path d="M26.4066 116.131H16.9719V116.628H26.4066V116.131Z" fill="#FEDEDD"/>
<path d="M26.4066 125.971H16.9719V126.467H26.4066V125.971Z" fill="#FEDEDD"/>
<path d="M44.9597 115.379V126.502H35.5506V115.379C35.5549 114.427 35.8537 113.501 36.406 112.726C36.4637 112.629 36.5265 112.534 36.5941 112.444C37.0184 111.911 37.5533 111.477 38.1617 111.171C38.7702 110.865 39.4377 110.695 40.1183 110.673H40.4519C41.6464 110.711 42.7813 111.204 43.6253 112.05C43.7518 112.175 43.8717 112.306 43.9846 112.444C44.055 112.534 44.1207 112.629 44.1813 112.726C44.7033 113.511 44.9747 114.436 44.9597 115.379Z" fill="#2B2D3C"/>
<path d="M44.9683 116.131H35.5335V116.628H44.9683V116.131Z" fill="#FEDEDD"/>
<path d="M44.9683 125.971H35.5335V126.467H44.9683V125.971Z" fill="#FEDEDD"/>
<path d="M63.5213 115.379V126.502H54.1122V115.379C54.1165 114.427 54.4153 113.501 54.9676 112.726C55.0275 112.623 55.0959 112.538 55.1558 112.444C55.5801 111.911 56.1149 111.477 56.7234 111.171C57.3318 110.865 57.9994 110.695 58.6799 110.673H59.0135C60.208 110.711 61.3429 111.204 62.187 112.05C62.3134 112.175 62.4334 112.306 62.5462 112.444C62.6166 112.534 62.6823 112.629 62.743 112.726C63.265 113.511 63.5364 114.436 63.5213 115.379Z" fill="#2B2D3C"/>
<path d="M63.5299 116.131H54.0951V116.628H63.5299V116.131Z" fill="#FEDEDD"/>
<path d="M63.5299 125.971H54.0951V126.467H63.5299V125.971Z" fill="#FEDEDD"/>
<path d="M82.0829 115.379V126.502H72.6738V115.379C72.6781 114.427 72.9769 113.501 73.5292 112.726C73.5891 112.623 73.6575 112.538 73.7174 112.444C74.1426 111.91 74.6788 111.475 75.2888 111.169C75.8988 110.863 76.5681 110.694 77.2501 110.673H77.5495C78.744 110.711 79.8789 111.204 80.7229 112.05C80.8494 112.175 80.9693 112.306 81.0822 112.444C81.1526 112.534 81.2182 112.629 81.2789 112.726C81.8099 113.508 82.0904 114.433 82.0829 115.379Z" fill="#2B2D3C"/>
<path d="M82.0915 116.131H72.6567V116.628H82.0915V116.131Z" fill="#FEDEDD"/>
<path d="M82.0915 125.971H72.6567V126.467H82.0915V125.971Z" fill="#FEDEDD"/>
<path d="M100.645 115.379V126.502H91.2355V115.379C91.2431 114.428 91.5416 113.502 92.0908 112.726C92.1515 112.629 92.2172 112.534 92.2876 112.444C92.7111 111.91 93.2457 111.475 93.8544 111.169C94.463 110.864 95.1309 110.694 95.8117 110.673H96.1453C97.337 110.712 98.4688 111.205 99.3102 112.05C99.4367 112.175 99.5566 112.306 99.6694 112.444C99.7399 112.534 99.8055 112.629 99.8662 112.726C100.388 113.511 100.66 114.436 100.645 115.379Z" fill="#2B2D3C"/>
<path d="M100.653 116.131H91.2184V116.628H100.653V116.131Z" fill="#FEDEDD"/>
<path d="M100.653 125.971H91.2184V126.467H100.653V125.971Z" fill="#FEDEDD"/>
<path d="M119.206 115.379V126.502H109.797V115.379C109.805 114.428 110.103 113.502 110.652 112.726C110.713 112.629 110.779 112.534 110.849 112.444C111.273 111.91 111.807 111.475 112.416 111.169C113.025 110.864 113.693 110.694 114.373 110.673H114.707C115.901 110.715 117.034 111.207 117.88 112.05L118.24 112.444C118.299 112.538 118.368 112.623 118.428 112.726C118.95 113.511 119.221 114.436 119.206 115.379Z" fill="#2B2D3C"/>
<path d="M119.215 116.131H109.78V116.628H119.215V116.131Z" fill="#FEDEDD"/>
<path d="M119.215 125.971H109.78V126.467H119.215V125.971Z" fill="#FEDEDD"/>
<path d="M135.339 69.5001H0.839514C0.192313 69.5001 -0.332344 70.0249 -0.332344 70.6723V71.5023C-0.332344 72.1497 0.192313 72.6745 0.839514 72.6745H135.339C135.986 72.6745 136.51 72.1497 136.51 71.5023V70.6723C136.51 70.0249 135.986 69.5001 135.339 69.5001Z" fill="#FEDEDD"/>
<path d="M26.3981 83.3697V94.4928H16.989V83.3697C16.9921 82.4182 17.291 81.4913 17.8443 80.7173C17.9001 80.6187 17.963 80.5243 18.0325 80.435C18.4575 79.9024 18.9923 79.4677 19.6005 79.1605C20.2087 78.8534 20.8759 78.6811 21.5567 78.6553H21.8903C23.084 78.6972 24.2177 79.1893 25.0637 80.0328C25.1903 80.1606 25.3102 80.2949 25.423 80.435C25.4953 80.5242 25.5611 80.6185 25.6197 80.7173C26.1427 81.5017 26.4142 82.427 26.3981 83.3697Z" fill="#2B2D3C"/>
<path d="M26.4066 84.1141H16.9719V84.6104H26.4066V84.1141Z" fill="#FEDEDD"/>
<path d="M26.4066 93.9537H16.9719V94.45H26.4066V93.9537Z" fill="#FEDEDD"/>
<path d="M44.9597 83.3697V94.4928H35.5506V83.3697C35.5537 82.4182 35.8527 81.4913 36.406 80.7173C36.4617 80.6187 36.5246 80.5243 36.5941 80.435C37.0191 79.9024 37.554 79.4677 38.1621 79.1605C38.7703 78.8534 39.4375 78.6811 40.1183 78.6553H40.4519C41.6456 78.6972 42.7793 79.1893 43.6253 80.0328C43.7519 80.1606 43.8718 80.2949 43.9846 80.435C44.057 80.5242 44.1227 80.6185 44.1813 80.7173C44.7043 81.5017 44.9758 82.427 44.9597 83.3697Z" fill="#2B2D3C"/>
<path d="M44.9683 84.1141H35.5335V84.6104H44.9683V84.1141Z" fill="#FEDEDD"/>
<path d="M44.9683 93.9537H35.5335V94.45H44.9683V93.9537Z" fill="#FEDEDD"/>
<path d="M63.5213 83.3697V94.4928H54.1122V83.3697C54.1154 82.4182 54.4143 81.4913 54.9676 80.7173C55.0275 80.6146 55.0959 80.5205 55.1558 80.435C55.5808 79.9024 56.1156 79.4677 56.7238 79.1605C57.3319 78.8534 57.9991 78.6811 58.6799 78.6553H59.0135C60.2073 78.6972 61.341 79.1893 62.187 80.0328C62.3135 80.1606 62.4334 80.2949 62.5462 80.435C62.6186 80.5242 62.6844 80.6185 62.743 80.7173C63.2659 81.5017 63.5375 82.427 63.5213 83.3697Z" fill="#2B2D3C"/>
<path d="M63.5299 84.1141H54.0951V84.6104H63.5299V84.1141Z" fill="#FEDEDD"/>
<path d="M63.5299 93.9537H54.0951V94.45H63.5299V93.9537Z" fill="#FEDEDD"/>
<path d="M82.0829 83.3697V94.4928H72.6738V83.3697C72.677 82.4182 72.9759 81.4913 73.5292 80.7173C73.5891 80.6146 73.6575 80.5205 73.7174 80.435C74.1437 79.9017 74.68 79.4667 75.2896 79.1596C75.8993 78.8524 76.5679 78.6804 77.2501 78.6553H77.5495C78.7432 78.6972 79.8769 79.1893 80.7229 80.0328C80.8494 80.1606 80.9694 80.2949 81.0822 80.435C81.1545 80.5242 81.2203 80.6185 81.2789 80.7173C81.8109 81.4988 82.0915 82.4243 82.0829 83.3697Z" fill="#2B2D3C"/>
<path d="M82.0915 84.1141H72.6567V84.6104H82.0915V84.1141Z" fill="#FEDEDD"/>
<path d="M82.0915 93.9537H72.6567V94.45H82.0915V93.9537Z" fill="#FEDEDD"/>
<path d="M100.645 83.3697V94.4928H91.2355V83.3697C91.242 82.4188 91.5406 81.4928 92.0908 80.7173C92.1494 80.6185 92.2152 80.5242 92.2876 80.435C92.7118 79.9015 93.2465 79.4662 93.8548 79.159C94.4631 78.8518 95.1307 78.68 95.8117 78.6553H96.1453C97.3361 78.6993 98.4663 79.1913 99.3102 80.0328C99.4368 80.1606 99.5566 80.2949 99.6694 80.435C99.7418 80.5242 99.8076 80.6185 99.8662 80.7173C100.389 81.5017 100.661 82.427 100.645 83.3697Z" fill="#2B2D3C"/>
<path d="M100.653 84.1141H91.2184V84.6104H100.653V84.1141Z" fill="#FEDEDD"/>
<path d="M100.653 93.9537H91.2184V94.45H100.653V93.9537Z" fill="#FEDEDD"/>
<path d="M119.206 83.3697V94.4928H109.797V83.3697C109.804 82.4188 110.102 81.4928 110.652 80.7173C110.711 80.6185 110.777 80.5242 110.849 80.435C111.273 79.9015 111.808 79.4662 112.416 79.159C113.025 78.8518 113.692 78.68 114.373 78.6553H114.707C115.9 78.7005 117.032 79.1922 117.88 80.0328L118.24 80.435C118.299 80.5205 118.368 80.6146 118.428 80.7173C118.951 81.5017 119.222 82.427 119.206 83.3697Z" fill="#2B2D3C"/>
<path d="M119.215 84.1141H109.78V84.6104H119.215V84.1141Z" fill="#FEDEDD"/>
<path d="M119.215 93.9537H109.78V94.45H119.215V93.9537Z" fill="#FEDEDD"/>
<path d="M135.339 37.4741H0.839514C0.192313 37.4741 -0.332344 37.9989 -0.332344 38.6463V39.4763C-0.332344 40.1237 0.192313 40.6485 0.839514 40.6485H135.339C135.986 40.6485 136.51 40.1237 136.51 39.4763V38.6463C136.51 37.9989 135.986 37.4741 135.339 37.4741Z" fill="#FEDEDD"/>
<path d="M26.3981 51.3438V62.4668H16.989V51.3438C16.992 50.3896 17.2909 49.4599 17.8443 48.6828C17.9021 48.5882 17.9649 48.4968 18.0325 48.409C18.4564 47.8751 18.9909 47.4395 19.5993 47.1322C20.2077 46.825 20.8755 46.6534 21.5567 46.6293H21.8903C23.0848 46.6678 24.2197 47.1604 25.0637 48.0068C25.1923 48.1327 25.3124 48.267 25.423 48.409C25.4933 48.4967 25.559 48.5881 25.6197 48.6828C26.1429 49.4703 26.4143 50.3983 26.3981 51.3438Z" fill="#2B2D3C"/>
<path d="M26.4066 52.0881H16.9719V52.5844H26.4066V52.0881Z" fill="#FEDEDD"/>
<path d="M26.4066 61.9364H16.9719V62.4327H26.4066V61.9364Z" fill="#FEDEDD"/>
<path d="M44.9597 51.3438V62.4668H35.5506V51.3438C35.5537 50.3896 35.8525 49.4599 36.406 48.6828C36.4637 48.5882 36.5266 48.4968 36.5941 48.409C37.018 47.8751 37.5525 47.4395 38.161 47.1322C38.7694 46.825 39.4372 46.6534 40.1183 46.6293H40.4519C41.6464 46.6678 42.7813 47.1604 43.6253 48.0068C43.754 48.1327 43.874 48.267 43.9846 48.409C44.055 48.4967 44.1206 48.5881 44.1813 48.6828C44.7045 49.4703 44.9759 50.3983 44.9597 51.3438Z" fill="#2B2D3C"/>
<path d="M44.9683 52.0881H35.5335V52.5844H44.9683V52.0881Z" fill="#FEDEDD"/>
<path d="M44.9683 61.9364H35.5335V62.4327H44.9683V61.9364Z" fill="#FEDEDD"/>
<path d="M63.5213 51.3438V62.4668H54.1122V51.3438C54.1153 50.3896 54.4142 49.4599 54.9676 48.6828L55.1558 48.409C55.5796 47.8751 56.1142 47.4395 56.7226 47.1322C57.331 46.825 57.9988 46.6534 58.6799 46.6293H59.0135C60.208 46.6678 61.3429 47.1604 62.187 48.0068C62.3156 48.1327 62.4356 48.267 62.5462 48.409C62.6166 48.4967 62.6823 48.5881 62.743 48.6828C63.2661 49.4703 63.5376 50.3983 63.5213 51.3438Z" fill="#2B2D3C"/>
<path d="M63.5299 52.0881H54.0951V52.5844H63.5299V52.0881Z" fill="#FEDEDD"/>
<path d="M63.5299 61.9364H54.0951V62.4327H63.5299V61.9364Z" fill="#FEDEDD"/>
<path d="M82.0829 51.3438V62.4668H72.6738V51.3438C72.6769 50.3896 72.9758 49.4599 73.5292 48.6828L73.7174 48.409C74.1422 47.874 74.6781 47.4378 75.288 47.1305C75.898 46.8232 76.5675 46.6522 77.2501 46.6293H77.5495C78.744 46.6678 79.8789 47.1604 80.7229 48.0068C80.8515 48.1327 80.9716 48.267 81.0822 48.409C81.1525 48.4967 81.2182 48.5881 81.2789 48.6828C81.8111 49.4674 82.0916 50.3956 82.0829 51.3438Z" fill="#2B2D3C"/>
<path d="M82.0915 52.0881H72.6567V52.5844H82.0915V52.0881Z" fill="#FEDEDD"/>
<path d="M82.0915 61.9364H72.6567V62.4327H82.0915V61.9364Z" fill="#FEDEDD"/>
<path d="M100.645 51.3438V62.4668H91.2355V51.3438C91.2419 50.3901 91.5404 49.4614 92.0908 48.6828C92.1515 48.5881 92.2172 48.4967 92.2876 48.409C92.7106 47.8742 93.245 47.438 93.8536 47.1307C94.4622 46.8234 95.1304 46.6523 95.8117 46.6293H96.1453C97.337 46.6691 98.4688 47.1617 99.3102 48.0068C99.4388 48.1327 99.5588 48.267 99.6694 48.409C99.7398 48.4967 99.8055 48.5881 99.8662 48.6828C100.389 49.4703 100.661 50.3983 100.645 51.3438Z" fill="#2B2D3C"/>
<path d="M100.653 52.0881H91.2184V52.5844H100.653V52.0881Z" fill="#FEDEDD"/>
<path d="M100.653 61.9364H91.2184V62.4327H100.653V61.9364Z" fill="#FEDEDD"/>
<path d="M119.206 51.3438V62.4668H109.797V51.3438C109.803 50.3901 110.102 49.4614 110.652 48.6828C110.713 48.5881 110.779 48.4967 110.849 48.409C111.272 47.8742 111.807 47.438 112.415 47.1307C113.024 46.8234 113.692 46.6523 114.373 46.6293H114.707C115.901 46.6712 117.034 47.1633 117.88 48.0068C118 48.1352 118.12 48.2635 118.24 48.409L118.428 48.6828C118.951 49.4703 119.222 50.3983 119.206 51.3438Z" fill="#2B2D3C"/>
<path d="M119.215 52.0881H109.78V52.5844H119.215V52.0881Z" fill="#FEDEDD"/>
<path d="M119.215 61.9364H109.78V62.4327H119.215V61.9364Z" fill="#FEDEDD"/>
<path d="M136.51 5.45679H-0.332344V8.63114H136.51V5.45679Z" fill="#2B2D3C"/>
<path d="M26.3981 19.3179V30.4409H16.989V19.3179C16.9932 18.3665 17.2921 17.4399 17.8443 16.6654C17.9001 16.5668 17.963 16.4725 18.0325 16.3831C18.4568 15.8503 18.9916 15.4161 19.6001 15.1103C20.2085 14.8045 20.8761 14.6345 21.5567 14.6119H21.8903C23.0857 14.6461 24.2222 15.1394 25.0637 15.9895C25.1922 16.1124 25.3123 16.2439 25.423 16.3831C25.4953 16.4723 25.5611 16.5666 25.6197 16.6654C26.1417 17.4503 26.4131 18.3753 26.3981 19.3179Z" fill="#2B2D3C"/>
<path d="M26.4066 20.0708H16.9719V20.5671H26.4066V20.0708Z" fill="#FEDEDD"/>
<path d="M26.4066 29.9105H16.9719V30.4068H26.4066V29.9105Z" fill="#FEDEDD"/>
<path d="M44.9597 19.3179V30.4409H35.5506V19.3179C35.5549 18.3665 35.8537 17.4399 36.406 16.6654C36.4617 16.5668 36.5246 16.4725 36.5941 16.3831C37.0184 15.8503 37.5533 15.4161 38.1617 15.1103C38.7702 14.8045 39.4377 14.6345 40.1183 14.6119H40.4519C41.6474 14.6461 42.7838 15.1394 43.6253 15.9895C43.7539 16.1124 43.8739 16.2439 43.9846 16.3831C44.057 16.4723 44.1227 16.5666 44.1813 16.6654C44.7033 17.4503 44.9747 18.3753 44.9597 19.3179Z" fill="#2B2D3C"/>
<path d="M44.9683 20.0708H35.5335V20.5671H44.9683V20.0708Z" fill="#FEDEDD"/>
<path d="M44.9683 29.9105H35.5335V30.4068H44.9683V29.9105Z" fill="#FEDEDD"/>
<path d="M63.5213 19.3179V30.4409H54.1122V19.3179C54.1165 18.3665 54.4153 17.4399 54.9676 16.6654C55.0275 16.5628 55.0959 16.4686 55.1558 16.3831C55.5801 15.8503 56.1149 15.4161 56.7234 15.1103C57.3318 14.8045 57.9994 14.6345 58.6799 14.6119H59.0135C60.209 14.6461 61.3454 15.1394 62.187 15.9895C62.3155 16.1124 62.4355 16.2439 62.5462 16.3831C62.6186 16.4723 62.6844 16.5666 62.743 16.6654C63.265 17.4503 63.5364 18.3753 63.5213 19.3179Z" fill="#2B2D3C"/>
<path d="M63.5299 20.0708H54.0951V20.5671H63.5299V20.0708Z" fill="#FEDEDD"/>
<path d="M63.5299 29.9105H54.0951V30.4068H63.5299V29.9105Z" fill="#FEDEDD"/>
<path d="M82.0829 19.3179V30.4409H72.6738V19.3179C72.6781 18.3665 72.9769 17.4399 73.5292 16.6654C73.5891 16.5628 73.6575 16.4686 73.7174 16.3831C74.1426 15.8493 74.6788 15.4143 75.2888 15.1085C75.8988 14.8027 76.5681 14.6332 77.2501 14.6119H77.5495C78.7449 14.6461 79.8814 15.1394 80.7229 15.9895C80.8514 16.1124 80.9715 16.2439 81.0822 16.3831C81.1545 16.4723 81.2203 16.5666 81.2789 16.6654C81.8099 17.4474 82.0904 18.3726 82.0829 19.3179Z" fill="#2B2D3C"/>
<path d="M82.0915 20.0708H72.6567V20.5671H82.0915V20.0708Z" fill="#FEDEDD"/>
<path d="M82.0915 29.9105H72.6567V30.4068H82.0915V29.9105Z" fill="#FEDEDD"/>
<path d="M100.645 19.3179V30.4409H91.2355V19.3179C91.2431 18.3671 91.5416 17.4414 92.0908 16.6654C92.1494 16.5666 92.2152 16.4723 92.2876 16.3831C92.7111 15.8495 93.2457 15.4146 93.8544 15.1087C94.463 14.8028 95.1309 14.6333 95.8117 14.6119H96.1453C97.3378 14.6483 98.4708 15.1414 99.3102 15.9895C99.4387 16.1124 99.5588 16.2439 99.6694 16.3831C99.7418 16.4723 99.8076 16.5666 99.8662 16.6654C100.388 17.4503 100.66 18.3753 100.645 19.3179Z" fill="#2B2D3C"/>
<path d="M100.653 20.0708H91.2184V20.5671H100.653V20.0708Z" fill="#FEDEDD"/>
<path d="M100.653 29.9105H91.2184V30.4068H100.653V29.9105Z" fill="#FEDEDD"/>
<path d="M119.206 19.3179V30.4409H109.797V19.3179C109.805 18.3671 110.103 17.4414 110.652 16.6654C110.711 16.5666 110.777 16.4723 110.849 16.3831C111.273 15.8495 111.807 15.4146 112.416 15.1087C113.025 14.8028 113.693 14.6333 114.373 14.6119H114.707C115.902 14.6496 117.037 15.1424 117.88 15.9895C118 16.1093 118.12 16.2462 118.24 16.3831C118.359 16.52 118.368 16.5628 118.428 16.6654C118.95 17.4503 119.221 18.3753 119.206 19.3179Z" fill="#2B2D3C"/>
<path d="M119.215 20.0708H109.78V20.5671H119.215V20.0708Z" fill="#FEDEDD"/>
<path d="M119.215 29.9105H109.78V30.4068H119.215V29.9105Z" fill="#FEDEDD"/>
<g style="mix-blend-mode:multiply" opacity="0.3">
<path d="M227.539 173.834H141.403V176.359H227.539V173.834Z" fill="#C8CEDF"/>
</g>
<path d="M230.85 172.577H141.403V175.101H230.85V172.577Z" fill="#FA99A0"/>
<path d="M234.288 168.213H140.419V173.253H234.288V168.213Z" fill="#FEDEDD"/>
<path d="M174.104 262.691H141.557V224.128C141.557 219.816 143.269 215.681 146.317 212.633C149.365 209.584 153.499 207.871 157.809 207.871C162.12 207.871 166.253 209.584 169.301 212.633C172.349 215.681 174.061 219.816 174.061 224.128L174.104 262.691Z" fill="#FEDEDD"/>
<path d="M143.73 259.628V224.958C143.732 221.219 145.218 217.634 147.861 214.99C150.504 212.346 154.088 210.859 157.826 210.857C161.567 210.857 165.155 212.344 167.8 214.99C170.445 217.636 171.931 221.224 171.931 224.966V259.628H143.73Z" fill="#2B2D3C"/>
<path d="M151.129 211.422H149.589V261.912H151.129V211.422Z" fill="#FEDEDD"/>
<path d="M166.962 212.106H165.422V261.912H166.962V212.106Z" fill="#FEDEDD"/>
<path d="M171.931 219.935H142.986V222.314H171.931V219.935Z" fill="#FEDEDD"/>
<path d="M216.163 262.691H183.616V224.128C183.616 219.816 185.328 215.681 188.376 212.633C191.424 209.584 195.558 207.871 199.868 207.871C204.178 207.871 208.312 209.584 211.36 212.633C214.408 215.681 216.12 219.816 216.12 224.128L216.163 262.691Z" fill="#FEDEDD"/>
<path d="M185.789 259.628V224.958C185.791 221.222 187.274 217.639 189.914 214.996C192.553 212.352 196.133 210.864 199.868 210.857C203.608 210.859 207.195 212.347 209.839 214.992C212.484 217.638 213.971 221.225 213.973 224.966V259.628H185.789Z" fill="#2B2D3C"/>
<path d="M193.196 211.422H191.656V261.912H193.196V211.422Z" fill="#FEDEDD"/>
<path d="M209.029 212.106H207.489V261.912H209.029V212.106Z" fill="#FEDEDD"/>
<path d="M214.341 219.935H185.789V222.314H214.341V219.935Z" fill="#FEDEDD"/>
<g style="mix-blend-mode:multiply" opacity="0.5">
<path d="M136.51 181.484H-0.323799V184.008H136.51V181.484Z" fill="#DBF4FC"/>
</g>
<path d="M144.825 163.67H-8.64658V181.484H144.825V163.67Z" fill="#FEDEDD"/>
<g style="mix-blend-mode:multiply">
<path d="M47.6456 172.192V171.644L44.4722 171.559L43.1891 168.761L41.7521 171.482L38.553 171.387V171.935L40.7598 174.22L40.2637 176.684L40.1354 176.786V177.334L42.9838 175.931L45.7552 177.497V176.94L45.6697 176.872L45.3104 174.348L47.6456 172.192Z" fill="#FEDEDD"/>
</g>
<path d="M44.5149 171.105L47.6456 171.644L45.3104 173.8L45.7552 176.94L42.9838 175.383L40.1354 176.786L40.7598 173.672L38.553 171.387L41.7093 171.02L43.1891 168.213L44.5149 171.105Z" fill="#56618F"/>
<g style="mix-blend-mode:multiply">
<path d="M60.1426 172.192V171.644L56.9692 171.559L55.6861 168.761L54.2491 171.482L51.05 171.387V171.935L53.2568 174.22L52.7607 176.684L52.6324 176.786V177.334L55.4808 175.931L58.2522 177.497V176.94L58.1667 176.872L57.8074 174.348L60.1426 172.192Z" fill="#FEDEDD"/>
</g>
<path d="M57.0119 171.105L60.1426 171.644L57.8074 173.8L58.2522 176.94L55.4808 175.383L52.6324 176.786L53.2568 173.672L51.05 171.387L54.2063 171.02L55.6861 168.213L57.0119 171.105Z" fill="#56618F"/>
<g style="mix-blend-mode:multiply">
<path d="M72.6396 172.192V171.644L69.4662 171.559L68.1831 168.761L66.7461 171.482L63.547 171.387V171.935L65.7539 174.22L65.2577 176.684L65.1294 176.786V177.334L67.9778 175.931L70.7492 177.497V176.94L70.6637 176.872L70.3044 174.348L72.6396 172.192Z" fill="#FEDEDD"/>
</g>
<path d="M69.509 171.105L72.6396 171.644L70.3044 173.8L70.7492 176.94L67.9778 175.383L65.1294 176.786L65.7539 173.672L63.547 171.387L66.7033 171.02L68.1831 168.213L69.509 171.105Z" fill="#56618F"/>
<g style="mix-blend-mode:multiply">
<path d="M85.1366 172.192V171.644L81.9632 171.559L80.6801 168.761L79.2431 171.482L76.044 171.387V171.935L78.2509 174.22L77.7548 176.684L77.6265 176.786V177.334L80.4748 175.931L83.2463 177.497V176.94L83.1607 176.872L82.8015 174.348L85.1366 172.192Z" fill="#FEDEDD"/>
</g>
<path d="M82.006 171.105L85.1366 171.644L82.8015 173.8L83.2463 176.94L80.4748 175.383L77.6265 176.786L78.2509 173.672L76.044 171.387L79.2003 171.02L80.6801 168.213L82.006 171.105Z" fill="#56618F"/>
<g style="mix-blend-mode:multiply">
<path d="M97.6336 172.192V171.644L94.4602 171.559L93.1771 168.761L91.7401 171.482L88.541 171.387V171.935L90.7479 174.22L90.2518 176.684L90.1235 176.786V177.334L92.9718 175.931L95.7433 177.497V176.94L95.6577 176.872L95.2985 174.348L97.6336 172.192Z" fill="#FEDEDD"/>
</g>
<path d="M94.503 171.105L97.6336 171.644L95.2985 173.8L95.7433 176.94L92.9718 175.383L90.1235 176.786L90.7479 173.672L88.541 171.387L91.6973 171.02L93.1771 168.213L94.503 171.105Z" fill="#56618F"/>
<g style="mix-blend-mode:multiply" opacity="0.3">
<path d="M168.801 41.4785H163.592C163.034 41.4785 162.582 41.9305 162.582 42.4881V43.1983C162.582 43.7559 163.034 44.2079 163.592 44.2079H168.801C169.358 44.2079 169.81 43.7559 169.81 43.1983V42.4881C169.81 41.9305 169.358 41.4785 168.801 41.4785Z" fill="#C8CEDF"/>
</g>
<g style="mix-blend-mode:multiply" opacity="0.3">
<path d="M178.218 41.4785H173.009C172.452 41.4785 172 41.9305 172 42.4881V43.1983C172 43.7559 172.452 44.2079 173.009 44.2079H178.218C178.776 44.2079 179.228 43.7559 179.228 43.1983V42.4881C179.228 41.9305 178.776 41.4785 178.218 41.4785Z" fill="#C8CEDF"/>
</g>
<g style="mix-blend-mode:multiply" opacity="0.3">
<path d="M186.387 54.7491H181.178C180.621 54.7491 180.169 55.2012 180.169 55.7588V56.4689C180.169 57.0266 180.621 57.4786 181.178 57.4786H186.387C186.945 57.4786 187.397 57.0266 187.397 56.4689V55.7588C187.397 55.2012 186.945 54.7491 186.387 54.7491Z" fill="#C8CEDF"/>
</g>
<g style="mix-blend-mode:multiply" opacity="0.3">
<path d="M162.839 67.2498H157.63C157.072 67.2498 156.62 67.7018 156.62 68.2594V68.9696C156.62 69.5272 157.072 69.9792 157.63 69.9792H162.839C163.396 69.9792 163.848 69.5272 163.848 68.9696V68.2594C163.848 67.7018 163.396 67.2498 162.839 67.2498Z" fill="#C8CEDF"/>
</g>
<g style="mix-blend-mode:multiply" opacity="0.3">
<path d="M154.627 71.3054H149.418C148.861 71.3054 148.409 71.7574 148.409 72.3151V73.0252C148.409 73.5828 148.861 74.0349 149.418 74.0349H154.627C155.185 74.0349 155.637 73.5828 155.637 73.0252V72.3151C155.637 71.7574 155.185 71.3054 154.627 71.3054Z" fill="#C8CEDF"/>
</g>
<g style="mix-blend-mode:multiply" opacity="0.3">
<path d="M186.823 77.2863H181.614C181.057 77.2863 180.605 77.7383 180.605 78.2959V79.006C180.605 79.5637 181.057 80.0157 181.614 80.0157H186.823C187.381 80.0157 187.833 79.5637 187.833 79.006V78.2959C187.833 77.7383 187.381 77.2863 186.823 77.2863Z" fill="#C8CEDF"/>
</g>
<g style="mix-blend-mode:multiply" opacity="0.3">
<path d="M202.494 101.74H197.285C196.727 101.74 196.275 102.192 196.275 102.749V103.46C196.275 104.017 196.727 104.469 197.285 104.469H202.494C203.051 104.469 203.503 104.017 203.503 103.46V102.749C203.503 102.192 203.051 101.74 202.494 101.74Z" fill="#C8CEDF"/>
</g>
<g style="mix-blend-mode:multiply" opacity="0.3">
<path d="M168.27 100.379H163.061C162.504 100.379 162.052 100.831 162.052 101.389V102.099C162.052 102.657 162.504 103.109 163.061 103.109H168.27C168.828 103.109 169.28 102.657 169.28 102.099V101.389C169.28 100.831 168.828 100.379 168.27 100.379Z" fill="#C8CEDF"/>
</g>
<g style="mix-blend-mode:multiply" opacity="0.3">
<path d="M162.984 104.692H157.775C157.218 104.692 156.766 105.144 156.766 105.701V106.412C156.766 106.969 157.218 107.421 157.775 107.421H162.984C163.542 107.421 163.994 106.969 163.994 106.412V105.701C163.994 105.144 163.542 104.692 162.984 104.692Z" fill="#C8CEDF"/>
</g>
<g style="mix-blend-mode:multiply" opacity="0.3">
<path d="M168.27 131.883H163.061C162.504 131.883 162.052 132.335 162.052 132.893V133.603C162.052 134.161 162.504 134.613 163.061 134.613H168.27C168.828 134.613 169.28 134.161 169.28 133.603V132.893C169.28 132.335 168.828 131.883 168.27 131.883Z" fill="#C8CEDF"/>
</g>
<g style="mix-blend-mode:multiply" opacity="0.3">
<path d="M184.488 135.734H179.279C178.722 135.734 178.27 136.186 178.27 136.743V137.454C178.27 138.011 178.722 138.463 179.279 138.463H184.488C185.046 138.463 185.498 138.011 185.498 137.454V136.743C185.498 136.186 185.046 135.734 184.488 135.734Z" fill="#C8CEDF"/>
</g>
<g style="mix-blend-mode:multiply" opacity="0.3">
<path d="M200.929 161.479H195.719C195.162 161.479 194.71 161.931 194.71 162.489V163.199C194.71 163.757 195.162 164.209 195.719 164.209H200.929C201.486 164.209 201.938 163.757 201.938 163.199V162.489C201.938 161.931 201.486 161.479 200.929 161.479Z" fill="#C8CEDF"/>
</g>
<g style="mix-blend-mode:multiply" opacity="0.3">
<path d="M159.879 160.94H154.67C154.113 160.94 153.661 161.392 153.661 161.95V162.66C153.661 163.218 154.113 163.67 154.67 163.67H159.879C160.437 163.67 160.889 163.218 160.889 162.66V161.95C160.889 161.392 160.437 160.94 159.879 160.94Z" fill="#C8CEDF"/>
</g>
<g style="mix-blend-mode:multiply" opacity="0.3">
<path d="M7.41735 221.407H0.0867834C-0.702142 221.407 -1.34169 222.047 -1.34169 222.836V223.829C-1.34169 224.618 -0.702142 225.257 0.0867834 225.257H7.41735C8.20627 225.257 8.84582 224.618 8.84582 223.829V222.836C8.84582 222.047 8.20627 221.407 7.41735 221.407Z" fill="#C8CEDF"/>
</g>
<g style="mix-blend-mode:multiply" opacity="0.3">
<path d="M161.522 192.633H154.191C153.402 192.633 152.762 193.272 152.762 194.061V195.054C152.762 195.843 153.402 196.483 154.191 196.483H161.522C162.31 196.483 162.95 195.843 162.95 195.054V194.061C162.95 193.272 162.31 192.633 161.522 192.633Z" fill="#C8CEDF"/>
</g>
<g style="mix-blend-mode:multiply" opacity="0.3">
<path d="M169.092 186.395H161.761C160.972 186.395 160.333 187.035 160.333 187.824V188.816C160.333 189.606 160.972 190.245 161.761 190.245H169.092C169.881 190.245 170.52 189.606 170.52 188.816V187.824C170.52 187.035 169.881 186.395 169.092 186.395Z" fill="#C8CEDF"/>
</g>
<g style="mix-blend-mode:multiply" opacity="0.3">
<path d="M212.69 199.657H205.359C204.571 199.657 203.931 200.297 203.931 201.086V202.079C203.931 202.868 204.571 203.508 205.359 203.508H212.69C213.479 203.508 214.118 202.868 214.118 202.079V201.086C214.118 200.297 213.479 199.657 212.69 199.657Z" fill="#C8CEDF"/>
</g>
<g style="mix-blend-mode:multiply" opacity="0.3">
<path d="M185.925 266.43H178.595C177.806 266.43 177.166 267.07 177.166 267.859V268.851C177.166 269.64 177.806 270.28 178.595 270.28H185.925C186.714 270.28 187.354 269.64 187.354 268.851V267.859C187.354 267.07 186.714 266.43 185.925 266.43Z" fill="#C8CEDF"/>
</g>
<g style="mix-blend-mode:multiply" opacity="0.3">
<path d="M196.857 272.197H189.526C188.738 272.197 188.098 272.837 188.098 273.626V274.618C188.098 275.407 188.738 276.047 189.526 276.047H196.857C197.646 276.047 198.286 275.407 198.286 274.618V273.626C198.286 272.837 197.646 272.197 196.857 272.197Z" fill="#C8CEDF"/>
</g>
<path d="M20.898 188.312H4.86831V278.143H20.898V188.312Z" fill="#DBF4FC"/>
<path d="M131.318 188.312H115.289V278.143H131.318V188.312Z" fill="#DBF4FC"/>
<path d="M259 278.143H-116.492V280H259V278.143Z" fill="#2B2D3C"/>
<path d="M248.325 256.539H243.133V278.143H248.325V256.539Z" fill="#56618F"/>
<path d="M245.733 259.611V187.987" stroke="#56618F" stroke-width="1.01" stroke-miterlimit="10"/>
<path d="M237.436 199.657V194.215H254.022V199.657" stroke="#56618F" stroke-width="1.01" stroke-miterlimit="10"/>
<path d="M257.717 203.199C257.719 203.933 257.503 204.65 257.096 205.261C256.69 205.872 256.112 206.348 255.434 206.629C254.757 206.911 254.012 206.985 253.293 206.842C252.573 206.699 251.913 206.346 251.394 205.828C250.876 205.309 250.523 204.648 250.38 203.929C250.238 203.209 250.312 202.464 250.593 201.786C250.874 201.109 251.35 200.53 251.961 200.124C252.571 199.718 253.288 199.501 254.022 199.503C255.002 199.503 255.942 199.893 256.635 200.586C257.328 201.279 257.717 202.219 257.717 203.199Z" fill="#FEDEDD"/>
<g style="mix-blend-mode:screen" opacity="0.5">
<path d="M255.202 202.164C255.204 202.557 255.089 202.942 254.871 203.27C254.654 203.598 254.344 203.854 253.981 204.005C253.618 204.156 253.218 204.196 252.833 204.12C252.447 204.044 252.092 203.854 251.814 203.576C251.536 203.298 251.347 202.944 251.271 202.558C251.195 202.172 251.235 201.772 251.386 201.409C251.537 201.046 251.793 200.736 252.121 200.519C252.448 200.301 252.833 200.186 253.226 200.188C253.75 200.188 254.253 200.396 254.623 200.767C254.994 201.137 255.202 201.64 255.202 202.164Z" fill="#FEDEDD"/>
</g>
<g style="mix-blend-mode:multiply" opacity="0.5">
<path d="M257.725 203.199C257.725 203.984 257.476 204.748 257.014 205.382C256.552 206.015 255.9 206.486 255.154 206.726C254.407 206.965 253.604 206.962 252.859 206.716C252.115 206.469 251.467 205.993 251.011 205.356C251.564 205.753 252.215 205.989 252.894 206.04C253.573 206.09 254.252 205.951 254.857 205.64C255.462 205.328 255.97 204.856 256.323 204.274C256.677 203.693 256.863 203.025 256.862 202.344C256.862 201.569 256.617 200.814 256.16 200.188C256.644 200.527 257.039 200.977 257.312 201.502C257.584 202.026 257.726 202.608 257.725 203.199Z" fill="#FEDEDD"/>
</g>
<path d="M241.14 203.199C241.141 203.933 240.926 204.65 240.52 205.26C240.114 205.87 239.536 206.347 238.859 206.628C238.183 206.91 237.438 206.985 236.719 206.843C236 206.701 235.339 206.349 234.82 205.831C234.301 205.313 233.948 204.653 233.804 203.934C233.66 203.215 233.733 202.47 234.013 201.792C234.293 201.115 234.768 200.536 235.377 200.128C235.987 199.721 236.703 199.503 237.436 199.503C238.417 199.503 239.358 199.892 240.052 200.585C240.746 201.278 241.138 202.218 241.14 203.199Z" fill="#FEDEDD"/>
<g style="mix-blend-mode:screen" opacity="0.5">
<path d="M238.616 202.164C238.618 202.557 238.503 202.942 238.286 203.27C238.068 203.598 237.758 203.854 237.395 204.005C237.032 204.156 236.633 204.196 236.247 204.12C235.861 204.044 235.507 203.854 235.229 203.576C234.951 203.298 234.761 202.944 234.685 202.558C234.609 202.172 234.649 201.772 234.8 201.409C234.951 201.046 235.207 200.736 235.535 200.519C235.862 200.301 236.247 200.186 236.64 200.188C237.165 200.188 237.667 200.396 238.038 200.767C238.408 201.137 238.616 201.64 238.616 202.164Z" fill="#FEDEDD"/>
</g>
<g style="mix-blend-mode:multiply" opacity="0.5">
<path d="M241.14 203.199C241.139 203.984 240.89 204.748 240.428 205.382C239.966 206.015 239.315 206.486 238.568 206.726C237.821 206.965 237.018 206.962 236.273 206.716C235.529 206.469 234.882 205.993 234.425 205.356C234.978 205.753 235.63 205.989 236.308 206.04C236.987 206.09 237.666 205.951 238.271 205.64C238.877 205.328 239.384 204.856 239.738 204.274C240.091 203.693 240.278 203.025 240.276 202.344C240.277 201.569 240.031 200.814 239.574 200.188C240.058 200.527 240.454 200.977 240.726 201.502C240.999 202.026 241.141 202.608 241.14 203.199Z" fill="#FEDEDD"/>
</g>
<path d="M245.767 188.491C246.622 188.491 247.316 187.798 247.316 186.943C247.316 186.087 246.622 185.394 245.767 185.394C244.912 185.394 244.219 186.087 244.219 186.943C244.219 187.798 244.912 188.491 245.767 188.491Z" fill="#56618F"/>
</svg>
