<svg width="24" height="23" viewBox="0 0 24 23" fill="none" xmlns="http://www.w3.org/2000/svg">
<path d="M21.2825 0.412706L1.76479 7.99019C1.42428 8.12098 1.15346 8.38736 1.01666 8.72547C0.879852 9.06357 0.889695 9.44326 1.04338 9.77394C1.19727 10.1046 1.48133 10.3567 1.82808 10.4698L10.1801 13.2202L12.9305 21.5722L12.9307 21.5724C13.0438 21.9192 13.2959 22.2032 13.6266 22.3571C13.9572 22.5108 14.3369 22.5206 14.675 22.3838C15.0131 22.247 15.2795 21.9762 15.4103 21.6357L22.9878 2.11805C23.1126 1.79863 23.1079 1.44305 22.9745 1.12723C22.8411 0.811223 22.5896 0.559712 22.2736 0.426306C21.9578 0.29291 21.6022 0.288292 21.2828 0.413047L21.2825 0.412706ZM6.14497 9.11596L16.4003 5.13565L10.8651 10.6709L6.14497 9.11596ZM14.2835 17.2545L12.7284 12.5342L18.2637 6.99891L14.2835 17.2545Z" fill="#45D5FF"/>
</svg>
