<svg width="19" height="19" viewBox="0 0 19 19" fill="none" xmlns="http://www.w3.org/2000/svg">
<g clip-path="url(#clip0_232_835)">
<path d="M8.18814 5.63461L5.65089 2.70586C5.35839 2.36836 4.82214 2.36986 4.48239 2.71036L2.39589 4.80061C1.77489 5.42236 1.59714 6.34561 1.95639 7.08586C4.1026 11.5296 7.68642 15.1184 12.1271 17.2709C12.8666 17.6301 13.7891 17.4524 14.4101 16.8306L16.5161 14.7209C16.8574 14.3796 16.8581 13.8404 16.5176 13.5479L13.5776 11.0241C13.2701 10.7601 12.7924 10.7946 12.4841 11.1036L11.4611 12.1281C11.4088 12.183 11.3398 12.2192 11.2649 12.2311C11.19 12.243 11.1132 12.23 11.0464 12.1941C9.37422 11.2312 7.98713 9.84229 7.02639 8.16886C6.99041 8.10193 6.97738 8.02503 6.9893 7.94998C7.00122 7.87493 7.03743 7.80586 7.09239 7.75336L8.11239 6.73261C8.42139 6.42211 8.45514 5.94211 8.18814 5.63386V5.63461Z" stroke="white" stroke-width="2" stroke-linecap="round" stroke-linejoin="round"/>
</g>
<defs>
<clipPath id="clip0_232_835">
<rect width="18" height="18" fill="white" transform="translate(0.272461 0.95459)"/>
</clipPath>
</defs>
</svg>
