<svg width="270" height="226" viewBox="0 0 270 226" fill="none" xmlns="http://www.w3.org/2000/svg">
<g clip-path="url(#clip0_116_194)">
<path d="M214.438 7.93102V93.4483C214.476 93.7459 214.476 94.0472 214.438 94.3448C214.245 95.3552 213.704 96.2664 212.909 96.9212C212.114 97.576 211.115 97.9332 210.085 97.931H60.1229C59.0921 97.9332 58.093 97.576 57.2981 96.9212C56.5032 96.2664 55.9624 95.3552 55.7691 94.3448C55.7308 94.0472 55.7308 93.7459 55.7691 93.4483V7.93102C55.7691 6.74212 56.2425 5.60198 57.0849 4.7613C57.9273 3.92062 59.0697 3.4483 60.261 3.4483C61.4523 3.4483 62.5949 3.92062 63.4373 4.7613C64.2797 5.60198 64.7531 6.74212 64.7531 7.93102V88.9655H205.592V7.93102C205.592 6.74212 206.066 5.60198 206.908 4.7613C207.751 3.92062 208.893 3.4483 210.085 3.4483C211.276 3.4483 212.418 3.92062 213.261 4.7613C214.103 5.60198 214.576 6.74212 214.576 7.93102H214.438Z" fill="#A3D3EA"/>
<path d="M64.6148 93.4483C64.6516 93.7461 64.6516 94.0471 64.6148 94.3448C64.4069 95.3608 63.8526 96.2735 63.0461 96.9274C62.2396 97.5814 61.2311 97.936 60.192 97.9311H9.05288V221.517C9.06296 222.457 8.77248 223.375 8.22364 224.138C7.80176 224.713 7.25064 225.181 6.61449 225.504C5.97834 225.828 5.27493 225.997 4.56099 226C3.37521 225.982 2.24306 225.504 1.40449 224.667C0.565925 223.831 0.0869261 222.701 0.0690918 221.517V93.4483C0.0869261 92.265 0.565925 91.135 1.40449 90.2982C2.24306 89.4613 3.37521 88.9833 4.56099 88.9655H60.192C61.3714 88.9836 62.4961 89.4639 63.3236 90.3026C64.1512 91.1413 64.6149 92.2713 64.6148 93.4483V93.4483Z" fill="#A3D3EA"/>
<path d="M270.069 93.4483V221.517C270.069 222.706 269.596 223.846 268.753 224.687C267.911 225.528 266.769 226 265.577 226V226C264.398 225.982 263.273 225.502 262.445 224.663C261.618 223.824 261.154 222.694 261.154 221.517V97.9311H210.015C208.976 97.936 207.968 97.5814 207.161 96.9274C206.355 96.2735 205.8 95.3608 205.592 94.3448C205.556 94.0471 205.556 93.7461 205.592 93.4483C205.592 92.2594 206.066 91.1192 206.908 90.2785C207.751 89.4378 208.893 88.9655 210.085 88.9655H265.715C266.883 89.0014 267.99 89.4895 268.803 90.3263C269.615 91.1631 270.07 92.283 270.069 93.4483V93.4483Z" fill="#A3D3EA"/>
<path opacity="0.5" d="M265.715 100.207V226C264.536 225.982 263.411 225.502 262.584 224.663C261.756 223.824 261.292 222.694 261.292 221.517V97.931H8.98397V221.517C8.99405 222.457 8.70357 223.375 8.15473 224.138H5.11401V100.207C5.11401 98.6522 5.73291 97.1611 6.83451 96.0618C7.93611 94.9624 9.43023 94.3448 10.9881 94.3448H259.772C261.337 94.3447 262.838 94.9601 263.95 96.0576C265.063 97.155 265.697 98.6459 265.715 100.207V100.207Z" fill="#72A6CB"/>
<path d="M214.438 7.931C214.438 9.1199 213.965 10.2602 213.122 11.1008C212.28 11.9415 211.137 12.4138 209.946 12.4138H173.942C174.205 11.4416 174.39 10.4499 174.494 9.44825C174.494 8.96549 174.494 8.41376 174.494 7.931C174.486 6.41591 174.277 4.90861 173.872 3.44828H209.877C210.473 3.43914 211.064 3.54827 211.617 3.76946C212.17 3.99064 212.674 4.31937 213.098 4.73655C213.523 5.15372 213.86 5.65108 214.09 6.1995C214.32 6.74791 214.438 7.33647 214.438 7.931Z" fill="#A3D3EA"/>
<path d="M174.563 7.93099C174.55 9.44574 174.341 10.9525 173.942 12.4138C173.25 14.4828 172.214 15.8621 170.97 15.8621H168.067V12.6896C167.609 11.2393 167.376 9.72761 167.376 8.20692C167.37 6.6858 167.604 5.17312 168.067 3.72409V0.275818H170.97C172.214 0.275818 173.25 1.65513 173.942 3.72409C174.323 5.09526 174.532 6.5084 174.563 7.93099V7.93099Z" fill="#5E899D"/>
<path d="M171.661 7.93099C171.683 9.44807 171.473 10.9597 171.039 12.4138C170.348 14.4828 169.311 15.8621 168.068 15.8621C166.824 15.8621 165.718 14.4828 165.096 12.4138C164.662 10.9597 164.452 9.44807 164.474 7.93099C164.448 6.41365 164.658 4.9015 165.096 3.44828C165.718 1.37931 166.824 0 168.068 0C169.311 0 170.348 1.37931 171.039 3.44828C171.477 4.9015 171.687 6.41365 171.661 7.93099V7.93099Z" fill="#DAEDF7"/>
<path d="M169.588 7.93102C169.624 8.43613 169.624 8.94316 169.588 9.44827C169.588 11.1724 168.828 12.4138 168.137 12.4138H100.688C100.401 11.4437 100.193 10.4519 100.066 9.44827C100.066 8.96551 100.066 8.41378 100.066 7.93102C100.061 6.40991 100.294 4.89733 100.758 3.4483H168.206C168.966 3.4483 169.588 5.79309 169.588 7.93102Z" fill="#A3D3EA"/>
<path d="M110.087 7.93105C110.087 8.41381 110.087 8.96554 110.087 9.4483C109.982 10.4499 109.797 11.4416 109.534 12.4139C108.843 14.4828 107.737 15.8621 106.493 15.8621H103.66V12.6897V11.7931C103.374 10.6194 103.235 9.41487 103.245 8.20697C103.217 6.58854 103.474 4.97774 104.006 3.44833V0.27587H106.77C108.428 8.3417e-06 110.087 3.51725 110.087 7.93105Z" fill="#5E899D"/>
<path d="M107.184 7.93099C107.171 9.44574 106.962 10.9525 106.563 12.4138C105.871 14.4828 104.766 15.8621 103.591 15.8621C102.416 15.8621 101.241 14.4828 100.619 12.4138C100.161 10.9635 99.9281 9.45169 99.9283 7.93099C99.9225 6.40988 100.156 4.8973 100.619 3.44828C101.241 1.37931 102.347 0 103.591 0C104.835 0 105.871 1.37931 106.563 3.44828C106.967 4.9086 107.176 6.4159 107.184 7.93099V7.93099Z" fill="#DAEDF7"/>
<path d="M103.867 7.93102C103.867 8.48274 103.867 8.96551 103.867 9.44827C103.778 10.0111 103.64 10.565 103.453 11.1035C103.453 11.9311 102.831 12.4138 102.416 12.4138H59.7083C58.6144 12.2661 57.6094 11.7332 56.8744 10.9112C56.1395 10.0893 55.7229 9.03237 55.7 7.93102C55.7 6.74212 56.1733 5.60198 57.0157 4.7613C57.8581 3.92062 59.0007 3.4483 60.1921 3.4483H102.416C103.176 3.4483 103.867 5.79309 103.867 7.93102Z" fill="#A3D3EA"/>
<path d="M169.519 9.44824C169.519 11.1724 168.759 12.4138 168.068 12.4138H109.465C109.728 11.4416 109.913 10.4499 110.018 9.44824H169.519Z" fill="#72A6CB"/>
<path d="M209.048 12.6896V89.3792H59.639V12.6896C59.7084 11.8786 60.081 11.1233 60.6828 10.5739C61.2845 10.0245 62.0715 9.7212 62.8871 9.72415H103.798C103.709 10.287 103.571 10.8408 103.384 11.3793C103.384 12.2068 102.762 12.6896 102.347 12.6896H64.6147V89.2414H205.454V12.6896H173.942C174.205 11.7174 174.39 10.7258 174.494 9.72415H205.731C206.558 9.7036 207.362 9.99907 207.979 10.5502C208.595 11.1014 208.978 11.8666 209.048 12.6896V12.6896Z" fill="#72A6CB"/>
<g clip-path="url(#clip1_116_194)">
<path d="M238 55.1308H172.447V58.1985H238V55.1308Z" fill="#B8DDEF"/>
<path d="M207.529 59.4482C207.529 59.4482 207.271 59.4482 206.828 59.7133H206.238C203.877 60.0163 198.454 60.2435 192.183 60.2435C185.912 60.2435 180.379 60.0163 178.055 59.7133H177.575C177.132 59.7133 176.874 59.524 176.874 59.4482C176.874 59.3725 177.169 59.4482 177.685 59.1831C187.359 58.3752 197.081 58.3752 206.755 59.1831C207.234 59.2589 207.529 59.3346 207.529 59.4482Z" fill="#689DC7"/>
<path d="M206.828 59.7133H206.238H205.205H204.504H203.803H202.844H201.59H200.41C198.049 59.7133 195.245 59.7133 192.22 59.7133C185.875 59.7133 180.415 59.4861 178.091 59.1831H177.612V58.6529L178.866 53.3508V53.1236L179.936 48.7303H204.43L205.427 53.2372L206.644 58.6529L206.828 59.7133Z" fill="#A6D4EB"/>
<path d="M206.792 65.1669L203.103 116.332C199.672 117.158 196.139 117.439 192.626 117.166H191.777C188.511 117.235 185.243 117.058 182.002 116.635V116.635C181.559 116.635 181.338 116.635 181.338 116.332L177.649 65.1669H206.792Z" fill="#68DDFF"/>
<path d="M204.504 49.2604C200.502 50.2726 196.366 50.6179 192.257 50.2829C188.149 50.5837 184.021 50.2518 180.01 49.2983V49.2983C188.137 47.9853 196.414 47.9853 204.541 49.2983L204.504 49.2604Z" fill="#CAE5F3"/>
<path d="M192.81 62.781L192.183 117.241H192.146L191.519 62.781H192.81Z" fill="#56D4F8"/>
<path d="M207.529 64.4852V65.1669C202.456 65.9891 197.313 66.2683 192.183 66.0001C186.318 66.0001 181.116 66.0001 178.645 65.5457H177.575C177.095 65.5457 176.837 65.5457 176.837 65.2805V64.5988C176.837 64.5988 177.095 64.5988 177.575 64.8639C177.931 64.8956 178.289 64.8956 178.645 64.8639C181.19 65.1291 186.318 65.3184 192.183 65.3184C197.313 65.6214 202.459 65.342 207.529 64.4852V64.4852Z" fill="#689DC7"/>
<path d="M207.529 59.4482V64.4853C202.461 65.3547 197.314 65.6468 192.183 65.3563C186.318 65.3563 181.116 65.3563 178.645 64.9019C178.289 64.9335 177.931 64.9335 177.575 64.9019C177.095 64.9019 176.837 64.9018 176.837 64.6367V59.4482C177.372 59.6869 177.951 59.8031 178.534 59.7891H179.788H180.932C183.698 59.7891 187.719 60.0921 191.999 60.0921C197.183 60.4507 202.39 60.2349 207.529 59.4482V59.4482Z" fill="#7DC5EB"/>
<path d="M207.529 59.4482V60.0921C202.461 60.9637 197.314 61.2558 192.183 60.9631C187.756 60.9631 183.735 60.9631 181.116 60.698H179.973H178.718C177.722 60.698 177.095 60.4708 177.021 60.3193V59.6755C177.556 59.9141 178.135 60.0304 178.718 60.0163H179.973H181.116C183.883 60.0163 187.904 60.3193 192.183 60.3193C197.314 60.5892 202.459 60.2972 207.529 59.4482V59.4482Z" fill="#689DC7"/>
<path d="M181.817 116.635C181.374 116.635 181.153 116.635 181.153 116.332L177.464 65.4321H178.534L181.817 116.635Z" fill="#56D4F8"/>
<path d="M202.549 116.635C202.992 116.635 203.213 116.635 203.213 116.332L206.902 65.4321H205.832L202.549 116.635Z" fill="#56D4F8"/>
<path d="M175.546 59.4482C175.546 59.4482 175.288 59.4482 174.845 59.7133H174.255C171.894 60.0163 166.471 60.2435 160.2 60.2435C153.929 60.2435 148.395 60.0163 146.071 59.7133H145.591C145.149 59.7133 144.891 59.524 144.891 59.4482C144.891 59.3725 145.186 59.4482 145.702 59.1831C155.376 58.3752 165.098 58.3752 174.771 59.1831C175.251 59.2589 175.546 59.3346 175.546 59.4482Z" fill="#689DC7"/>
<path d="M174.845 59.7133H174.255L171.82 59.9406H168.389C166.028 59.9406 163.225 59.9406 160.2 59.9406C153.855 59.9406 148.395 59.7133 146.071 59.4104H145.591V58.8801L146.846 53.578V53.3508L147.252 51.6465L147.768 49.4499V48.9576H172.263L172.484 49.8665L172.853 51.6465V52.3661L173.074 53.4644L174.292 58.8801L174.845 59.7133Z" fill="#A6D4EB"/>
<path d="M174.845 65.1669V67.5529L171.414 116.332C169.462 116.974 167.41 117.231 165.364 117.09H160.975H159.831C156.552 117.16 153.272 116.983 150.018 116.56V116.56C149.575 116.56 149.354 116.56 149.354 116.257L145.923 67.4771V65.0912L174.845 65.1669Z" fill="#68DDFF"/>
<path d="M172.521 49.2606C164.41 50.6238 156.137 50.6238 148.026 49.2606C152.036 48.2914 156.166 47.9593 160.274 48.2759C164.133 48.1843 167.993 48.3996 171.82 48.9197C172.263 49.0333 172.521 49.1469 172.521 49.2606Z" fill="#CAE5F3"/>
<path d="M160.864 62.781L160.2 117.241L159.536 62.781H160.864Z" fill="#56D4F8"/>
<path d="M175.546 64.4852V65.1669C175.546 65.1669 175.288 65.1669 174.808 65.432H174.07H172.484H168.795H167.209H163.52H156.695H153.006H151.383H147.694H146.477H146.071H145.407C144.927 65.432 144.669 65.432 144.669 65.1669V64.4852C144.669 64.4852 144.927 64.4852 145.407 64.7503H146.071H146.477H147.694H150.129H151.31H152.932H156.621H163.446H167.135H168.721H169.976H172.373H173.96C175.029 64.7503 175.546 64.6367 175.546 64.4852Z" fill="#689DC7"/>
<path d="M175.546 59.4482V64.4853C170.478 65.3591 165.331 65.6512 160.2 65.3563C154.334 65.3563 149.133 65.3563 146.661 64.9019H145.591C145.112 64.9019 144.854 64.9018 144.854 64.6367V59.4482C145.39 59.6813 145.968 59.7974 146.551 59.7891H147.805H148.948C151.752 59.7891 155.736 60.0921 160.015 60.0921C165.2 60.4531 170.407 60.2372 175.546 59.4482V59.4482Z" fill="#7DC5EB"/>
<path d="M175.546 59.4482V60.0921C175.546 60.0921 175.029 60.3572 174.07 60.4708H172.484H168.795H167.209H163.52H156.695H153.006H151.383H148.875H147.768H146.514H146.182C145.709 60.454 145.244 60.338 144.817 60.1299V60.1299V59.4861C145.243 59.6924 145.71 59.796 146.182 59.7891H146.514H147.768H148.875H151.383H153.006H156.695H163.52H167.209H168.795H172.484H174.07C175.029 59.7133 175.546 59.5619 175.546 59.4482Z" fill="#689DC7"/>
<path d="M149.834 116.635C149.391 116.635 149.17 116.635 149.17 116.332L145.481 65.4321H146.551L149.834 116.635Z" fill="#56D4F8"/>
<path d="M170.566 116.635C171.008 116.635 171.23 116.635 171.23 116.332L174.919 65.4321H173.849L170.566 116.635Z" fill="#56D4F8"/>
<path d="M148.1 56.6835C148.121 56.9356 148.121 57.189 148.1 57.441C147.879 58.1227 147.547 58.5772 147.252 58.5772H143.12V57.441L143.563 54.7899H147.694C148.1 54.8278 148.247 55.6231 148.1 56.6835Z" fill="#B8DDEF"/>
<path d="M143.821 56.6835C143.821 56.9486 143.821 57.2138 143.821 57.441C143.821 57.6682 143.267 58.5772 142.972 58.5772C142.567 58.5772 142.382 57.744 142.566 56.6835C142.751 55.6231 143.194 54.7899 143.599 54.7899C144.005 54.7899 144.116 55.6231 143.821 56.6835Z" fill="#689DC7"/>
<path d="M143.599 56.6457C143.555 56.9839 143.468 57.3148 143.341 57.6303C143.259 57.865 143.119 58.0738 142.935 58.2363H139.726C139.496 58.2393 139.269 58.1859 139.064 58.0805C138.859 57.9751 138.681 57.8207 138.545 57.6303C138.338 57.3599 138.221 57.0277 138.213 56.6835C138.213 56.4814 138.253 56.2812 138.329 56.0949C138.406 55.9086 138.518 55.7399 138.659 55.5987C138.799 55.4575 138.967 55.3468 139.15 55.2729C139.333 55.199 139.529 55.1636 139.726 55.1686H143.415C143.626 55.6289 143.69 56.1457 143.599 56.6457V56.6457Z" fill="#B8DDEF"/>
<path d="M208.82 59.4482C208.82 59.4482 209.042 59.4482 209.521 59.7133H210.075C212.436 60.0163 217.822 60.2435 224.13 60.2435C230.438 60.2435 235.934 60.0163 238.258 59.7133H238.775C239.217 59.7133 239.439 59.5239 239.439 59.4482C239.439 59.3724 239.181 59.4482 238.627 59.1831C228.966 58.3752 219.257 58.3752 209.595 59.1831C209.116 59.2588 208.82 59.3346 208.82 59.4482Z" fill="#689DC7"/>
<path d="M238.812 59.7133H238.295C237.594 59.7133 236.561 59.7133 235.344 59.9405H234.938H233.241H232.356C229.995 59.9405 227.228 59.9405 224.24 59.9405C217.932 59.9405 212.546 59.7133 210.185 59.4103H209.632V58.8801L210.812 53.578V53.3507L211.772 48.9954H236.303L237.631 54.6384L238.627 58.918L238.812 59.7133Z" fill="#A6D4EB"/>
<path d="M209.521 65.1669L213.21 116.332C216.628 117.159 220.149 117.44 223.65 117.166H224.794C228.073 117.233 231.352 117.056 234.606 116.635V116.635C235.012 116.635 235.27 116.635 235.27 116.332L238.959 65.1669H209.521Z" fill="#68DDFF"/>
<path d="M236.34 49.2605C228.217 50.6238 219.932 50.6238 211.808 49.2605C219.936 47.9476 228.213 47.9476 236.34 49.2605V49.2605Z" fill="#CAE5F3"/>
<path d="M223.466 62.781L224.13 117.241H224.167L224.794 62.781H223.466Z" fill="#56D4F8"/>
<path d="M208.82 64.4852V65.1669C213.894 65.9923 219.037 66.2716 224.167 66.0001C230.032 66.0001 235.233 66.0001 237.705 65.5457H238.775C239.217 65.5457 239.476 65.5457 239.476 65.2805V64.5988C239.476 64.5988 239.217 64.5988 238.775 64.8639H237.705C235.123 65.1291 230.032 65.3184 224.167 65.3184C219.037 65.6258 213.89 65.3464 208.82 64.4852V64.4852Z" fill="#689DC7"/>
<path d="M208.82 59.4482V64.4853C213.888 65.3591 219.036 65.6512 224.167 65.3563C230.032 65.3563 235.233 65.3563 237.705 64.9019H238.775C239.217 64.9019 239.476 64.9018 239.476 64.6367V59.4482C238.939 59.6813 238.361 59.7974 237.779 59.7891H236.525H235.381C232.577 59.7891 228.593 60.0921 224.314 60.0921C219.142 60.4503 213.947 60.2345 208.82 59.4482V59.4482Z" fill="#7DC5EB"/>
<path d="M208.82 59.4482V60.0921C213.888 60.9659 219.036 61.258 224.167 60.9631C228.593 60.9631 232.577 60.9631 235.234 60.698H236.377H237.631C238.217 60.704 238.797 60.5745 239.328 60.3193V60.3193V59.6755C238.792 59.9085 238.214 60.0246 237.631 60.0163H236.377H235.234C232.43 60.0163 228.446 60.3193 224.167 60.3193C219.036 60.5915 213.891 60.2995 208.82 59.4482V59.4482Z" fill="#689DC7"/>
<path d="M234.533 116.635C234.938 116.635 235.197 116.635 235.197 116.332L238.886 65.4321H237.816L234.533 116.635Z" fill="#56D4F8"/>
<path d="M213.911 116.635C213.469 116.635 213.247 116.635 213.247 116.332L209.558 65.4321H210.591L213.911 116.635Z" fill="#56D4F8"/>
<path d="M147.879 60.6223V65.0155H146.661H146.255V60.4708H146.587H147.842L147.879 60.6223Z" fill="#689DC7"/>
<path d="M153.117 60.8495V65.2806H151.494V60.8116L153.117 60.8495Z" fill="#689DC7"/>
<path d="M158.355 60.9631V65.3563H156.769V60.9252L158.355 60.9631Z" fill="#689DC7"/>
<path d="M163.594 60.9252V65.3563H162.007V60.9631L163.594 60.9252Z" fill="#689DC7"/>
<path d="M168.832 60.8116V65.2048H167.246V60.8495L168.832 60.8116Z" fill="#689DC7"/>
<path d="M174.07 60.4708V64.864H172.484V60.6223L174.07 60.4708Z" fill="#689DC7"/>
<path d="M179.862 60.6223V65.0155H178.645H178.276V60.4708H178.571H179.825L179.862 60.6223Z" fill="#689DC7"/>
<path d="M185.1 60.8495V65.2806H183.514V60.8116L185.1 60.8495Z" fill="#689DC7"/>
<path d="M190.339 60.9631V65.3563H188.752V60.9252L190.339 60.9631Z" fill="#689DC7"/>
<path d="M195.466 60.9252V65.3563H193.88V60.9631L195.466 60.9252Z" fill="#689DC7"/>
<path d="M200.815 60.8116V65.2048H199.229V60.8495L200.815 60.8116Z" fill="#689DC7"/>
<path d="M206.054 60.4708V64.864H204.467V60.6223L206.054 60.4708Z" fill="#689DC7"/>
<path d="M211.808 60.6223V65.0155H210.591H210.222V60.4708H210.554H211.772L211.808 60.6223Z" fill="#689DC7"/>
<path d="M217.047 60.8495V65.2806H215.461V60.8116L217.047 60.8495Z" fill="#689DC7"/>
<path d="M222.285 60.9631V65.3563H220.699V60.9252L222.285 60.9631Z" fill="#689DC7"/>
<path d="M227.523 60.9252V65.3563H225.937V60.9631L227.523 60.9252Z" fill="#689DC7"/>
<path d="M232.799 60.8116V65.2048H231.176V60.8495L232.799 60.8116Z" fill="#689DC7"/>
<path d="M238.037 60.4708V64.864H236.414V60.6223L238.037 60.4708Z" fill="#689DC7"/>
<path opacity="0.5" d="M174.07 65.5078H172.484H168.795H167.209H163.52H156.695H153.006H151.383H147.694H146.477H146.071H145.407V67.6286H145.923H146.329H147.547H151.236H152.859H156.548H163.372H167.061C167.251 67.617 167.442 67.6476 167.62 67.7183C167.797 67.789 167.958 67.898 168.091 68.0382C168.224 68.1783 168.326 68.3461 168.39 68.5303C168.455 68.7145 168.479 68.9107 168.463 69.1056L164.995 116.673C167.041 116.814 169.093 116.557 171.045 115.916L174.476 67.1363V65.0154L174.07 65.5078Z" fill="#56D4F8"/>
<path opacity="0.5" d="M206.054 65.5078H204.431H200.742H199.118H195.429H188.568H184.879H183.256H179.567H178.35H177.944H177.28V67.6286H177.796H178.202H179.419H183.108H184.732H188.421H195.466H199.155C199.346 67.6171 199.536 67.6477 199.714 67.7183C199.891 67.789 200.052 67.8981 200.185 68.0382C200.318 68.1783 200.42 68.3462 200.484 68.5303C200.549 68.7145 200.573 68.9107 200.557 69.1057L197.09 116.673C199.135 116.81 201.186 116.553 203.14 115.916L206.533 67.5529V65.4321L206.054 65.5078Z" fill="#56D4F8"/>
<path opacity="0.5" d="M238.037 65.5078H236.414H232.725H231.102H227.413H220.551H216.862H215.239H211.55H210.296H210.222H209.558V67.6286H210.075H210.444H211.698H215.387H217.01H220.699H227.56H231.249C231.44 67.617 231.63 67.6476 231.808 67.7183C231.985 67.789 232.146 67.898 232.279 68.0382C232.412 68.1783 232.514 68.3461 232.578 68.5303C232.642 68.7145 232.667 68.9107 232.651 69.1056L229.184 116.673C231.229 116.81 233.28 116.553 235.234 115.916L238.664 67.1363V65.0154L238.037 65.5078Z" fill="#56D4F8"/>
<path opacity="0.5" d="M174.845 59.7134H174.255L171.82 59.9406H168.389C168.087 58.5004 167.316 57.209 166.203 56.2794C165.089 55.3499 163.701 54.8379 162.266 54.8278H160.384C155.938 55.0511 151.482 54.7461 147.104 53.9189V53.6916L147.51 51.9874L148.026 49.7908V49.2985C156.137 50.6617 164.41 50.6617 172.521 49.2985L172.742 50.2074L173.111 51.9874V52.707L173.333 53.8053L174.55 59.221L174.845 59.7134Z" fill="#689DC7"/>
<path opacity="0.5" d="M206.828 59.7133H206.238H205.205H204.504H203.803H202.844H201.59H200.41C200.05 58.2801 199.226 57.0153 198.072 56.1273C196.919 55.2393 195.505 54.781 194.064 54.8278H192.183C187.737 55.0535 183.28 54.7485 178.903 53.9188C178.903 53.9188 178.903 53.9188 178.903 53.9188L179.973 49.5635C183.984 50.5171 188.113 50.849 192.22 50.5482C196.329 50.8831 200.465 50.5379 204.467 49.5256L205.463 54.0325L206.681 59.4482L206.828 59.7133Z" fill="#689DC7"/>
<path opacity="0.5" d="M238.738 59.7133H238.148L235.713 59.9405H234.938H233.241H232.356C232.045 58.4552 231.236 57.1292 230.069 56.1946C228.903 55.26 227.453 54.7762 225.974 54.8278H224.093C219.647 55.058 215.189 54.7529 210.812 53.9189C210.812 53.9189 210.812 53.9189 210.812 53.9189L211.772 49.5635C219.895 50.9268 228.18 50.9268 236.303 49.5635L237.631 55.2065L238.59 59.4861L238.738 59.7133Z" fill="#689DC7"/>
<path d="M236.672 54.8278H240.804L241.431 58.6151H237.299C236.894 58.6151 236.451 57.7819 236.266 56.7214C236.082 55.661 236.266 54.8278 236.672 54.8278Z" fill="#B8DDEF"/>
<path d="M240.398 56.6835C240.583 57.744 241.025 58.5772 241.431 58.5772C241.837 58.5772 241.984 57.744 241.837 56.6835C241.689 55.6231 241.21 54.7899 240.804 54.7899C240.398 54.7899 240.214 55.6231 240.398 56.6835Z" fill="#689DC7"/>
<path opacity="0.5" d="M147.915 57.441C147.694 58.1227 147.362 58.5771 147.067 58.5771H142.935C143.231 58.5771 143.562 58.1227 143.784 57.441H147.915Z" fill="#689DC7"/>
<path opacity="0.5" d="M143.341 57.6303C143.259 57.865 143.12 58.0738 142.935 58.2363H139.726C139.496 58.2393 139.269 58.1859 139.064 58.0805C138.859 57.975 138.681 57.8207 138.546 57.6303H143.341Z" fill="#689DC7"/>
<path opacity="0.5" d="M236.451 57.441C236.672 58.1227 237.004 58.5771 237.299 58.5771H241.431C241.136 58.5771 240.804 58.1227 240.582 57.441H236.451Z" fill="#689DC7"/>
</g>
</g>
<defs>
<clipPath id="clip0_116_194">
<rect width="270" height="226" fill="white"/>
</clipPath>
<clipPath id="clip1_116_194">
<rect width="103.66" height="68.9655" fill="white" transform="translate(138.214 48.2759)"/>
</clipPath>
</defs>
</svg>
