<svg width="169" height="287" viewBox="0 0 169 287" fill="none" xmlns="http://www.w3.org/2000/svg">
<g clip-path="url(#clip0_116_177)">
<path d="M153.543 222.481L64.3453 246.585L7.2702 50.2391L103.955 24.1122L153.543 222.481Z" fill="#DAE5F9"/>
<path opacity="0.25" d="M93.3331 55.2535L97.5341 70.7999L99.701 78.8186L101.735 86.3464L126.902 189.82C127.787 193.093 120.888 197.942 110.78 201.903L101.665 204.366C86.5276 208.456 73.5986 208.438 72.4488 204.183L41.9103 102.162L37.8861 87.2697L33.6851 71.7234L93.3331 55.2535Z" fill="#41D4FF"/>
<path d="M150.964 212.291L161.312 250.584C161.336 250.961 161.271 251.338 161.122 251.684C160.972 252.029 160.742 252.334 160.452 252.573C157.035 255.657 153.054 258.044 148.728 259.604C140.118 263.288 131.268 266.383 122.239 268.869L110.358 272.08L97.824 275.467L86.7274 277.06L80.5584 277.498C78.3241 277.668 76.0765 277.443 73.917 276.835C73.5656 276.76 73.2373 276.6 72.9615 276.368C72.6858 276.136 72.4708 275.84 72.3352 275.506L61.9874 237.213C62.3854 238.686 65.506 239.247 70.5359 239.117C76.2172 238.81 81.8741 238.161 87.4761 237.173L100.01 233.786L111.892 230.576C120.895 228.009 129.739 224.915 138.381 221.311C146.654 217.67 151.495 214.255 150.964 212.291Z" fill="#21B9E5"/>
<path d="M92.6654 26.285L102.969 64.4145C103.942 68.0147 92.5748 74.4229 76.3563 79.6836L67.0783 82.1907C58.2159 84.7259 49.12 86.3603 39.9278 87.0692C32.9004 87.5634 28.1381 86.7432 27.5632 84.6158L17.3037 46.6498L92.6654 26.285Z" fill="#97A1B7"/>
<path d="M100.17 6.87318L105.3 25.8562C105.786 27.6563 101.626 30.3605 94.6111 33.4854L88.2034 36.2705C78.3253 40.0794 68.2421 43.332 58.0007 46.0126L49.6994 48.2559L37.1663 51.6427C31.6362 52.845 26.0384 53.7127 20.403 54.241C12.7688 55.0748 7.97601 54.7895 7.48957 52.9894L2.35984 34.0064L100.17 6.87318Z" fill="#21B9E5"/>
<path d="M100.17 6.87326C101.187 10.6371 79.8905 19.7283 53.1964 26.9418C26.5023 34.1553 3.52546 37.028 2.50837 33.2641C1.49127 29.5002 22.6249 20.4531 49.4818 13.1956C76.3387 5.9381 99.1527 3.1094 100.17 6.87326Z" fill="#41D4FF"/>
<path opacity="0.15" d="M94.6112 33.4853L102.969 64.4144C103.942 68.0147 92.5748 74.4228 76.3563 79.6835L73.305 68.3919C72.9994 67.2604 72.4723 66.2008 71.7549 65.2753C71.0375 64.3497 70.1442 63.5768 69.1268 63.0015C68.1094 62.4262 66.9884 62.0602 65.8297 61.9249C64.6711 61.7896 63.4979 61.8876 62.3787 62.2134V62.2134C53.5162 64.7485 44.4204 66.3829 35.2281 67.0919C28.2008 67.5861 23.4379 66.766 22.8631 64.6386L19.9445 53.8381C45.6263 50.4105 70.7427 43.6233 94.6554 33.6492L94.6112 33.4853Z" fill="#21B9E5"/>
<path opacity="0.5" d="M97.2083 70.8878C90.5715 74.5174 83.5856 77.4643 76.3562 79.6835L67.0783 82.1907C58.2159 84.7258 49.12 86.3602 39.9277 87.0692L35.9633 87.2625L39.9874 102.154L43.6266 102.049C52.8076 101.255 61.8954 99.6217 70.7771 97.1704V97.1704C72.6486 96.6642 74.6449 96.9144 76.3388 97.8678C78.0327 98.8213 79.2896 100.402 79.8405 102.272L108.769 201.568C118.877 197.608 125.775 192.758 124.89 189.485L99.7234 86.012L97.6892 78.4842L97.2083 70.8878Z" fill="#97A1B7"/>
<path opacity="0.25" d="M36.9894 50.9879L87.0926 236.399C81.4906 237.387 75.8337 238.036 70.1524 238.343L20.2261 53.5863C25.8615 53.058 31.4593 52.1903 36.9894 50.9879Z" fill="white"/>
<path opacity="0.25" d="M88.2034 36.2705L138.218 221.354C128.441 225.451 118.394 228.87 108.148 231.587L99.8468 233.831L49.6994 48.256L57.3495 46.1887C67.8146 43.474 78.116 40.1624 88.2034 36.2705V36.2705Z" fill="white"/>
<path opacity="0.5" d="M150.964 212.291L161.312 250.584C161.336 250.961 161.271 251.338 161.122 251.684C160.972 252.029 160.742 252.334 160.452 252.573C157.035 255.656 153.054 258.044 148.728 259.604C140.118 263.287 131.268 266.383 122.239 268.869L111.892 230.576C120.895 228.008 129.739 224.915 138.381 221.31C146.654 217.67 151.495 214.255 150.964 212.291Z" fill="#21B9E5"/>
</g>
<defs>
<clipPath id="clip0_116_177">
<rect width="101.839" height="269.279" fill="white" transform="translate(0 26.5668) rotate(-15.1217)"/>
</clipPath>
</defs>
</svg>
