<svg width="217" height="280" viewBox="0 0 217 280" fill="none" xmlns="http://www.w3.org/2000/svg">
<g clip-path="url(#clip0_116_5026)">
<path fill-rule="evenodd" clip-rule="evenodd" d="M23.8679 346.307L8.20048 -79.6487L217 -86.9851L190.55 343.589L23.8679 346.307Z" fill="#6D9AFF"/>
<g style="mix-blend-mode:soft-light">
<path fill-rule="evenodd" clip-rule="evenodd" d="M40.5331 -80.7923L46.535 119.414H136.876L139.691 -81.8467L154.449 -81.1784L152.796 134.057L202.643 146.071L217 -86.9851L40.5331 -80.7923Z" fill="#D1C0FF"/>
</g>
<path fill-rule="evenodd" clip-rule="evenodd" d="M196.388 248.499C196.388 248.499 176.595 264.018 129.548 275.691C82.5015 287.364 33.8909 266.052 20.0702 252.954L23.853 346.292L190.55 343.545L196.388 248.499Z" fill="#8CB9FF"/>
<path fill-rule="evenodd" clip-rule="evenodd" d="M20.0702 243.093C20.0702 243.093 21.5595 295.873 69.1128 300.254C116.666 304.635 165.917 242.202 197.326 233.336L190.55 343.545L23.853 346.307L20.0702 243.093Z" fill="#A6D4FF"/>
<path fill-rule="evenodd" clip-rule="evenodd" d="M68.9489 200.663L63.4534 96.3056L161.762 91.479L156.817 200.663H68.9489Z" fill="url(#paint0_radial_116_5026)"/>
<path fill-rule="evenodd" clip-rule="evenodd" d="M63.4534 96.3057H61.6365L66.8937 200.663H68.9489L63.4534 96.3057Z" fill="#6D5BBD"/>
<path fill-rule="evenodd" clip-rule="evenodd" d="M73.7147 196.802H152.424L156.817 97.6125L69.1276 99.8996L73.7147 196.802Z" fill="#6D5BBD"/>
<path fill-rule="evenodd" clip-rule="evenodd" d="M129.355 98.3254L122.415 196.802H152.424L156.817 97.6125L129.355 98.3254Z" fill="#663EA2"/>
<path fill-rule="evenodd" clip-rule="evenodd" d="M31.4335 78.1279L194.512 77.2814L202.643 -66.3721L25.1189 -63.4019L31.4335 78.1279Z" fill="#663EA2"/>
<path d="M18.0671 -79.666L17.3376 -79.6436L30.538 346.317L31.2674 346.294L18.0671 -79.666Z" fill="#6D5BBD"/>
<path d="M209.267 -87.0261L187.314 343.631L188.043 343.668L209.996 -86.9891L209.267 -87.0261Z" fill="#6D5BBD"/>
<path fill-rule="evenodd" clip-rule="evenodd" d="M25.2083 -61.397L198.146 -64.6345L192.337 77.2963L31.4335 78.1279L25.2083 -61.397Z" fill="#89D3FF"/>
<path fill-rule="evenodd" clip-rule="evenodd" d="M164.145 191.812L166.17 107.667L194.512 106.597L188.867 191.812H164.145Z" fill="#6D5BBD"/>
<path fill-rule="evenodd" clip-rule="evenodd" d="M166.17 107.667L164.606 108.261L163.028 191.812H164.145L166.17 107.667Z" fill="#663EA2"/>
<path fill-rule="evenodd" clip-rule="evenodd" d="M31.1803 131.265L57.2431 129.661V168.155H33.9058L31.1803 131.265Z" fill="url(#paint1_radial_116_5026)"/>
<path fill-rule="evenodd" clip-rule="evenodd" d="M31.1803 131.265L30.3017 131.725L32.5952 168.155H33.9058L31.1803 131.265Z" fill="#6D5BBD"/>
<path fill-rule="evenodd" clip-rule="evenodd" d="M34.5164 133.285L36.7801 165.556H54.4879V132.007L34.5164 133.285Z" fill="#663EA2"/>
<path fill-rule="evenodd" clip-rule="evenodd" d="M46.535 132.512V165.556H36.7801L34.5164 133.284L46.535 132.512Z" fill="#6D5BBD"/>
<path d="M185.606 188.04L167.451 187.401L169.223 112.315L189.805 110.711V111.127L185.606 188.04ZM168.196 186.703L184.921 187.283L189.031 111.543L169.938 113.028L168.196 186.703Z" fill="#663EA2"/>
<path style="mix-blend-mode:screen" opacity="0.46" d="M107.209 88.0632C159.916 88.0632 202.643 54.2132 202.643 12.4569C202.643 -29.2993 159.916 -63.1494 107.209 -63.1494C54.5021 -63.1494 11.7748 -29.2993 11.7748 12.4569C11.7748 54.2132 54.5021 88.0632 107.209 88.0632Z" fill="url(#paint2_radial_116_5026)"/>
<path d="M76.0529 2.75933C76.8472 -2.97315 78.0088 -11.5669 79.5378 -23.022L85.4057 -22.2497C85.0482 -20.4478 84.6114 -17.735 84.0951 -14.1114C83.0327 -4.35924 82.4221 1.08611 82.2632 2.22469C81.6239 7.67442 80.6289 13.0768 79.2846 18.3974C78.5211 21.0067 78.0859 23.7006 77.989 26.4169C78.0577 26.7094 78.0976 27.0078 78.1081 27.308V30.4267L72.2403 30.7237C72.0169 28.3624 71.6743 24.7833 71.2424 19.9865C71.0042 17.343 70.8056 14.2342 70.6467 10.6601L69.5893 20.0459C69.1127 24.3378 68.8745 26.5506 68.8745 26.714V29.6842H63.0215V29.5059C62.2272 25.4863 60.9216 16.6598 59.1047 3.02664C58.1916 -3.92662 57.719 -10.9304 57.6898 -17.9429V-20.9131H63.647V-17.9429C63.8059 -10.9843 64.3828 -4.0414 65.3746 2.84843L66.5512 -10.0719C66.9578 -14.1178 67.6848 -18.1252 68.7255 -22.0567L74.4295 -20.5716V-17.6014C74.4295 -16.1064 74.8217 -11.6758 75.6061 -4.30974C75.6954 -1.91874 75.8891 0.39802 76.0529 2.75933Z" fill="white"/>
<path d="M85.2269 14.9372C86.5673 14.6105 87.9226 14.3283 89.3076 14.0758C89.4963 9.12551 90.082 3.18513 91.065 -3.74532C91.9586 -9.68572 92.8373 -15.5865 93.701 -21.4477H94.3861V-21.5516L100.343 -21.8635L100.522 -18.8933C100.8 -15.0711 101.297 -11.268 102.011 -7.50262C103.004 -2.09686 103.6 1.54162 103.798 3.41285C103.947 4.89794 104.156 8.0612 104.394 12.9917L106.762 13.1699L106.226 19.1103H104.737C105.332 23.7141 105.63 26.4715 105.63 27.3823V30.3525H99.6731V27.3823C99.6731 26.8625 99.3753 24.1151 98.7944 19.1103C97.5035 19.124 96.2149 19.2232 94.9372 19.4074C94.9372 20.0459 94.7882 21.2637 94.5946 23.0756C94.4461 24.3475 94.3665 25.6266 94.3563 26.9071V29.8773H88.3992V26.9071C88.3992 26.6249 88.5779 24.4121 88.9353 20.239C87.2822 20.5509 85.5099 20.9222 83.6036 21.3528L82.2632 15.6649L85.2269 14.9372ZM95.3988 13.3333C96.3818 13.3333 97.3945 13.2442 98.3774 13.2145C98.3774 11.2393 98.0945 8.23941 97.7817 4.19995C97.5881 2.43268 97.3052 0.383246 96.9626 -1.94836C96.2378 3.71482 95.7166 8.80869 95.3988 13.3333V13.3333Z" fill="white"/>
<path d="M122.325 -14.2896C122.444 -13.1511 122.564 -11.265 122.683 -8.63141C122.772 -5.79983 122.727 -2.51281 122.549 1.22963C122.4 5.59582 122.325 8.62541 122.325 10.3184C122.325 11.8926 122.325 13.4668 122.4 15.041C122.588 20.7141 122.683 24.313 122.683 25.8377V28.8079H116.726V25.8377C116.726 24.3823 116.606 20.9171 116.368 15.442C116.368 13.8233 116.249 12.2342 116.249 10.66C116.249 9.08581 116.368 5.92255 116.606 1.51181C116.755 -2.23064 116.795 -5.51766 116.726 -8.34924C116.651 -9.59672 116.547 -11.5274 116.428 -14.1263C114.938 -14.1263 112.6 -14.1263 109.562 -14.3045L109.919 -20.2449L112.898 -20.0667H118.513C119.377 -20.0667 120.642 -20.0667 122.296 -20.2449C123.949 -20.4231 125.274 -20.4231 126.212 -20.4231H129.191V-14.4827H126.212C125.289 -14.5273 123.993 -14.453 122.325 -14.2896Z" fill="white"/>
<path d="M136.295 29.8623L135.476 31.3474L133.108 30.0405H132.572L132.453 29.5801L130.263 28.3921C130.651 27.6941 131.187 26.7733 131.857 25.6298C131.738 24.5011 131.678 21.6497 131.678 17.0905C131.678 13.9569 131.678 11.0758 131.559 8.44721L130.323 5.9671L131.321 5.4473V4.37804C131.142 1.40785 130.859 -1.32473 130.502 -3.9088V-19.3687H133.48C134.198 -19.3819 134.915 -19.4414 135.625 -19.5469C136.335 -19.6523 137.051 -19.7119 137.769 -19.7251C138.907 -19.6857 140.041 -19.5766 141.165 -19.3984C142.308 -19.2108 143.462 -19.1016 144.62 -19.0717H147.599V-13.1313C145.306 -13.0158 143.008 -13.1102 140.733 -13.4134C139.752 -13.6147 138.756 -13.7339 137.754 -13.7699C137.358 -13.7921 136.96 -13.7921 136.563 -13.7699V-4.20583C136.841 -1.81977 137.079 0.794008 137.278 3.6355C138.067 3.6355 139.869 3.51668 142.654 3.51668C144.054 3.40851 145.44 3.16985 146.795 2.80383L148.165 8.53631C146.193 9.05187 144.17 9.35068 142.133 9.42738C139.765 9.42738 138.261 9.42737 137.665 9.53132V23.8774C138.335 23.8774 139.571 23.7289 141.388 23.5209C142.661 23.3393 143.945 23.2401 145.231 23.2239H148.209V29.1643H145.231C143.765 29.203 142.302 29.3319 140.852 29.5505C139.343 29.7663 137.82 29.8706 136.295 29.8623Z" fill="white"/>
<path d="M161.568 11.5065C162.948 14.8034 164.348 18.0855 165.768 21.3527C167.247 24.66 168.929 27.8738 170.802 30.9761L165.709 34.0503C162.885 29.2778 160.396 24.3156 158.262 19.1993C158.5 22.7487 158.62 25.3179 158.62 26.9367V29.9069H152.662V26.9367C152.662 25.9466 152.503 22.6596 152.186 17.0756C152.106 15.5509 152.106 12.4817 152.186 7.86801C152.294 4.79422 152.174 1.71665 151.828 -1.33961C151.365 -5.31288 151.131 -9.30944 151.128 -13.3095V-13.6065C151.128 -14.0817 151.128 -14.557 151.128 -15.0916L150.116 -17.3935L151.53 -17.9727L151.828 -19.339L153.72 -18.9232C155.214 -19.5817 156.823 -19.9448 158.456 -19.9924C164.264 -19.9924 167.168 -15.4629 167.168 -6.40378C167.04 -0.0253385 165.098 6.18571 161.568 11.5065ZM158.203 5.477C160.251 1.84735 161.347 -2.23916 161.39 -6.40378C161.39 -11.5224 160.461 -14.0817 158.605 -14.0817C158.1 -14.0683 157.599 -13.9884 157.115 -13.8441C157.115 -11.7947 157.309 -8.63144 157.681 -4.3098C158.054 0.0118334 158.232 3.27905 158.203 5.477V5.477Z" fill="white"/>
<path d="M200.93 84.5732H22.7956V85.3009H200.93V84.5732Z" fill="#6D5BBD"/>
<g style="mix-blend-mode:soft-light">
<path fill-rule="evenodd" clip-rule="evenodd" d="M20.0702 243.093C20.0702 243.093 9.82382 241.266 3.22623 259.889C-3.37136 278.512 4.28363 304.709 -12.3518 316.813L-10.8625 346.322H23.853L20.0702 243.093Z" fill="#8CB9FF"/>
</g>
<path fill-rule="evenodd" clip-rule="evenodd" d="M107.209 98.9046V94.1523L139.616 92.5632L138.663 97.9244L107.209 98.9046Z" fill="white"/>
<path fill-rule="evenodd" clip-rule="evenodd" d="M141.269 98.0136L143.116 92.385L150.19 92.0435L148.194 97.8353L141.269 98.0136Z" fill="white"/>
<path fill-rule="evenodd" clip-rule="evenodd" d="M96.0541 200.663L96.6499 196.802H110.873V200.663H96.0541Z" fill="white"/>
<path fill-rule="evenodd" clip-rule="evenodd" d="M114.075 200.663L115.862 196.802H124.142L122.087 200.663H114.075Z" fill="white"/>
<path fill-rule="evenodd" clip-rule="evenodd" d="M57.243 207.064H164.592L161.762 265.176H58.8813L57.243 207.064Z" fill="#FFA29F"/>
<path fill-rule="evenodd" clip-rule="evenodd" d="M63.4534 260.795L60.1621 209.678L161.762 208.594L157.92 260.795H63.4534Z" fill="#FFE0BB"/>
<path fill-rule="evenodd" clip-rule="evenodd" d="M90.7373 255.879L88.2651 215.797L136.876 213.851L130.829 255.879H90.7373Z" fill="#FF9ABB"/>
<path fill-rule="evenodd" clip-rule="evenodd" d="M73.9977 228.583L152.796 227.039V243.033L73.9977 240.85V228.583Z" fill="white"/>
<path fill-rule="evenodd" clip-rule="evenodd" d="M96.0541 244.548V247.102L125.244 247.934L126.078 245.469L96.0541 244.548Z" fill="white"/>
<g style="mix-blend-mode:soft-light">
<path d="M27.8662 -0.531633L27.8633 0.196045L195.467 0.866958L195.47 0.13928L27.8662 -0.531633Z" fill="white"/>
<path d="M27.2933 5.99693V6.72461H194.303V5.99693H27.2933Z" fill="white"/>
<path d="M28.4528 13.3924L28.4492 14.1201L194.876 14.9311L194.88 14.2034L28.4528 13.3924Z" fill="white"/>
<path d="M28.7629 20.307L28.7589 21.0347L194.605 21.9295L194.609 21.2018L28.7629 20.307Z" fill="white"/>
<path d="M29.0392 27.1327L29.035 27.8604L194.314 28.8096L194.319 28.0819L29.0392 27.1327Z" fill="white"/>
<path d="M29.3492 33.942L29.3446 34.6697L194.043 35.7016L194.047 34.9739L29.3492 33.942Z" fill="white"/>
<path d="M29.6443 40.6991L29.6393 41.4268L193.771 42.5408L193.776 41.8132L29.6443 40.6991Z" fill="white"/>
<path d="M29.9203 47.3927L29.9151 48.1204L193.48 49.2875L193.486 48.5599L29.9203 47.3927Z" fill="white"/>
<path d="M30.2153 54.0587L30.2097 54.7864L193.208 56.0346L193.214 55.3069L30.2153 54.0587Z" fill="white"/>
<path d="M30.5101 60.7018L30.5041 61.4294L192.951 62.7583L192.957 62.0306L30.5101 60.7018Z" fill="white"/>
<path d="M30.786 67.2482L30.7798 67.9758L192.675 69.3565L192.682 68.6288L30.786 67.2482Z" fill="white"/>
<path d="M31.0806 73.7999L31.074 74.5276L192.418 75.9878L192.424 75.2601L31.0806 73.7999Z" fill="white"/>
</g>
<g style="mix-blend-mode:multiply" opacity="0.31">
<path fill-rule="evenodd" clip-rule="evenodd" d="M152.424 196.802H110.873L108.698 116.681L69.6936 112.137L69.1276 99.8996L156.817 97.6125L152.424 196.802Z" fill="#7C006D"/>
</g>
<path fill-rule="evenodd" clip-rule="evenodd" d="M120.925 145.908L120.806 145.522L120.732 145.284C119.928 143.012 117.128 136.938 110.083 136.745C101.326 136.997 99.0476 146.235 99.0476 146.235V196.802H120.985V146.131L120.925 145.908Z" fill="#54ABFF"/>
<path fill-rule="evenodd" clip-rule="evenodd" d="M120.985 146.131L99.0476 146.235C99.0476 146.235 101.326 136.997 110.083 136.745C117.128 136.938 119.928 143.012 120.732 145.284L120.806 145.522L120.925 145.908L120.985 146.131Z" fill="#FFDDFF"/>
<path fill-rule="evenodd" clip-rule="evenodd" d="M104.588 138.393L114.313 137.71V134.591H104.588V138.393Z" fill="#A6D4FF"/>
<path fill-rule="evenodd" clip-rule="evenodd" d="M99.9263 154.655L118.915 153.482V170.783L99.9263 170.338V154.655Z" fill="#A6D4FF"/>
<g style="mix-blend-mode:multiply" opacity="0.31">
<path fill-rule="evenodd" clip-rule="evenodd" d="M34.5164 136.745L41.9926 138.393L44.2117 165.556H54.4879V132.007L34.5164 133.285V136.745Z" fill="#7C006D"/>
</g>
<g style="mix-blend-mode:multiply" opacity="0.31">
<path fill-rule="evenodd" clip-rule="evenodd" d="M33.9058 168.155L34.5164 169.61H55.4112V168.155H33.9058Z" fill="#7C006D"/>
</g>
<g style="mix-blend-mode:multiply" opacity="0.31">
<path fill-rule="evenodd" clip-rule="evenodd" d="M152.186 200.663L151.158 203.544L69.1276 202.104L68.9489 200.663H152.186Z" fill="#7C006D"/>
</g>
<path fill-rule="evenodd" clip-rule="evenodd" d="M171.338 119.414H187.408L186.574 126.527H171.338V119.414Z" fill="#C397FF"/>
<path fill-rule="evenodd" clip-rule="evenodd" d="M173.781 182.486V177.748H181.153L180.78 182.486H173.781Z" fill="#C397FF"/>
<path fill-rule="evenodd" clip-rule="evenodd" d="M92.7032 211.401V214.475L134.076 212.93V211.401H92.7032Z" fill="#FF9ABB"/>
</g>
<defs>
<radialGradient id="paint0_radial_116_5026" cx="0" cy="0" r="1" gradientUnits="userSpaceOnUse" gradientTransform="translate(112.6 146.071) scale(52.0212 51.8745)">
<stop stop-color="#F8F0F4"/>
<stop offset="0.98" stop-color="#D9D1E5"/>
</radialGradient>
<radialGradient id="paint1_radial_116_5026" cx="0" cy="0" r="1" gradientUnits="userSpaceOnUse" gradientTransform="translate(44.2117 148.908) scale(16.4716 16.4252)">
<stop stop-color="#F8F0F4"/>
<stop offset="0.98" stop-color="#D9D1E5"/>
</radialGradient>
<radialGradient id="paint2_radial_116_5026" cx="0" cy="0" r="1" gradientUnits="userSpaceOnUse" gradientTransform="translate(106.744 13.398) scale(95.4059 75.7814)">
<stop stop-color="#C5FFFF"/>
<stop offset="1"/>
</radialGradient>
<clipPath id="clip0_116_5026">
<rect width="247" height="435" fill="white" transform="translate(-30 -87)"/>
</clipPath>
</defs>
</svg>
