<svg width="222" height="266" viewBox="0 0 222 266" fill="none" xmlns="http://www.w3.org/2000/svg">
<g clip-path="url(#clip0_136_583)">
<path d="M172.188 5.69866C172.188 5.69866 169.5 6.93149 165.845 4.04713C162.189 1.16278 152.16 -3.66774 149.658 4.6054C147.157 12.8785 150.619 18.655 153.314 20.1902C156.009 21.7254 164.265 19.0349 166.573 15.7629C168.881 12.4908 175.65 8.00924 172.188 5.69866Z" fill="#263238" stroke="#263238" stroke-linecap="round" stroke-linejoin="round"/>
<path d="M180.524 282.612H83.5045L88.2908 246.822C88.2908 245.155 89.7159 213.155 88.678 204.022C87.6402 194.888 82.6603 191.151 83.9072 180.559C85.1542 169.968 107.544 131.564 107.544 131.564C107.544 131.564 115.638 116.832 123.104 110.8C130.57 104.767 137.199 103.116 142.388 103.116C147.577 103.116 180.098 121.182 183.033 128.036C185.968 134.89 174.514 238.688 174.514 238.688L180.524 282.612Z" fill="#21B9E5" stroke="#263238" stroke-linecap="round" stroke-linejoin="round"/>
<path d="M120.649 264.058C119.216 264.616 117.775 265.167 116.342 265.686" stroke="#263238" stroke-linecap="round" stroke-linejoin="round"/>
<path d="M161.34 244.899C149.047 251.566 136.413 257.583 123.491 262.926" stroke="#263238" stroke-linecap="round" stroke-linejoin="round"/>
<path d="M166.932 250.497C166.932 250.497 150.667 255.289 147.763 255.824" stroke="#263238" stroke-linecap="round" stroke-linejoin="round"/>
<path d="M129.501 216.722C131.05 217.102 132.715 217.435 134.45 217.707" stroke="#263238" stroke-linecap="round" stroke-linejoin="round"/>
<path d="M101.434 195.585C101.434 195.585 106.135 209.294 125.396 215.543" stroke="#263238" stroke-linecap="round" stroke-linejoin="round"/>
<path d="M199.684 282.612H167.156L169.782 234.33C169.782 234.33 162.734 183.257 162.943 173.705C163.152 164.152 163.563 140.279 171.648 131.145C179.734 122.011 186.363 124.089 186.363 124.089C186.363 124.089 194.248 127.191 197.152 139.659C200.056 152.126 202.124 225.817 202.124 225.817C202.124 225.817 201.923 231.632 201.714 239.316C201.512 246.155 200.01 276.146 199.684 282.612Z" fill="white" stroke="#263238" stroke-linecap="round" stroke-linejoin="round"/>
<path d="M68.7816 50.8252C68.7816 50.8252 66.9848 60.2071 66.342 64.1847C65.6991 68.1623 66.8531 69.3254 59.542 75.8772C52.2309 82.429 23.7455 110.559 14.1187 124.826C4.49194 139.093 -0.890717 146.792 0.650497 151.677C2.19171 156.562 11.6791 161.175 17.3251 162.206C22.971 163.237 41.9613 164.649 58.1325 163.873C74.3036 163.098 83.1482 161.819 83.1482 161.819L108.427 107.768C108.427 107.768 87.8958 119.329 72.7547 123.182C57.6136 127.036 48.1184 129.214 48.1184 129.214C48.1184 129.214 58.388 106.868 68.3943 96.2072C78.4006 85.546 83.791 80.4984 87.16 75.7454C90.529 70.9924 95.1139 52.3682 95.1139 52.3682L68.7816 50.8252Z" fill="white" stroke="#263238" stroke-linecap="round" stroke-linejoin="round"/>
<path d="M101.31 110.939C101.31 110.939 77.9825 125.601 67.798 135.471C57.6136 145.342 53.6792 151.607 55.5225 154.794C57.3658 157.98 67.798 164.005 67.798 164.005C67.798 164.005 70.4003 157.135 81.7387 142.574C93.0771 128.012 101.31 110.939 101.31 110.939Z" stroke="#263238" stroke-linecap="round" stroke-linejoin="round"/>
<path d="M132.738 94.7029C132.738 94.7029 121.369 95.5403 112.509 99.8978C103.649 104.255 81.0804 130.021 70.5475 150.296C60.0145 170.572 60.0533 174.542 60.0533 174.542C60.0533 174.542 64.3981 177.217 73.9242 180.567C83.4503 183.916 85.9596 184.746 87.2995 183.412C88.6393 182.079 97.662 160.151 107.196 139.728C116.73 119.305 132.405 110.094 132.405 110.094L132.738 94.7029Z" fill="white" stroke="#263238" stroke-linecap="round" stroke-linejoin="round"/>
<path d="M113.763 116.204C112.472 117.676 111.277 119.23 110.185 120.856" stroke="#263238" stroke-linecap="round" stroke-linejoin="round"/>
<path d="M130.694 105.55C130.694 105.55 123.452 106.457 115.723 114.118" stroke="#263238" stroke-linecap="round" stroke-linejoin="round"/>
<path d="M169.325 10.1882C169.325 10.1882 160.682 10.1882 154.145 14.6156C147.608 19.0429 144.146 26.3546 141.459 27.316C138.771 28.2775 128.386 26.9283 126.659 29.4328C124.931 31.9372 126.659 35.783 127.619 36.9383C128.579 38.0936 123.197 40.0397 122.624 40.5902C122.05 41.1408 121.47 43.0947 122.043 43.8623C122.616 44.6299 120.889 43.4746 119.549 44.4361C118.209 45.3975 118.774 48.4834 118.774 48.4834C118.774 48.4834 113.012 53.8645 113.585 57.5242C114.158 61.1839 118.232 65.7973 123.963 68.3018C129.695 70.8062 133.002 76.7532 132.614 87.7324C132.227 98.7115 130.887 110.094 130.887 110.094C130.887 110.094 112.052 129.912 110.704 143.388C109.357 156.864 125.884 167.781 137.997 157.391C150.11 147.001 163.95 117.948 167.985 112.366C172.02 106.783 168.364 89.4692 178.936 79.4592C189.508 69.4493 201.783 53.6784 201.009 42.1332C200.234 30.5881 191.428 11.9173 169.325 10.1882Z" fill="white" stroke="#263238" stroke-linecap="round" stroke-linejoin="round"/>
<path d="M143.403 30.2314C143.403 30.2314 142.543 33.4337 148.762 34.4184" stroke="#263238" stroke-width="2" stroke-linecap="round" stroke-linejoin="round"/>
<path d="M146.919 22.4313C146.919 22.4313 152.054 20.1517 155.314 27.5099" stroke="#263238" stroke-width="2" stroke-linecap="round" stroke-linejoin="round"/>
<path d="M150.667 73.1089C150.667 73.1089 149.119 75.6133 143.171 74.4581C139.349 73.6795 135.615 72.5184 132.026 70.9922" stroke="#263238" stroke-linecap="round" stroke-linejoin="round"/>
<path d="M221.223 61.7578C221.223 61.7578 234.792 64.4561 243.977 71.3258C253.162 78.1955 258.917 96.9128 256.384 110.001C253.852 123.089 248.113 133.006 251.559 136.914C255.006 140.822 261.418 146.342 260.52 156.926C259.621 167.51 246.045 175.325 250.413 180.652C254.781 185.979 260.295 193.996 254.092 202.967C247.888 211.938 238.958 211.434 238.958 213.993C238.958 216.551 245.387 216.063 243.783 218.133C242.18 220.203 234.366 217.443 230.455 215.807C226.543 214.171 215.949 209.341 213.191 196.935C210.434 184.529 215.035 180.373 213.191 176.698C211.348 173.023 200.8 168.649 201.249 150.932C201.698 133.215 204.92 111.389 213.881 98.4945C222.841 85.6003 223.531 69.7751 217.327 65.3788C217.327 65.3788 217.769 59.517 221.223 61.7578Z" fill="#263238" stroke="#263238" stroke-linecap="round" stroke-linejoin="round"/>
<path d="M184.835 6.5282C184.835 6.5282 170.221 0.565662 167.727 3.06233C165.233 5.559 161.19 17.3058 161.957 26.5403C162.724 35.7749 165.419 38.4732 162.731 41.5514C160.044 44.6296 156.962 49.8245 158.859 52.7089C160.756 55.5932 172.126 53.6703 173.28 56.7485C174.434 59.8267 173.659 71.5657 170.956 75.0316C168.253 78.4975 162.693 87.5382 168.068 93.5085C173.442 99.4788 182.488 101.968 193.06 98.1219C203.632 94.2761 211.167 82.5681 210.013 74.8145C208.859 67.0609 220.004 68.8519 221.158 61.3464C222.312 53.8409 222.707 47.4907 219.238 36.7131C215.768 25.9356 212.43 15.3596 184.835 6.5282Z" fill="#263238" stroke="#263238" stroke-linecap="round" stroke-linejoin="round"/>
<path d="M220.843 149.839C219.483 154.603 219.257 159.619 220.185 164.486C224.452 185.335 249.398 173.705 242.219 164.486C235.039 155.267 229.579 163.113 229.579 163.113" stroke="#828282" stroke-linecap="round" stroke-linejoin="round"/>
<path d="M238.958 90.7097C239.467 94.3065 239.53 97.9526 239.144 101.565C237.464 118.375 226.698 132.339 221.904 146.373" stroke="#828282" stroke-linecap="round" stroke-linejoin="round"/>
<path d="M206.43 144.636C205.752 148.166 205.967 151.81 207.057 155.235" stroke="#828282" stroke-linecap="round" stroke-linejoin="round"/>
<path d="M224.112 72.4421C224.112 72.4421 235.047 90.5779 224.112 109.737C217.645 121.065 211.325 130.16 208.142 138.503" stroke="#828282" stroke-linecap="round" stroke-linejoin="round"/>
<path d="M177.697 29.9446C179.068 36.5662 181.507 43.6297 185.837 47.8167C195.75 57.3924 213.176 63.2077 214.887 62.1842" stroke="#828282" stroke-linecap="round" stroke-linejoin="round"/>
<path d="M175.931 13.6077C175.977 17.1634 176.235 20.7132 176.706 24.2379" stroke="#828282" stroke-linecap="round" stroke-linejoin="round"/>
<path d="M185.217 70.8449C183.294 70.3483 181.437 69.622 179.687 68.6816" stroke="#828282" stroke-linecap="round" stroke-linejoin="round"/>
<path d="M209.42 69.364C203.583 71.2879 197.442 72.1211 191.304 71.8219" stroke="#828282" stroke-linecap="round" stroke-linejoin="round"/>
<path d="M171.377 96.1995C171.377 96.1995 174.599 96.1995 175.745 98.9598C176.891 101.72 177.581 103.333 177.581 103.333C177.581 103.333 184.706 102.643 185.852 106.318C186.998 109.993 186.774 111.381 186.774 111.381C186.774 111.381 190.91 113.707 190.91 117.824C190.91 121.942 189.074 124.027 185.852 125.873C182.63 127.718 172.531 135.068 169.542 142.434C166.552 149.8 170.688 181.536 164.949 184.986C159.21 188.437 147.26 188.662 147.26 188.662C147.26 188.662 146.795 196.935 142.923 198.555C139.05 200.176 127.534 199.703 116.962 191.887C106.39 184.071 102.03 176.473 103.633 173.022C105.237 169.572 115.584 163.361 122.221 147.722C128.858 132.083 146.795 109.319 155.988 102.868C165.181 96.4166 171.377 96.1995 171.377 96.1995Z" fill="white" stroke="#263238" stroke-linecap="round" stroke-linejoin="round"/>
<path d="M147.26 188.669L148.05 182.156" stroke="#263238" stroke-linecap="round" stroke-linejoin="round"/>
<path d="M174.823 104.248C174.823 104.248 158.288 111.381 149.095 126.33" stroke="#263238" stroke-linecap="round" stroke-linejoin="round"/>
<path d="M166.932 124.694C165.761 126.464 164.725 128.32 163.834 130.246" stroke="#263238" stroke-linecap="round" stroke-linejoin="round"/>
<path d="M184.474 111.838C184.474 111.838 175.536 113.118 168.039 123.135" stroke="#263238" stroke-linecap="round" stroke-linejoin="round"/>
<path d="M164.949 184.986C164.949 184.986 167.474 180.381 159.435 179.923C151.396 179.466 147.484 182.683 143.813 183.8C140.142 184.916 125.66 186.126 116.931 178.055C120.774 171.572 123.782 164.629 125.884 157.391C129.563 144.985 131.398 132.324 138.516 122.43" fill="white"/>
<path d="M164.949 184.986C164.949 184.986 167.474 180.381 159.435 179.923C151.396 179.466 147.484 182.683 143.813 183.8C140.142 184.916 125.66 186.126 116.931 178.055C120.774 171.572 123.782 164.629 125.884 157.391C129.563 144.985 131.398 132.324 138.516 122.43" stroke="#263238" stroke-linecap="round" stroke-linejoin="round"/>
<path d="M145.385 137.162C145.052 138.348 144.743 139.589 144.503 140.822" stroke="#263238" stroke-linecap="round" stroke-linejoin="round"/>
<path d="M148.174 129.09C148.174 129.09 147.252 131.277 146.268 134.27" stroke="#263238" stroke-linecap="round" stroke-linejoin="round"/>
<path d="M107.118 29.1383C107.118 29.1383 107.118 26.4245 108.296 25.905C108.703 25.7822 109.131 25.746 109.553 25.7986C109.975 25.8512 110.381 25.9915 110.746 26.2105C111.11 26.4295 111.425 26.7224 111.67 27.0703C111.915 27.4183 112.085 27.8137 112.168 28.2311C112.369 29.7964 112.308 31.3842 111.99 32.9298C111.99 32.9298 108.915 30.0299 107.118 29.1383Z" fill="white" stroke="#263238" stroke-linecap="round" stroke-linejoin="round"/>
<path d="M88.3759 25.1528C88.5227 24.6603 88.7959 24.215 89.1682 23.8613C89.5406 23.5076 89.9991 23.2578 90.498 23.1369C91.262 22.9658 92.0618 23.0685 92.758 23.4269C93.4543 23.7854 94.0029 24.3769 94.3085 25.0985C94.6337 26.2461 94.0916 27.1145 92.2406 27.5564C90.3896 27.9984 88.7012 27.6107 88.3217 26.8974C88.12 26.3297 88.1394 25.7068 88.3759 25.1528Z" fill="white" stroke="#263238" stroke-linecap="round" stroke-linejoin="round"/>
<path d="M81.2972 25.4785C81.444 24.986 81.7171 24.5407 82.0895 24.187C82.4619 23.8333 82.9204 23.5835 83.4193 23.4625C84.1832 23.2931 84.9824 23.3964 85.6782 23.7547C86.3741 24.1129 86.923 24.7035 87.2297 25.4242C87.555 26.5718 87.0129 27.4402 85.1619 27.8821C83.3108 28.3241 81.6225 27.9364 81.243 27.2231C81.0413 26.6554 81.0607 26.0325 81.2972 25.4785Z" fill="white" stroke="#263238" stroke-linecap="round" stroke-linejoin="round"/>
<path d="M69.8349 24.7574C69.9753 24.4228 70.2021 24.1316 70.492 23.9136C70.7819 23.6956 71.1244 23.5586 71.4846 23.5168C72.8399 23.2532 74.1798 24.0519 74.4276 24.7652C74.6754 25.4785 74.2495 26.029 72.8167 26.3159C71.3839 26.6028 70.075 26.3159 69.7807 25.8817C69.6987 25.7038 69.6608 25.5087 69.6702 25.3129C69.6797 25.1172 69.7362 24.9266 69.8349 24.7574Z" fill="white" stroke="#263238" stroke-linecap="round" stroke-linejoin="round"/>
<path d="M24.9229 39.4894L25.341 34.8372C25.341 34.8372 24.2181 31.1155 25.2713 27.8589C26.3246 24.6024 29.0199 24.6567 30.5611 24.4318C32.1023 24.207 54.051 24.0286 56.2196 25.0056C58.3881 25.9825 59.0387 25.8662 59.0387 25.8662L86.618 26.9362H89.0498C89.0498 26.9362 99.3195 26.4245 104.826 28.1458C110.333 29.8671 113.872 35.2947 113.872 35.2947H116.567L116.528 40.2105V45.1263H113.833C113.833 45.1263 110.193 50.484 104.663 52.1046C99.1336 53.7251 88.8717 53.0505 88.8717 53.0505H86.4321L58.8451 53.6553C58.8451 53.6553 58.2023 53.5312 56.0105 54.4694C53.8187 55.4076 31.8854 54.8648 30.3519 54.6167C28.8185 54.3686 26.1155 54.3376 25.1165 51.0966C24.1174 47.8556 25.3023 44.1183 25.3023 44.1183L24.9229 39.4894Z" fill="white" stroke="#263238" stroke-linecap="round" stroke-linejoin="round"/>
<path d="M24.9227 39.4893L25.341 34.8371C25.341 34.8371 24.218 31.1154 25.2712 27.8588C26.3245 24.6023 29.0197 24.6566 30.561 24.4317C30.6926 24.4317 30.9792 24.3929 31.3354 24.3774L115.444 41.2571L116.513 41.8852V45.1727H113.818C113.818 45.1727 110.178 50.5305 104.648 52.151C99.118 53.7715 88.8561 53.0969 88.8561 53.0969H86.4165L58.8295 53.7017C58.8295 53.7017 58.1867 53.5776 55.9949 54.5158C53.8031 55.454 31.8698 54.9113 30.3364 54.6631C28.8029 54.415 26.0999 54.384 25.1009 51.143C24.1018 47.902 25.2867 44.1647 25.2867 44.1647L24.9227 39.4893Z" fill="#21B9E5" stroke="#263238" stroke-linecap="round" stroke-linejoin="round"/>
<path d="M116.327 34.8229L118.38 34.8401L118.289 45.6328L116.237 45.6156L116.327 34.8229Z" fill="#21B9E5" stroke="#263238" stroke-linecap="round" stroke-linejoin="round"/>
<path d="M118.498 35.4846L121.58 35.5105L121.499 45.272L118.416 45.2461L118.498 35.4846Z" fill="white" stroke="#263238" stroke-linecap="round" stroke-linejoin="round"/>
<path d="M82.3815 81.5295C85.5879 80.4983 91.2338 73.3107 93.929 69.4571C96.6242 65.6036 97.1354 58.9199 97.1354 55.7099C97.1354 52.4999 93.0306 47.7469 93.0306 47.7469C93.0306 47.7469 91.745 43.0948 89.0498 44.7928C86.3546 46.4908 86.8735 52.624 87.5008 54.6787C88.1282 56.7334 88.6626 57.0048 88.2753 57.6328C87.8881 58.2609 84.6817 58.6641 79.6786 62.0059C74.6754 65.3477 75.4422 71.38 75.4422 71.38" fill="white"/>
<path d="M82.3815 81.5295C85.5879 80.4983 91.2338 73.3107 93.929 69.4571C96.6242 65.6036 97.1354 58.9199 97.1354 55.7099C97.1354 52.4999 93.0306 47.7469 93.0306 47.7469C93.0306 47.7469 91.745 43.0948 89.0498 44.7928C86.3546 46.4908 86.8735 52.624 87.5008 54.6787C88.1282 56.7334 88.6626 57.0048 88.2753 57.6328C87.8881 58.2609 84.6817 58.6641 79.6786 62.0059C74.6754 65.3477 75.4422 71.38 75.4422 71.38" stroke="#263238" stroke-linecap="round" stroke-linejoin="round"/>
<path d="M105.864 30.9138C105.748 33.1227 104.934 35.2377 103.54 36.9539C101.217 39.784 99.18 42.0946 97.3832 41.9628" stroke="#263238" stroke-linecap="round" stroke-linejoin="round"/>
<path d="M94.3163 28.8591C94.3163 28.8591 92.2562 36.0545 93.7974 38.7528" stroke="#263238" stroke-linecap="round" stroke-linejoin="round"/>
<path d="M87.3846 30.658C87.3846 30.658 87.253 39.784 86.099 39.5204C84.945 39.2567 86.099 32.2009 86.099 32.2009" stroke="#263238" stroke-linecap="round" stroke-linejoin="round"/>
<path d="M80.7086 27.8354C80.7086 27.8354 78.9118 32.3326 78.9118 35.5426C78.9118 38.7526 78.7879 40.2955 77.3629 40.2955" stroke="#263238" stroke-linecap="round" stroke-linejoin="round"/>
<path d="M73.5292 27.8354C73.5862 29.0884 73.4557 30.3429 73.142 31.5572C72.6308 33.356 74.5515 37.2096 74.5515 37.2096" stroke="#263238" stroke-linecap="round" stroke-linejoin="round"/>
<path d="M68.3943 27.1919C68.3943 27.1919 67.3643 36.0543 68.526 39.9079C69.6877 43.7614 69.0372 48.7703 69.0372 48.7703" stroke="#263238" stroke-linecap="round" stroke-linejoin="round"/>
<path d="M110.735 35.7986C110.735 35.7986 108.172 42.7381 106.762 45.6922C105.602 47.869 104.179 49.8949 102.526 51.7246" stroke="#263238" stroke-linecap="round" stroke-linejoin="round"/>
<path d="M28.6868 145.195C26.6933 145.674 24.6496 145.914 22.5994 145.908" stroke="#263238" stroke-linecap="round" stroke-linejoin="round"/>
<path d="M48.1185 129.183C48.1185 129.183 43.3555 138.992 33.3182 143.59" stroke="#263238" stroke-linecap="round" stroke-linejoin="round"/>
<path d="M165.29 55.9812C165.29 55.9812 172.787 51.9415 177.403 55.9812C182.018 60.0208 173.53 68.3017 166.637 70.4185C159.744 72.5352 157.22 69.6431 157.026 66.9526" fill="white"/>
<path d="M165.29 55.9812C165.29 55.9812 172.787 51.9415 177.403 55.9812C182.018 60.0208 173.53 68.3017 166.637 70.4185C159.744 72.5352 157.22 69.6431 157.026 66.9526" stroke="#263238" stroke-linecap="round" stroke-linejoin="round"/>
</g>
<defs>
<clipPath id="clip0_136_583">
<rect width="261" height="283" fill="white" transform="matrix(-1 0 0 1 261 0)"/>
</clipPath>
</defs>
</svg>
