<svg width="149" height="29" viewBox="0 0 149 29" fill="none" xmlns="http://www.w3.org/2000/svg">
<g clip-path="url(#clip0_232_841)">
<path d="M18.2119 3.66818C17.2126 3.66818 16.4553 4.26862 16.0118 5.38185L10.2627 20.1276L4.4754 5.37945C4.06202 4.27222 3.30473 3.66577 2.3066 3.66577C0.99814 3.66577 0 4.70094 0 5.9859C0.0049918 6.42978 0.0988371 6.86775 0.275588 7.27205L8.05572 26.4443C8.4691 27.5515 9.22639 28.0871 10.2558 28.0871C11.2852 28.0871 12.0112 27.5515 12.4559 26.4443L20.207 7.27446C20.3994 6.87574 20.4941 6.43399 20.4826 5.9883C20.485 5.67987 20.4276 5.37408 20.3139 5.08909C20.2001 4.8041 20.0323 4.54573 19.8204 4.32932C19.6085 4.1129 19.3568 3.94286 19.0803 3.82929C18.8038 3.71571 18.5081 3.66093 18.2108 3.66818" fill="white"/>
<path d="M50.9171 23.698C48.3361 23.698 46.5169 21.6625 46.5169 18.8068C46.5169 16.0219 48.3696 13.9516 50.9171 13.9516C53.4645 13.9516 55.2211 15.9498 55.2211 18.8428C55.2211 21.7357 53.4993 23.698 50.9171 23.698ZM57.493 0.455933C56.1509 0.455933 55.1516 1.52713 55.1516 2.92017V11.7023C53.9821 10.3813 52.192 9.59592 50.0567 9.59592C45.2722 9.59592 41.7949 13.488 41.7949 18.8428C41.7949 24.1976 45.2687 28.0897 50.0567 28.0897C52.2568 28.0897 54.0852 27.2682 55.2558 25.8404C55.2879 26.4446 55.5406 27.0134 55.9627 27.4312C56.3847 27.849 56.9443 28.0845 57.5277 28.0897C58.8362 28.0897 59.7995 27.0545 59.7995 25.6615V2.91896C59.7995 1.4899 58.8014 0.455933 57.493 0.455933Z" fill="white"/>
<path d="M70.4718 24.5553C68.9572 24.5553 68.0274 23.8048 68.0274 22.6267C68.0274 21.4486 68.8541 20.8422 70.4035 20.8422H74.0509V21.0559C74.0509 23.0554 72.5016 24.5553 70.4706 24.5553M71.331 9.5946C68.853 9.5946 66.6147 10.38 65.1685 11.773C64.549 12.3735 64.2051 13.022 64.2051 13.6945C64.2051 14.7656 65.0654 15.6591 66.2013 15.6591C66.6494 15.6591 67.0281 15.5162 67.5793 15.0875C68.5774 14.1952 69.645 13.7665 70.8493 13.7665C72.915 13.7665 74.0509 14.9086 74.0509 16.872V17.6586H69.7816C65.7891 17.6586 63.3447 19.6221 63.3447 22.7996C63.3447 25.9412 65.7196 28.0835 69.2316 28.0835C71.2626 28.0835 72.9833 27.405 74.2235 26.1909C74.3269 26.7235 74.6077 27.2014 75.0167 27.5408C75.4258 27.8803 75.9369 28.0596 76.4606 28.0475C77.7343 28.0475 78.6989 27.0484 78.6989 25.6553V17.1638C78.7 12.3447 76.0194 9.5946 71.3321 9.5946H71.331Z" fill="white"/>
<path d="M102.867 23.519H97.5992V17.5925H102.867C104.898 17.5925 106.103 18.6998 106.103 20.5563C106.103 22.449 104.898 23.519 102.867 23.519ZM100.799 8.2388C102.623 8.2388 103.759 9.23794 103.759 10.9156C103.759 12.5932 102.623 13.6296 100.799 13.6296H97.5969V8.2388H100.799ZM106.652 14.9146C107.753 13.8434 108.339 12.4155 108.339 10.6658C108.339 6.77371 105.378 4.09692 101.144 4.09692H95.4628C94.086 4.09692 93.0879 5.13209 93.0879 6.55995V25.1942C93.0879 26.6221 94.086 27.6572 95.4628 27.6572H103.209C107.609 27.6572 110.714 24.8015 110.714 20.7305C110.716 17.9144 109.202 15.8429 106.654 14.9146H106.652Z" fill="white"/>
<path d="M148.311 23.9837L144.214 18.6277L148.001 13.7041C148.552 13.0256 148.758 12.4552 148.758 11.9196C148.758 11.6146 148.701 11.3126 148.589 11.0308C148.477 10.7489 148.312 10.4928 148.104 10.2771C147.896 10.0615 147.649 9.89049 147.378 9.77399C147.106 9.65749 146.815 9.59776 146.521 9.59823C145.797 9.59823 145.178 9.92007 144.628 10.6346L141.253 15.0611L137.949 10.6346C137.467 9.9561 136.813 9.59823 136.089 9.59823C135.792 9.5941 135.498 9.65106 135.223 9.76582C134.947 9.88059 134.697 10.0509 134.486 10.2668C134.274 10.4827 134.106 10.74 133.992 11.0237C133.877 11.3074 133.818 11.6119 133.817 11.9196C133.817 12.4552 134.023 12.9187 134.574 13.7041L138.293 18.6674L134.161 23.9873C133.679 24.6298 133.438 25.2014 133.438 25.773C133.439 26.0806 133.498 26.3851 133.613 26.6687C133.728 26.9524 133.896 27.2096 134.107 27.4254C134.318 27.6412 134.569 27.8114 134.844 27.926C135.119 28.0406 135.414 28.0975 135.71 28.0932C136.434 28.0932 137.087 27.7005 137.604 27.022L141.219 22.2376L144.834 27.022C145.385 27.7005 146.004 28.0932 146.762 28.0932C147.056 28.0969 147.349 28.0394 147.622 27.9241C147.895 27.8088 148.143 27.6381 148.351 27.4219C148.56 27.2057 148.725 26.9484 148.836 26.6653C148.947 26.3821 149.002 26.0788 148.999 25.773C148.999 25.2014 148.793 24.6298 148.311 23.9873" fill="white"/>
<path d="M29.2981 3.11572C29.2981 3.11572 20.2002 15.0802 20.2002 19.8381C20.2002 24.5961 24.2738 28.4545 29.2981 28.4545C34.3223 28.4545 38.3959 24.5973 38.3959 19.8381C38.3959 15.079 29.2981 3.11572 29.2981 3.11572ZM28.5662 26.0708C25.8625 26.0708 23.5779 24.3703 22.8391 22.0382C22.7506 21.6616 22.7059 21.2753 22.706 20.8877C22.706 19.9943 23.2282 18.6877 23.953 17.3055C23.8186 17.7194 23.7433 18.1515 23.7296 18.588C23.5883 23.3688 28.5662 26.0708 32.9027 23.8719C32.2283 24.7889 31.3042 25.4749 30.2499 25.8414C29.7007 25.9936 29.1347 26.0707 28.5662 26.0708Z" fill="white"/>
<path d="M122.336 3.11572C122.336 3.11572 113.237 15.0802 113.237 19.8381C113.237 24.5961 117.311 28.4545 122.336 28.4545C127.362 28.4545 131.434 24.5973 131.434 19.8381C131.434 15.079 122.336 3.11572 122.336 3.11572ZM121.605 26.0708C118.901 26.0708 116.616 24.3703 115.876 22.0382C115.788 21.6615 115.744 21.2753 115.744 20.8877C115.744 19.9943 116.266 18.6877 116.991 17.3055C116.857 17.7194 116.782 18.1515 116.768 18.588C116.627 23.3688 121.605 26.0708 125.94 23.8719C125.266 24.7887 124.342 25.4747 123.288 25.8414C122.739 25.9936 122.173 26.0707 121.605 26.0708Z" fill="white"/>
</g>
<defs>
<clipPath id="clip0_232_841">
<rect width="149" height="28" fill="white" transform="translate(0 0.45459)"/>
</clipPath>
</defs>
</svg>
