<svg width="393" height="547" viewBox="0 0 393 547" fill="none" xmlns="http://www.w3.org/2000/svg">
<g clip-path="url(#clip0_116_6)">
<path d="M352.952 11.6591C352.952 11.6591 347.443 14.1814 339.95 8.28018C332.457 2.37897 311.898 -7.50395 306.771 9.42235C301.643 26.3486 308.739 38.1669 314.264 41.3079C319.788 44.4489 336.712 38.9442 341.442 32.2498C346.173 25.5555 360.048 16.3864 352.952 11.6591Z" fill="#263238" stroke="#263238" stroke-linecap="round" stroke-linejoin="round"/>
<path d="M370.039 578.207H171.168L180.979 504.981C180.979 501.571 183.9 436.102 181.773 417.415C179.646 398.728 169.438 391.082 171.994 369.412C174.55 347.743 220.445 269.171 220.445 269.171C220.445 269.171 237.035 239.03 252.339 226.689C267.643 214.347 281.232 210.968 291.869 210.968C302.505 210.968 369.166 247.93 375.183 261.953C381.199 275.976 357.72 488.34 357.72 488.34L370.039 578.207Z" fill="#21B9E5" stroke="#263238" stroke-linecap="round" stroke-linejoin="round"/>
<path d="M247.307 540.246C244.37 541.388 241.417 542.514 238.48 543.577" stroke="#263238" stroke-linecap="round" stroke-linejoin="round"/>
<path d="M330.716 501.047C305.518 514.688 279.621 526.999 253.133 537.929" stroke="#263238" stroke-linecap="round" stroke-linejoin="round"/>
<path d="M342.178 512.5C342.178 512.5 308.839 522.304 302.886 523.399" stroke="#263238" stroke-linecap="round" stroke-linejoin="round"/>
<path d="M265.452 443.399C268.627 444.176 272.04 444.859 275.596 445.414" stroke="#263238" stroke-linecap="round" stroke-linejoin="round"/>
<path d="M207.92 400.156C207.92 400.156 217.556 428.202 257.038 440.988" stroke="#263238" stroke-linecap="round" stroke-linejoin="round"/>
<path d="M409.315 578.207H342.638L348.02 479.425C348.02 479.425 333.573 374.933 334.002 355.389C334.431 335.845 335.272 287.002 351.846 268.314C368.42 249.627 382.009 253.879 382.009 253.879C382.009 253.879 398.17 260.224 404.123 285.732C410.077 311.241 414.315 462.007 414.315 462.007C414.315 462.007 413.903 473.905 413.474 489.625C413.061 503.617 409.981 564.977 409.315 578.207Z" fill="white" stroke="#263238" stroke-linecap="round" stroke-linejoin="round"/>
<path d="M140.989 103.985C140.989 103.985 137.306 123.18 135.988 131.318C134.671 139.456 137.036 141.835 122.05 155.24C107.063 168.644 48.6739 226.197 28.9408 255.386C9.2077 284.574 -1.8257 300.327 1.3335 310.321C4.49271 320.315 23.94 329.753 35.5132 331.863C47.0863 333.973 86.0127 336.86 119.161 335.274C152.308 333.688 170.438 331.07 170.438 331.07L222.255 220.486C222.255 220.486 180.17 244.138 149.133 252.023C118.097 259.907 98.6337 264.364 98.6337 264.364C98.6337 264.364 119.684 218.646 140.195 196.834C160.706 175.021 171.756 164.694 178.661 154.97C185.567 145.246 194.965 107.142 194.965 107.142L140.989 103.985Z" fill="white" stroke="#263238" stroke-linecap="round" stroke-linejoin="round"/>
<path d="M207.666 226.974C207.666 226.974 159.849 256.972 138.973 277.166C118.097 297.36 110.032 310.178 113.811 316.698C117.589 323.218 138.973 335.544 138.973 335.544C138.973 335.544 144.307 321.489 167.549 291.697C190.79 261.905 207.666 226.974 207.666 226.974Z" stroke="#263238" stroke-linecap="round" stroke-linejoin="round"/>
<path d="M272.088 193.756C272.088 193.756 248.783 195.469 230.622 204.385C212.46 213.3 166.199 266.014 144.609 307.497C123.018 348.98 123.098 357.102 123.098 357.102C123.098 357.102 132.004 362.575 151.53 369.428C171.057 376.281 176.201 377.978 178.947 375.25C181.694 372.521 200.188 327.659 219.731 285.875C239.274 244.091 271.405 225.245 271.405 225.245L272.088 193.756Z" fill="white" stroke="#263238" stroke-linecap="round" stroke-linejoin="round"/>
<path d="M233.193 237.746C230.546 240.757 228.096 243.936 225.859 247.264" stroke="#263238" stroke-linecap="round" stroke-linejoin="round"/>
<path d="M267.897 215.949C267.897 215.949 253.053 217.805 237.21 233.478" stroke="#263238" stroke-linecap="round" stroke-linejoin="round"/>
<path d="M347.083 20.8445C347.083 20.8445 329.366 20.8445 315.967 29.9025C302.569 38.9606 295.472 53.9198 289.964 55.8869C284.455 57.8539 263.166 55.0937 259.626 60.2176C256.086 65.3415 259.626 73.2097 261.594 75.5734C263.563 77.937 252.529 81.9188 251.355 83.0451C250.18 84.1714 248.989 88.169 250.164 89.7395C251.339 91.3099 247.799 88.9463 245.052 90.9134C242.306 92.8804 243.465 99.1941 243.465 99.1941C243.465 99.1941 231.653 110.203 232.828 117.691C234.003 125.178 242.353 134.617 254.101 139.741C265.849 144.865 272.628 157.032 271.834 179.495C271.04 201.958 268.294 225.245 268.294 225.245C268.294 225.245 229.685 265.792 226.923 293.363C224.16 320.933 258.038 343.269 282.867 322.012C307.696 300.755 336.066 241.315 344.337 229.893C352.608 218.471 345.115 183.048 366.785 162.569C388.454 142.089 413.617 109.823 412.029 86.2019C410.442 62.5812 392.392 24.382 347.083 20.8445Z" fill="white" stroke="#263238" stroke-linecap="round" stroke-linejoin="round"/>
<path d="M293.948 61.8516C293.948 61.8516 292.186 68.4032 304.934 70.4178" stroke="#263238" stroke-width="2" stroke-linecap="round" stroke-linejoin="round"/>
<path d="M301.156 45.893C301.156 45.893 311.681 41.2292 318.365 56.2836" stroke="#263238" stroke-width="2" stroke-linecap="round" stroke-linejoin="round"/>
<path d="M308.839 149.577C308.839 149.577 305.664 154.7 293.472 152.337C285.639 150.744 277.985 148.368 270.627 145.246" stroke="#263238" stroke-linecap="round" stroke-linejoin="round"/>
<path d="M378.877 13.3565C378.877 13.3565 348.92 1.15749 343.808 6.26552C338.696 11.3736 330.409 35.4067 331.981 54.3001C333.552 73.1934 339.077 78.7139 333.568 85.0117C328.06 91.3095 321.741 101.938 325.631 107.839C329.52 113.74 352.825 109.806 355.191 116.104C357.556 122.402 355.968 146.419 350.428 153.51C344.887 160.601 333.489 179.098 344.506 191.313C355.524 203.528 374.066 208.62 395.736 200.751C417.406 192.883 432.853 168.929 430.487 153.066C428.122 137.202 450.967 140.867 453.332 125.511C455.698 110.155 456.507 97.1631 449.395 75.1129C442.283 53.0627 435.441 31.4249 378.877 13.3565Z" fill="#263238" stroke="#263238" stroke-linecap="round" stroke-linejoin="round"/>
<path d="M364.244 61.2646C367.054 74.812 372.055 89.2636 380.93 97.8299C401.25 117.421 436.97 129.319 440.478 127.225" stroke="#828282" stroke-linecap="round" stroke-linejoin="round"/>
<path d="M360.625 27.8403C360.718 35.1151 361.249 42.3778 362.212 49.5891" stroke="#828282" stroke-linecap="round" stroke-linejoin="round"/>
<path d="M379.659 144.944C375.717 143.928 371.912 142.442 368.324 140.518" stroke="#828282" stroke-linecap="round" stroke-linejoin="round"/>
<path d="M429.27 141.914C417.306 145.85 404.719 147.555 392.138 146.943" stroke="#828282" stroke-linecap="round" stroke-linejoin="round"/>
<path d="M351.29 196.818C351.29 196.818 357.894 196.818 360.244 202.465C362.593 208.113 364.006 211.412 364.006 211.412C364.006 211.412 378.612 210 380.961 217.52C383.311 225.039 382.85 227.879 382.85 227.879C382.85 227.879 391.328 232.638 391.328 241.061C391.328 249.485 387.565 253.752 380.961 257.527C374.357 261.303 353.656 276.341 347.528 291.412C341.4 306.482 349.877 371.411 338.114 378.47C326.35 385.529 301.854 385.989 301.854 385.989C301.854 385.989 300.902 402.916 292.964 406.231C285.026 409.547 261.42 408.579 239.75 392.589C218.08 376.598 209.142 361.052 212.428 353.993C215.715 346.934 236.924 334.227 250.529 302.23C264.134 270.234 300.902 223.659 319.746 210.46C338.59 197.262 351.29 196.818 351.29 196.818Z" fill="white" stroke="#263238" stroke-linecap="round" stroke-linejoin="round"/>
<path d="M301.854 386.005L303.474 372.68" stroke="#263238" stroke-linecap="round" stroke-linejoin="round"/>
<path d="M358.355 213.284C358.355 213.284 324.461 227.879 305.617 258.463" stroke="#263238" stroke-linecap="round" stroke-linejoin="round"/>
<path d="M342.178 255.116C339.778 258.737 337.655 262.534 335.828 266.474" stroke="#263238" stroke-linecap="round" stroke-linejoin="round"/>
<path d="M378.135 228.814C378.135 228.814 359.815 231.432 344.448 251.928" stroke="#263238" stroke-linecap="round" stroke-linejoin="round"/>
<path d="M338.114 378.47C338.114 378.47 343.289 369.047 326.81 368.111C310.332 367.175 302.315 373.759 294.79 376.043C287.265 378.327 257.578 380.802 239.686 364.288C247.564 351.026 253.73 336.821 258.038 322.012C265.579 296.631 269.342 270.726 283.931 250.484" fill="white"/>
<path d="M338.114 378.47C338.114 378.47 343.289 369.047 326.81 368.111C310.332 367.175 302.315 373.759 294.79 376.043C287.265 378.327 257.578 380.802 239.686 364.288C247.564 351.026 253.73 336.821 258.038 322.012C265.579 296.631 269.342 270.726 283.931 250.484" stroke="#263238" stroke-linecap="round" stroke-linejoin="round"/>
<path d="M298.012 280.625C297.33 283.052 296.695 285.59 296.203 288.112" stroke="#263238" stroke-linecap="round" stroke-linejoin="round"/>
<path d="M303.728 264.111C303.728 264.111 301.838 268.584 299.822 274.707" stroke="#263238" stroke-linecap="round" stroke-linejoin="round"/>
<path d="M219.572 59.6148C219.572 59.6148 219.572 54.0626 221.985 52.9998C222.82 52.7486 223.698 52.6744 224.563 52.7821C225.427 52.8897 226.26 53.1767 227.008 53.6248C227.755 54.0729 228.4 54.6721 228.902 55.384C229.404 56.0959 229.752 56.9048 229.923 57.7588C230.334 60.9614 230.211 64.2098 229.558 67.3721C229.558 67.3721 223.255 61.4391 219.572 59.6148Z" fill="white" stroke="#263238" stroke-linecap="round" stroke-linejoin="round"/>
<path d="M181.154 51.461C181.455 50.4535 182.015 49.5424 182.778 48.8187C183.541 48.0949 184.481 47.5839 185.504 47.3365C187.07 46.9866 188.709 47.1966 190.136 47.93C191.563 48.6633 192.688 49.8735 193.314 51.35C193.981 53.6977 192.87 55.4745 189.076 56.3787C185.281 57.2829 181.821 56.4897 181.043 55.0303C180.629 53.8689 180.669 52.5945 181.154 51.461Z" fill="white" stroke="#263238" stroke-linecap="round" stroke-linejoin="round"/>
<path d="M166.644 52.1272C166.945 51.1197 167.505 50.2086 168.268 49.4849C169.031 48.7612 169.971 48.2501 170.994 48.0027C172.56 47.656 174.198 47.8675 175.624 48.6004C177.05 49.3334 178.175 50.5417 178.804 52.0162C179.471 54.364 178.36 56.1407 174.566 57.0449C170.771 57.9491 167.311 57.1559 166.533 55.6965C166.119 54.5351 166.159 53.2607 166.644 52.1272Z" fill="white" stroke="#263238" stroke-linecap="round" stroke-linejoin="round"/>
<path d="M143.148 50.6521C143.436 49.9675 143.901 49.3716 144.495 48.9256C145.089 48.4796 145.791 48.1994 146.53 48.1139C149.308 47.5746 152.054 49.2085 152.562 50.668C153.07 52.1274 152.197 53.2537 149.26 53.8407C146.323 54.4276 143.64 53.8407 143.037 52.9523C142.869 52.5883 142.791 52.1891 142.811 51.7886C142.83 51.3881 142.946 50.9983 143.148 50.6521Z" fill="white" stroke="#263238" stroke-linecap="round" stroke-linejoin="round"/>
<path d="M51.087 80.7926L51.9442 71.2745C51.9442 71.2745 49.6423 63.6601 51.8013 56.9974C53.9604 50.3348 59.485 50.4458 62.6442 49.9858C65.8035 49.5257 110.794 49.1609 115.239 51.1597C119.684 53.1585 121.018 52.9205 121.018 52.9205L177.55 55.1097H182.535C182.535 55.1097 203.586 54.0627 214.873 57.5844C226.161 61.106 233.416 72.2105 233.416 72.2105H238.94L238.861 82.2679V92.3253H233.336C233.336 92.3253 225.875 103.287 214.54 106.602C203.205 109.918 182.17 108.538 182.17 108.538H177.169L120.621 109.775C120.621 109.775 119.303 109.521 114.811 111.441C110.318 113.36 65.3589 112.25 62.2156 111.742C59.0723 111.235 53.5318 111.171 51.4839 104.54C49.4359 97.9093 51.8649 90.2631 51.8649 90.2631L51.087 80.7926Z" fill="white" stroke="#263238" stroke-linecap="round" stroke-linejoin="round"/>
<path d="M51.0869 80.7926L51.9442 71.2746C51.9442 71.2746 49.6423 63.6601 51.8013 56.9975C53.9604 50.3348 59.485 50.4459 62.6442 49.9858C62.9141 49.9858 63.5015 49.9065 64.2318 49.8748L236.638 84.4095L238.829 85.6944V92.4205H233.304C233.304 92.4205 225.843 103.382 214.508 106.698C203.173 110.013 182.138 108.633 182.138 108.633H177.137L120.589 109.87C120.589 109.87 119.272 109.617 114.779 111.536C110.286 113.455 65.3271 112.345 62.1838 111.837C59.0405 111.33 53.5 111.266 51.452 104.635C49.4041 98.0045 51.833 90.3583 51.833 90.3583L51.0869 80.7926Z" fill="#21B9E5" stroke="#263238" stroke-linecap="round" stroke-linejoin="round"/>
<path d="M238.449 71.2453L242.656 71.2805L242.47 93.3617L238.264 93.3264L238.449 71.2453Z" fill="#21B9E5" stroke="#263238" stroke-linecap="round" stroke-linejoin="round"/>
<path d="M242.898 72.5995L249.216 72.6523L249.049 92.6237L242.731 92.5708L242.898 72.5995Z" fill="white" stroke="#263238" stroke-linecap="round" stroke-linejoin="round"/>
<path d="M168.866 166.804C175.439 164.694 187.012 149.989 192.537 142.105C198.061 134.221 199.109 120.546 199.109 113.979C199.109 107.412 190.695 97.6872 190.695 97.6872C190.695 97.6872 188.06 88.1692 182.535 91.6433C177.01 95.1173 178.074 107.665 179.36 111.869C180.646 116.073 181.741 116.628 180.947 117.913C180.154 119.198 173.581 120.023 163.326 126.86C153.07 133.697 154.642 146.039 154.642 146.039" fill="white"/>
<path d="M168.866 166.804C175.439 164.694 187.012 149.989 192.537 142.105C198.061 134.221 199.109 120.546 199.109 113.979C199.109 107.412 190.695 97.6872 190.695 97.6872C190.695 97.6872 188.06 88.1692 182.535 91.6433C177.01 95.1173 178.074 107.665 179.36 111.869C180.646 116.073 181.741 116.628 180.947 117.913C180.154 119.198 173.581 120.023 163.326 126.86C153.07 133.697 154.642 146.039 154.642 146.039" stroke="#263238" stroke-linecap="round" stroke-linejoin="round"/>
<path d="M217 63.2476C216.763 67.7668 215.095 72.0938 212.238 75.6052C207.475 81.3953 203.3 86.1227 199.617 85.853" stroke="#263238" stroke-linecap="round" stroke-linejoin="round"/>
<path d="M193.33 59.0437C193.33 59.0437 189.107 73.765 192.267 79.2855" stroke="#263238" stroke-linecap="round" stroke-linejoin="round"/>
<path d="M179.122 62.7241C179.122 62.7241 178.852 81.3954 176.487 80.856C174.121 80.3167 176.487 65.8809 176.487 65.8809" stroke="#263238" stroke-linecap="round" stroke-linejoin="round"/>
<path d="M165.437 56.9497C165.437 56.9497 161.754 66.1505 161.754 72.718C161.754 79.2854 161.5 82.4423 158.579 82.4423" stroke="#263238" stroke-linecap="round" stroke-linejoin="round"/>
<path d="M150.721 56.9497C150.838 59.5132 150.57 62.0798 149.927 64.5642C148.879 68.2445 152.816 76.1286 152.816 76.1286" stroke="#263238" stroke-linecap="round" stroke-linejoin="round"/>
<path d="M140.195 55.6331C140.195 55.6331 138.084 73.765 140.465 81.6491C142.847 89.5332 141.513 99.781 141.513 99.781" stroke="#263238" stroke-linecap="round" stroke-linejoin="round"/>
<path d="M226.986 73.2415C226.986 73.2415 221.731 87.4393 218.842 93.4832C216.464 97.9367 213.547 102.082 210.158 105.825" stroke="#263238" stroke-linecap="round" stroke-linejoin="round"/>
<path d="M58.8024 297.059C54.7161 298.04 50.5271 298.53 46.3244 298.518" stroke="#263238" stroke-linecap="round" stroke-linejoin="round"/>
<path d="M98.6337 264.301C98.6337 264.301 88.8703 284.368 68.2959 293.775" stroke="#263238" stroke-linecap="round" stroke-linejoin="round"/>
<path d="M338.812 114.534C338.812 114.534 354.18 106.269 363.641 114.534C373.103 122.799 355.704 139.741 341.574 144.072C327.445 148.403 322.27 142.485 321.873 136.981" fill="white"/>
<path d="M338.812 114.534C338.812 114.534 354.18 106.269 363.641 114.534C373.103 122.799 355.704 139.741 341.574 144.072C327.445 148.403 322.27 142.485 321.873 136.981" stroke="#263238" stroke-linecap="round" stroke-linejoin="round"/>
</g>
<defs>
<clipPath id="clip0_116_6">
<rect width="535" height="579" fill="white" transform="matrix(-1 0 0 1 535 0)"/>
</clipPath>
</defs>
</svg>
