<svg width="130" height="131" viewBox="0 0 130 131" fill="none" xmlns="http://www.w3.org/2000/svg">
<g clip-path="url(#clip0_146_730)">
<path d="M99.6182 3.3024C99.6182 3.3024 98.0634 4.01683 95.9485 2.34534C93.8336 0.673837 88.0311 -2.12547 86.5838 2.66885C85.1365 7.46317 87.1394 10.8107 88.6987 11.7003C90.258 12.59 95.0344 11.0308 96.3697 9.13467C97.7049 7.23851 101.621 4.6414 99.6182 3.3024Z" fill="#263238" stroke="#263238" stroke-linecap="round" stroke-linejoin="round"/>
<path d="M104.441 163.775H48.3112L51.0802 143.034C51.0802 142.068 51.9047 123.525 51.3043 118.232C50.7039 112.939 47.8228 110.773 48.5442 104.635C49.2656 98.4971 62.2193 76.2419 62.2193 76.2419C62.2193 76.2419 66.9016 67.7047 71.221 64.2089C75.5404 60.7132 79.3759 59.7561 82.378 59.7561C85.3801 59.7561 104.195 70.2254 105.893 74.1975C107.591 78.1695 100.964 138.321 100.964 138.321L104.441 163.775Z" fill="#21B9E5" stroke="#263238" stroke-linecap="round" stroke-linejoin="round"/>
<path d="M74.922 125.592C75.8181 125.812 76.7815 126.005 77.7852 126.162" stroke="#263238" stroke-linecap="round" stroke-linejoin="round"/>
<path d="M58.6838 113.343C58.6838 113.343 61.4036 121.287 72.5471 124.908" stroke="#263238" stroke-linecap="round" stroke-linejoin="round"/>
<path d="M115.526 163.775H96.7073L98.2263 135.796C98.2263 135.796 94.1488 106.198 94.2698 100.663C94.3908 95.127 94.6283 81.2922 99.3061 75.9991C103.984 70.706 107.819 71.9102 107.819 71.9102C107.819 71.9102 112.381 73.7076 114.061 80.9327C115.741 88.1579 116.938 130.862 116.938 130.862C116.938 130.862 116.821 134.232 116.7 138.685C116.584 142.648 115.715 160.028 115.526 163.775Z" fill="white" stroke="#263238" stroke-linecap="round" stroke-linejoin="round"/>
<path d="M39.7932 29.4534C39.7932 29.4534 38.7537 34.8902 38.3818 37.1953C38.0099 39.5003 38.6775 40.1743 34.4477 43.9711C30.2179 47.768 13.7379 64.0696 8.16835 72.3372C2.59882 80.6048 -0.515278 85.0666 0.376381 87.8974C1.26804 90.7281 6.75692 93.4016 10.0234 93.9992C13.2898 94.5968 24.2765 95.4146 33.6322 94.9653C42.988 94.516 48.1049 93.7746 48.1049 93.7746L62.73 62.452C62.73 62.452 50.8516 69.1514 42.0918 71.3846C33.332 73.6178 27.8387 74.8804 27.8387 74.8804C27.8387 74.8804 33.7801 61.9308 39.5692 55.7525C45.3583 49.5742 48.4768 46.6491 50.4259 43.8948C52.3751 41.1404 55.0276 30.3475 55.0276 30.3475L39.7932 29.4534Z" fill="white" stroke="#263238" stroke-linecap="round" stroke-linejoin="round"/>
<path d="M58.6123 64.2898C58.6123 64.2898 45.1164 72.7866 39.2243 78.5065C33.3321 84.2265 31.0559 87.857 32.1223 89.7038C33.1887 91.5505 39.2243 95.0418 39.2243 95.0418C39.2243 95.0418 40.7298 91.0607 47.2895 82.6224C53.8493 74.184 58.6123 64.2898 58.6123 64.2898Z" stroke="#263238" stroke-linecap="round" stroke-linejoin="round"/>
<path d="M76.7949 54.8809C76.7949 54.8809 70.2172 55.3661 65.0913 57.8914C59.9654 60.4166 46.9086 75.3477 40.8148 87.0976C34.721 98.8476 34.7434 101.148 34.7434 101.148C34.7434 101.148 37.2571 102.698 42.7684 104.639C48.2797 106.58 49.7314 107.061 50.5066 106.288C51.2817 105.516 56.5018 92.8086 62.0175 80.9733C67.5333 69.138 76.6022 63.8 76.6022 63.8L76.7949 54.8809Z" fill="white" stroke="#263238" stroke-linecap="round" stroke-linejoin="round"/>
<path d="M65.8171 67.3408C65.0698 68.1937 64.3783 69.0943 63.747 70.0368" stroke="#263238" stroke-linecap="round" stroke-linejoin="round"/>
<path d="M75.6121 61.167C75.6121 61.167 71.4226 61.6927 66.9508 66.1321" stroke="#263238" stroke-linecap="round" stroke-linejoin="round"/>
<path d="M97.9617 5.90405C97.9617 5.90405 92.9613 5.90406 89.1795 8.46972C85.3978 11.0354 83.3949 15.2725 81.8401 15.8297C80.2853 16.3869 74.2767 15.605 73.2775 17.0564C72.2783 18.5077 73.2775 20.7363 73.8331 21.4058C74.3887 22.0753 71.2746 23.2032 70.943 23.5222C70.6115 23.8412 70.2754 24.9735 70.607 25.4183C70.9386 25.8632 69.9394 25.1937 69.1642 25.7508C68.389 26.308 68.7161 28.0963 68.7161 28.0963C68.7161 28.0963 65.3825 31.2147 65.714 33.3355C66.0456 35.4563 68.4025 38.1298 71.7182 39.5811C75.0339 41.0325 76.9472 44.4788 76.7232 50.8413C76.4991 57.2038 75.724 63.7999 75.724 63.7999C75.724 63.7999 64.8269 75.2847 64.0472 83.094C63.2676 90.9033 72.8294 97.2298 79.8372 91.2089C86.8451 85.1879 94.8521 68.3516 97.1866 65.1164C99.521 61.8813 97.4061 51.8478 103.522 46.047C109.638 40.2462 116.74 31.1068 116.292 24.4163C115.844 17.7259 110.75 6.90605 97.9617 5.90405Z" fill="white" stroke="#263238" stroke-linecap="round" stroke-linejoin="round"/>
<path d="M82.9648 17.5193C82.9648 17.5193 82.4674 19.375 86.0654 19.9457" stroke="#263238" stroke-width="2" stroke-linecap="round" stroke-linejoin="round"/>
<path d="M84.9991 12.999C84.9991 12.999 87.9698 11.678 89.8562 15.9421" stroke="#263238" stroke-width="2" stroke-linecap="round" stroke-linejoin="round"/>
<path d="M87.1677 42.367C87.1677 42.367 86.2716 43.8184 82.8304 43.1489C80.6195 42.6977 78.4594 42.0248 76.3826 41.1404" stroke="#263238" stroke-linecap="round" stroke-linejoin="round"/>
<path d="M127.987 35.789C127.987 35.789 135.837 37.3527 141.151 41.3337C146.465 45.3147 149.795 56.1615 148.329 63.7462C146.864 71.3308 143.544 77.0777 145.538 79.3423C147.532 81.6069 151.242 84.8061 150.722 90.9394C150.202 97.0728 142.348 101.602 144.875 104.689C147.402 107.776 150.592 112.422 147.003 117.621C143.414 122.819 138.248 122.527 138.248 124.01C138.248 125.493 141.967 125.21 141.039 126.409C140.112 127.609 135.591 126.009 133.328 125.061C131.065 124.113 124.936 121.314 123.34 114.125C121.745 106.936 124.407 104.527 123.34 102.397C122.274 100.267 116.171 97.7333 116.431 87.4662C116.691 77.199 118.555 64.5504 123.739 57.0781C128.923 49.6058 129.322 40.4351 125.733 37.8874C125.733 37.8874 125.989 34.4905 127.987 35.789Z" fill="#263238" stroke="#263238" stroke-linecap="round" stroke-linejoin="round"/>
<path d="M106.935 3.78317C106.935 3.78317 98.4802 0.32785 97.0374 1.77468C95.5946 3.22152 93.2557 10.0288 93.6993 15.3803C94.1429 20.7318 95.7022 22.2955 94.1474 24.0793C92.5926 25.8631 90.8092 28.8736 91.907 30.5451C93.0048 32.2166 99.5825 31.1023 100.25 32.8861C100.918 34.6699 100.47 41.4728 98.9059 43.4813C97.3421 45.4897 94.125 50.7289 97.2346 54.1887C100.344 57.6485 105.578 59.0909 111.694 56.8622C117.81 54.6336 122.17 47.8487 121.502 43.3554C120.834 38.8622 127.282 39.9001 127.95 35.5506C128.617 31.2011 128.846 27.5211 126.839 21.2755C124.831 15.0298 122.9 8.90101 106.935 3.78317Z" fill="#263238" stroke="#263238" stroke-linecap="round" stroke-linejoin="round"/>
<path d="M127.768 86.8325C126.98 89.593 126.85 92.5001 127.387 95.3203C129.856 107.403 144.288 100.663 140.134 95.3203C135.981 89.9778 132.822 94.525 132.822 94.525" stroke="#828282" stroke-linecap="round" stroke-linejoin="round"/>
<path d="M138.248 52.5669C138.542 54.6513 138.579 56.7642 138.355 58.8575C137.383 68.5989 131.155 76.6913 128.381 84.8241" stroke="#828282" stroke-linecap="round" stroke-linejoin="round"/>
<path d="M130.447 39.406C130.447 39.406 135.111 42.1873 137.352 48.734" stroke="#828282" stroke-linecap="round" stroke-linejoin="round"/>
<path d="M119.429 83.8176C119.036 85.8633 119.161 87.975 119.792 89.9599" stroke="#828282" stroke-linecap="round" stroke-linejoin="round"/>
<path d="M129.658 41.9807C129.658 41.9807 135.985 52.4905 129.658 63.5934C125.917 70.158 122.261 75.4287 120.419 80.2634" stroke="#828282" stroke-linecap="round" stroke-linejoin="round"/>
<path d="M102.805 17.353C103.598 21.1903 105.01 25.2836 107.515 27.71C113.25 33.2592 123.332 36.6292 124.322 36.0361" stroke="#828282" stroke-linecap="round" stroke-linejoin="round"/>
<path d="M101.784 7.88574C101.81 9.94631 101.96 12.0034 102.232 14.046" stroke="#828282" stroke-linecap="round" stroke-linejoin="round"/>
<path d="M107.156 41.0551C106.044 40.7673 104.969 40.3464 103.957 39.8015" stroke="#828282" stroke-linecap="round" stroke-linejoin="round"/>
<path d="M121.158 40.1968C117.782 41.3117 114.229 41.7945 110.678 41.6211" stroke="#828282" stroke-linecap="round" stroke-linejoin="round"/>
<path d="M99.1491 55.748C99.1491 55.748 101.013 55.748 101.676 57.3477C102.339 58.9473 102.738 59.8819 102.738 59.8819C102.738 59.8819 106.86 59.482 107.524 61.6118C108.187 63.7416 108.057 64.5459 108.057 64.5459C108.057 64.5459 110.449 65.8939 110.449 68.2798C110.449 70.6657 109.388 71.8744 107.524 72.9438C105.66 74.0132 99.8167 78.2728 98.0872 82.5414C96.3576 86.81 98.7503 105.201 95.4301 107.201C92.1099 109.2 85.1962 109.33 85.1962 109.33C85.1962 109.33 84.9273 114.125 82.687 115.064C80.4466 116.003 73.7838 115.729 67.6676 111.2C61.5514 106.67 59.0288 102.267 59.9563 100.267C60.8838 98.2679 66.8701 94.6688 70.71 85.6059C74.55 76.5429 84.9273 63.3507 90.2459 59.6123C95.5645 55.8739 99.1491 55.748 99.1491 55.748Z" fill="white" stroke="#263238" stroke-linecap="round" stroke-linejoin="round"/>
<path d="M85.1963 109.335L85.6533 105.561" stroke="#263238" stroke-linecap="round" stroke-linejoin="round"/>
<path d="M101.143 60.4121C101.143 60.4121 91.5767 64.5459 86.2581 73.209" stroke="#263238" stroke-linecap="round" stroke-linejoin="round"/>
<path d="M96.5771 72.2607C95.8998 73.2863 95.3006 74.3618 94.7849 75.4779" stroke="#263238" stroke-linecap="round" stroke-linejoin="round"/>
<path d="M106.726 64.811C106.726 64.811 101.555 65.5524 97.218 71.3577" stroke="#263238" stroke-linecap="round" stroke-linejoin="round"/>
<path d="M95.4303 107.2C95.4303 107.2 96.891 104.531 92.24 104.266C87.589 104.001 85.3263 105.866 83.2024 106.513C81.0786 107.16 72.6996 107.861 67.6499 103.183C69.8733 99.427 71.6137 95.4036 72.8296 91.2089C74.9579 84.0197 76.0198 76.6821 80.1376 70.9487" fill="white"/>
<path d="M95.4303 107.2C95.4303 107.2 96.891 104.531 92.24 104.266C87.589 104.001 85.3263 105.866 83.2024 106.513C81.0786 107.16 72.6996 107.861 67.6499 103.183C69.8733 99.427 71.6137 95.4036 72.8296 91.2089C74.9579 84.0197 76.0198 76.6821 80.1376 70.9487" stroke="#263238" stroke-linecap="round" stroke-linejoin="round"/>
<path d="M84.1118 79.4861C83.9191 80.1736 83.7399 80.8925 83.601 81.6069" stroke="#263238" stroke-linecap="round" stroke-linejoin="round"/>
<path d="M85.7251 74.8086C85.7251 74.8086 85.1919 76.0757 84.6228 77.8101" stroke="#263238" stroke-linecap="round" stroke-linejoin="round"/>
<path d="M61.9728 16.8857C61.9728 16.8857 61.9728 15.3131 62.6538 15.012C62.8894 14.9409 63.1371 14.9199 63.3813 14.9503C63.6254 14.9808 63.8604 15.0621 64.0714 15.1891C64.2823 15.316 64.4645 15.4857 64.6062 15.6873C64.7479 15.889 64.846 16.1181 64.8942 16.36C65.0102 17.2671 64.9754 18.1872 64.7911 19.0829C64.7911 19.0829 63.0123 17.4024 61.9728 16.8857Z" fill="white" stroke="#263238" stroke-linecap="round" stroke-linejoin="round"/>
<path d="M51.1295 14.5761C51.2144 14.2907 51.3724 14.0327 51.5878 13.8277C51.8033 13.6227 52.0685 13.4779 52.3572 13.4079C52.7992 13.3088 53.2619 13.3682 53.6647 13.5759C54.0675 13.7837 54.3849 14.1265 54.5617 14.5447C54.7499 15.2097 54.4362 15.7129 53.3653 15.969C52.2944 16.2251 51.3176 16.0005 51.0981 15.5871C50.9814 15.2581 50.9926 14.8972 51.1295 14.5761Z" fill="white" stroke="#263238" stroke-linecap="round" stroke-linejoin="round"/>
<path d="M47.034 14.7648C47.1189 14.4795 47.277 14.2214 47.4924 14.0164C47.7078 13.8114 47.9731 13.6667 48.2617 13.5966C48.7037 13.4984 49.166 13.5583 49.5686 13.7659C49.9712 13.9735 50.2887 14.3158 50.4662 14.7334C50.6544 15.3984 50.3408 15.9016 49.2699 16.1578C48.199 16.4139 47.2222 16.1892 47.0026 15.7758C46.886 15.4469 46.8972 15.0859 47.034 14.7648Z" fill="white" stroke="#263238" stroke-linecap="round" stroke-linejoin="round"/>
<path d="M40.4027 14.3469C40.4839 14.153 40.6151 13.9842 40.7828 13.8579C40.9505 13.7316 41.1487 13.6522 41.357 13.628C42.1412 13.4752 42.9163 13.938 43.0597 14.3514C43.2031 14.7648 42.9567 15.0838 42.1277 15.2501C41.2988 15.4163 40.5416 15.2501 40.3713 14.9984C40.3238 14.8953 40.3019 14.7823 40.3074 14.6688C40.3128 14.5554 40.3455 14.445 40.4027 14.3469Z" fill="white" stroke="#263238" stroke-linecap="round" stroke-linejoin="round"/>
<path d="M14.4189 22.8842L14.6609 20.1883C14.6609 20.1883 14.0112 18.0315 14.6206 16.1443C15.2299 14.2572 16.7892 14.2886 17.6809 14.1583C18.5726 14.028 31.2709 13.9247 32.5255 14.4908C33.7801 15.057 34.1565 14.9896 34.1565 14.9896L50.1123 15.6096H51.5192C51.5192 15.6096 57.4607 15.3131 60.6464 16.3106C63.8322 17.3081 65.8799 20.4534 65.8799 20.4534H67.4392L67.4168 23.3021V26.1509H65.8575C65.8575 26.1509 63.7516 29.2557 60.5524 30.1948C57.3531 31.1339 51.4162 30.743 51.4162 30.743H50.0048L34.0445 31.0935C34.0445 31.0935 33.6726 31.0216 32.4045 31.5652C31.1365 32.1089 18.4471 31.7944 17.5599 31.6506C16.6727 31.5068 15.109 31.4889 14.531 29.6107C13.953 27.7325 14.6385 25.5667 14.6385 25.5667L14.4189 22.8842Z" fill="white" stroke="#263238" stroke-linecap="round" stroke-linejoin="round"/>
<path d="M14.4188 22.8843L14.6608 20.1884C14.6608 20.1884 14.0111 18.0316 14.6204 16.1444C15.2298 14.2573 16.7891 14.2887 17.6808 14.1584C17.757 14.1584 17.9227 14.1359 18.1289 14.127L66.7894 23.9088L67.4077 24.2728V26.1779H65.8484C65.8484 26.1779 63.7425 29.2828 60.5433 30.2219C57.344 31.161 51.4071 30.77 51.4071 30.77H49.9957L34.0354 31.1205C34.0354 31.1205 33.6635 31.0486 32.3954 31.5923C31.1274 32.136 18.438 31.8215 17.5508 31.6777C16.6637 31.5339 15.0999 31.5159 14.5219 29.6377C13.9439 27.7595 14.6294 25.5938 14.6294 25.5938L14.4188 22.8843Z" fill="#21B9E5" stroke="#263238" stroke-linecap="round" stroke-linejoin="round"/>
<path d="M67.3004 20.18L68.4878 20.1899L68.4355 26.4444L67.2482 26.4344L67.3004 20.18Z" fill="#21B9E5" stroke="#263238" stroke-linecap="round" stroke-linejoin="round"/>
<path d="M68.5563 20.5636L70.3396 20.5786L70.2923 26.2354L68.5091 26.2205L68.5563 20.5636Z" fill="white" stroke="#263238" stroke-linecap="round" stroke-linejoin="round"/>
<path d="M47.6613 47.2467C49.5163 46.6491 52.7827 42.4838 54.342 40.2506C55.9013 38.0175 56.197 34.1443 56.197 32.2841C56.197 30.4239 53.8222 27.6695 53.8222 27.6695C53.8222 27.6695 53.0784 24.9735 51.5192 25.9575C49.9599 26.9416 50.2601 30.4957 50.623 31.6865C50.986 32.8772 51.2951 33.0344 51.0711 33.3984C50.8471 33.7624 48.992 33.996 46.0975 35.9326C43.203 37.8692 43.6465 41.365 43.6465 41.365" fill="white"/>
<path d="M47.6613 47.2467C49.5163 46.6491 52.7827 42.4838 54.342 40.2506C55.9013 38.0175 56.197 34.1443 56.197 32.2841C56.197 30.4239 53.8222 27.6695 53.8222 27.6695C53.8222 27.6695 53.0784 24.9735 51.5192 25.9575C49.9599 26.9416 50.2601 30.4957 50.623 31.6865C50.986 32.8772 51.2951 33.0344 51.0711 33.3984C50.8471 33.7624 48.992 33.996 46.0975 35.9326C43.203 37.8692 43.6465 41.365 43.6465 41.365" stroke="#263238" stroke-linecap="round" stroke-linejoin="round"/>
<path d="M61.2468 17.9148C61.1797 19.1949 60.709 20.4205 59.9026 21.4151C58.5584 23.0551 57.38 24.3941 56.3404 24.3177" stroke="#263238" stroke-linecap="round" stroke-linejoin="round"/>
<path d="M54.5662 16.7239C54.5662 16.7239 53.3743 20.8936 54.266 22.4573" stroke="#263238" stroke-linecap="round" stroke-linejoin="round"/>
<path d="M50.5559 17.7664C50.5559 17.7664 50.4797 23.0549 49.8121 22.9022C49.1445 22.7494 49.8121 18.6605 49.8121 18.6605" stroke="#263238" stroke-linecap="round" stroke-linejoin="round"/>
<path d="M46.6936 16.1309C46.6936 16.1309 45.6541 18.737 45.6541 20.5972C45.6541 22.4574 45.5824 23.3515 44.7579 23.3515" stroke="#263238" stroke-linecap="round" stroke-linejoin="round"/>
<path d="M42.5399 16.1309C42.5729 16.857 42.4974 17.5839 42.3159 18.2876C42.0201 19.3301 43.1313 21.5632 43.1313 21.5632" stroke="#263238" stroke-linecap="round" stroke-linejoin="round"/>
<path d="M39.5692 15.7578C39.5692 15.7578 38.9733 20.8936 39.6454 23.1268C40.3175 25.3599 39.9411 28.2626 39.9411 28.2626" stroke="#263238" stroke-linecap="round" stroke-linejoin="round"/>
<path d="M64.0652 20.7454C64.0652 20.7454 62.5821 24.7668 61.7666 26.4788C61.0953 27.7402 60.2722 28.9142 59.3156 29.9746" stroke="#263238" stroke-linecap="round" stroke-linejoin="round"/>
<path d="M16.5967 84.1411C15.4434 84.4191 14.261 84.5579 13.0748 84.5545" stroke="#263238" stroke-linecap="round" stroke-linejoin="round"/>
<path d="M27.8386 74.8625C27.8386 74.8625 25.083 80.5465 19.276 83.2111" stroke="#263238" stroke-linecap="round" stroke-linejoin="round"/>
<path d="M95.6273 32.4413C95.6273 32.4413 99.9646 30.1003 102.635 32.4413C105.306 34.7823 100.395 39.5811 96.4069 40.8078C92.4191 42.0345 90.9584 40.3585 90.8464 38.7993" fill="white"/>
<path d="M95.6273 32.4413C95.6273 32.4413 99.9646 30.1003 102.635 32.4413C105.306 34.7823 100.395 39.5811 96.4069 40.8078C92.4191 42.0345 90.9584 40.3585 90.8464 38.7993" stroke="#263238" stroke-linecap="round" stroke-linejoin="round"/>
</g>
<defs>
<clipPath id="clip0_146_730">
<rect width="151" height="164" fill="white" transform="matrix(-1 0 0 1 151 0)"/>
</clipPath>
</defs>
</svg>
