<svg width="300" height="228" viewBox="0 0 300 228" fill="none" xmlns="http://www.w3.org/2000/svg">
<g clip-path="url(#clip0_116_695)">
<path d="M292.644 82.0958H9.2251L68.0167 25.7111H233.853L292.644 82.0958Z" fill="#643C25"/>
<path d="M231.807 32.9307H70.0081C69.7745 32.9307 69.5506 32.8376 69.3855 32.6719C69.2203 32.5062 69.1276 32.2814 69.1276 32.047V32.047C69.1276 31.9309 69.1503 31.816 69.1946 31.7088C69.2388 31.6015 69.3037 31.5041 69.3855 31.4221C69.4672 31.34 69.5643 31.2749 69.6711 31.2305C69.7779 31.1861 69.8924 31.1632 70.0081 31.1632H231.807C231.923 31.1632 232.037 31.1861 232.144 31.2305C232.251 31.2749 232.348 31.34 232.43 31.4221C232.511 31.5041 232.576 31.6015 232.621 31.7088C232.665 31.816 232.688 31.9309 232.688 32.047V32.047C232.688 32.2814 232.595 32.5062 232.43 32.6719C232.265 32.8376 232.041 32.9307 231.807 32.9307V32.9307Z" fill="#845640"/>
<path d="M238.391 39.3211H63.4246C63.1911 39.3211 62.9671 39.228 62.802 39.0623C62.6368 38.8965 62.5441 38.6718 62.5441 38.4374V38.4374C62.5441 38.3213 62.5668 38.2064 62.6111 38.0992C62.6553 37.9919 62.7202 37.8945 62.802 37.8124C62.8837 37.7304 62.9808 37.6653 63.0876 37.6209C63.1945 37.5764 63.3089 37.5536 63.4246 37.5536H238.391C238.506 37.5536 238.621 37.5764 238.728 37.6209C238.834 37.6653 238.932 37.7304 239.013 37.8124C239.095 37.8945 239.16 37.9919 239.204 38.0992C239.248 38.2064 239.271 38.3213 239.271 38.4374C239.271 38.6718 239.178 38.8965 239.013 39.0623C238.848 39.228 238.624 39.3211 238.391 39.3211V39.3211Z" fill="#845640"/>
<path d="M244.974 45.7115H56.841C56.6098 45.708 56.3893 45.6133 56.2271 45.4479C56.0649 45.2826 55.974 45.0598 55.974 44.8277V44.8277C55.974 44.5957 56.0649 44.3729 56.2271 44.2076C56.3893 44.0422 56.6098 43.9475 56.841 43.944H244.974C245.205 43.9475 245.426 44.0422 245.588 44.2076C245.75 44.3729 245.841 44.5957 245.841 44.8277V44.8277C245.841 45.0598 245.75 45.2826 245.588 45.4479C245.426 45.6133 245.205 45.708 244.974 45.7115V45.7115Z" fill="#845640"/>
<path d="M251.544 52.1019H50.2709C50.0374 52.1019 49.8134 52.0088 49.6483 51.843C49.4831 51.6773 49.3904 51.4525 49.3904 51.2181V51.2181C49.3904 51.1021 49.4132 50.9871 49.4574 50.8799C49.5017 50.7727 49.5665 50.6753 49.6483 50.5932C49.73 50.5111 49.8271 50.446 49.9339 50.4016C50.0408 50.3572 50.1553 50.3344 50.2709 50.3344H251.544C251.66 50.3344 251.774 50.3572 251.881 50.4016C251.988 50.446 252.085 50.5111 252.167 50.5932C252.249 50.6753 252.314 50.7727 252.358 50.8799C252.402 50.9871 252.425 51.1021 252.425 51.2181V51.2181C252.425 51.4525 252.332 51.6773 252.167 51.843C252.002 52.0088 251.778 52.1019 251.544 52.1019V52.1019Z" fill="#845640"/>
<path d="M258.128 58.5331H43.6874C43.4539 58.5331 43.2299 58.4399 43.0648 58.2742C42.8997 58.1085 42.8069 57.8837 42.8069 57.6493V57.6493C42.8069 57.5332 42.8297 57.4183 42.8739 57.3111C42.9182 57.2039 42.983 57.1064 43.0648 57.0244C43.1465 56.9423 43.2436 56.8772 43.3504 56.8328C43.4573 56.7884 43.5718 56.7655 43.6874 56.7655H258.128C258.244 56.7655 258.358 56.7884 258.465 56.8328C258.572 56.8772 258.669 56.9423 258.751 57.0244C258.832 57.1064 258.897 57.2039 258.941 57.3111C258.986 57.4183 259.008 57.5332 259.008 57.6493C259.008 57.8837 258.916 58.1085 258.751 58.2742C258.585 58.4399 258.361 58.5331 258.128 58.5331V58.5331Z" fill="#845640"/>
<path d="M264.711 64.8825H37.1309C36.8984 64.879 36.6765 64.7848 36.5121 64.6198C36.3478 64.4548 36.2539 64.2321 36.2504 63.9988C36.2539 63.7655 36.3478 63.5427 36.5121 63.3777C36.6765 63.2127 36.8984 63.1185 37.1309 63.115H264.711C264.945 63.115 265.169 63.2081 265.334 63.3738C265.499 63.5396 265.592 63.7644 265.592 63.9988V63.9988C265.592 64.2331 265.499 64.4579 265.334 64.6237C265.169 64.7894 264.945 64.8825 264.711 64.8825V64.8825Z" fill="#845640"/>
<path d="M271.281 71.2729H30.5337C30.4181 71.2729 30.3036 71.2501 30.1968 71.2056C30.0899 71.1612 29.9929 71.0961 29.9111 71.0141C29.8293 70.932 29.7645 70.8346 29.7202 70.7273C29.676 70.6201 29.6532 70.5052 29.6532 70.3891V70.3891C29.6532 70.1548 29.746 69.93 29.9111 69.7642C30.0762 69.5985 30.3002 69.5054 30.5337 69.5054H271.281C271.515 69.5054 271.739 69.5985 271.904 69.7642C272.069 69.93 272.162 70.1548 272.162 70.3891V70.3891C272.162 70.5052 272.139 70.6201 272.095 70.7273C272.051 70.8346 271.986 70.932 271.904 71.0141C271.822 71.0961 271.725 71.1612 271.618 71.2056C271.512 71.2501 271.397 71.2729 271.281 71.2729V71.2729Z" fill="#845640"/>
<path d="M277.865 77.6633H23.9501C23.7166 77.6633 23.4926 77.5702 23.3275 77.4044C23.1623 77.2387 23.0696 77.0139 23.0696 76.7795V76.7795C23.0731 76.5462 23.167 76.3235 23.3313 76.1585C23.4957 75.9935 23.7177 75.8993 23.9501 75.8958H277.865C278.097 75.8993 278.319 75.9935 278.484 76.1585C278.648 76.3235 278.742 76.5462 278.746 76.7795V76.7795C278.746 77.0139 278.653 77.2387 278.488 77.4044C278.323 77.5702 278.099 77.6633 277.865 77.6633V77.6633Z" fill="#845640"/>
<path d="M261.257 82.0958H37.2664V214.907H261.257V82.0958Z" fill="#21B9E5"/>
<path d="M261.257 82.0958H37.2664V90.5257H261.257V82.0958Z" fill="#1E1E1E"/>
<path d="M200.745 83.7273V214.907H97.1553V83.7273L98.7673 82.0822L148.943 31.1632L199.133 82.0822L200.745 83.7273Z" fill="#21B9E5"/>
<path d="M197.507 127.481L100.379 130.037V124.925H197.507V127.481Z" fill="#1E1E1E"/>
<path d="M197.507 118.915H100.379V124.925H197.507V118.915Z" fill="#F9F0E1"/>
<path d="M261.257 186.367H37.2664V214.907H261.257V186.367Z" fill="#1E1E1E"/>
<path d="M167.055 142.437H130.845V214.907H167.055V142.437Z" fill="#3B2018"/>
<path d="M163.465 214.907V146.04H134.435V214.907H163.465Z" fill="#643C25"/>
<path d="M163.465 148.012H134.435V149.004H163.465V148.012Z" fill="#3B2018"/>
<path d="M163.465 152.24H134.435V153.233H163.465V152.24Z" fill="#3B2018"/>
<path d="M163.465 156.482H134.435V157.475H163.465V156.482Z" fill="#3B2018"/>
<path d="M163.465 160.711H134.435V161.703H163.465V160.711Z" fill="#3B2018"/>
<path d="M163.465 164.953H134.435V165.945H163.465V164.953Z" fill="#3B2018"/>
<path d="M163.465 169.182H134.435V170.174H163.465V169.182Z" fill="#3B2018"/>
<path d="M163.465 173.424H134.435V174.416H163.465V173.424Z" fill="#3B2018"/>
<path d="M163.465 177.652H134.435V178.645H163.465V177.652Z" fill="#3B2018"/>
<path d="M163.465 181.894H134.435V182.887H163.465V181.894Z" fill="#3B2018"/>
<path d="M163.465 186.123H134.435V187.115H163.465V186.123Z" fill="#3B2018"/>
<path d="M163.465 190.365H134.435V191.357H163.465V190.365Z" fill="#3B2018"/>
<path d="M163.465 194.593H134.435V195.586H163.465V194.593Z" fill="#3B2018"/>
<path d="M163.465 198.835H134.435V199.828H163.465V198.835Z" fill="#3B2018"/>
<path d="M163.465 203.064H134.435V204.057H163.465V203.064Z" fill="#3B2018"/>
<path d="M163.465 207.306H134.435V208.299H163.465V207.306Z" fill="#3B2018"/>
<path d="M163.465 211.535H134.435V212.527H163.465V211.535Z" fill="#3B2018"/>
<path d="M162.273 179.76C162.276 180.436 162.078 181.097 161.706 181.661C161.333 182.224 160.802 182.663 160.18 182.923C159.559 183.183 158.874 183.252 158.213 183.121C157.552 182.99 156.945 182.664 156.469 182.186C155.992 181.708 155.668 181.099 155.537 180.436C155.407 179.772 155.475 179.085 155.734 178.461C155.993 177.837 156.431 177.304 156.992 176.93C157.554 176.556 158.213 176.358 158.886 176.36C159.785 176.36 160.646 176.718 161.281 177.356C161.916 177.993 162.273 178.858 162.273 179.76V179.76Z" fill="#3B2018"/>
<path d="M100.393 82.0958H97.1553V214.907H100.393V82.0958Z" fill="#1E1E1E"/>
<path d="M200.745 82.0958H197.507V214.907H200.745V82.0958Z" fill="#1E1E1E"/>
<path d="M199.133 82.0822V94.3734L149.269 45.222L98.7673 95.0668V82.0822L148.943 31.1632L199.133 82.0822Z" fill="#1E1E1E"/>
<path d="M212.625 99.4177C212.057 99.4192 211.494 99.3083 210.969 99.0914C210.444 98.8744 209.966 98.5556 209.564 98.1532L149.241 37.6079L88.8918 98.1532C88.0781 98.97 86.9744 99.4288 85.8236 99.4288C84.6727 99.4288 83.5691 98.97 82.7553 98.1532C81.9415 97.3364 81.4844 96.2287 81.4844 95.0736C81.4844 93.9185 81.9415 92.8107 82.7553 91.994L146.153 28.3759C146.554 27.9713 147.031 27.6504 147.557 27.4314C148.082 27.2123 148.645 27.0996 149.214 27.0996C149.783 27.0996 150.346 27.2123 150.872 27.4314C151.397 27.6504 151.874 27.9713 152.276 28.3759L215.673 91.994C216.279 92.6032 216.691 93.3791 216.857 94.2233C217.023 95.0676 216.936 95.9424 216.607 96.7371C216.278 97.5317 215.721 98.2106 215.008 98.6877C214.294 99.1649 213.456 99.4189 212.598 99.4177H212.625Z" fill="#3B2018"/>
<path d="M16.2423 195.314C13.8714 195.326 11.5389 194.713 9.47785 193.537C7.41684 192.361 5.6995 190.662 4.49748 188.611C1.78819 183.852 -0.772098 176.374 0.23034 165.252C2.23522 143.117 16.2423 107.943 16.2423 107.943C16.2423 107.943 30.2629 143.117 32.2677 165.252C33.2702 176.333 30.7505 183.852 28.0006 188.611C26.7974 190.664 25.0779 192.364 23.0143 193.54C20.9507 194.717 18.6154 195.328 16.2423 195.314Z" fill="url(#paint0_linear_116_695)"/>
<path d="M15.6462 174.43H16.8518C17.0925 174.43 17.3234 174.526 17.4936 174.697C17.6638 174.867 17.7594 175.099 17.7594 175.341V214.92H14.7386V175.395C14.7312 175.271 14.7492 175.147 14.7914 175.03C14.8337 174.913 14.8994 174.806 14.9844 174.715C15.0695 174.625 15.1721 174.553 15.2859 174.504C15.3997 174.455 15.5223 174.429 15.6462 174.43Z" fill="#3B2018"/>
<path d="M283.771 195.314C281.398 195.328 279.063 194.717 276.999 193.54C274.936 192.364 273.216 190.664 272.013 188.611C269.304 183.852 266.757 176.374 267.759 165.252C269.751 143.117 283.771 107.943 283.771 107.943C283.771 107.943 297.778 143.117 299.783 165.252C300.786 176.333 298.28 183.852 295.516 188.611C294.314 190.662 292.597 192.361 290.536 193.537C288.475 194.713 286.142 195.326 283.771 195.314Z" fill="url(#paint1_linear_116_695)"/>
<path d="M283.121 174.43H284.327C284.567 174.43 284.798 174.526 284.968 174.697C285.139 174.867 285.234 175.099 285.234 175.341V214.92H282.227V175.395C282.22 175.272 282.237 175.149 282.279 175.033C282.32 174.917 282.385 174.811 282.468 174.72C282.552 174.63 282.653 174.558 282.765 174.508C282.877 174.458 282.998 174.431 283.121 174.43Z" fill="#3B2018"/>
<path d="M298.293 214.906H2.83118V221.446H298.293V214.906Z" fill="#3B2018"/>
<path d="M298.293 221.46H2.83118V228H298.293V221.46Z" fill="url(#paint2_linear_116_695)"/>
<path d="M82.3625 106.855H53.3459V152.634H82.3625V106.855Z" fill="#3B2018"/>
<path d="M82.3625 152.635H53.3459V155.272H82.3625V152.635Z" fill="#1E1E1E"/>
<path d="M80.1002 150.377V109.126H55.6082V150.377H80.1002Z" fill="#F9F0E1"/>
<path d="M81.3736 120.424H54.389V123.144H81.3736V120.424Z" fill="#3B2018"/>
<path d="M69.2089 108.446H66.4996V151.628H69.2089V108.446Z" fill="#3B2018"/>
<path d="M247.413 106.855H218.396V152.634H247.413V106.855Z" fill="#3B2018"/>
<path d="M247.413 152.635H218.396V155.272H247.413V152.635Z" fill="#1E1E1E"/>
<path d="M245.137 150.377V109.126H220.645V150.377H245.137Z" fill="#F9F0E1"/>
<path d="M246.41 120.424H219.426V123.144H246.41V120.424Z" fill="#3B2018"/>
<path d="M234.259 108.446H231.55V151.628H234.259V108.446Z" fill="#3B2018"/>
<path d="M171.105 110.811H126.822V103.728C126.822 100.807 127.395 97.9153 128.509 95.2173C129.623 92.5193 131.256 90.0681 133.314 88.0036C135.372 85.9392 137.815 84.302 140.504 83.1856C143.193 82.0692 146.074 81.4955 148.984 81.4973V81.4973C154.858 81.4973 160.492 83.8394 164.645 88.0084C168.799 92.1774 171.133 97.8318 171.133 103.728L171.105 110.811Z" fill="#3B2018"/>
<path d="M171.105 110.812H126.795V113.449H171.105V110.812Z" fill="#1E1E1E"/>
<path d="M129.531 108.133V103.728C129.463 101.118 129.916 98.5204 130.863 96.0889C131.811 93.6574 133.235 91.441 135.05 89.5706C136.865 87.7002 139.035 86.2136 141.431 85.1985C143.828 84.1835 146.403 83.6605 149.004 83.6605C151.606 83.6605 154.181 84.1835 156.577 85.1985C158.974 86.2136 161.144 87.7002 162.959 89.5706C164.774 91.441 166.197 93.6574 167.145 96.0889C168.093 98.5204 168.546 101.118 168.477 103.728V108.133H129.531Z" fill="#F9F0E1"/>
<path d="M150.298 81.4973H147.589V109.52H150.298V81.4973Z" fill="#3B2018"/>
<path d="M168.437 94.7949H129.477V97.5142H168.437V94.7949Z" fill="#3B2018"/>
<path d="M125.549 192.5H43.0642V198.128H125.549V192.5Z" fill="#EADBC5"/>
<path d="M53.3595 214.907H43.0642V180.317L48.2119 174.43L53.3595 180.317V214.907Z" fill="#F9F0E1"/>
<path d="M71.715 214.907H61.4197V180.317L66.5673 174.43L71.715 180.317V214.907Z" fill="#F9F0E1"/>
<path d="M90.084 214.907H79.7887V180.317L84.9364 174.43L90.084 180.317V214.907Z" fill="#F9F0E1"/>
<path d="M108.439 214.907H98.1442V180.317L103.292 174.43L108.439 180.317V214.907Z" fill="#F9F0E1"/>
<path d="M126.795 214.907H116.5V180.317L121.647 174.43L126.795 180.317V214.907Z" fill="#F9F0E1"/>
<path d="M255.026 192.5H172.541V198.128H255.026V192.5Z" fill="#EADBC5"/>
<path d="M182.837 214.907H172.541V180.317L177.689 174.43L182.837 180.317V214.907Z" fill="#F9F0E1"/>
<path d="M201.192 214.907H190.897V180.317L196.044 174.43L201.192 180.317V214.907Z" fill="#F9F0E1"/>
<path d="M219.548 214.907H209.266V180.317L214.413 174.43L219.548 180.317V214.907Z" fill="#F9F0E1"/>
<path d="M237.917 214.907H227.621V180.317L232.769 174.43L237.917 180.317V214.907Z" fill="#F9F0E1"/>
<path d="M256.272 214.907H245.977V180.317L251.124 174.43L256.272 180.317V214.907Z" fill="#F9F0E1"/>
<path d="M115.037 144.504H101.829V149.235H115.037V144.504Z" fill="#1E1E1E"/>
<path d="M128.244 149.235H115.037V153.967H128.244V149.235Z" fill="#1E1E1E"/>
<path d="M239.258 159.324H226.05V164.056H239.258V159.324Z" fill="#1E1E1E"/>
<path d="M252.465 164.056H239.258V168.787H252.465V164.056Z" fill="#1E1E1E"/>
<path d="M58.5207 164.056H71.7285V159.324H58.5207V164.056Z" fill="#1E1E1E"/>
<path d="M45.2994 168.787H58.5072V164.056H45.2994V168.787Z" fill="#1E1E1E"/>
<path d="M54.389 99.6897H67.5968V94.9581H54.389V99.6897Z" fill="#1E1E1E"/>
<path d="M41.1677 104.421H54.3755V99.6897H41.1677V104.421Z" fill="#1E1E1E"/>
<path d="M181.631 135.639H194.839V130.907H181.631V135.639Z" fill="#1E1E1E"/>
<path d="M168.437 140.37H181.645V135.639H168.437V140.37Z" fill="#1E1E1E"/>
<path d="M148.943 66.5414H162.151V61.8098H148.943V66.5414Z" fill="#1E1E1E"/>
<path d="M135.749 71.2729H148.957V66.5414H135.749V71.2729Z" fill="#1E1E1E"/>
<path d="M116.486 4.09253H87.1309V25.711H116.486V4.09253Z" fill="#21B9E5"/>
<path d="M116.473 9.84387V12.3048L87.1309 15.9759V9.84387H116.473Z" fill="#1E1E1E"/>
<path d="M118.748 0H84.2861V9.84388H118.748V0Z" fill="#3B2018"/>
</g>
<defs>
<linearGradient id="paint0_linear_116_695" x1="15.9171" y1="163.389" x2="6.09165" y2="-37.3733" gradientUnits="userSpaceOnUse">
<stop stop-color="#595B29"/>
<stop offset="1" stop-color="#A3984C"/>
</linearGradient>
<linearGradient id="paint1_linear_116_695" x1="283.446" y1="163.389" x2="273.621" y2="-37.3733" gradientUnits="userSpaceOnUse">
<stop stop-color="#595B29"/>
<stop offset="1" stop-color="#A3984C"/>
</linearGradient>
<linearGradient id="paint2_linear_116_695" x1="150.921" y1="231.535" x2="147.182" y2="161.773" gradientUnits="userSpaceOnUse">
<stop stop-color="#595B29"/>
<stop offset="1" stop-color="#A3984C"/>
</linearGradient>
<clipPath id="clip0_116_695">
<rect width="300" height="228" fill="white"/>
</clipPath>
</defs>
</svg>
