<svg width="19" height="19" viewBox="0 0 19 19" fill="none" xmlns="http://www.w3.org/2000/svg">
<path d="M13.0225 7.70459C13.0225 6.71003 12.6274 5.7562 11.9241 5.05294C11.2208 4.34968 10.267 3.95459 9.27246 3.95459C8.2779 3.95459 7.32407 4.34968 6.62081 5.05294C5.91755 5.7562 5.52246 6.71003 5.52246 7.70459C5.52246 8.99909 6.76746 11.4778 9.27246 14.9443C11.7775 11.4778 13.0225 8.99909 13.0225 7.70459ZM9.27246 17.4546C5.77221 12.8871 4.02246 9.63734 4.02246 7.70459C4.02246 6.3122 4.57558 4.97685 5.56015 3.99228C6.54472 3.00771 7.88007 2.45459 9.27246 2.45459C10.6648 2.45459 12.0002 3.00771 12.9848 3.99228C13.9693 4.97685 14.5225 6.3122 14.5225 7.70459C14.5225 9.63734 12.7727 12.8871 9.27246 17.4546ZM9.27246 10.7046C8.47681 10.7046 7.71375 10.3885 7.15114 9.82591C6.58853 9.2633 6.27246 8.50024 6.27246 7.70459C6.27246 6.90894 6.58853 6.14588 7.15114 5.58327C7.71375 5.02066 8.47681 4.70459 9.27246 4.70459C10.0681 4.70459 10.8312 5.02066 11.3938 5.58327C11.9564 6.14588 12.2725 6.90894 12.2725 7.70459C12.2725 8.50024 11.9564 9.2633 11.3938 9.82591C10.8312 10.3885 10.0681 10.7046 9.27246 10.7046ZM9.27246 9.20459C9.67029 9.20459 10.0518 9.04655 10.3331 8.76525C10.6144 8.48394 10.7725 8.10241 10.7725 7.70459C10.7725 7.30676 10.6144 6.92523 10.3331 6.64393C10.0518 6.36262 9.67029 6.20459 9.27246 6.20459C8.87464 6.20459 8.49311 6.36262 8.2118 6.64393C7.9305 6.92523 7.77246 7.30676 7.77246 7.70459C7.77246 8.10241 7.9305 8.48394 8.2118 8.76525C8.49311 9.04655 8.87464 9.20459 9.27246 9.20459Z" fill="white"/>
</svg>
