<svg width="292" height="470" viewBox="0 0 292 470" fill="none" xmlns="http://www.w3.org/2000/svg">
<g clip-path="url(#clip0_116_292)">
<path d="M292.051 365.355C292.152 370.34 291.386 375.303 289.787 380.025C288.5 383.371 286.853 385.172 285 385.172H282.426L280.316 379.356L278.978 375.804C277.537 368.757 277.537 361.491 278.978 354.443L282.426 345.075H285C288.809 345.281 292.051 354.34 292.051 365.355Z" fill="#A7ACC2"/>
<path d="M282.375 345.281H279.853L276.404 354.649C274.963 361.697 274.963 368.963 276.404 376.01L279.853 385.378H282.375C286.287 385.378 289.478 376.422 289.478 365.355C289.478 354.289 286.287 345.281 282.375 345.281Z" fill="#21B9E5"/>
<path d="M286.904 365.355C286.904 376.422 283.713 385.378 279.801 385.378C275.889 385.378 272.75 376.422 272.75 365.355C272.75 354.289 275.941 345.281 279.801 345.281C283.662 345.281 286.904 354.34 286.904 365.355Z" fill="#A4AEC9"/>
<path d="M279.853 345.95H278.875V347.082C278.85 347.201 278.85 347.324 278.875 347.443C278.85 347.596 278.85 347.753 278.875 347.906V348.936H279.801C280.367 348.936 280.831 348.266 280.831 347.443C280.831 346.619 280.419 345.95 279.853 345.95Z" fill="#21B9E5"/>
<path d="M279.956 347.443C279.956 348.266 279.492 348.936 278.926 348.936C278.36 348.936 277.948 348.266 277.948 347.443C277.948 346.619 278.412 345.95 278.926 345.95C279.441 345.95 279.956 346.619 279.956 347.443Z" fill="#C8CEDF"/>
<path d="M284.485 354.34H283.456V355.473V355.781C283.456 355.781 283.456 356.09 283.456 356.245V357.274H284.382C284.897 357.274 285.309 356.554 285.257 355.73C285.206 354.906 285 354.34 284.485 354.34Z" fill="#21B9E5"/>
<path d="M284.639 355.781C284.639 356.605 284.279 357.326 283.713 357.326C283.147 357.326 282.684 356.708 282.632 355.936C282.581 355.164 282.992 354.392 283.559 354.34C284.125 354.289 284.588 354.958 284.639 355.781Z" fill="#C8CEDF"/>
<path d="M284.588 373.334H283.61V374.466V374.929C283.61 374.929 283.61 375.238 283.61 375.393V376.422H284.537C285.051 376.422 285.463 375.702 285.412 374.878C285.36 374.054 285.154 373.282 284.588 373.334Z" fill="#21B9E5"/>
<path d="M284.742 374.929C284.742 375.753 284.434 376.422 283.867 376.474C283.301 376.525 282.838 375.856 282.787 375.032C282.735 374.209 283.147 373.488 283.713 373.488C284.279 373.488 284.742 374.003 284.742 374.929Z" fill="#C8CEDF"/>
<path d="M279.853 381.158H278.875V382.341C278.851 382.443 278.851 382.549 278.875 382.65C278.85 382.804 278.85 382.96 278.875 383.114V384.143H279.801C280.367 384.143 280.831 383.474 280.831 382.65C280.831 381.827 280.419 381.158 279.853 381.158Z" fill="#21B9E5"/>
<path d="M279.956 382.65C279.956 383.474 279.492 384.143 278.926 384.143C278.36 384.143 277.948 383.474 277.948 382.65C277.948 381.827 278.412 381.158 278.926 381.158C279.441 381.158 279.956 381.827 279.956 382.65Z" fill="#C8CEDF"/>
<path d="M285.411 363.863H284.382V364.995C284.354 365.114 284.354 365.237 284.382 365.355C284.382 365.355 284.382 365.664 284.382 365.767V366.848H285.309C285.823 366.848 286.287 366.179 286.287 365.355C286.287 364.532 285.926 363.863 285.411 363.863Z" fill="#21B9E5"/>
<path d="M285.463 365.355C285.463 366.179 285 366.848 284.485 366.848C283.97 366.848 283.456 366.179 283.456 365.355C283.456 364.532 283.919 363.863 284.485 363.863C285.051 363.863 285.463 364.635 285.463 365.355Z" fill="#C8CEDF"/>
<path d="M196.88 457.286C196.88 462.433 177.475 467.221 149.989 469.074C141.548 469.691 132.334 470 122.657 470C81.4799 470 48.4351 464.286 48.4351 457.286C48.3859 457.014 48.3859 456.735 48.4351 456.463L59.9647 398.453L62.8472 383.937C62.8472 386.253 89.561 388.106 122.503 388.106C131.511 388.106 140.055 388.106 147.724 387.746C168.056 387.077 182.159 385.636 182.159 383.937L185.041 398.453L196.571 456.463C196.726 456.715 196.831 456.994 196.88 457.286Z" fill="#59637C"/>
<path d="M241.403 111.542V308.323C241.44 325.825 235.699 342.85 225.07 356.755C214.441 370.66 199.52 380.667 182.622 385.224C175.905 387.009 168.984 387.909 162.033 387.901H83.2815C72.8268 387.935 62.4688 385.899 52.8046 381.91C43.1404 377.922 34.3613 372.06 26.9735 364.663C19.5856 357.265 13.7352 348.478 9.75942 338.809C5.78368 329.139 3.76132 318.778 3.80893 308.323V109.689C4.29508 80.4285 16.2607 52.5312 37.126 32.0121C57.9913 11.493 86.0847 -0.00400699 115.349 3.15812e-05H129.761C159.024 -0.00400699 187.118 11.493 207.983 32.0121C228.848 52.5312 240.814 80.4285 241.3 109.689L241.403 111.542Z" fill="#41D4FF"/>
<path opacity="0.2" d="M241.403 112.057V308.838C241.403 326.307 235.644 343.289 225.018 357.153C214.391 371.018 199.49 380.993 182.622 385.533C175.905 387.315 168.983 388.214 162.033 388.209H83.2816C65.3152 388.195 47.8874 382.074 33.858 370.851C19.8286 359.627 10.0312 343.967 6.07373 326.442C18.2154 333.561 32.0441 337.294 46.1189 337.251H124.871C131.821 337.256 138.742 336.356 145.46 334.575V334.575C162.323 330.027 177.22 320.05 187.845 306.187C198.47 292.324 204.232 275.346 204.24 257.88V60.9441C204.256 48.0464 202.027 35.2444 197.652 23.1114C211.316 33.5535 222.376 47.0177 229.967 62.4491C237.557 77.8804 241.472 94.8597 241.403 112.057V112.057Z" fill="#21B9E5"/>
<path d="M241.403 110.873H240.888C232.983 108.35 224.844 106.625 216.594 105.726C154.136 99.2742 91.1794 99.2742 28.7214 105.726C20.4715 106.625 12.3326 108.35 4.42666 110.873C4.24761 110.938 4.05736 110.967 3.86698 110.958C3.6766 110.95 3.48985 110.903 3.31752 110.822C3.14519 110.741 2.99077 110.626 2.86309 110.484C2.7354 110.343 2.63708 110.178 2.57374 109.998C2.49983 109.823 2.46263 109.634 2.46442 109.444C2.4662 109.254 2.50692 109.067 2.58411 108.893C2.6613 108.719 2.77333 108.563 2.91319 108.434C3.05306 108.306 3.21782 108.207 3.39731 108.145C11.4251 105.617 19.6838 103.893 28.0522 102.997C90.9711 96.4774 154.396 96.4774 217.314 102.997C225.681 103.903 233.939 105.627 241.969 108.145C242.319 108.303 242.597 108.586 242.749 108.938C242.901 109.29 242.917 109.686 242.793 110.049C242.665 110.305 242.466 110.519 242.219 110.665C241.973 110.811 241.689 110.883 241.403 110.873V110.873Z" fill="#59637C"/>
<path d="M241.403 292.83C241.234 292.873 241.057 292.873 240.888 292.83C232.957 290.469 224.824 288.85 216.594 287.991C154.136 281.54 91.1792 281.54 28.7213 287.991C20.4908 288.85 12.3578 290.469 4.42652 292.83C4.24668 292.921 4.04975 292.973 3.84847 292.983C3.64718 292.993 3.44608 292.961 3.25801 292.889C3.06993 292.816 2.89909 292.705 2.75661 292.563C2.61413 292.42 2.50317 292.249 2.43082 292.061C2.35847 291.873 2.32634 291.672 2.33658 291.471C2.34681 291.269 2.39914 291.072 2.4902 290.893C2.58126 290.713 2.7091 290.554 2.86531 290.427C3.02151 290.299 3.20272 290.206 3.39718 290.153C11.4162 287.592 19.6783 285.868 28.0521 285.006C90.9675 278.418 154.399 278.418 217.314 285.006C225.687 285.877 233.948 287.602 241.969 290.153C242.315 290.302 242.591 290.575 242.744 290.919C242.897 291.262 242.914 291.651 242.793 292.006C242.665 292.262 242.465 292.476 242.219 292.622C241.973 292.768 241.689 292.84 241.403 292.83V292.83Z" fill="#59637C"/>
<path opacity="0.2" d="M241.403 112.057V113.189H240.888C232.974 110.753 224.835 109.115 216.594 108.299C154.136 101.848 91.1793 101.848 28.7214 108.299C20.4803 109.115 12.3416 110.753 4.42662 113.189H3.91187V110.152C11.8101 107.882 19.8854 106.281 28.0522 105.365C90.9711 98.8452 154.396 98.8452 217.314 105.365C225.465 106.277 233.523 107.878 241.403 110.152V112.057Z" fill="#59637C"/>
<path opacity="0.2" d="M241.403 292.161V295.146C241.234 295.19 241.057 295.19 240.888 295.146C232.957 292.786 224.824 291.166 216.594 290.308C154.136 283.856 91.1793 283.856 28.7214 290.308C20.4909 291.166 12.3579 292.786 4.42662 295.146C4.25849 295.195 4.07999 295.195 3.91187 295.146V292.161C11.7996 289.847 19.8786 288.245 28.0522 287.374C90.9676 280.785 154.399 280.785 217.314 287.374C225.471 288.248 233.532 289.85 241.403 292.161V292.161Z" fill="#59637C"/>
<path opacity="0.25" d="M196.726 456.463L185.196 398.453L182.622 385.533C175.904 387.315 168.983 388.214 162.033 388.209H83.2815C76.3315 388.214 69.4105 387.315 62.6927 385.533L60.1191 398.453C67.6325 400.71 75.4362 401.855 83.2815 401.85H92.0318C107.076 401.858 121.523 407.736 132.299 418.234C143.075 428.731 149.329 443.019 149.732 458.058V469.074C177.218 467.22 196.623 462.639 196.623 457.286C196.706 457.02 196.741 456.741 196.726 456.463V456.463Z" fill="#50B6DD"/>
<path d="M137.945 64.5471C137.945 67.6012 137.039 70.5868 135.342 73.1262C133.646 75.6656 131.234 77.6448 128.412 78.8136C125.591 79.9823 122.486 80.2881 119.491 79.6923C116.495 79.0965 113.744 77.6258 111.584 75.4662C109.425 73.3066 107.954 70.5552 107.358 67.5597C106.762 64.5643 107.068 61.4595 108.237 58.6378C109.406 55.8162 111.385 53.4045 113.924 51.7077C116.464 50.0109 119.449 49.1052 122.503 49.1052C126.598 49.1052 130.526 50.7321 133.422 53.628C136.318 56.524 137.945 60.4517 137.945 64.5471V64.5471Z" fill="#DAEDF7"/>
<path d="M130.533 64.5472C130.533 66.1048 130.071 67.6274 129.206 68.9225C128.34 70.2176 127.11 71.227 125.671 71.8231C124.232 72.4192 122.649 72.5751 121.121 72.2713C119.594 71.9674 118.19 71.2173 117.089 70.1159C115.988 69.0145 115.238 67.6113 114.934 66.0836C114.63 64.5559 114.786 62.9725 115.382 61.5334C115.978 60.0944 116.987 58.8644 118.282 57.9991C119.578 57.1337 121.1 56.6718 122.658 56.6718C123.694 56.665 124.721 56.864 125.679 57.2573C126.638 57.6507 127.509 58.2305 128.241 58.9632C128.974 59.6958 129.554 60.5668 129.947 61.5254C130.341 62.4839 130.54 63.511 130.533 64.5472V64.5472Z" fill="#5E899D"/>
<path d="M123.944 51.5759C123.944 51.8304 123.869 52.0793 123.728 52.2909C123.586 52.5025 123.385 52.6674 123.15 52.7648C122.915 52.8622 122.656 52.8877 122.407 52.8381C122.157 52.7884 121.928 52.6659 121.748 52.4859C121.568 52.3059 121.445 52.0766 121.396 51.827C121.346 51.5774 121.371 51.3187 121.469 51.0835C121.566 50.8484 121.731 50.6474 121.943 50.506C122.154 50.3646 122.403 50.2891 122.658 50.2891C122.999 50.2891 123.326 50.4247 123.568 50.666C123.809 50.9073 123.944 51.2346 123.944 51.5759Z" fill="#5E899D"/>
<path d="M113.496 56.6718C114.206 56.6718 114.782 56.0957 114.782 55.385C114.782 54.6743 114.206 54.0981 113.496 54.0981C112.785 54.0981 112.209 54.6743 112.209 55.385C112.209 56.0957 112.785 56.6718 113.496 56.6718Z" fill="#5E899D"/>
<path d="M109.687 63.2603C109.941 63.2603 110.19 63.3358 110.401 63.4772C110.613 63.6186 110.778 63.8195 110.875 64.0547C110.973 64.2898 110.998 64.5486 110.949 64.7982C110.899 65.0479 110.776 65.2771 110.596 65.457C110.416 65.637 110.187 65.7596 109.938 65.8092C109.688 65.8589 109.429 65.8334 109.194 65.736C108.959 65.6386 108.758 65.4737 108.617 65.2621C108.475 65.0505 108.4 64.8016 108.4 64.5471C108.4 64.2059 108.535 63.8786 108.777 63.6372C109.018 63.3959 109.345 63.2603 109.687 63.2603Z" fill="#5E899D"/>
<path d="M113.496 74.9962C114.206 74.9962 114.782 74.42 114.782 73.7093C114.782 72.9986 114.206 72.4225 113.496 72.4225C112.785 72.4225 112.209 72.9986 112.209 73.7093C112.209 74.42 112.785 74.9962 113.496 74.9962Z" fill="#5E899D"/>
<path d="M121.371 77.5184C121.371 77.2638 121.446 77.015 121.588 76.8034C121.729 76.5918 121.93 76.4269 122.165 76.3295C122.4 76.2321 122.659 76.2066 122.908 76.2563C123.158 76.3059 123.387 76.4285 123.567 76.6085C123.747 76.7884 123.87 77.0177 123.92 77.2673C123.969 77.517 123.944 77.7757 123.846 78.0108C123.749 78.2459 123.584 78.4469 123.372 78.5883C123.161 78.7297 122.912 78.8052 122.657 78.8052C122.316 78.8052 121.989 78.6696 121.748 78.4283C121.506 78.1869 121.371 77.8596 121.371 77.5184Z" fill="#5E899D"/>
<path d="M131.871 74.9962C132.582 74.9962 133.158 74.42 133.158 73.7093C133.158 72.9986 132.582 72.4225 131.871 72.4225C131.16 72.4225 130.584 72.9986 130.584 73.7093C130.584 74.42 131.16 74.9962 131.871 74.9962Z" fill="#5E899D"/>
<path d="M135.628 66.0913C135.374 66.0913 135.125 66.0159 134.914 65.8745C134.702 65.7331 134.537 65.5321 134.44 65.297C134.342 65.0618 134.317 64.8031 134.366 64.5535C134.416 64.3039 134.539 64.0746 134.719 63.8946C134.899 63.7146 135.128 63.5921 135.377 63.5424C135.627 63.4928 135.886 63.5182 136.121 63.6156C136.356 63.713 136.557 63.878 136.698 64.0896C136.84 64.3013 136.915 64.55 136.915 64.8045C136.915 65.1458 136.78 65.4731 136.538 65.7144C136.297 65.9557 135.97 66.0913 135.628 66.0913Z" fill="#5E899D"/>
<path d="M131.871 56.6718C132.582 56.6718 133.158 56.0957 133.158 55.385C133.158 54.6743 132.582 54.0981 131.871 54.0981C131.16 54.0981 130.584 54.6743 130.584 55.385C130.584 56.0957 131.16 56.6718 131.871 56.6718Z" fill="#5E899D"/>
<path d="M126.003 64.5471V191.222C126.003 192.11 125.651 192.961 125.023 193.588C124.396 194.215 123.545 194.568 122.658 194.568C121.77 194.568 120.919 194.215 120.292 193.588C119.664 192.961 119.312 192.11 119.312 191.222V64.5471C119.312 63.6598 119.664 62.8088 120.292 62.1814C120.919 61.5539 121.77 61.2014 122.658 61.2014C123.545 61.2014 124.396 61.5539 125.023 62.1814C125.651 62.8088 126.003 63.6598 126.003 64.5471V64.5471Z" fill="#A3D3EA"/>
<path d="M181.799 191.222V255.049C181.827 255.271 181.827 255.496 181.799 255.718C181.655 256.472 181.252 257.152 180.66 257.641C180.068 258.129 179.324 258.396 178.556 258.394H66.8621C66.0944 258.396 65.3502 258.129 64.7581 257.641C64.1661 257.152 63.7633 256.472 63.6193 255.718C63.5908 255.496 63.5908 255.271 63.6193 255.049V191.222C63.6193 190.335 63.9719 189.484 64.5993 188.856C65.2268 188.229 66.0776 187.876 66.9649 187.876C67.8523 187.876 68.7033 188.229 69.3307 188.856C69.9582 189.484 70.3107 190.335 70.3107 191.222V251.703H175.21V191.222C175.21 190.335 175.563 189.484 176.19 188.856C176.818 188.229 177.669 187.876 178.556 187.876C179.443 187.876 180.294 188.229 180.922 188.856C181.549 189.484 181.902 190.335 181.902 191.222H181.799Z" fill="#A3D3EA"/>
<path d="M70.2077 255.049C70.2351 255.271 70.2351 255.496 70.2077 255.718C70.0529 256.476 69.64 257.157 69.0393 257.645C68.4386 258.134 67.6875 258.398 66.9135 258.395H28.8242V350.634C28.8317 351.335 28.6154 352.02 28.2066 352.59C27.8924 353.019 27.4819 353.368 27.0081 353.61C26.5342 353.851 26.0103 353.978 25.4786 353.98C24.5954 353.967 23.7521 353.61 23.1276 352.985C22.503 352.361 22.1462 351.517 22.1329 350.634V255.049C22.1462 254.166 22.503 253.322 23.1276 252.698C23.7521 252.073 24.5954 251.716 25.4786 251.703H66.9135C67.7919 251.717 68.6297 252.075 69.246 252.701C69.8624 253.327 70.2078 254.17 70.2077 255.049V255.049Z" fill="#A3D3EA"/>
<path d="M223.234 255.049V350.634C223.234 351.521 222.881 352.373 222.254 353C221.626 353.627 220.775 353.98 219.888 353.98V353.98C219.01 353.966 218.172 353.608 217.555 352.982C216.939 352.356 216.594 351.513 216.594 350.634V258.395H178.505C177.731 258.398 176.979 258.134 176.379 257.645C175.778 257.157 175.365 256.476 175.21 255.718C175.183 255.496 175.183 255.271 175.21 255.049C175.21 254.161 175.563 253.31 176.19 252.683C176.818 252.056 177.669 251.703 178.556 251.703H219.991C220.86 251.73 221.685 252.094 222.29 252.719C222.896 253.343 223.234 254.179 223.234 255.049V255.049Z" fill="#A3D3EA"/>
<path opacity="0.5" d="M219.991 260.093V353.98C219.112 353.966 218.275 353.608 217.658 352.982C217.042 352.356 216.696 351.513 216.697 350.634V258.395H28.7728V350.634C28.7803 351.335 28.5639 352.02 28.1552 352.59H25.8904V260.093C25.8904 258.933 26.3513 257.82 27.1718 256.999C27.9923 256.179 29.1052 255.718 30.2655 255.718H215.564C216.729 255.718 217.848 256.177 218.676 256.996C219.505 257.815 219.977 258.928 219.991 260.093V260.093Z" fill="#72A6CB"/>
<path d="M282.838 365.355C282.852 368.128 282.663 370.898 282.272 373.643V373.643V374.209C282.272 374.209 282.272 374.209 282.272 374.518V374.929V376.165V376.731V377.246C282.272 377.709 281.963 378.069 281.809 378.43V378.738L281.448 379.202C281.355 379.333 281.232 379.439 281.088 379.511H0V350.119H279.389C280.573 350.119 281.603 352.539 282.22 356.245C282.69 359.258 282.897 362.306 282.838 365.355Z" fill="#50B6DD"/>
<path d="M181.799 191.222C181.799 192.11 181.446 192.961 180.819 193.588C180.191 194.215 179.34 194.568 178.453 194.568H151.636C151.832 193.842 151.97 193.102 152.048 192.355C152.048 191.994 152.048 191.583 152.048 191.222C152.042 190.091 151.886 188.966 151.585 187.876H178.402C178.845 187.87 179.286 187.951 179.698 188.116C180.11 188.281 180.485 188.527 180.801 188.838C181.117 189.149 181.368 189.521 181.539 189.93C181.71 190.339 181.799 190.778 181.799 191.222Z" fill="#A3D3EA"/>
<path d="M152.099 191.222C152.09 192.353 151.934 193.477 151.636 194.568C151.121 196.112 150.349 197.142 149.423 197.142H147.261V194.774C146.92 193.691 146.746 192.563 146.746 191.428C146.742 190.293 146.916 189.164 147.261 188.082V185.509H149.423C150.349 185.509 151.121 186.538 151.636 188.082C151.92 189.106 152.076 190.16 152.099 191.222V191.222Z" fill="#5E899D"/>
<path d="M149.938 191.222C149.954 192.355 149.797 193.483 149.474 194.568C148.96 196.112 148.188 197.142 147.261 197.142C146.335 197.142 145.511 196.112 145.048 194.568C144.725 193.483 144.569 192.355 144.585 191.222C144.565 190.09 144.722 188.961 145.048 187.877C145.511 186.332 146.335 185.303 147.261 185.303C148.188 185.303 148.96 186.332 149.474 187.877C149.801 188.961 149.957 190.09 149.938 191.222V191.222Z" fill="#DAEDF7"/>
<path d="M148.393 191.222C148.42 191.599 148.42 191.978 148.393 192.355C148.393 193.641 147.827 194.568 147.312 194.568H97.0759C96.862 193.844 96.7071 193.104 96.6126 192.355C96.6126 191.994 96.6126 191.582 96.6126 191.222C96.6083 190.087 96.782 188.958 97.1274 187.876H147.364C147.93 187.876 148.393 189.627 148.393 191.222Z" fill="#A3D3EA"/>
<path d="M104.076 191.222C104.076 191.583 104.076 191.994 104.076 192.355C103.998 193.102 103.86 193.842 103.664 194.568C103.15 196.112 102.326 197.142 101.4 197.142H99.2892V194.774V194.105C99.076 193.229 98.9723 192.33 98.9803 191.428C98.9592 190.22 99.1509 189.018 99.5466 187.877V185.509H101.605C102.841 185.303 104.076 187.928 104.076 191.222Z" fill="#5E899D"/>
<path d="M101.914 191.222C101.905 192.353 101.749 193.477 101.451 194.568C100.936 196.112 100.113 197.142 99.2377 197.142C98.3627 197.142 97.4876 196.112 97.0243 194.568C96.683 193.486 96.5095 192.357 96.5097 191.222C96.5054 190.087 96.6789 188.958 97.0243 187.877C97.4876 186.332 98.3112 185.303 99.2377 185.303C100.164 185.303 100.936 186.332 101.451 187.877C101.752 188.966 101.908 190.091 101.914 191.222V191.222Z" fill="#DAEDF7"/>
<path d="M99.4437 191.222C99.4437 191.634 99.4437 191.994 99.4437 192.355C99.3774 192.775 99.274 193.188 99.1348 193.59C99.1348 194.208 98.6716 194.568 98.3628 194.568H66.5532C65.7385 194.458 64.9899 194.06 64.4425 193.446C63.8951 192.833 63.5849 192.044 63.5677 191.222C63.5677 190.335 63.9203 189.484 64.5478 188.856C65.1752 188.229 66.0262 187.876 66.9135 187.876H98.3628C98.929 187.876 99.4437 189.627 99.4437 191.222Z" fill="#A3D3EA"/>
<path d="M148.342 192.355C148.342 193.641 147.776 194.568 147.261 194.568H103.613C103.809 193.842 103.947 193.102 104.025 192.355H148.342Z" fill="#72A6CB"/>
<path d="M177.784 194.774V252.012H66.5016V194.774C66.5533 194.169 66.8308 193.605 67.279 193.195C67.7272 192.785 68.3133 192.558 68.9208 192.561H99.3922C99.3259 192.981 99.2226 193.394 99.0834 193.796C99.0834 194.413 98.62 194.774 98.3112 194.774H70.2076V251.909H175.107V194.774H151.636C151.832 194.048 151.97 193.308 152.048 192.561H175.313C175.93 192.545 176.528 192.766 176.988 193.177C177.447 193.588 177.732 194.16 177.784 194.774V194.774Z" fill="#72A6CB"/>
<path d="M126.003 64.5471V188.082H123.996V61.4588C124.6 61.7151 125.114 62.1459 125.471 62.6961C125.829 63.2464 126.014 63.8909 126.003 64.5471V64.5471Z" fill="#72A6CB"/>
<path d="M70.0143 244.115L60.8807 263.595L62.8847 264.535L72.0182 245.054L70.0143 244.115Z" fill="#B06B5D"/>
<path d="M57.3586 248.995L56.4193 250.999L75.9012 260.129L76.8405 258.125L57.3586 248.995Z" fill="#B06B5D"/>
<path d="M66.5017 266.836C64.0483 266.836 61.6499 266.109 59.61 264.745C57.57 263.382 55.9802 261.445 55.0413 259.178C54.1024 256.912 53.8568 254.417 54.3354 252.011C54.814 249.605 55.9954 247.394 57.7302 245.659C59.465 243.925 61.6754 242.743 64.0817 242.264C66.488 241.786 68.9821 242.031 71.2488 242.97C73.5155 243.909 75.4528 245.499 76.8159 247.539C78.1789 249.579 78.9064 251.978 78.9064 254.431C78.9064 256.06 78.5856 257.673 77.9622 259.178C77.3388 260.683 76.4251 262.051 75.2732 263.203C74.1213 264.355 72.7538 265.268 71.2488 265.892C69.7438 266.515 68.1307 266.836 66.5017 266.836V266.836ZM66.5017 245.372C64.71 245.372 62.9586 245.903 61.4689 246.899C59.9791 247.894 58.818 249.309 58.1323 250.964C57.4467 252.62 57.2673 254.441 57.6168 256.198C57.9663 257.956 58.8291 259.57 60.096 260.837C61.3629 262.104 62.9771 262.967 64.7344 263.316C66.4917 263.666 68.3131 263.486 69.9684 262.801C71.6238 262.115 73.0386 260.954 74.034 259.464C75.0294 257.974 75.5608 256.223 75.5608 254.431C75.5676 253.237 75.3382 252.054 74.886 250.948C74.4338 249.843 73.7677 248.839 72.9258 247.992C72.0839 247.145 71.0828 246.473 69.9804 246.015C68.8779 245.556 67.6957 245.32 66.5017 245.32V245.372Z" fill="#EB8E7C"/>
<path d="M68.8695 254.38C68.8695 254.848 68.7305 255.306 68.4703 255.695C68.2102 256.084 67.8405 256.388 67.4079 256.567C66.9752 256.746 66.4991 256.793 66.0399 256.702C65.5806 256.61 65.1586 256.385 64.8275 256.054C64.4964 255.723 64.2709 255.301 64.1796 254.842C64.0882 254.382 64.135 253.906 64.3142 253.473C64.4934 253.041 64.7969 252.671 65.1863 252.411C65.5757 252.151 66.0334 252.012 66.5017 252.012C66.8145 252.005 67.1256 252.061 67.416 252.178C67.7065 252.294 67.9703 252.468 68.1915 252.69C68.4128 252.911 68.587 253.175 68.7035 253.465C68.82 253.756 68.8765 254.067 68.8695 254.38V254.38Z" fill="#A4AEC9"/>
<path d="M67.8399 254.38C67.8399 254.735 67.699 255.075 67.448 255.326C67.197 255.577 66.8565 255.718 66.5016 255.718C66.1467 255.718 65.8063 255.577 65.5554 255.326C65.3044 255.075 65.1635 254.735 65.1635 254.38C65.1635 254.025 65.3044 253.684 65.5554 253.433C65.8063 253.182 66.1467 253.041 66.5016 253.041C66.6774 253.041 66.8515 253.076 67.0139 253.143C67.1762 253.21 67.3237 253.309 67.448 253.433C67.5723 253.558 67.6707 253.705 67.738 253.867C67.8052 254.03 67.8399 254.204 67.8399 254.38V254.38Z" fill="#C8CEDF"/>
<path d="M182.832 244.317L173.699 263.798L175.703 264.738L184.836 245.257L182.832 244.317Z" fill="#B06B5D"/>
<path d="M170.004 248.983L169.065 250.987L188.547 260.118L189.486 258.114L170.004 248.983Z" fill="#B06B5D"/>
<path d="M179.122 266.836C176.669 266.836 174.27 266.109 172.231 264.745C170.191 263.382 168.601 261.445 167.662 259.178C166.723 256.912 166.477 254.417 166.956 252.011C167.435 249.605 168.616 247.394 170.351 245.659C172.086 243.925 174.296 242.743 176.702 242.264C179.109 241.786 181.603 242.031 183.869 242.97C186.136 243.909 188.073 245.499 189.436 247.539C190.799 249.579 191.527 251.978 191.527 254.431C191.527 257.721 190.22 260.876 187.894 263.203C185.567 265.529 182.412 266.836 179.122 266.836V266.836ZM179.122 245.372C177.333 245.382 175.586 245.922 174.103 246.924C172.62 247.925 171.467 249.344 170.79 251C170.112 252.656 169.94 254.476 170.295 256.23C170.65 257.984 171.517 259.593 172.786 260.855C174.055 262.117 175.669 262.974 177.425 263.32C179.181 263.665 181 263.483 182.652 262.796C184.305 262.109 185.716 260.947 186.71 259.459C187.703 257.97 188.233 256.221 188.233 254.431C188.24 253.233 188.009 252.045 187.553 250.937C187.098 249.828 186.427 248.821 185.58 247.974C184.732 247.126 183.725 246.455 182.617 246C181.508 245.544 180.321 245.314 179.122 245.32V245.372Z" fill="#EB8E7C"/>
<path d="M181.541 254.38C181.552 254.86 181.418 255.333 181.159 255.737C180.899 256.142 180.525 256.46 180.084 256.651C179.643 256.842 179.155 256.897 178.682 256.81C178.21 256.722 177.774 256.496 177.43 256.16C177.087 255.824 176.851 255.393 176.754 254.922C176.656 254.452 176.701 253.963 176.883 253.518C177.064 253.072 177.374 252.692 177.773 252.423C178.172 252.155 178.641 252.012 179.122 252.012C179.437 252.005 179.751 252.061 180.044 252.177C180.337 252.293 180.604 252.466 180.83 252.687C181.055 252.907 181.234 253.171 181.356 253.461C181.478 253.752 181.541 254.064 181.541 254.38V254.38Z" fill="#A4AEC9"/>
<path d="M180.46 254.38C180.468 254.557 180.438 254.734 180.373 254.9C180.309 255.066 180.21 255.216 180.085 255.342C179.959 255.468 179.808 255.566 179.643 255.631C179.477 255.695 179.3 255.725 179.122 255.718C178.767 255.718 178.427 255.577 178.176 255.326C177.925 255.075 177.784 254.735 177.784 254.38C177.784 254.025 177.925 253.684 178.176 253.433C178.427 253.182 178.767 253.041 179.122 253.041C179.3 253.034 179.477 253.064 179.643 253.128C179.808 253.193 179.959 253.291 180.085 253.417C180.21 253.543 180.309 253.693 180.373 253.859C180.438 254.025 180.468 254.202 180.46 254.38Z" fill="#C8CEDF"/>
<path d="M125.504 182.687L118.015 198.675L119.693 199.461L127.182 183.473L125.504 182.687Z" fill="#B06B5D"/>
<path d="M114.912 186.451L114.126 188.129L130.113 195.618L130.899 193.94L114.912 186.451Z" fill="#B06B5D"/>
<path d="M122.657 201.414C120.621 201.414 118.631 200.81 116.938 199.679C115.245 198.548 113.926 196.94 113.147 195.059C112.368 193.178 112.164 191.108 112.561 189.111C112.958 187.114 113.939 185.28 115.378 183.84C116.818 182.4 118.652 181.42 120.649 181.022C122.646 180.625 124.716 180.829 126.597 181.608C128.478 182.387 130.086 183.707 131.217 185.4C132.348 187.093 132.952 189.083 132.952 191.119C132.952 193.85 131.867 196.468 129.937 198.399C128.006 200.329 125.388 201.414 122.657 201.414ZM122.657 183.759C121.181 183.759 119.738 184.196 118.511 185.016C117.284 185.837 116.327 187.002 115.762 188.366C115.197 189.73 115.049 191.23 115.337 192.678C115.625 194.126 116.336 195.456 117.38 196.5C118.424 197.544 119.754 198.254 121.201 198.542C122.649 198.83 124.15 198.683 125.514 198.118C126.877 197.553 128.043 196.596 128.863 195.369C129.683 194.141 130.121 192.698 130.121 191.222C130.121 189.243 129.335 187.344 127.935 185.945C126.535 184.545 124.637 183.759 122.657 183.759V183.759Z" fill="#EB8E7C"/>
<path d="M124.613 191.222C124.613 191.609 124.499 191.987 124.284 192.309C124.069 192.631 123.763 192.881 123.406 193.029C123.049 193.177 122.655 193.216 122.276 193.141C121.897 193.065 121.548 192.879 121.274 192.605C121.001 192.332 120.815 191.983 120.739 191.604C120.664 191.224 120.702 190.831 120.85 190.474C120.999 190.116 121.249 189.811 121.571 189.596C121.892 189.381 122.271 189.266 122.658 189.266C123.176 189.266 123.674 189.472 124.041 189.839C124.407 190.206 124.613 190.703 124.613 191.222V191.222Z" fill="#A4AEC9"/>
<path d="M122.709 192.355C123.334 192.355 123.841 191.848 123.841 191.222C123.841 190.597 123.334 190.09 122.709 190.09C122.084 190.09 121.577 190.597 121.577 191.222C121.577 191.848 122.084 192.355 122.709 192.355Z" fill="#C8CEDF"/>
</g>
<defs>
<clipPath id="clip0_116_292">
<rect width="292" height="470" fill="white"/>
</clipPath>
</defs>
</svg>
