<svg width="184" height="291" viewBox="0 0 184 291" fill="none" xmlns="http://www.w3.org/2000/svg">
<g clip-path="url(#clip0_116_292)">
<path d="M184.032 225.096C184.096 228.235 183.613 231.361 182.605 234.335C181.794 236.442 180.757 237.577 179.589 237.577H177.967L176.637 233.914L175.794 231.677C174.886 227.238 174.886 222.662 175.794 218.224L177.967 212.324H179.589C181.989 212.454 184.032 218.159 184.032 225.096Z" fill="#A7ACC2"/>
<path d="M177.935 212.453H176.345L174.172 218.353C173.264 222.792 173.264 227.368 174.172 231.806L176.345 237.706H177.935C180.4 237.706 182.411 232.066 182.411 225.096C182.411 218.126 180.4 212.453 177.935 212.453Z" fill="#21B9E5"/>
<path d="M180.789 225.096C180.789 232.066 178.778 237.706 176.313 237.706C173.848 237.706 171.87 232.066 171.87 225.096C171.87 218.126 173.88 212.453 176.313 212.453C178.746 212.453 180.789 218.159 180.789 225.096Z" fill="#A4AEC9"/>
<path d="M176.346 212.875H175.729V213.588C175.714 213.663 175.714 213.74 175.729 213.815C175.714 213.912 175.714 214.01 175.729 214.107V214.755H176.313C176.67 214.755 176.962 214.334 176.962 213.815C176.962 213.296 176.702 212.875 176.346 212.875Z" fill="#21B9E5"/>
<path d="M176.41 213.815C176.41 214.334 176.118 214.755 175.762 214.755C175.405 214.755 175.145 214.334 175.145 213.815C175.145 213.296 175.437 212.875 175.762 212.875C176.086 212.875 176.41 213.296 176.41 213.815Z" fill="#C8CEDF"/>
<path d="M179.265 218.159H178.616V218.872V219.067C178.616 219.067 178.616 219.261 178.616 219.358V220.007H179.2C179.524 220.007 179.784 219.553 179.751 219.034C179.719 218.516 179.589 218.159 179.265 218.159Z" fill="#21B9E5"/>
<path d="M179.362 219.067C179.362 219.585 179.135 220.039 178.778 220.039C178.421 220.039 178.129 219.65 178.097 219.164C178.065 218.678 178.324 218.191 178.681 218.159C179.038 218.127 179.329 218.548 179.362 219.067Z" fill="#C8CEDF"/>
<path d="M179.329 230.121H178.713V230.834V231.126C178.713 231.126 178.713 231.32 178.713 231.417V232.066H179.297C179.621 232.066 179.881 231.612 179.848 231.093C179.816 230.575 179.686 230.088 179.329 230.121Z" fill="#21B9E5"/>
<path d="M179.427 231.126C179.427 231.644 179.232 232.066 178.875 232.098C178.519 232.131 178.227 231.709 178.194 231.191C178.162 230.672 178.421 230.218 178.778 230.218C179.135 230.218 179.427 230.542 179.427 231.126Z" fill="#C8CEDF"/>
<path d="M176.346 235.048H175.729V235.794C175.714 235.858 175.714 235.924 175.729 235.988C175.714 236.085 175.714 236.183 175.729 236.28V236.928H176.313C176.67 236.928 176.962 236.507 176.962 235.988C176.962 235.47 176.702 235.048 176.346 235.048Z" fill="#21B9E5"/>
<path d="M176.41 235.988C176.41 236.507 176.118 236.928 175.762 236.928C175.405 236.928 175.145 236.507 175.145 235.988C175.145 235.47 175.437 235.048 175.762 235.048C176.086 235.048 176.41 235.47 176.41 235.988Z" fill="#C8CEDF"/>
<path d="M179.848 224.156H179.2V224.869C179.182 224.944 179.182 225.022 179.2 225.096C179.2 225.096 179.2 225.291 179.2 225.356V226.036H179.784C180.108 226.036 180.4 225.615 180.4 225.096C180.4 224.578 180.173 224.156 179.848 224.156Z" fill="#21B9E5"/>
<path d="M179.881 225.096C179.881 225.615 179.589 226.036 179.265 226.036C178.94 226.036 178.616 225.615 178.616 225.096C178.616 224.578 178.908 224.156 179.265 224.156C179.621 224.156 179.881 224.642 179.881 225.096Z" fill="#C8CEDF"/>
<path d="M124.061 282.993C124.061 286.235 111.834 289.25 94.5136 290.417C89.1944 290.806 83.3887 291 77.291 291C51.3435 291 30.5207 287.402 30.5207 282.993C30.4897 282.821 30.4897 282.646 30.5207 282.474L37.786 245.94L39.6023 236.799C39.6023 238.257 56.4357 239.424 77.1937 239.424C82.8697 239.424 88.2538 239.425 93.0865 239.198C105.898 238.776 114.785 237.868 114.785 236.799L116.601 245.94L123.867 282.474C123.964 282.633 124.03 282.809 124.061 282.993Z" fill="#59637C"/>
<path d="M152.117 65.2477V189.178C152.14 200.201 148.522 210.922 141.825 219.68C135.128 228.437 125.725 234.739 115.077 237.609C110.844 238.733 106.483 239.3 102.103 239.295H52.4788C45.8909 239.316 39.3639 238.034 33.2742 235.522C27.1844 233.011 21.6524 229.319 16.997 224.66C12.3417 220.001 8.65506 214.467 6.1498 208.377C3.64454 202.288 2.37018 195.762 2.40018 189.178V64.0807C2.70652 45.6528 10.2465 28.0834 23.3945 15.1608C36.5425 2.23812 54.2452 -5.00254 72.6854 -5H81.767C100.207 -5.00254 117.91 2.23812 131.058 15.1608C144.206 28.0834 151.746 45.6528 152.052 64.0807L152.117 65.2477Z" fill="#41D4FF"/>
<path opacity="0.2" d="M152.117 65.5718V189.502C152.117 200.504 148.488 211.199 141.792 219.931C135.096 228.663 125.706 234.944 115.077 237.804C110.844 238.926 106.483 239.492 102.103 239.489H52.4788C41.1575 239.48 30.1756 235.625 21.3352 228.557C12.4947 221.488 6.32103 211.626 3.82727 200.589C11.4782 205.072 20.1921 207.423 29.0612 207.396H78.6857C83.0651 207.399 87.4263 206.833 91.6594 205.711V205.711C102.286 202.847 111.673 196.563 118.368 187.833C125.063 179.102 128.694 168.41 128.699 157.409V33.3817C128.709 25.2589 127.305 17.1964 124.548 9.55518C133.158 16.1315 140.127 24.6111 144.91 34.3296C149.693 44.048 152.16 54.7413 152.117 65.5718V65.5718Z" fill="#21B9E5"/>
<path d="M152.117 64.8262H151.793C146.811 63.2372 141.682 62.1512 136.484 61.5845C97.1266 57.5216 57.4555 57.5216 18.0984 61.5845C12.8998 62.1512 7.7712 63.2372 2.78938 64.8262C2.67655 64.8674 2.55667 64.8857 2.4367 64.8802C2.31674 64.8747 2.19906 64.8455 2.09046 64.7942C1.98187 64.743 1.88457 64.6707 1.80411 64.5816C1.72365 64.4925 1.6617 64.3884 1.62179 64.2752C1.57521 64.1649 1.55177 64.0462 1.5529 63.9265C1.55402 63.8068 1.57968 63.6887 1.62832 63.5793C1.67696 63.4699 1.74755 63.3716 1.83569 63.2906C1.92382 63.2096 2.02764 63.1475 2.14075 63.1081C7.19936 61.5165 12.4035 60.4306 17.6767 59.8664C57.3243 55.7602 97.2903 55.7602 136.938 59.8664C142.21 60.4366 147.414 61.5224 152.474 63.1081C152.694 63.2079 152.869 63.3861 152.965 63.6078C153.061 63.8295 153.071 64.0789 152.993 64.3076C152.912 64.4689 152.786 64.6036 152.631 64.6956C152.476 64.7875 152.297 64.8329 152.117 64.8262V64.8262Z" fill="#59637C"/>
<path d="M152.117 179.421C152.011 179.448 151.899 179.448 151.793 179.421C146.795 177.934 141.67 176.914 136.484 176.373C97.1266 172.31 57.4554 172.31 18.0983 176.373C12.912 176.914 7.78708 177.934 2.78931 179.421C2.67599 179.478 2.5519 179.511 2.42506 179.517C2.29822 179.524 2.1715 179.503 2.05299 179.458C1.93448 179.412 1.82682 179.342 1.73704 179.252C1.64726 179.163 1.57734 179.055 1.53175 178.936C1.48616 178.818 1.46591 178.691 1.47236 178.565C1.47881 178.438 1.51178 178.314 1.56917 178.201C1.62655 178.087 1.7071 177.987 1.80554 177.907C1.90397 177.827 2.01816 177.768 2.14069 177.735C7.19377 176.122 12.4 175.036 17.6767 174.493C57.322 170.344 97.2925 170.344 136.938 174.493C142.213 175.042 147.419 176.128 152.474 177.735C152.691 177.828 152.866 178 152.962 178.217C153.058 178.433 153.069 178.678 152.993 178.902C152.912 179.063 152.786 179.198 152.631 179.29C152.476 179.382 152.297 179.427 152.117 179.421V179.421Z" fill="#59637C"/>
<path opacity="0.2" d="M152.117 65.5718V66.285H151.793C146.805 64.7509 141.677 63.7193 136.484 63.2054C97.1266 59.1424 57.4554 59.1424 18.0983 63.2054C12.9054 63.7193 7.77685 64.7509 2.78933 66.285H2.46497V64.3724C7.44191 62.9426 12.5305 61.9342 17.6767 61.3576C57.3242 57.2514 97.2903 57.2514 136.938 61.3576C142.074 61.9317 147.152 62.9402 152.117 64.3724V65.5718Z" fill="#59637C"/>
<path opacity="0.2" d="M152.117 178.999V180.879C152.011 180.907 151.899 180.907 151.793 180.879C146.795 179.393 141.67 178.373 136.484 177.832C97.1266 173.769 57.4554 173.769 18.0983 177.832C12.9121 178.373 7.7871 179.393 2.78933 180.879C2.68338 180.91 2.57091 180.91 2.46497 180.879V178.999C7.43529 177.542 12.5262 176.533 17.6767 175.984C57.322 171.835 97.2925 171.835 136.938 175.984C142.077 176.535 147.157 177.544 152.117 178.999V178.999Z" fill="#59637C"/>
<path opacity="0.25" d="M123.964 282.474L116.699 245.94L115.077 237.804C110.844 238.926 106.483 239.492 102.103 239.489H52.4788C48.0993 239.492 43.7381 238.926 39.505 237.804L37.8833 245.94C42.6178 247.362 47.5351 248.083 52.4788 248.08H57.9926C67.4724 248.085 76.5759 251.787 83.3663 258.398C90.1567 265.009 94.098 274.008 94.3515 283.479V290.416C111.671 289.249 123.899 286.364 123.899 282.993C123.952 282.825 123.974 282.65 123.964 282.474V282.474Z" fill="#50B6DD"/>
<path d="M86.924 35.651C86.924 37.5745 86.3534 39.4547 85.2842 41.054C84.215 42.6533 82.6953 43.8998 80.9173 44.6358C79.1393 45.3719 77.183 45.5645 75.2955 45.1893C73.408 44.814 71.6742 43.8878 70.3134 42.5277C68.9526 41.1676 68.0259 39.4348 67.6504 37.5483C67.275 35.6618 67.4677 33.7064 68.2041 31.9294C68.9406 30.1524 70.1877 28.6335 71.7878 27.5649C73.388 26.4963 75.2693 25.9259 77.1937 25.9259C79.7744 25.9259 82.2494 26.9505 84.0742 28.7743C85.8989 30.5981 86.924 33.0718 86.924 35.651V35.651Z" fill="#DAEDF7"/>
<path d="M82.2535 35.651C82.2535 36.6319 81.9625 37.5908 81.4172 38.4065C80.8719 39.2221 80.0969 39.8578 79.1901 40.2332C78.2833 40.6086 77.2855 40.7069 76.3229 40.5155C75.3603 40.3241 74.476 39.8517 73.782 39.1581C73.088 38.4644 72.6154 37.5807 72.4239 36.6186C72.2324 35.6565 72.3307 34.6592 72.7063 33.7529C73.0819 32.8467 73.718 32.072 74.5341 31.527C75.3502 30.9821 76.3096 30.6911 77.291 30.6911C77.9439 30.6868 78.5911 30.8122 79.1951 31.0599C79.7992 31.3076 80.348 31.6728 80.8096 32.1342C81.2713 32.5956 81.6367 33.1442 81.8846 33.7479C82.1324 34.3516 82.2578 34.9984 82.2535 35.651V35.651Z" fill="#5E899D"/>
<path d="M78.1019 27.4818C78.1019 27.6421 78.0544 27.7988 77.9653 27.9321C77.8762 28.0654 77.7495 28.1692 77.6013 28.2306C77.4532 28.2919 77.2901 28.308 77.1329 28.2767C76.9756 28.2454 76.8311 28.1682 76.7177 28.0549C76.6043 27.9416 76.5271 27.7972 76.4958 27.64C76.4645 27.4827 76.4806 27.3198 76.5419 27.1717C76.6033 27.0236 76.7072 26.8971 76.8406 26.808C76.9739 26.719 77.1307 26.6714 77.291 26.6714C77.5061 26.6714 77.7124 26.7568 77.8644 26.9088C78.0165 27.0608 78.1019 27.2669 78.1019 27.4818Z" fill="#5E899D"/>
<path d="M71.5177 30.6912C71.9655 30.6912 72.3286 30.3283 72.3286 29.8807C72.3286 29.4332 71.9655 29.0703 71.5177 29.0703C71.0699 29.0703 70.7068 29.4332 70.7068 29.8807C70.7068 30.3283 71.0699 30.6912 71.5177 30.6912Z" fill="#5E899D"/>
<path d="M69.1176 34.8406C69.278 34.8406 69.4347 34.8881 69.5681 34.9771C69.7014 35.0662 69.8053 35.1928 69.8667 35.3409C69.9281 35.4889 69.9441 35.6519 69.9128 35.8091C69.8816 35.9663 69.8043 36.1107 69.6909 36.224C69.5775 36.3374 69.4331 36.4146 69.2758 36.4458C69.1185 36.4771 68.9555 36.4611 68.8073 36.3997C68.6591 36.3384 68.5325 36.2346 68.4434 36.1013C68.3543 35.968 68.3068 35.8113 68.3068 35.651C68.3068 35.4361 68.3922 35.2299 68.5442 35.078C68.6963 34.926 68.9026 34.8406 69.1176 34.8406Z" fill="#5E899D"/>
<path d="M71.5177 42.2316C71.9655 42.2316 72.3286 41.8687 72.3286 41.4211C72.3286 40.9736 71.9655 40.6107 71.5177 40.6107C71.0699 40.6107 70.7068 40.9736 70.7068 41.4211C70.7068 41.8687 71.0699 42.2316 71.5177 42.2316Z" fill="#5E899D"/>
<path d="M76.4802 43.8201C76.4802 43.6598 76.5278 43.5031 76.6169 43.3698C76.706 43.2365 76.8325 43.1327 76.9807 43.0713C77.1289 43.01 77.2919 42.9939 77.4492 43.0252C77.6065 43.0565 77.751 43.1337 77.8644 43.247C77.9778 43.3604 78.0551 43.5048 78.0863 43.662C78.1176 43.8192 78.1016 43.9821 78.0402 44.1302C77.9788 44.2783 77.8748 44.4049 77.7415 44.4939C77.6081 44.583 77.4514 44.6305 77.291 44.6305C77.076 44.6305 76.8698 44.5451 76.7177 44.3931C76.5657 44.2411 76.4802 44.035 76.4802 43.8201Z" fill="#5E899D"/>
<path d="M83.0967 42.2316C83.5446 42.2316 83.9076 41.8687 83.9076 41.4211C83.9076 40.9736 83.5446 40.6107 83.0967 40.6107C82.6489 40.6107 82.2859 40.9736 82.2859 41.4211C82.2859 41.8687 82.6489 42.2316 83.0967 42.2316Z" fill="#5E899D"/>
<path d="M85.4645 36.6235C85.3041 36.6235 85.1474 36.576 85.014 36.487C84.8807 36.3979 84.7768 36.2713 84.7154 36.1232C84.654 35.9752 84.638 35.8122 84.6693 35.655C84.7006 35.4978 84.7778 35.3534 84.8912 35.2401C85.0046 35.1267 85.149 35.0495 85.3063 35.0183C85.4636 34.987 85.6266 35.003 85.7748 35.0644C85.923 35.1257 86.0497 35.2296 86.1388 35.3629C86.2279 35.4962 86.2753 35.6528 86.2753 35.8131C86.2753 36.028 86.19 36.2342 86.0379 36.3862C85.8858 36.5381 85.6795 36.6235 85.4645 36.6235Z" fill="#5E899D"/>
<path d="M83.0967 30.6912C83.5446 30.6912 83.9076 30.3283 83.9076 29.8807C83.9076 29.4332 83.5446 29.0703 83.0967 29.0703C82.6489 29.0703 82.2859 29.4332 82.2859 29.8807C82.2859 30.3283 82.6489 30.6912 83.0967 30.6912Z" fill="#5E899D"/>
<path d="M79.3992 35.6509V115.429C79.3992 115.988 79.1771 116.524 78.7818 116.919C78.3864 117.314 77.8502 117.536 77.291 117.536C76.7319 117.536 76.1956 117.314 75.8002 116.919C75.4049 116.524 75.1828 115.988 75.1828 115.429V35.6509C75.1828 35.0921 75.4049 34.5562 75.8002 34.161C76.1956 33.7658 76.7319 33.5438 77.291 33.5438C77.8502 33.5438 78.3864 33.7658 78.7818 34.161C79.1771 34.5562 79.3992 35.0921 79.3992 35.6509V35.6509Z" fill="#A3D3EA"/>
<path d="M114.558 115.429V155.627C114.576 155.766 114.576 155.908 114.558 156.048C114.467 156.523 114.214 156.951 113.841 157.259C113.467 157.567 112.999 157.735 112.515 157.734H42.1322C41.6485 157.735 41.1796 157.567 40.8065 157.259C40.4334 156.951 40.1796 156.523 40.0889 156.048C40.0709 155.908 40.0709 155.766 40.0889 155.627V115.429C40.0889 114.871 40.311 114.335 40.7064 113.939C41.1018 113.544 41.6379 113.322 42.1971 113.322C42.7562 113.322 43.2925 113.544 43.6878 113.939C44.0832 114.335 44.3054 114.871 44.3054 115.429V153.519H110.406V115.429C110.406 114.871 110.629 114.335 111.024 113.939C111.419 113.544 111.956 113.322 112.515 113.322C113.074 113.322 113.61 113.544 114.005 113.939C114.401 114.335 114.623 114.871 114.623 115.429H114.558Z" fill="#A3D3EA"/>
<path d="M44.2404 155.626C44.2577 155.766 44.2577 155.908 44.2404 156.048C44.1429 156.525 43.8827 156.954 43.5042 157.262C43.1257 157.569 42.6524 157.736 42.1647 157.734H18.1632V215.825C18.1679 216.266 18.0316 216.698 17.774 217.057C17.576 217.327 17.3173 217.547 17.0188 217.699C16.7202 217.851 16.3901 217.931 16.055 217.932C15.4985 217.924 14.9671 217.699 14.5735 217.306C14.18 216.912 13.9551 216.381 13.9468 215.825V155.626C13.9551 155.07 14.18 154.539 14.5735 154.146C14.9671 153.752 15.4985 153.528 16.055 153.519H42.1647C42.7182 153.528 43.2461 153.754 43.6345 154.148C44.0229 154.542 44.2405 155.073 44.2404 155.626V155.626Z" fill="#A3D3EA"/>
<path d="M140.668 155.626V215.825C140.668 216.384 140.446 216.92 140.05 217.315C139.655 217.71 139.119 217.932 138.56 217.932V217.932C138.006 217.923 137.478 217.698 137.09 217.303C136.701 216.909 136.484 216.378 136.484 215.825V157.734H112.482C111.995 157.736 111.521 157.569 111.143 157.262C110.764 156.954 110.504 156.525 110.406 156.048C110.389 155.908 110.389 155.766 110.406 155.626C110.406 155.068 110.629 154.532 111.024 154.136C111.419 153.741 111.956 153.519 112.515 153.519H138.624C139.172 153.536 139.692 153.766 140.073 154.159C140.455 154.552 140.668 155.079 140.668 155.626V155.626Z" fill="#A3D3EA"/>
<path opacity="0.5" d="M138.624 158.803V217.932C138.071 217.923 137.543 217.698 137.155 217.303C136.766 216.909 136.548 216.378 136.549 215.825V157.734H18.1308V215.825C18.1356 216.266 17.9992 216.698 17.7416 217.057H16.3145V158.803C16.3145 158.073 16.605 157.372 17.122 156.855C17.639 156.338 18.3403 156.048 19.0715 156.048H135.835C136.569 156.048 137.274 156.337 137.796 156.853C138.318 157.369 138.616 158.07 138.624 158.803V158.803Z" fill="#72A6CB"/>
<path d="M178.227 225.096C178.236 226.842 178.117 228.587 177.87 230.315V230.315V230.672C177.87 230.672 177.87 230.672 177.87 230.866V231.126V231.904V232.26V232.585C177.87 232.876 177.675 233.103 177.578 233.33V233.525L177.351 233.816C177.292 233.899 177.214 233.966 177.124 234.011H6.10352e-05V215.501H176.054C176.8 215.501 177.448 217.024 177.837 219.358C178.134 221.256 178.264 223.176 178.227 225.096Z" fill="#50B6DD"/>
<path d="M114.558 115.429C114.558 115.988 114.336 116.524 113.941 116.919C113.545 117.314 113.009 117.536 112.45 117.536H95.5516C95.6751 117.08 95.7618 116.613 95.811 116.143C95.811 115.916 95.811 115.656 95.811 115.429C95.8071 114.717 95.709 114.009 95.5191 113.322H112.417C112.697 113.318 112.975 113.369 113.234 113.473C113.494 113.577 113.73 113.732 113.929 113.928C114.128 114.124 114.287 114.358 114.395 114.615C114.502 114.873 114.558 115.15 114.558 115.429Z" fill="#A3D3EA"/>
<path d="M95.8434 115.429C95.8373 116.141 95.7392 116.85 95.5515 117.536C95.2272 118.509 94.7407 119.157 94.1569 119.157H92.7946V117.666C92.5795 116.984 92.4701 116.274 92.4702 115.559C92.4675 114.844 92.5769 114.133 92.7946 113.452V111.831H94.1569C94.7407 111.831 95.2272 112.479 95.5515 113.452C95.7304 114.096 95.8284 114.761 95.8434 115.429V115.429Z" fill="#5E899D"/>
<path d="M94.4813 115.429C94.4914 116.142 94.3929 116.853 94.1893 117.536C93.8649 118.509 93.3784 119.157 92.7946 119.157C92.2108 119.157 91.6919 118.509 91.4 117.536C91.1964 116.853 91.0979 116.142 91.1081 115.429C91.0959 114.716 91.1943 114.005 91.4 113.322C91.6919 112.35 92.2108 111.701 92.7946 111.701C93.3784 111.701 93.8649 112.35 94.1893 113.322C94.3949 114.005 94.4934 114.716 94.4813 115.429V115.429Z" fill="#DAEDF7"/>
<path d="M93.5081 115.429C93.525 115.667 93.525 115.905 93.5081 116.143C93.5081 116.953 93.1514 117.536 92.827 117.536H61.1711C61.0363 117.08 60.9387 116.614 60.8792 116.143C60.8792 115.916 60.8792 115.656 60.8792 115.429C60.8765 114.714 60.9859 114.003 61.2036 113.322H92.8595C93.2163 113.322 93.5081 114.424 93.5081 115.429Z" fill="#A3D3EA"/>
<path d="M65.5823 115.429C65.5823 115.656 65.5823 115.916 65.5823 116.142C65.5331 116.613 65.4463 117.079 65.3228 117.536C64.9984 118.509 64.4795 119.157 63.8956 119.157H62.5658V117.666V117.245C62.4315 116.693 62.3662 116.127 62.3712 115.559C62.3579 114.798 62.4787 114.041 62.7281 113.322V111.831H64.0254C64.8038 111.701 65.5823 113.355 65.5823 115.429Z" fill="#5E899D"/>
<path d="M64.2199 115.429C64.2138 116.141 64.1157 116.85 63.9281 117.536C63.6037 118.509 63.0848 119.157 62.5334 119.157C61.982 119.157 61.4306 118.509 61.1386 117.536C60.9236 116.855 60.8143 116.144 60.8144 115.429C60.8116 114.714 60.921 114.003 61.1386 113.322C61.4306 112.35 61.9496 111.701 62.5334 111.701C63.1172 111.701 63.6037 112.35 63.9281 113.322C64.1179 114.009 64.2161 114.717 64.2199 115.429V115.429Z" fill="#DAEDF7"/>
<path d="M62.6631 115.429C62.6631 115.689 62.6631 115.916 62.6631 116.143C62.6213 116.407 62.5562 116.667 62.4685 116.921C62.4685 117.31 62.1766 117.536 61.982 117.536H41.9376C41.4242 117.467 40.9525 117.217 40.6076 116.83C40.2626 116.444 40.0671 115.947 40.0563 115.429C40.0563 114.871 40.2785 114.335 40.6739 113.939C41.0693 113.544 41.6055 113.322 42.1646 113.322H61.982C62.3388 113.322 62.6631 114.424 62.6631 115.429Z" fill="#A3D3EA"/>
<path d="M93.4757 116.142C93.4757 116.953 93.1189 117.536 92.7946 117.536H65.2903C65.4139 117.079 65.5006 116.613 65.5498 116.142H93.4757Z" fill="#72A6CB"/>
<path d="M112.028 117.666V153.714H41.9052V117.666C41.9377 117.285 42.1126 116.93 42.395 116.672C42.6774 116.413 43.0468 116.271 43.4296 116.272H62.6307C62.589 116.537 62.5239 116.797 62.4361 117.05C62.4361 117.439 62.1442 117.666 61.9495 117.666H44.2404V153.649H110.342V117.666H95.5516C95.6751 117.209 95.7618 116.743 95.811 116.272H110.471C110.86 116.263 111.237 116.401 111.526 116.66C111.816 116.92 111.995 117.279 112.028 117.666V117.666Z" fill="#72A6CB"/>
<path d="M79.3992 35.6509V113.452H78.1343V33.7059C78.515 33.8673 78.8388 34.1387 79.0642 34.4852C79.2895 34.8317 79.4062 35.2377 79.3992 35.6509V35.6509Z" fill="#72A6CB"/>
<path d="M44.1186 148.74L38.3632 161.009L39.626 161.601L45.3813 149.332L44.1186 148.74Z" fill="#B06B5D"/>
<path d="M36.1438 151.814L35.5519 153.076L47.8282 158.826L48.4201 157.564L36.1438 151.814Z" fill="#B06B5D"/>
<path d="M41.9052 163.05C40.3592 163.05 38.8479 162.592 37.5625 161.733C36.277 160.875 35.2752 159.655 34.6836 158.227C34.092 156.8 33.9371 155.229 34.2388 153.713C34.5404 152.198 35.2848 150.806 36.378 149.713C37.4711 148.621 38.864 147.876 40.3803 147.575C41.8966 147.274 43.4682 147.428 44.8965 148.02C46.3248 148.611 47.5456 149.612 48.4045 150.897C49.2634 152.182 49.7219 153.692 49.7219 155.237C49.7219 156.263 49.5197 157.279 49.1269 158.227C48.7341 159.175 48.1583 160.036 47.4324 160.762C46.7066 161.487 45.8449 162.063 44.8965 162.455C43.9482 162.848 42.9317 163.05 41.9052 163.05V163.05ZM41.9052 149.532C40.7762 149.532 39.6726 149.867 38.7338 150.494C37.7951 151.121 37.0634 152.012 36.6313 153.054C36.1993 154.097 36.0862 155.244 36.3065 156.351C36.5267 157.457 37.0704 158.474 37.8687 159.272C38.6671 160.07 39.6842 160.613 40.7915 160.833C41.8989 161.053 43.0466 160.94 44.0897 160.509C45.1328 160.077 46.0243 159.345 46.6516 158.407C47.2788 157.469 47.6137 156.366 47.6137 155.237C47.6179 154.485 47.4734 153.74 47.1884 153.044C46.9035 152.348 46.4838 151.715 45.9532 151.182C45.4227 150.649 44.7919 150.226 44.0972 149.937C43.4025 149.648 42.6576 149.5 41.9052 149.5V149.532Z" fill="#EB8E7C"/>
<path d="M43.3972 155.205C43.3972 155.5 43.3096 155.788 43.1457 156.034C42.9817 156.279 42.7488 156.47 42.4762 156.583C42.2035 156.696 41.9036 156.725 41.6141 156.668C41.3247 156.61 41.0589 156.468 40.8502 156.26C40.6415 156.051 40.4995 155.785 40.4419 155.496C40.3843 155.207 40.4138 154.907 40.5267 154.634C40.6396 154.362 40.8309 154.129 41.0763 153.965C41.3216 153.801 41.6101 153.714 41.9051 153.714C42.1023 153.709 42.2983 153.745 42.4813 153.818C42.6643 153.892 42.8306 154.001 42.97 154.141C43.1094 154.28 43.2192 154.446 43.2926 154.629C43.366 154.812 43.4016 155.008 43.3972 155.205V155.205Z" fill="#A4AEC9"/>
<path d="M42.7484 155.205C42.7484 155.429 42.6596 155.643 42.5015 155.801C42.3433 155.959 42.1288 156.048 41.9051 156.048C41.6815 156.048 41.467 155.959 41.3088 155.801C41.1507 155.643 41.0619 155.429 41.0619 155.205C41.0619 154.981 41.1507 154.767 41.3088 154.609C41.467 154.451 41.6815 154.362 41.9051 154.362C42.0159 154.362 42.1256 154.384 42.2279 154.426C42.3302 154.469 42.4232 154.531 42.5015 154.609C42.5798 154.687 42.6418 154.78 42.6842 154.882C42.7266 154.985 42.7484 155.094 42.7484 155.205V155.205Z" fill="#C8CEDF"/>
<path d="M115.209 148.868L109.454 161.137L110.717 161.728L116.472 149.46L115.209 148.868Z" fill="#B06B5D"/>
<path d="M107.126 151.806L106.534 153.069L118.811 158.819L119.402 157.557L107.126 151.806Z" fill="#B06B5D"/>
<path d="M112.872 163.05C111.326 163.05 109.814 162.592 108.529 161.733C107.243 160.875 106.242 159.655 105.65 158.227C105.058 156.8 104.904 155.229 105.205 153.713C105.507 152.198 106.251 150.806 107.344 149.713C108.438 148.621 109.83 147.876 111.347 147.575C112.863 147.274 114.435 147.428 115.863 148.02C117.291 148.611 118.512 149.612 119.371 150.897C120.23 152.182 120.688 153.692 120.688 155.237C120.688 157.309 119.865 159.297 118.399 160.762C116.933 162.227 114.945 163.05 112.872 163.05V163.05ZM112.872 149.532C111.744 149.538 110.643 149.879 109.709 150.509C108.775 151.14 108.048 152.033 107.621 153.076C107.194 154.12 107.085 155.266 107.309 156.37C107.533 157.475 108.079 158.488 108.879 159.283C109.679 160.078 110.696 160.618 111.802 160.835C112.909 161.053 114.055 160.938 115.096 160.505C116.137 160.073 117.027 159.341 117.653 158.404C118.278 157.466 118.612 156.364 118.612 155.237C118.617 154.483 118.471 153.735 118.184 153.037C117.897 152.339 117.475 151.704 116.941 151.171C116.407 150.637 115.772 150.214 115.074 149.928C114.375 149.641 113.627 149.495 112.872 149.5V149.532Z" fill="#EB8E7C"/>
<path d="M114.396 155.205C114.402 155.508 114.318 155.805 114.155 156.06C113.991 156.315 113.756 156.515 113.478 156.636C113.2 156.756 112.892 156.791 112.594 156.736C112.297 156.681 112.022 156.538 111.806 156.326C111.589 156.115 111.441 155.843 111.379 155.547C111.318 155.25 111.346 154.942 111.46 154.662C111.575 154.382 111.77 154.142 112.021 153.973C112.273 153.804 112.569 153.714 112.871 153.714C113.07 153.71 113.268 153.745 113.452 153.818C113.637 153.891 113.805 154 113.947 154.139C114.089 154.278 114.202 154.444 114.279 154.627C114.356 154.81 114.396 155.006 114.396 155.205V155.205Z" fill="#A4AEC9"/>
<path d="M113.715 155.205C113.719 155.317 113.701 155.429 113.66 155.533C113.619 155.637 113.557 155.732 113.478 155.811C113.399 155.89 113.304 155.952 113.2 155.993C113.095 156.034 112.983 156.052 112.872 156.048C112.648 156.048 112.433 155.959 112.275 155.801C112.117 155.643 112.028 155.429 112.028 155.205C112.028 154.982 112.117 154.767 112.275 154.609C112.433 154.451 112.648 154.362 112.872 154.362C112.983 154.358 113.095 154.376 113.2 154.417C113.304 154.458 113.399 154.52 113.478 154.599C113.557 154.678 113.619 154.773 113.66 154.877C113.701 154.982 113.719 155.093 113.715 155.205Z" fill="#C8CEDF"/>
<path d="M79.0846 110.054L74.3654 120.123L75.4227 120.618L80.1419 110.549L79.0846 110.054Z" fill="#B06B5D"/>
<path d="M72.41 112.424L71.9147 113.481L81.9892 118.198L82.4845 117.141L72.41 112.424Z" fill="#B06B5D"/>
<path d="M77.291 121.848C76.008 121.848 74.7539 121.468 73.6871 120.755C72.6203 120.043 71.7889 119.03 71.298 117.846C70.807 116.661 70.6785 115.357 70.9288 114.1C71.1791 112.842 71.7969 111.687 72.7041 110.78C73.6113 109.873 74.7672 109.256 76.0255 109.006C77.2839 108.756 78.5882 108.884 79.7735 109.375C80.9588 109.865 81.9718 110.696 82.6846 111.763C83.3974 112.829 83.7779 114.082 83.7779 115.364C83.7779 117.084 83.0945 118.733 81.8779 119.949C80.6614 121.165 79.0114 121.848 77.291 121.848ZM77.291 110.729C76.3609 110.729 75.4516 111.005 74.6782 111.521C73.9048 112.038 73.302 112.772 72.946 113.631C72.5901 114.489 72.4969 115.435 72.6784 116.346C72.8598 117.258 73.3078 118.096 73.9655 118.753C74.6233 119.41 75.4613 119.858 76.3736 120.039C77.2858 120.221 78.2314 120.128 79.0908 119.772C79.9502 119.416 80.6846 118.814 81.2014 118.041C81.7182 117.268 81.994 116.359 81.994 115.429C81.994 114.183 81.4985 112.987 80.6165 112.106C79.7345 111.224 78.5383 110.729 77.291 110.729V110.729Z" fill="#EB8E7C"/>
<path d="M78.5236 115.429C78.5236 115.673 78.4512 115.911 78.3158 116.114C78.1804 116.316 77.9879 116.474 77.7627 116.567C77.5375 116.661 77.2897 116.685 77.0506 116.637C76.8115 116.59 76.5919 116.473 76.4195 116.3C76.2472 116.128 76.1298 115.909 76.0823 115.67C76.0347 115.431 76.0591 115.183 76.1524 114.958C76.2457 114.733 76.4036 114.54 76.6063 114.405C76.809 114.27 77.0473 114.197 77.2911 114.197C77.6179 114.197 77.9315 114.327 78.1626 114.558C78.3937 114.789 78.5236 115.103 78.5236 115.429V115.429Z" fill="#A4AEC9"/>
<path d="M77.3235 116.143C77.7176 116.143 78.037 115.823 78.037 115.429C78.037 115.035 77.7176 114.716 77.3235 114.716C76.9294 114.716 76.6099 115.035 76.6099 115.429C76.6099 115.823 76.9294 116.143 77.3235 116.143Z" fill="#C8CEDF"/>
</g>
<defs>
<clipPath id="clip0_116_292">
<rect width="184" height="296" fill="white" transform="translate(0 -5)"/>
</clipPath>
</defs>
</svg>
