<svg width="540" height="513" viewBox="0 0 540 513" fill="none" xmlns="http://www.w3.org/2000/svg">
<path d="M295.528 166.138H288.412V222.65H295.528V166.138Z" fill="#50B6DD"/>
<path d="M480.404 188.138C480.399 192.222 478.776 196.138 475.89 199.027C473.004 201.917 469.09 203.545 465.006 203.556H112.886C108.804 203.54 104.893 201.91 102.009 199.022C99.1236 196.133 97.4986 192.22 97.4882 188.138C97.4986 184.056 99.1236 180.143 102.009 177.254C104.893 174.366 108.804 172.736 112.886 172.72H465.006C469.09 172.731 473.004 174.359 475.89 177.249C478.776 180.138 480.399 184.054 480.404 188.138Z" fill="url(#paint0_linear_116_528)"/>
<g style="mix-blend-mode:screen" opacity="0.5">
<path d="M97.4882 188.138C97.4986 184.056 99.1236 180.143 102.009 177.254C104.893 174.366 108.804 172.736 112.886 172.72H465.006C469.09 172.731 473.004 174.359 475.89 177.249C478.776 180.138 480.399 184.054 480.404 188.138H97.4882Z" fill="#50B6DD"/>
</g>
<g style="mix-blend-mode:screen">
<path d="M205.591 203.596H205.453C201.499 203.596 198.159 196.658 198.159 188.178C198.159 179.698 201.44 172.76 205.453 172.76H112.886C108.797 172.76 104.876 174.384 101.984 177.276C99.0928 180.167 97.4684 184.089 97.4684 188.178C97.4684 192.267 99.0928 196.188 101.984 199.08C104.876 201.971 108.797 203.596 112.886 203.596H205.591Z" fill="url(#paint1_linear_116_528)"/>
<path d="M480.404 188.138C480.399 184.054 478.776 180.138 475.89 177.249C473.004 174.359 469.09 172.731 465.006 172.72H372.44C376.393 172.72 379.733 179.658 379.733 188.138C379.733 196.618 376.452 203.556 372.44 203.556H465.006C469.09 203.545 473.004 201.917 475.89 199.027C478.776 196.138 480.399 192.222 480.404 188.138Z" fill="url(#paint2_linear_116_528)"/>
</g>
<path d="M97.4882 188.138L145.343 187.881L193.217 187.743L288.946 187.624L384.675 187.743L432.55 187.881L480.404 188.138L432.55 188.395L384.675 188.533L288.946 188.652L193.217 188.533L145.343 188.395L97.4882 188.138Z" fill="white"/>
<path d="M264.594 144.178H258.031L256.055 121.842L254.078 99.4856C254.089 97.6506 254.823 95.894 256.123 94.5983C257.422 93.3025 259.181 92.5726 261.016 92.5674H261.787C263.619 92.5778 265.372 93.31 266.668 94.6052C267.963 95.9004 268.695 97.654 268.705 99.4856L266.729 121.842L264.594 144.178Z" fill="#50B6DD"/>
<g style="mix-blend-mode:multiply">
<path d="M261.135 92.5674H260.937C259.102 92.5726 257.343 93.3025 256.044 94.5983C254.744 95.894 254.01 97.6506 253.999 99.4856L257.952 144.178H259.633L257.656 99.4856C257.735 95.6905 259.257 92.5674 261.135 92.5674Z" fill="#21B9E5"/>
</g>
<path d="M264.594 144.178H258.012V157.145H264.594V144.178Z" fill="url(#paint3_linear_116_528)"/>
<path style="mix-blend-mode:multiply" d="M260.443 144.178H258.012V157.145H260.443V144.178Z" fill="url(#paint4_linear_116_528)"/>
<path style="mix-blend-mode:screen" d="M264.041 144.178H262.894V157.145H264.041V144.178Z" fill="url(#paint5_linear_116_528)"/>
<path d="M277.778 167.087H261.965C260.555 167.087 259.202 166.527 258.205 165.53C257.208 164.533 256.648 163.18 256.648 161.77V157.145H277.778V167.087Z" fill="url(#paint6_linear_116_528)"/>
<path style="mix-blend-mode:screen" d="M264.258 165.328C263.376 164.353 262.89 163.084 262.894 161.77V157.145H258.15V161.77C258.15 163.18 258.71 164.533 259.707 165.53C260.705 166.527 262.057 167.087 263.467 167.087H268.29C267.531 167.101 266.778 166.951 266.082 166.648C265.386 166.344 264.764 165.894 264.258 165.328Z" fill="url(#paint7_linear_116_528)"/>
<path style="mix-blend-mode:multiply" d="M256.648 157.145V158.429H273.034C273.394 158.424 273.751 158.491 274.084 158.626C274.418 158.761 274.721 158.962 274.975 159.216C275.229 159.471 275.43 159.774 275.565 160.107C275.7 160.44 275.767 160.797 275.762 161.157V167.087H277.739V157.204L256.648 157.145Z" fill="url(#paint8_linear_116_528)"/>
<path d="M299.996 134.69C299.923 134.558 299.803 134.459 299.66 134.413H278.332C278.248 134.417 278.166 134.438 278.091 134.475C278.016 134.513 277.95 134.566 277.897 134.63C277.829 134.73 277.788 134.846 277.778 134.967V172.661H300.114V135.026C300.105 134.905 300.064 134.79 299.996 134.69Z" fill="url(#paint9_linear_116_528)"/>
<path style="mix-blend-mode:multiply" d="M277.778 135.026V172.721H286.001V134.413H278.332C278.254 134.413 278.177 134.429 278.105 134.46C278.034 134.492 277.97 134.538 277.918 134.596C277.865 134.653 277.826 134.722 277.802 134.796C277.778 134.87 277.77 134.948 277.778 135.026Z" fill="url(#paint10_linear_116_528)"/>
<path style="mix-blend-mode:screen" d="M299.996 134.69C299.923 134.558 299.803 134.459 299.66 134.413H278.332C278.248 134.417 278.166 134.438 278.091 134.475C278.016 134.513 277.95 134.566 277.897 134.63C277.829 134.73 277.788 134.846 277.778 134.967V135.777H291.615C291.983 135.774 292.349 135.845 292.689 135.988C293.028 136.131 293.336 136.341 293.591 136.607C293.847 136.868 294.049 137.177 294.184 137.516C294.32 137.856 294.387 138.218 294.382 138.584V172.72H298.335V137.773C298.335 137.249 298.543 136.746 298.914 136.376C299.285 136.005 299.788 135.797 300.312 135.797V134.986C300.241 134.856 300.13 134.752 299.996 134.69Z" fill="url(#paint11_linear_116_528)"/>
<path d="M277.778 134.985L280.565 134.946L283.372 134.906L288.946 134.886L294.52 134.906L297.327 134.946L300.114 134.985L297.327 135.025L294.52 135.064L288.946 135.084L283.372 135.064L280.565 135.025L277.778 134.985Z" fill="white"/>
<path d="M288.946 0.0012207C285.625 0.0012207 282.917 2.68947 282.917 12.0588V140.541H294.975V12.0588C294.975 2.68947 292.267 0.0012207 288.946 0.0012207Z" fill="url(#paint12_linear_116_528)"/>
<path style="mix-blend-mode:multiply" d="M294.975 67.958V62.364H282.917V134.413H288.511V74.4018C288.511 73.554 288.679 72.7144 289.004 71.9313C289.329 71.1482 289.805 70.437 290.406 69.8383C291.006 69.2397 291.719 68.7654 292.503 68.4428C293.287 68.1201 294.127 67.9554 294.975 67.958Z" fill="url(#paint13_linear_116_528)"/>
<path d="M288.946 0.000823846C288.159 -0.0122948 287.377 0.131375 286.646 0.423503C285.916 0.715632 285.25 1.15038 284.689 1.70234C284.128 2.2543 283.682 2.91242 283.378 3.63839C283.074 4.36436 282.917 5.14365 282.917 5.93076V62.285H294.975V5.93076C294.975 5.14365 294.818 4.36436 294.514 3.63839C294.21 2.91242 293.764 2.2543 293.203 1.70234C292.642 1.15038 291.977 0.715632 291.246 0.423503C290.515 0.131375 289.733 -0.0122948 288.946 0.000823846Z" fill="url(#paint14_linear_116_528)"/>
<path style="mix-blend-mode:screen" d="M288.946 0.00151722C287.373 0.00151722 285.865 0.626302 284.753 1.73838C283.641 2.85046 283.016 4.35874 283.016 5.93146C283.803 5.93135 284.583 6.08797 285.309 6.39214C286.035 6.69631 286.693 7.14191 287.245 7.70307C287.797 8.26422 288.231 8.92969 288.523 9.66059C288.816 10.3915 288.959 11.1732 288.946 11.9602V59.973H282.878V62.3252H294.935V5.93146C294.935 5.14771 294.78 4.37172 294.478 3.64837C294.177 2.92503 293.735 2.2687 293.178 1.71727C292.621 1.16584 291.96 0.730275 291.234 0.435779C290.507 0.141282 289.73 -0.00632024 288.946 0.00151722Z" fill="url(#paint15_linear_116_528)"/>
<path d="M245.579 468.269C196.162 468.269 155.107 455.341 126.683 430.91C114.381 420.47 104.476 407.498 97.6464 392.879C91.3868 379.447 88.1482 364.805 88.1585 349.986C88.0929 337.104 90.6193 324.341 95.5873 312.456C100.555 300.571 107.863 289.806 117.077 280.803C137.555 260.78 166.196 250.205 199.898 250.205H540V257.321H199.859C131.17 257.321 95.2349 303.97 95.2349 350.065C95.2349 378.766 108.063 405.589 131.328 425.593C158.448 448.897 197.941 461.172 245.579 461.172C329.645 461.172 392.977 438.639 433.795 394.204C465.54 359.632 473.941 321.265 473.941 305.808H481.056C481.056 322.214 472.28 362.834 439.033 399.027C420.097 419.623 396.001 435.911 367.379 447.454C333.065 461.251 292.089 468.269 245.579 468.269Z" fill="#50B6DD"/>
<path d="M436.404 260.522H141.488V287.227H436.404V260.522Z" fill="url(#paint16_linear_116_528)"/>
<path d="M126.288 268.825H451.604C452.602 268.825 453.56 268.43 454.267 267.726C454.974 267.022 455.375 266.067 455.38 265.069V242.377C455.382 241.881 455.285 241.39 455.095 240.932C454.905 240.473 454.625 240.058 454.273 239.709C453.565 239.001 452.605 238.602 451.604 238.602H126.288C125.287 238.602 124.327 239.001 123.62 239.709C123.267 240.058 122.988 240.473 122.798 240.932C122.608 241.39 122.511 241.881 122.513 242.377V264.99C122.518 265.988 122.918 266.943 123.625 267.647C124.333 268.351 125.29 268.746 126.288 268.746V268.825Z" fill="url(#paint17_linear_116_528)"/>
<g style="mix-blend-mode:screen" opacity="0.5">
<path d="M126.288 238.602H451.604C452.1 238.602 452.591 238.699 453.049 238.889C453.507 239.079 453.923 239.357 454.274 239.708C454.625 240.058 454.903 240.474 455.092 240.932C455.282 241.39 455.38 241.881 455.38 242.377V264.99C455.38 265.485 455.282 265.975 455.092 266.432C454.902 266.889 454.624 267.304 454.273 267.653C453.922 268.002 453.506 268.278 453.048 268.465C452.59 268.653 452.099 268.748 451.604 268.746H441.721C440.54 261.734 436.915 255.366 431.488 250.771C426.061 246.176 419.182 243.651 412.071 243.642H122.513V242.377C122.513 241.881 122.61 241.39 122.8 240.932C122.99 240.474 123.268 240.058 123.618 239.708C123.969 239.357 124.385 239.079 124.843 238.889C125.301 238.699 125.792 238.602 126.288 238.602Z" fill="#50B6DD"/>
</g>
<path d="M108.775 284.263H21.9606V294.087H108.775V284.263Z" fill="#F24343"/>
<path d="M31.0927 298.474V279.795C31.1108 279.744 31.1108 279.688 31.0927 279.637C31.0708 279.627 31.0473 279.623 31.0235 279.623C30.9998 279.623 30.9762 279.627 30.9543 279.637H13.0459C13.0166 279.633 12.987 279.637 12.9592 279.647C12.9314 279.657 12.9061 279.673 12.8853 279.693C12.8644 279.714 12.8485 279.74 12.8387 279.767C12.8289 279.795 12.8254 279.825 12.8285 279.854V298.474C12.8086 298.525 12.8086 298.581 12.8285 298.632C12.8806 298.643 12.9345 298.643 12.9866 298.632H30.7764C30.8219 298.643 30.8693 298.643 30.9148 298.632C30.9558 298.624 30.9938 298.605 31.025 298.577C31.0563 298.549 31.0796 298.514 31.0927 298.474Z" fill="url(#paint18_linear_116_528)"/>
<g style="mix-blend-mode:multiply">
<path d="M12.8285 292.643V298.573C12.8285 298.602 12.8341 298.63 12.845 298.656C12.8559 298.683 12.872 298.707 12.8921 298.727C12.9123 298.747 12.9363 298.763 12.9627 298.774C12.9891 298.785 13.0173 298.79 13.0459 298.79H30.8357C30.8643 298.79 30.8925 298.785 30.9189 298.774C30.9453 298.763 30.9693 298.747 30.9895 298.727C31.0096 298.707 31.0257 298.683 31.0366 298.656C31.0475 298.63 31.0531 298.602 31.0531 298.573V292.643H12.8285Z" fill="#41D4FF"/>
</g>
<g style="mix-blend-mode:screen" opacity="0.5">
<path d="M12.8285 279.835V284.638H31.0927V279.795C31.0927 279.738 31.0698 279.682 31.029 279.642C30.9882 279.601 30.9329 279.578 30.8752 279.578H13.0459C13.0137 279.577 12.9818 279.584 12.9524 279.597C12.9231 279.611 12.8971 279.63 12.8763 279.655C12.8555 279.679 12.8404 279.708 12.8321 279.739C12.8238 279.771 12.8226 279.803 12.8285 279.835Z" fill="#50B6DD"/>
</g>
<path style="mix-blend-mode:screen" d="M30.8357 279.618H13.0459C12.9882 279.618 12.9329 279.641 12.8921 279.681C12.8514 279.722 12.8285 279.777 12.8285 279.835V281.456H24.1151C24.7889 281.456 25.456 281.59 26.0776 281.85C26.6991 282.11 27.2627 282.491 27.7354 282.972C28.2082 283.452 28.5807 284.021 28.8313 284.647C29.0819 285.272 29.2056 285.941 29.1951 286.615V298.831H30.8357C30.8643 298.831 30.8925 298.825 30.9189 298.814C30.9453 298.803 30.9693 298.787 30.9895 298.767C31.0096 298.747 31.0257 298.723 31.0366 298.696C31.0475 298.67 31.0531 298.642 31.0531 298.613V279.934C31.0713 279.899 31.0796 279.86 31.0772 279.82C31.0748 279.781 31.0617 279.743 31.0394 279.71C31.017 279.678 30.9863 279.652 30.9504 279.636C30.9145 279.619 30.8749 279.613 30.8357 279.618Z" fill="url(#paint19_linear_116_528)"/>
<path d="M0 278.807L0 299.522H13.3226L13.3226 278.807H0Z" fill="url(#paint20_linear_116_528)"/>
<path d="M11.8203 278.056L11.8203 300.293H13.3226L13.3226 278.056H11.8203Z" fill="url(#paint21_linear_116_528)"/>
<path d="M8.87509 278.056L8.87509 300.293H10.3774L10.3774 278.056H8.87509Z" fill="url(#paint22_linear_116_528)"/>
<path d="M5.91019 278.056L5.91019 300.293H7.41246L7.41246 278.056H5.91019Z" fill="url(#paint23_linear_116_528)"/>
<path d="M2.965 278.056L2.965 300.293H4.46727L4.46727 278.056H2.965Z" fill="url(#paint24_linear_116_528)"/>
<path d="M0.0197144 278.056L0.0197144 300.293H1.52198L1.52198 278.056H0.0197144Z" fill="url(#paint25_linear_116_528)"/>
<path style="mix-blend-mode:screen" d="M0.0198059 280.052L0.0198059 285.191H13.3424V280.052H0.0198059Z" fill="url(#paint26_linear_116_528)"/>
<g style="mix-blend-mode:multiply">
<path d="M0 293.414L0 299.522H13.3226V293.414H0Z" fill="#41D4FF"/>
</g>
<path d="M25.1627 267.481H18.7584V280.507H25.1627V267.481Z" fill="url(#paint27_linear_116_528)"/>
<path d="M8.42053 261.551C8.20178 261.546 7.98418 261.584 7.78055 261.664C7.57692 261.744 7.39136 261.864 7.2348 262.017C7.07825 262.17 6.95385 262.353 6.86894 262.555C6.78403 262.756 6.74032 262.973 6.74039 263.192V267.481C6.74039 267.916 6.91323 268.333 7.22091 268.641C7.52858 268.949 7.94588 269.122 8.381 269.122H21.9606V262.678C18.9758 262.678 14.2121 261.729 8.42053 261.551Z" fill="#F24343"/>
<path d="M35.4808 261.551C29.6893 261.729 24.8465 262.678 21.9606 262.678V269.122H35.5401C35.9718 269.116 36.3841 268.941 36.6875 268.634C36.9909 268.327 37.161 267.913 37.161 267.481V263.192C37.161 262.973 37.1173 262.756 37.0324 262.555C36.9475 262.353 36.8231 262.17 36.6666 262.017C36.51 261.864 36.3245 261.744 36.1208 261.664C35.9172 261.584 35.6996 261.546 35.4808 261.551Z" fill="#F24343"/>
<g style="mix-blend-mode:multiply">
<path d="M7.70894 267.48V263.191C7.69766 262.81 7.82289 262.437 8.06206 262.14C8.30123 261.843 8.63864 261.641 9.01353 261.57H8.42053C8.20178 261.565 7.98418 261.603 7.78055 261.683C7.57692 261.764 7.39136 261.884 7.2348 262.036C7.07825 262.189 6.95385 262.372 6.86894 262.574C6.78403 262.775 6.74032 262.992 6.74039 263.211V267.5C6.74039 267.935 6.91323 268.352 7.22091 268.66C7.52858 268.968 7.94588 269.141 8.381 269.141H9.23096C9.02151 269.133 8.81566 269.084 8.62538 268.996C8.4351 268.908 8.26418 268.783 8.12256 268.629C7.98093 268.474 7.87143 268.293 7.80043 268.096C7.72942 267.899 7.69832 267.69 7.70894 267.48Z" fill="#21B9E5"/>
</g>
<g style="mix-blend-mode:screen">
<path d="M35.4808 261.551H34.9076C35.2825 261.621 35.6199 261.823 35.859 262.121C36.0982 262.418 36.2234 262.791 36.2122 263.172V267.461C36.2229 267.883 36.067 268.291 35.7783 268.598C35.4897 268.905 35.0916 269.086 34.6704 269.102H35.5401C35.9718 269.097 36.384 268.921 36.6874 268.614C36.9909 268.307 37.161 267.893 37.161 267.461V263.172C37.1584 262.955 37.1128 262.74 37.0267 262.541C36.9406 262.341 36.8158 262.161 36.6595 262.01C36.5032 261.86 36.3186 261.741 36.1162 261.662C35.9139 261.584 35.6979 261.546 35.4808 261.551Z" fill="#F24343"/>
</g>
<path d="M18.0666 262.045V269.28C18.0666 269.365 18.0835 269.45 18.1162 269.529C18.149 269.608 18.1971 269.68 18.2576 269.741C18.3182 269.801 18.3901 269.849 18.4693 269.882C18.5484 269.915 18.6332 269.932 18.7189 269.932H25.1825C25.2682 269.932 25.353 269.915 25.4321 269.882C25.5113 269.849 25.5832 269.801 25.6438 269.741C25.7043 269.68 25.7524 269.608 25.7852 269.529C25.8179 269.45 25.8348 269.365 25.8348 269.28V262.045C25.8349 261.87 25.7668 261.702 25.645 261.577C25.5232 261.451 25.3573 261.378 25.1825 261.373H18.7189C18.5441 261.378 18.3782 261.451 18.2564 261.577C18.1346 261.702 18.0665 261.87 18.0666 262.045Z" fill="#F24343"/>
<g style="mix-blend-mode:multiply">
<path d="M18.9758 269.279V262.044C18.9758 261.689 19.1537 261.412 19.3711 261.392H18.6991C18.5243 261.397 18.3584 261.47 18.2366 261.596C18.1148 261.721 18.0467 261.889 18.0468 262.064V269.299C18.0468 269.384 18.0637 269.469 18.0964 269.548C18.1292 269.627 18.1773 269.699 18.2378 269.76C18.2984 269.82 18.3703 269.869 18.4495 269.901C18.5286 269.934 18.6134 269.951 18.6991 269.951H19.4107C19.1932 269.931 18.9758 269.635 18.9758 269.279Z" fill="#21B9E5"/>
</g>
<g style="mix-blend-mode:screen">
<path d="M25.1825 261.373H24.5105C24.7476 261.373 24.9255 261.67 24.9255 262.025V269.26C24.9255 269.616 24.7279 269.912 24.4709 269.912H25.1825C25.2682 269.912 25.353 269.895 25.4321 269.863C25.5113 269.83 25.5832 269.782 25.6438 269.721C25.7043 269.661 25.7524 269.589 25.7852 269.51C25.8179 269.43 25.8348 269.345 25.8348 269.26V262.025C25.8298 261.854 25.7595 261.691 25.6382 261.57C25.517 261.448 25.3539 261.378 25.1825 261.373Z" fill="#F24343"/>
</g>
<path d="M17.355 280.506H26.5464V274.359H17.355V280.387V280.506Z" fill="url(#paint28_linear_116_528)"/>
<g style="mix-blend-mode:multiply">
<path d="M20.2409 274.24H17.355C17.3235 274.24 17.2933 274.253 17.2711 274.275C17.2489 274.297 17.2364 274.328 17.2364 274.359V280.388C17.2364 280.419 17.2489 280.45 17.2711 280.472C17.2933 280.494 17.3235 280.506 17.355 280.506H20.2409V274.24Z" fill="#41D4FF"/>
</g>
<g style="mix-blend-mode:screen" opacity="0.5">
<path d="M26.5464 274.24H24.1744V280.506H26.5464C26.5778 280.506 26.608 280.494 26.6302 280.472C26.6525 280.45 26.665 280.419 26.665 280.388V274.359C26.665 274.328 26.6525 274.297 26.6302 274.275C26.608 274.253 26.5778 274.24 26.5464 274.24Z" fill="#50B6DD"/>
</g>
<path d="M287.918 282.997H108.755V295.351H287.918V282.997Z" fill="#F24343"/>
<path d="M405.311 282.997H287.918V295.351H405.311V282.997Z" fill="#555966"/>
<path d="M464.947 282.997H404.264V295.351H464.947V282.997Z" fill="#50B6DD"/>
<path d="M112.946 298.474V279.795C112.949 279.765 112.945 279.736 112.935 279.708C112.926 279.68 112.91 279.655 112.889 279.634C112.868 279.613 112.843 279.597 112.815 279.587C112.787 279.578 112.757 279.574 112.728 279.577H104.822C104.8 279.568 104.776 279.563 104.752 279.563C104.729 279.563 104.705 279.568 104.683 279.577C104.663 279.628 104.663 279.685 104.683 279.735V298.474C104.663 298.525 104.663 298.581 104.683 298.632C104.729 298.643 104.776 298.643 104.822 298.632H112.728C112.78 298.643 112.834 298.643 112.886 298.632C112.906 298.611 112.922 298.586 112.932 298.559C112.942 298.532 112.947 298.503 112.946 298.474Z" fill="url(#paint29_linear_116_528)"/>
<g style="mix-blend-mode:multiply">
<path d="M104.584 292.643V298.573C104.582 298.601 104.585 298.628 104.593 298.655C104.602 298.681 104.616 298.705 104.635 298.726C104.653 298.746 104.676 298.763 104.702 298.774C104.727 298.785 104.754 298.791 104.782 298.79H112.689C112.717 298.79 112.745 298.785 112.772 298.774C112.798 298.763 112.822 298.747 112.842 298.727C112.863 298.707 112.879 298.683 112.889 298.656C112.9 298.63 112.906 298.602 112.906 298.573V292.643H104.584Z" fill="#41D4FF"/>
</g>
<g style="mix-blend-mode:multiply">
<path d="M104.584 279.835V298.475C104.582 298.502 104.585 298.53 104.593 298.557C104.602 298.583 104.616 298.607 104.635 298.628C104.653 298.648 104.676 298.664 104.702 298.676C104.727 298.687 104.754 298.692 104.782 298.692H112.689C112.746 298.692 112.802 298.669 112.842 298.629C112.883 298.588 112.906 298.533 112.906 298.475V295.964H107.134C106.835 295.967 106.538 295.91 106.261 295.797C105.984 295.684 105.733 295.516 105.521 295.305C105.309 295.093 105.142 294.841 105.029 294.564C104.915 294.287 104.858 293.991 104.861 293.691V279.578C104.825 279.557 104.782 279.548 104.74 279.553C104.698 279.558 104.659 279.576 104.628 279.605C104.597 279.633 104.576 279.671 104.568 279.713C104.56 279.754 104.566 279.797 104.584 279.835Z" fill="#F7F8FA"/>
</g>
<g style="mix-blend-mode:screen" opacity="0.5">
<path d="M104.584 279.834V284.638H112.946V279.795C112.946 279.737 112.923 279.682 112.882 279.641C112.841 279.6 112.786 279.577 112.728 279.577H104.822C104.787 279.568 104.75 279.569 104.716 279.579C104.681 279.589 104.65 279.608 104.626 279.634C104.601 279.661 104.584 279.693 104.577 279.729C104.57 279.764 104.572 279.8 104.584 279.834Z" fill="#50B6DD"/>
</g>
<path d="M463.504 282.997V295.351H470.521C470.85 295.35 471.174 295.43 471.464 295.585C471.754 295.741 472 295.966 472.181 296.241C472.401 296.568 472.518 296.953 472.517 297.348V308.219H483.666V294.205C483.666 291.236 482.487 288.388 480.39 286.287C478.292 284.185 475.447 283.002 472.478 282.997H463.504Z" fill="#50B6DD"/>
<path style="mix-blend-mode:screen" d="M480.562 288.294C481.946 290.271 482.124 292.623 480.977 293.394C479.831 294.165 477.795 293.118 476.411 291.082C475.028 289.046 474.869 286.753 476.016 285.982C477.162 285.211 479.198 286.239 480.562 288.294Z" fill="url(#paint30_linear_116_528)"/>
<path d="M486.828 301.598H468.169C468.049 301.598 467.951 301.695 467.951 301.815V309.741C467.951 309.862 468.049 309.959 468.169 309.959H486.828C486.948 309.959 487.046 309.862 487.046 309.741V301.815C487.046 301.695 486.948 301.598 486.828 301.598Z" fill="url(#paint31_linear_116_528)"/>
<g style="mix-blend-mode:multiply">
<path d="M474.02 301.598H468.09C468.032 301.598 467.977 301.621 467.936 301.661C467.895 301.702 467.872 301.757 467.872 301.815V309.722C467.872 309.779 467.895 309.835 467.936 309.875C467.977 309.916 468.032 309.939 468.09 309.939H474.02V301.598Z" fill="#41D4FF"/>
</g>
<g style="mix-blend-mode:multiply">
<path d="M486.828 301.598H468.169C468.111 301.598 468.056 301.621 468.015 301.661C467.974 301.702 467.951 301.757 467.951 301.815V309.722C467.951 309.779 467.974 309.835 468.015 309.875C468.056 309.916 468.111 309.939 468.169 309.939H470.659V304.128C470.653 303.61 470.827 303.107 471.153 302.705C471.368 302.44 471.639 302.226 471.947 302.079C472.255 301.932 472.591 301.855 472.932 301.855H487.046C487.052 301.823 487.05 301.79 487.042 301.759C487.034 301.728 487.019 301.699 486.998 301.675C486.977 301.65 486.951 301.63 486.922 301.617C486.892 301.604 486.86 301.597 486.828 301.598Z" fill="#F7F8FA"/>
</g>
<g style="mix-blend-mode:screen" opacity="0.5">
<path d="M486.828 301.598H482.005V309.979H486.828C486.886 309.979 486.941 309.956 486.982 309.915C487.023 309.874 487.046 309.819 487.046 309.761V301.855C487.052 301.823 487.05 301.79 487.042 301.759C487.034 301.728 487.019 301.699 486.998 301.675C486.977 301.65 486.951 301.63 486.922 301.617C486.892 301.604 486.86 301.597 486.828 301.598Z" fill="#50B6DD"/>
</g>
<path d="M468.9 279.617H460.974C460.854 279.617 460.756 279.715 460.756 279.835V298.494C460.756 298.614 460.854 298.712 460.974 298.712H468.9C469.02 298.712 469.117 298.614 469.117 298.494V279.835C469.117 279.715 469.02 279.617 468.9 279.617Z" fill="url(#paint32_linear_116_528)"/>
<g style="mix-blend-mode:multiply">
<path d="M460.756 292.643V298.573C460.756 298.602 460.762 298.63 460.773 298.656C460.784 298.683 460.8 298.707 460.82 298.727C460.84 298.747 460.864 298.763 460.89 298.774C460.917 298.785 460.945 298.79 460.974 298.79H468.88C468.909 298.79 468.937 298.785 468.963 298.774C468.99 298.763 469.014 298.747 469.034 298.727C469.054 298.707 469.07 298.683 469.081 298.656C469.092 298.63 469.098 298.602 469.098 298.573V292.643H460.756Z" fill="#41D4FF"/>
</g>
<g style="mix-blend-mode:multiply">
<path d="M460.756 279.834V298.474C460.756 298.532 460.779 298.587 460.82 298.628C460.861 298.669 460.916 298.692 460.974 298.692H468.88C468.938 298.692 468.993 298.669 469.034 298.628C469.075 298.587 469.098 298.532 469.098 298.474V295.964H463.326C463.027 295.966 462.73 295.909 462.453 295.796C462.176 295.683 461.924 295.515 461.713 295.304C461.501 295.092 461.334 294.841 461.22 294.564C461.107 294.287 461.05 293.99 461.053 293.691V279.577C461.015 279.561 460.974 279.556 460.933 279.562C460.893 279.568 460.855 279.586 460.824 279.612C460.793 279.639 460.77 279.674 460.758 279.714C460.746 279.753 460.745 279.795 460.756 279.834Z" fill="#F7F8FA"/>
</g>
<g style="mix-blend-mode:screen" opacity="0.5">
<path d="M460.756 279.835V284.638H469.137V279.795C469.137 279.737 469.114 279.682 469.074 279.641C469.033 279.601 468.978 279.578 468.92 279.578H461.013C460.978 279.57 460.941 279.572 460.907 279.582C460.872 279.593 460.841 279.611 460.816 279.637C460.79 279.662 460.771 279.694 460.761 279.728C460.751 279.763 460.749 279.799 460.756 279.835Z" fill="#50B6DD"/>
</g>
<path d="M123.501 310.69H221.681C221.945 310.694 222.201 310.595 222.393 310.413C222.571 310.227 222.671 309.979 222.669 309.721V280.981C222.671 280.723 222.571 280.475 222.393 280.289C222.201 280.107 221.945 280.008 221.681 280.012H123.501C123.373 280.009 123.246 280.032 123.127 280.08C123.008 280.127 122.9 280.199 122.809 280.289C122.625 280.473 122.518 280.721 122.513 280.981V309.721C122.518 309.982 122.625 310.229 122.809 310.413C122.9 310.503 123.008 310.575 123.127 310.622C123.246 310.67 123.373 310.693 123.501 310.69Z" fill="url(#paint33_linear_116_528)"/>
<path d="M214.98 297.92H130.202C129.656 297.92 129.213 298.363 129.213 298.909V304.779C129.213 305.325 129.656 305.768 130.202 305.768H214.98C215.526 305.768 215.968 305.325 215.968 304.779V298.909C215.968 298.363 215.526 297.92 214.98 297.92Z" fill="url(#paint34_linear_116_528)"/>
<g style="mix-blend-mode:multiply">
<path d="M156.827 297.92H130.202C129.94 297.92 129.688 298.025 129.503 298.21C129.318 298.395 129.213 298.647 129.213 298.909V304.839C129.213 305.101 129.318 305.352 129.503 305.538C129.688 305.723 129.94 305.827 130.202 305.827H156.827V297.92Z" fill="#F2F5F9"/>
</g>
<g style="mix-blend-mode:multiply">
<path d="M214.98 297.92H130.202C129.94 297.92 129.688 298.025 129.503 298.21C129.318 298.395 129.213 298.647 129.213 298.909V304.839C129.213 305.101 129.318 305.352 129.503 305.538C129.688 305.723 129.94 305.827 130.202 305.827H141.528C141.848 304.001 142.799 302.346 144.215 301.15C145.631 299.954 147.423 299.294 149.276 299.284H215.889V298.948C215.9 298.693 215.812 298.443 215.642 298.251C215.473 298.059 215.235 297.941 214.98 297.92Z" fill="#41D4FF"/>
</g>
<g style="mix-blend-mode:screen" opacity="0.3">
<path d="M214.98 297.92H193.059V305.827H214.98C215.242 305.827 215.494 305.723 215.679 305.538C215.864 305.352 215.968 305.101 215.968 304.839V298.909C215.968 298.647 215.864 298.395 215.679 298.21C215.494 298.025 215.242 297.92 214.98 297.92Z" fill="#50B6DD"/>
</g>
<path d="M136.507 273.865H208.734C208.947 273.866 209.155 273.936 209.327 274.063C209.491 274.198 209.614 274.376 209.683 274.577L212.687 285.626L215.85 296.676C215.893 296.822 215.902 296.976 215.874 297.126C215.847 297.277 215.785 297.418 215.692 297.54C215.6 297.661 215.48 297.759 215.342 297.825C215.205 297.891 215.054 297.924 214.901 297.921H130.202C130.049 297.924 129.898 297.891 129.76 297.825C129.623 297.759 129.503 297.661 129.411 297.54C129.318 297.418 129.256 297.277 129.228 297.126C129.201 296.976 129.209 296.822 129.253 296.676L132.416 285.626L135.558 274.577C135.627 274.376 135.75 274.198 135.914 274.063C136.088 273.939 136.294 273.87 136.507 273.865Z" fill="url(#paint35_linear_116_528)"/>
<g style="mix-blend-mode:multiply">
<path d="M136.507 274.201C136.293 274.201 136.085 274.271 135.914 274.399C135.743 274.527 135.618 274.708 135.558 274.913L129.253 297.012C129.214 297.158 129.208 297.311 129.237 297.459C129.267 297.608 129.329 297.747 129.421 297.868C129.513 297.988 129.631 298.086 129.766 298.153C129.901 298.221 130.05 298.256 130.202 298.257H156.827L160.78 274.201H136.507Z" fill="#41D4FF"/>
</g>
<g style="mix-blend-mode:multiply">
<path d="M137.416 289.54L141.488 273.865H136.507C136.293 273.865 136.085 273.934 135.914 274.063C135.743 274.191 135.618 274.371 135.558 274.577L129.253 296.676C129.214 296.822 129.208 296.975 129.237 297.123C129.267 297.271 129.329 297.411 129.421 297.531C129.513 297.652 129.631 297.749 129.766 297.817C129.901 297.884 130.05 297.92 130.202 297.921H214.98C215.131 297.92 215.28 297.884 215.416 297.817C215.551 297.749 215.669 297.652 215.761 297.531C215.852 297.411 215.915 297.271 215.944 297.123C215.973 296.975 215.968 296.822 215.929 296.676V296.3H142.793C141.956 296.32 141.126 296.146 140.368 295.792C139.61 295.437 138.945 294.912 138.424 294.257C137.903 293.602 137.541 292.835 137.366 292.017C137.191 291.198 137.209 290.35 137.416 289.54Z" fill="#41D4FF"/>
</g>
<path style="mix-blend-mode:screen" d="M207.706 297.921L201.322 273.865H136.507C136.293 273.865 136.085 273.934 135.914 274.063C135.743 274.191 135.618 274.371 135.559 274.577L135.42 275.091H183.038C184.783 275.094 186.471 275.716 187.802 276.844C189.133 277.973 190.022 279.536 190.312 281.258L193.099 297.921H207.706Z" fill="url(#paint36_linear_116_528)"/>
<path d="M121.366 305.788H223.816C223.967 305.789 224.116 305.825 224.251 305.892C224.387 305.96 224.505 306.057 224.596 306.178C224.688 306.298 224.751 306.438 224.78 306.586C224.809 306.734 224.804 306.888 224.764 307.034L215.791 336.031L204.998 502.642C204.998 512.526 172.601 512.526 172.601 512.526C172.601 512.526 140.184 512.526 140.184 502.642L129.411 336.031L120.417 307.014C120.382 306.869 120.379 306.718 120.41 306.572C120.441 306.426 120.504 306.289 120.595 306.171C120.687 306.054 120.803 305.958 120.937 305.892C121.07 305.825 121.217 305.79 121.366 305.788Z" fill="url(#paint37_linear_116_528)"/>
<path style="mix-blend-mode:multiply" d="M121.366 305.788H223.816C223.967 305.789 224.116 305.824 224.251 305.892C224.387 305.959 224.505 306.057 224.596 306.177C224.688 306.298 224.751 306.437 224.78 306.586C224.809 306.734 224.804 306.887 224.764 307.033L220.277 321.542L215.79 336.031H129.411L124.904 321.522L120.417 307.014C120.378 306.868 120.373 306.714 120.402 306.566C120.431 306.418 120.494 306.278 120.585 306.158C120.677 306.037 120.795 305.94 120.93 305.872C121.066 305.805 121.215 305.769 121.366 305.768V305.788Z" fill="url(#paint38_linear_116_528)"/>
<g style="mix-blend-mode:multiply">
<path d="M150.126 336.366C149.968 330.883 149.513 325.413 148.762 319.98L146.786 306.143H121.366C121.213 306.143 121.061 306.179 120.924 306.248C120.787 306.316 120.668 306.416 120.575 306.539C120.483 306.661 120.421 306.804 120.394 306.955C120.366 307.106 120.374 307.261 120.417 307.408L129.411 336.406L140.184 503.037C140.184 505.172 141.726 506.832 144.137 508.137C147.723 509.849 151.56 510.977 155.503 511.477L150.126 336.366Z" fill="#41D4FF"/>
</g>
<g style="mix-blend-mode:multiply">
<path d="M121.366 305.788C121.215 305.789 121.066 305.825 120.93 305.892C120.795 305.96 120.677 306.057 120.585 306.178C120.494 306.298 120.431 306.438 120.402 306.586C120.373 306.734 120.378 306.888 120.417 307.034L129.411 336.031L140.184 502.642C140.184 504.777 141.726 506.457 144.137 507.762L133.009 336.031L123.738 305.788H121.366Z" fill="#41D4FF"/>
</g>
<path style="mix-blend-mode:multiply" d="M215.791 336.031H129.411L130.755 356.904C130.755 356.904 139.156 339.114 172.601 339.114C206.046 339.114 214.427 356.904 214.427 356.904L215.791 336.031Z" fill="url(#paint39_linear_116_528)"/>
<path style="mix-blend-mode:screen" d="M204.504 305.788H121.366C121.215 305.789 121.066 305.824 120.93 305.892C120.795 305.959 120.677 306.057 120.585 306.177C120.494 306.298 120.431 306.437 120.402 306.586C120.373 306.734 120.378 306.887 120.417 307.033L120.714 308.002C120.892 307.838 121.124 307.746 121.366 307.745H189.639C190.7 307.752 191.748 307.988 192.709 308.437C193.671 308.886 194.524 309.537 195.211 310.345C195.898 311.154 196.402 312.102 196.689 313.123C196.976 314.145 197.039 315.216 196.874 316.264L196.36 319.763C195.609 325.196 195.154 330.667 194.996 336.149L189.639 511.221C194.759 510.371 199.76 509.027 202.586 506.872L207.864 336.031L214.98 305.768L204.504 305.788Z" fill="url(#paint40_linear_116_528)"/>
<path d="M129.213 305.788C132.831 305.669 136.448 305.63 140.065 305.551L150.897 305.412C158.132 305.412 165.366 305.412 172.64 305.412C179.914 305.412 187.09 305.412 194.383 305.531L205.215 305.65C208.833 305.65 212.45 305.788 216.067 305.887C212.45 305.887 208.833 306.025 205.215 306.104L194.383 306.243C187.149 306.243 179.914 306.243 172.64 306.243C165.366 306.243 158.171 306.243 150.897 306.243L140.065 306.124L129.213 305.788Z" fill="white"/>
<path d="M239.846 310.69H338.046C338.174 310.693 338.301 310.67 338.42 310.622C338.539 310.575 338.647 310.503 338.738 310.413C338.922 310.229 339.029 309.982 339.034 309.721V280.981C339.029 280.721 338.922 280.473 338.738 280.289C338.647 280.199 338.539 280.127 338.42 280.08C338.301 280.032 338.174 280.009 338.046 280.012H239.846C239.718 280.009 239.591 280.032 239.472 280.08C239.353 280.127 239.245 280.199 239.155 280.289C238.97 280.473 238.864 280.721 238.858 280.981V309.721C238.864 309.982 238.97 310.229 239.155 310.413C239.245 310.503 239.353 310.575 239.472 310.622C239.591 310.67 239.718 310.693 239.846 310.69Z" fill="url(#paint41_linear_116_528)"/>
<path d="M331.345 297.92H246.567C246.021 297.92 245.579 298.363 245.579 298.909V304.779C245.579 305.325 246.021 305.768 246.567 305.768H331.345C331.891 305.768 332.334 305.325 332.334 304.779V298.909C332.334 298.363 331.891 297.92 331.345 297.92Z" fill="#555966"/>
<g style="mix-blend-mode:multiply">
<path d="M273.173 297.92H246.547C246.288 297.926 246.042 298.032 245.861 298.217C245.68 298.402 245.579 298.65 245.579 298.909V304.839C245.576 304.968 245.599 305.096 245.647 305.215C245.694 305.335 245.765 305.444 245.855 305.536C245.945 305.628 246.053 305.702 246.172 305.751C246.291 305.801 246.418 305.827 246.547 305.827H273.173V297.92Z" fill="#BBBDC2"/>
</g>
<g style="mix-blend-mode:multiply">
<path d="M331.286 297.92H246.488C246.229 297.926 245.983 298.032 245.802 298.217C245.621 298.402 245.519 298.65 245.519 298.909V304.839C245.517 304.968 245.54 305.096 245.587 305.215C245.635 305.335 245.706 305.444 245.796 305.536C245.886 305.628 245.994 305.702 246.113 305.751C246.231 305.801 246.359 305.827 246.488 305.827H257.913C258.232 304.004 259.18 302.352 260.592 301.156C262.005 299.961 263.791 299.298 265.641 299.284H332.274V298.948C332.277 298.816 332.253 298.684 332.205 298.561C332.157 298.438 332.085 298.325 331.993 298.23C331.901 298.134 331.792 298.058 331.67 298.005C331.549 297.952 331.418 297.923 331.286 297.92Z" fill="#41D4FF"/>
</g>
<g style="mix-blend-mode:screen">
<path d="M331.286 297.92H309.345V305.827H331.286C331.548 305.827 331.799 305.723 331.985 305.538C332.17 305.352 332.274 305.101 332.274 304.839V298.909C332.269 298.648 332.164 298.4 331.979 298.216C331.795 298.031 331.547 297.925 331.286 297.92Z" fill="#151619"/>
</g>
<path d="M252.872 273.865H325.02C325.234 273.864 325.443 273.933 325.613 274.063C325.783 274.192 325.908 274.372 325.969 274.577L329.131 285.626L332.294 296.676C332.331 296.825 332.335 296.98 332.304 297.131C332.273 297.281 332.209 297.423 332.116 297.545C332.027 297.665 331.911 297.762 331.777 297.827C331.642 297.893 331.495 297.925 331.345 297.921H246.547C246.398 297.923 246.251 297.89 246.117 297.825C245.983 297.76 245.866 297.664 245.776 297.545C245.684 297.423 245.619 297.281 245.589 297.131C245.558 296.98 245.561 296.825 245.598 296.676L248.761 285.626L251.924 274.577C251.984 274.371 252.108 274.191 252.279 274.063C252.451 273.934 252.659 273.865 252.872 273.865Z" fill="url(#paint42_linear_116_528)"/>
<g style="mix-blend-mode:multiply">
<path d="M252.872 274.201C252.659 274.201 252.45 274.271 252.279 274.399C252.108 274.527 251.983 274.708 251.924 274.913L245.598 297.012C245.559 297.158 245.554 297.311 245.583 297.459C245.612 297.608 245.675 297.747 245.767 297.868C245.858 297.988 245.976 298.086 246.112 298.153C246.247 298.221 246.396 298.256 246.547 298.257H273.173L277.126 274.201H252.872Z" fill="#41D4FF"/>
</g>
<g style="mix-blend-mode:multiply">
<path d="M253.782 289.54L257.854 273.865H252.872C252.659 273.865 252.45 273.934 252.279 274.063C252.108 274.191 251.983 274.371 251.924 274.577L245.598 296.676C245.559 296.822 245.554 296.975 245.583 297.123C245.612 297.271 245.675 297.411 245.767 297.531C245.858 297.652 245.976 297.749 246.112 297.817C246.247 297.884 246.396 297.92 246.547 297.921H331.286C331.437 297.92 331.586 297.884 331.722 297.817C331.857 297.749 331.975 297.652 332.067 297.531C332.158 297.411 332.221 297.271 332.25 297.123C332.279 296.975 332.274 296.822 332.235 296.676L332.116 296.3H258.98C258.157 296.297 257.346 296.105 256.608 295.74C255.871 295.375 255.227 294.846 254.725 294.193C254.223 293.541 253.878 292.782 253.714 291.976C253.551 291.169 253.574 290.336 253.782 289.54Z" fill="#41D4FF"/>
</g>
<path style="mix-blend-mode:screen" d="M324.051 297.921L317.667 273.865H252.872C252.659 273.865 252.45 273.934 252.279 274.063C252.108 274.191 251.983 274.371 251.924 274.577L251.765 275.091H299.363C301.107 275.091 302.794 275.712 304.123 276.841C305.452 277.971 306.336 279.536 306.617 281.258L309.404 297.921H324.051Z" fill="url(#paint43_linear_116_528)"/>
<path d="M237.711 305.788H340.181C340.332 305.788 340.481 305.823 340.616 305.891C340.75 305.958 340.868 306.057 340.958 306.178C341.048 306.299 341.109 306.439 341.135 306.588C341.162 306.736 341.153 306.889 341.11 307.034L332.136 336.031L321.403 502.662C321.403 512.545 289.005 512.545 289.005 512.545C289.005 512.545 256.608 512.545 256.608 502.662L245.756 336.031L236.782 307.014C236.743 306.87 236.737 306.72 236.765 306.574C236.793 306.428 236.855 306.29 236.944 306.172C237.034 306.053 237.15 305.957 237.283 305.891C237.416 305.824 237.563 305.789 237.711 305.788Z" fill="url(#paint44_linear_116_528)"/>
<path style="mix-blend-mode:multiply" d="M237.711 305.788H340.181C340.331 305.79 340.479 305.826 340.613 305.895C340.747 305.964 340.863 306.062 340.952 306.184C341.045 306.302 341.108 306.441 341.136 306.589C341.163 306.737 341.154 306.89 341.11 307.034L336.623 321.542L332.136 336.031H245.756L241.269 321.522L236.782 307.014C236.738 306.87 236.729 306.717 236.757 306.569C236.784 306.421 236.847 306.282 236.941 306.164C237.032 306.046 237.149 305.951 237.282 305.886C237.416 305.821 237.563 305.788 237.711 305.788Z" fill="url(#paint45_linear_116_528)"/>
<g style="mix-blend-mode:multiply">
<path d="M266.492 336.366C266.327 330.883 265.865 325.413 265.108 319.98L263.131 306.143H237.712C237.56 306.146 237.411 306.184 237.276 306.254C237.141 306.324 237.024 306.424 236.935 306.546C236.845 306.669 236.784 306.81 236.758 306.96C236.732 307.109 236.74 307.263 236.783 307.408L245.756 336.406L256.549 503.037C256.549 505.172 258.071 506.832 260.502 508.137C264.082 509.849 267.912 510.977 271.848 511.477L266.492 336.366Z" fill="#41D4FF"/>
</g>
<g style="mix-blend-mode:multiply">
<path d="M237.712 305.788C237.561 305.788 237.412 305.823 237.277 305.891C237.142 305.958 237.025 306.056 236.934 306.177C236.844 306.298 236.783 306.439 236.757 306.587C236.731 306.736 236.739 306.889 236.783 307.033L245.756 336.031L256.549 502.642C256.549 504.777 258.071 506.457 260.502 507.762L249.354 336.031L239.985 305.768H237.712V305.788Z" fill="#41D4FF"/>
</g>
<path style="mix-blend-mode:multiply" d="M332.136 336.031H245.756L247.101 356.904C247.101 356.904 255.501 339.114 288.946 339.114C322.391 339.114 330.792 356.904 330.792 356.904L332.136 336.031Z" fill="url(#paint46_linear_116_528)"/>
<path style="mix-blend-mode:screen" d="M320.869 305.788H237.712C237.561 305.788 237.412 305.823 237.277 305.891C237.142 305.958 237.025 306.057 236.934 306.178C236.844 306.299 236.783 306.439 236.757 306.588C236.731 306.736 236.739 306.889 236.783 307.034L237.079 308.002C237.248 307.838 237.475 307.745 237.712 307.745H306.005C307.06 307.745 308.104 307.973 309.064 308.412C310.024 308.852 310.878 309.493 311.568 310.292C312.258 311.09 312.768 312.029 313.063 313.042C313.358 314.056 313.432 315.121 313.279 316.166L312.785 319.664C312.067 325.093 311.645 330.557 311.519 336.031L306.163 511.103C311.263 510.253 316.263 508.908 319.09 506.754L324.21 336.031L331.286 305.788H320.869Z" fill="url(#paint47_linear_116_528)"/>
<path d="M245.579 305.788C249.176 305.669 252.793 305.63 256.411 305.551L267.262 305.412C274.497 305.412 281.712 305.412 289.005 305.412C296.299 305.412 303.475 305.412 310.749 305.531L321.6 305.65C325.218 305.65 328.835 305.788 332.452 305.887C328.835 305.887 325.218 306.025 321.6 306.104L310.749 306.243C303.534 306.243 296.299 306.243 289.005 306.243C281.712 306.243 274.556 306.243 267.262 306.243L256.411 306.124C252.793 305.946 249.176 305.887 245.579 305.788Z" fill="white"/>
<path style="mix-blend-mode:multiply" d="M448.481 336.031H362.122L363.466 356.904C363.466 356.904 371.867 339.114 405.292 339.114C438.717 339.114 447.137 356.904 447.137 356.904L448.481 336.031Z" fill="url(#paint48_linear_116_528)"/>
<path d="M356.211 310.69H454.391C454.656 310.694 454.911 310.595 455.103 310.413C455.274 310.222 455.372 309.977 455.38 309.721V280.981C455.372 280.725 455.274 280.48 455.103 280.289C454.911 280.107 454.656 280.008 454.391 280.012H356.211C356.083 280.009 355.956 280.032 355.837 280.08C355.718 280.127 355.61 280.199 355.52 280.289C355.335 280.473 355.229 280.721 355.223 280.981V309.721C355.229 309.982 355.335 310.229 355.52 310.413C355.61 310.503 355.718 310.575 355.837 310.622C355.956 310.67 356.083 310.693 356.211 310.69Z" fill="url(#paint49_linear_116_528)"/>
<path d="M447.691 297.92H362.912C362.366 297.92 361.924 298.363 361.924 298.909V304.779C361.924 305.325 362.366 305.768 362.912 305.768H447.691C448.236 305.768 448.679 305.325 448.679 304.779V298.909C448.679 298.363 448.236 297.92 447.691 297.92Z" fill="#50B6DD"/>
<g style="mix-blend-mode:multiply">
<path d="M389.538 297.92H362.912C362.65 297.92 362.399 298.025 362.213 298.21C362.028 298.395 361.924 298.647 361.924 298.909V304.839C361.924 305.101 362.028 305.352 362.213 305.538C362.399 305.723 362.65 305.827 362.912 305.827H389.538V297.92Z" fill="#21B9E5"/>
</g>
<g style="mix-blend-mode:multiply">
<path d="M447.691 297.92H362.912C362.65 297.92 362.399 298.025 362.213 298.21C362.028 298.395 361.924 298.647 361.924 298.909V304.839C361.924 305.101 362.028 305.352 362.213 305.538C362.399 305.723 362.65 305.827 362.912 305.827H374.317C374.637 304.001 375.588 302.346 377.005 301.15C378.421 299.954 380.212 299.294 382.066 299.284H448.679V298.948C448.684 298.815 448.663 298.682 448.615 298.558C448.568 298.433 448.496 298.32 448.404 298.224C448.311 298.128 448.201 298.051 448.078 297.999C447.956 297.947 447.824 297.92 447.691 297.92Z" fill="#41D4FF"/>
</g>
<g style="mix-blend-mode:screen" opacity="0.2">
<path d="M447.691 297.92H425.75V305.827H447.691C447.953 305.827 448.204 305.723 448.389 305.538C448.575 305.352 448.679 305.101 448.679 304.839V298.909C448.679 298.647 448.575 298.395 448.389 298.21C448.204 298.025 447.953 297.92 447.691 297.92Z" fill="#50B6DD"/>
</g>
<path d="M369.218 273.865H441.385C441.598 273.87 441.805 273.939 441.978 274.063C442.142 274.198 442.265 274.376 442.334 274.577L445.477 285.626L448.639 296.676C448.683 296.822 448.692 296.976 448.664 297.126C448.637 297.277 448.574 297.418 448.482 297.54C448.389 297.661 448.269 297.759 448.132 297.825C447.994 297.891 447.843 297.924 447.691 297.921H362.912C362.76 297.924 362.608 297.891 362.471 297.825C362.334 297.759 362.214 297.661 362.121 297.54C362.029 297.418 361.966 297.277 361.939 297.126C361.911 296.976 361.92 296.822 361.963 296.676L365.126 285.626L368.269 274.577C368.338 274.376 368.461 274.198 368.625 274.063C368.798 273.939 369.005 273.87 369.218 273.865Z" fill="url(#paint50_linear_116_528)"/>
<g style="mix-blend-mode:multiply">
<path d="M369.218 273.865C369.004 273.865 368.796 273.934 368.625 274.063C368.454 274.191 368.329 274.371 368.269 274.577L361.964 296.676C361.924 296.822 361.919 296.975 361.948 297.123C361.977 297.271 362.04 297.411 362.132 297.531C362.223 297.652 362.341 297.749 362.477 297.817C362.612 297.884 362.761 297.92 362.912 297.921H389.538L393.491 273.865H369.218Z" fill="#41D4FF"/>
</g>
<g style="mix-blend-mode:multiply">
<path d="M370.127 289.54L374.199 273.865H369.218C369.004 273.865 368.796 273.934 368.625 274.063C368.454 274.191 368.329 274.371 368.269 274.577L361.964 296.676C361.924 296.822 361.919 296.975 361.948 297.123C361.977 297.271 362.04 297.411 362.132 297.531C362.223 297.652 362.341 297.749 362.477 297.817C362.612 297.884 362.761 297.92 362.912 297.921H447.691C447.842 297.92 447.991 297.884 448.126 297.817C448.262 297.749 448.38 297.652 448.471 297.531C448.563 297.411 448.626 297.271 448.655 297.123C448.684 296.975 448.679 296.822 448.639 296.676L448.521 296.3H375.385C374.557 296.306 373.739 296.121 372.994 295.759C372.249 295.398 371.597 294.87 371.089 294.217C370.58 293.563 370.229 292.801 370.062 291.99C369.896 291.179 369.918 290.341 370.127 289.54Z" fill="#41D4FF"/>
</g>
<path style="mix-blend-mode:screen" d="M440.417 297.921L434.072 273.865H369.218C369.004 273.865 368.796 273.934 368.625 274.063C368.454 274.191 368.329 274.371 368.269 274.577L368.131 275.091H415.709C417.454 275.094 419.142 275.716 420.473 276.844C421.804 277.973 422.693 279.536 422.983 281.258L425.75 297.921H440.417Z" fill="url(#paint51_linear_116_528)"/>
<path d="M354.077 305.788H456.526C456.677 305.789 456.826 305.825 456.962 305.892C457.097 305.96 457.215 306.057 457.307 306.178C457.399 306.298 457.461 306.438 457.49 306.586C457.52 306.734 457.514 306.888 457.475 307.034L448.481 336.031L437.709 502.642C437.709 512.526 405.311 512.526 405.311 512.526C405.311 512.526 372.894 512.526 372.894 502.642L362.122 336.031L353.128 307.014C353.092 306.869 353.09 306.718 353.12 306.572C353.151 306.426 353.215 306.289 353.306 306.171C353.397 306.054 353.514 305.958 353.647 305.892C353.781 305.825 353.928 305.79 354.077 305.788Z" fill="url(#paint52_linear_116_528)"/>
<path d="M448.481 336.031L437.709 502.642C437.709 512.525 405.311 512.525 405.311 512.525C405.311 512.525 372.894 512.525 372.894 502.642L362.122 336.031H448.481Z" fill="url(#paint53_linear_116_528)"/>
<g style="mix-blend-mode:multiply" opacity="0.5">
<path d="M378.192 470.146C378.192 478.052 404.264 478.052 404.264 478.052C404.264 478.052 430.355 478.052 430.355 470.146L439.033 336.031H369.514L378.192 470.146Z" fill="url(#paint54_linear_116_528)"/>
</g>
<path style="mix-blend-mode:multiply" d="M354.077 305.788H456.526C456.677 305.789 456.826 305.824 456.962 305.892C457.097 305.959 457.215 306.057 457.307 306.177C457.398 306.298 457.461 306.437 457.49 306.586C457.52 306.734 457.514 306.887 457.475 307.033L452.988 321.542L448.481 336.031H362.122L357.615 321.522L353.128 307.014C353.089 306.868 353.083 306.714 353.112 306.566C353.142 306.418 353.204 306.278 353.296 306.158C353.388 306.037 353.506 305.94 353.641 305.872C353.776 305.805 353.925 305.769 354.077 305.768V305.788Z" fill="url(#paint55_linear_116_528)"/>
<g style="mix-blend-mode:multiply">
<path d="M382.837 336.03C382.679 330.548 382.224 325.078 381.473 319.644L379.496 305.808H354.077C353.925 305.808 353.776 305.844 353.641 305.911C353.506 305.979 353.388 306.077 353.296 306.197C353.204 306.317 353.142 306.457 353.112 306.605C353.083 306.754 353.089 306.907 353.128 307.053L362.122 336.03L372.894 502.642C372.894 504.777 374.436 506.457 376.848 507.762C380.441 509.456 384.275 510.583 388.213 511.102L382.837 336.03Z" fill="#41D4FF"/>
</g>
<g style="mix-blend-mode:multiply">
<path d="M354.077 305.788C353.925 305.789 353.776 305.824 353.641 305.892C353.506 305.959 353.388 306.057 353.296 306.177C353.204 306.298 353.142 306.437 353.112 306.586C353.083 306.734 353.089 306.887 353.128 307.033L362.122 336.031L372.894 502.642C372.894 504.777 374.436 506.457 376.848 507.762L365.719 336.031L356.35 305.768H354.077V305.788Z" fill="#41D4FF"/>
</g>
<path style="mix-blend-mode:screen" d="M437.214 305.788H354.077C353.925 305.789 353.776 305.824 353.641 305.892C353.506 305.959 353.388 306.057 353.296 306.177C353.204 306.298 353.142 306.437 353.112 306.586C353.083 306.734 353.089 306.887 353.128 307.033L353.424 308.002C353.602 307.838 353.835 307.746 354.077 307.745H422.35C423.406 307.746 424.45 307.973 425.411 308.412C426.372 308.852 427.227 309.492 427.919 310.291C428.61 311.089 429.122 312.027 429.42 313.04C429.718 314.054 429.794 315.12 429.644 316.165L429.13 319.664C428.379 325.097 427.923 330.568 427.766 336.051L422.409 511.122C427.529 510.272 432.53 508.928 435.337 506.773L440.555 336.031L447.691 305.768L437.214 305.788Z" fill="url(#paint56_linear_116_528)"/>
<path d="M361.924 305.788C365.541 305.669 369.158 305.63 372.776 305.551L383.608 305.412C390.842 305.412 398.077 305.412 405.351 305.412C412.625 305.412 419.8 305.412 427.094 305.531L437.926 305.65C441.543 305.65 445.16 305.788 448.778 305.887C445.16 305.887 441.543 306.025 437.926 306.104L427.094 306.243C419.859 306.243 412.625 306.243 405.351 306.243C398.077 306.243 390.882 306.243 383.608 306.243L372.776 306.124L361.924 305.788Z" fill="white"/>
<path d="M32.1798 237.297C32.1798 243.424 28.0684 248.386 21.9606 248.386C15.8527 248.386 11.7216 243.424 11.7216 237.297C11.7216 226.979 21.9606 201.717 21.9606 201.717C21.9606 201.717 32.1798 226.979 32.1798 237.297Z" fill="#50B6DD"/>
<path d="M109.131 265.108L91.8943 256.767V261.926H53.0137C52.1382 261.926 51.2986 262.274 50.6795 262.893C50.0605 263.512 49.7127 264.351 49.7127 265.227C49.7127 266.102 50.0605 266.942 50.6795 267.561C51.2986 268.18 52.1382 268.528 53.0137 268.528H91.8943V273.904L109.131 265.108Z" fill="#F24343"/>
<path d="M529.761 232.573L512.525 224.231V229.39H473.604C473.151 229.355 472.695 229.414 472.265 229.564C471.835 229.713 471.441 229.95 471.107 230.259C470.773 230.568 470.507 230.943 470.324 231.36C470.142 231.776 470.048 232.227 470.048 232.682C470.048 233.137 470.142 233.587 470.324 234.004C470.507 234.421 470.773 234.795 471.107 235.104C471.441 235.413 471.835 235.65 472.265 235.799C472.695 235.949 473.151 236.008 473.604 235.973H512.485V241.349L529.761 232.573Z" fill="#50B6DD"/>
<defs>
<linearGradient id="paint0_linear_116_528" x1="288.946" y1="203.556" x2="288.946" y2="172.72" gradientUnits="userSpaceOnUse">
<stop stop-color="#D6DCEA"/>
<stop offset="0.5" stop-color="#EAEDF6"/>
</linearGradient>
<linearGradient id="paint1_linear_116_528" x1="151.53" y1="203.556" x2="151.53" y2="172.72" gradientUnits="userSpaceOnUse">
<stop/>
<stop offset="1" stop-color="#262626"/>
</linearGradient>
<linearGradient id="paint2_linear_116_528" x1="426.422" y1="203.556" x2="426.422" y2="172.72" gradientUnits="userSpaceOnUse">
<stop/>
<stop offset="1" stop-color="#4D4D4D"/>
</linearGradient>
<linearGradient id="paint3_linear_116_528" x1="258.012" y1="150.661" x2="264.614" y2="150.661" gradientUnits="userSpaceOnUse">
<stop stop-color="#D6DCEA"/>
<stop offset="1" stop-color="#EAEDF6"/>
</linearGradient>
<linearGradient id="paint4_linear_116_528" x1="258.012" y1="150.661" x2="260.443" y2="150.661" gradientUnits="userSpaceOnUse">
<stop stop-color="#D6DCEA"/>
<stop offset="1" stop-color="#EAEDF6"/>
</linearGradient>
<linearGradient id="paint5_linear_116_528" x1="263.467" y1="157.145" x2="263.467" y2="144.178" gradientUnits="userSpaceOnUse">
<stop stop-color="#4D4D4D"/>
<stop offset="1"/>
</linearGradient>
<linearGradient id="paint6_linear_116_528" x1="256.648" y1="162.126" x2="277.778" y2="162.126" gradientUnits="userSpaceOnUse">
<stop stop-color="#EAEDF6"/>
<stop offset="1" stop-color="#D6DCEA"/>
</linearGradient>
<linearGradient id="paint7_linear_116_528" x1="263.131" y1="167.087" x2="263.131" y2="157.145" gradientUnits="userSpaceOnUse">
<stop stop-color="#4D4D4D"/>
<stop offset="1"/>
</linearGradient>
<linearGradient id="paint8_linear_116_528" x1="256.648" y1="162.126" x2="277.778" y2="162.126" gradientUnits="userSpaceOnUse">
<stop stop-color="#EAEDF6"/>
<stop offset="1" stop-color="#D6DCEA"/>
</linearGradient>
<linearGradient id="paint9_linear_116_528" x1="277.778" y1="153.587" x2="300.114" y2="153.587" gradientUnits="userSpaceOnUse">
<stop stop-color="#D6DCEA"/>
<stop offset="1" stop-color="#EAEDF6"/>
</linearGradient>
<linearGradient id="paint10_linear_116_528" x1="277.778" y1="153.587" x2="286.001" y2="153.587" gradientUnits="userSpaceOnUse">
<stop stop-color="#D6DCEA"/>
<stop offset="1" stop-color="#EAEDF6"/>
</linearGradient>
<linearGradient id="paint11_linear_116_528" x1="288.946" y1="172.72" x2="288.946" y2="131.903" gradientUnits="userSpaceOnUse">
<stop stop-color="#4D4D4D"/>
<stop offset="1"/>
</linearGradient>
<linearGradient id="paint12_linear_116_528" x1="282.917" y1="70.2512" x2="294.975" y2="70.2512" gradientUnits="userSpaceOnUse">
<stop stop-color="#D6DCEA"/>
<stop offset="1" stop-color="#EAEDF6"/>
</linearGradient>
<linearGradient id="paint13_linear_116_528" x1="288.946" y1="134.472" x2="288.946" y2="62.364" gradientUnits="userSpaceOnUse">
<stop stop-color="#EAEDF6"/>
<stop offset="1" stop-color="#D6DCEA"/>
</linearGradient>
<linearGradient id="paint14_linear_116_528" x1="282.917" y1="31.1725" x2="294.975" y2="31.1725" gradientUnits="userSpaceOnUse">
<stop stop-color="#D6DCEA"/>
<stop offset="1" stop-color="#EAEDF6"/>
</linearGradient>
<linearGradient id="paint15_linear_116_528" x1="288.946" y1="62.3647" x2="288.946" y2="0.00151807" gradientUnits="userSpaceOnUse">
<stop stop-color="#4D4D4D"/>
<stop offset="1"/>
</linearGradient>
<linearGradient id="paint16_linear_116_528" x1="141.488" y1="273.865" x2="436.404" y2="273.865" gradientUnits="userSpaceOnUse">
<stop stop-color="#9DABCC"/>
<stop offset="0.2" stop-color="#B5C0D9"/>
<stop offset="1" stop-color="#D6DCEA"/>
</linearGradient>
<linearGradient id="paint17_linear_116_528" x1="122.513" y1="253.684" x2="455.38" y2="253.684" gradientUnits="userSpaceOnUse">
<stop stop-color="#D6DCEA"/>
<stop offset="1" stop-color="#EAEDF6"/>
</linearGradient>
<linearGradient id="paint18_linear_116_528" x1="21.9606" y1="298.731" x2="21.9606" y2="279.617" gradientUnits="userSpaceOnUse">
<stop stop-color="#407BFF"/>
<stop offset="0.2" stop-color="#B5C0D9"/>
<stop offset="1" stop-color="#D6DCEA"/>
</linearGradient>
<linearGradient id="paint19_linear_116_528" x1="12.8285" y1="289.165" x2="31.0927" y2="289.165" gradientUnits="userSpaceOnUse">
<stop/>
<stop offset="1" stop-color="#4D4D4D"/>
</linearGradient>
<linearGradient id="paint20_linear_116_528" x1="6.66129" y1="299.542" x2="6.66129" y2="278.807" gradientUnits="userSpaceOnUse">
<stop stop-color="#9DABCC"/>
<stop offset="1" stop-color="#D6DCEA"/>
</linearGradient>
<linearGradient id="paint21_linear_116_528" x1="12.5912" y1="300.293" x2="12.5912" y2="278.056" gradientUnits="userSpaceOnUse">
<stop stop-color="#407BFF"/>
<stop offset="1" stop-color="#EAEDF6"/>
</linearGradient>
<linearGradient id="paint22_linear_116_528" x1="9.62623" y1="300.293" x2="9.62623" y2="278.056" gradientUnits="userSpaceOnUse">
<stop stop-color="#407BFF"/>
<stop offset="1" stop-color="#EAEDF6"/>
</linearGradient>
<linearGradient id="paint23_linear_116_528" x1="6.66132" y1="300.293" x2="6.66132" y2="278.056" gradientUnits="userSpaceOnUse">
<stop stop-color="#407BFF"/>
<stop offset="1" stop-color="#EAEDF6"/>
</linearGradient>
<linearGradient id="paint24_linear_116_528" x1="3.7359" y1="300.293" x2="3.7359" y2="278.056" gradientUnits="userSpaceOnUse">
<stop stop-color="#407BFF"/>
<stop offset="1" stop-color="#EAEDF6"/>
</linearGradient>
<linearGradient id="paint25_linear_116_528" x1="0.77085" y1="300.293" x2="0.77085" y2="278.056" gradientUnits="userSpaceOnUse">
<stop stop-color="#D6DCEA"/>
<stop offset="1" stop-color="#EAEDF6"/>
</linearGradient>
<linearGradient id="paint26_linear_116_528" x1="13.3424" y1="282.641" x2="0.0198059" y2="282.641" gradientUnits="userSpaceOnUse">
<stop/>
<stop offset="1" stop-color="#4D4D4D"/>
</linearGradient>
<linearGradient id="paint27_linear_116_528" x1="18.7584" y1="273.984" x2="25.1627" y2="273.984" gradientUnits="userSpaceOnUse">
<stop stop-color="#D6DCEA"/>
<stop offset="1" stop-color="#EAEDF6"/>
</linearGradient>
<linearGradient id="paint28_linear_116_528" x1="17.2562" y1="277.363" x2="26.665" y2="277.363" gradientUnits="userSpaceOnUse">
<stop stop-color="#D6DCEA"/>
<stop offset="1" stop-color="#EAEDF6"/>
</linearGradient>
<linearGradient id="paint29_linear_116_528" x1="108.755" y1="298.731" x2="108.755" y2="279.617" gradientUnits="userSpaceOnUse">
<stop stop-color="#D6DCEA"/>
<stop offset="1" stop-color="#EAEDF6"/>
</linearGradient>
<linearGradient id="paint30_linear_116_528" x1="477.151" y1="290.372" x2="484.739" y2="301.618" gradientUnits="userSpaceOnUse">
<stop stop-color="#333333"/>
<stop offset="1"/>
</linearGradient>
<linearGradient id="paint31_linear_116_528" x1="467.951" y1="305.788" x2="487.065" y2="305.788" gradientUnits="userSpaceOnUse">
<stop stop-color="#D6DCEA"/>
<stop offset="1" stop-color="#EAEDF6"/>
</linearGradient>
<linearGradient id="paint32_linear_116_528" x1="464.947" y1="298.731" x2="464.947" y2="279.617" gradientUnits="userSpaceOnUse">
<stop stop-color="#D6DCEA"/>
<stop offset="1" stop-color="#EAEDF6"/>
</linearGradient>
<linearGradient id="paint33_linear_116_528" x1="172.581" y1="310.69" x2="172.581" y2="280.012" gradientUnits="userSpaceOnUse">
<stop stop-color="#D2D9E7"/>
<stop offset="1" stop-color="#EAEDF6"/>
</linearGradient>
<linearGradient id="paint34_linear_116_528" x1="129.213" y1="301.854" x2="215.968" y2="301.854" gradientUnits="userSpaceOnUse">
<stop stop-color="#9DABCC"/>
<stop offset="1" stop-color="#D6DCEA"/>
</linearGradient>
<linearGradient id="paint35_linear_116_528" x1="129.213" y1="285.903" x2="215.968" y2="285.903" gradientUnits="userSpaceOnUse">
<stop stop-color="#D6DCEA"/>
<stop offset="1" stop-color="#EAEDF6"/>
</linearGradient>
<linearGradient id="paint36_linear_116_528" x1="171.553" y1="297.921" x2="171.553" y2="273.865" gradientUnits="userSpaceOnUse">
<stop/>
<stop offset="1" stop-color="#4D4D4D"/>
</linearGradient>
<linearGradient id="paint37_linear_116_528" x1="120.378" y1="409.127" x2="224.804" y2="409.127" gradientUnits="userSpaceOnUse">
<stop stop-color="#D6DCEA"/>
<stop offset="1" stop-color="#EAEDF6"/>
</linearGradient>
<linearGradient id="paint38_linear_116_528" x1="120.378" y1="320.909" x2="224.804" y2="320.909" gradientUnits="userSpaceOnUse">
<stop stop-color="#D6DCEA"/>
<stop offset="0.5" stop-color="#F6F7FC"/>
<stop offset="1" stop-color="white"/>
</linearGradient>
<linearGradient id="paint39_linear_116_528" x1="129.411" y1="346.487" x2="215.791" y2="346.487" gradientUnits="userSpaceOnUse">
<stop stop-color="#F5F7FA"/>
<stop offset="1" stop-color="white"/>
</linearGradient>
<linearGradient id="paint40_linear_116_528" x1="167.679" y1="511.122" x2="167.679" y2="305.788" gradientUnits="userSpaceOnUse">
<stop/>
<stop offset="1" stop-color="#4D4D4D"/>
</linearGradient>
<linearGradient id="paint41_linear_116_528" x1="288.946" y1="310.69" x2="288.946" y2="280.012" gradientUnits="userSpaceOnUse">
<stop stop-color="#D2D9E7"/>
<stop offset="1" stop-color="#EAEDF6"/>
</linearGradient>
<linearGradient id="paint42_linear_116_528" x1="245.559" y1="285.903" x2="332.314" y2="285.903" gradientUnits="userSpaceOnUse">
<stop stop-color="#D6DCEA"/>
<stop offset="1" stop-color="#EAEDF6"/>
</linearGradient>
<linearGradient id="paint43_linear_116_528" x1="287.918" y1="297.921" x2="287.918" y2="273.865" gradientUnits="userSpaceOnUse">
<stop/>
<stop offset="1" stop-color="#4D4D4D"/>
</linearGradient>
<linearGradient id="paint44_linear_116_528" x1="236.723" y1="409.127" x2="341.149" y2="409.127" gradientUnits="userSpaceOnUse">
<stop stop-color="#D6DCEA"/>
<stop offset="1" stop-color="#EAEDF6"/>
</linearGradient>
<linearGradient id="paint45_linear_116_528" x1="236.723" y1="320.91" x2="341.149" y2="320.91" gradientUnits="userSpaceOnUse">
<stop stop-color="#D6DCEA"/>
<stop offset="0.5" stop-color="#F6F7FC"/>
<stop offset="1" stop-color="white"/>
</linearGradient>
<linearGradient id="paint46_linear_116_528" x1="245.756" y1="346.487" x2="332.136" y2="346.487" gradientUnits="userSpaceOnUse">
<stop stop-color="#F5F7FA"/>
<stop offset="1" stop-color="white"/>
</linearGradient>
<linearGradient id="paint47_linear_116_528" x1="284.044" y1="511.122" x2="284.044" y2="305.788" gradientUnits="userSpaceOnUse">
<stop/>
<stop offset="1" stop-color="#4D4D4D"/>
</linearGradient>
<linearGradient id="paint48_linear_116_528" x1="362.122" y1="346.487" x2="448.481" y2="346.487" gradientUnits="userSpaceOnUse">
<stop stop-color="#F5F7FA"/>
<stop offset="1" stop-color="white"/>
</linearGradient>
<linearGradient id="paint49_linear_116_528" x1="405.292" y1="310.69" x2="405.292" y2="280.012" gradientUnits="userSpaceOnUse">
<stop stop-color="#D2D9E7"/>
<stop offset="1" stop-color="#EAEDF6"/>
</linearGradient>
<linearGradient id="paint50_linear_116_528" x1="361.924" y1="285.903" x2="448.679" y2="285.903" gradientUnits="userSpaceOnUse">
<stop stop-color="#D6DCEA"/>
<stop offset="1" stop-color="#EAEDF6"/>
</linearGradient>
<linearGradient id="paint51_linear_116_528" x1="404.264" y1="297.921" x2="404.264" y2="273.865" gradientUnits="userSpaceOnUse">
<stop/>
<stop offset="1" stop-color="#4D4D4D"/>
</linearGradient>
<linearGradient id="paint52_linear_116_528" x1="353.088" y1="409.127" x2="457.495" y2="409.127" gradientUnits="userSpaceOnUse">
<stop stop-color="#D6DCEA"/>
<stop offset="1" stop-color="#EAEDF6"/>
</linearGradient>
<linearGradient id="paint53_linear_116_528" x1="362.122" y1="424.268" x2="448.481" y2="424.268" gradientUnits="userSpaceOnUse">
<stop stop-color="#407BFF"/>
<stop offset="1" stop-color="#C2DAFF"/>
</linearGradient>
<linearGradient id="paint54_linear_116_528" x1="369.514" y1="407.032" x2="439.033" y2="407.032" gradientUnits="userSpaceOnUse">
<stop stop-color="#407BFF"/>
<stop offset="1" stop-color="#CDE9FD"/>
</linearGradient>
<linearGradient id="paint55_linear_116_528" x1="353.088" y1="320.909" x2="457.495" y2="320.909" gradientUnits="userSpaceOnUse">
<stop stop-color="#D6DCEA"/>
<stop offset="0.5" stop-color="#F6F7FC"/>
<stop offset="1" stop-color="white"/>
</linearGradient>
<linearGradient id="paint56_linear_116_528" x1="400.389" y1="511.122" x2="400.389" y2="305.788" gradientUnits="userSpaceOnUse">
<stop/>
<stop offset="1" stop-color="#4D4D4D"/>
</linearGradient>
</defs>
</svg>
