<svg width="30" height="31" viewBox="0 0 30 31" fill="none" xmlns="http://www.w3.org/2000/svg">
<rect x="0.5" y="0.95459" width="29" height="29" rx="9.5" fill="#00A1CF"/>
<path d="M6.23723 14.4816C11.07 12.506 14.2918 11.2035 15.9027 10.5742C20.5076 8.77734 21.4632 8.46525 22.0874 8.45468C22.2247 8.45262 22.5303 8.48446 22.7297 8.63576C22.8954 8.76336 22.9421 8.93593 22.9654 9.05709C22.9861 9.17813 23.0146 9.454 22.9913 9.66934C22.7426 12.129 21.6627 18.098 21.1136 20.853C20.8831 22.0187 20.4247 22.4095 19.9818 22.4477C19.0184 22.5308 18.288 21.8507 17.3557 21.2773C15.8975 20.3798 15.074 19.8212 13.6573 18.9455C12.0205 17.9334 13.0823 17.3771 14.0147 16.468C14.2581 16.2301 18.5004 12.6098 18.5807 12.2814C18.591 12.2404 18.6014 12.0872 18.503 12.0065C18.4072 11.9256 18.2647 11.9533 18.1611 11.9752C18.0135 12.0063 15.6852 13.452 11.1684 16.312C10.508 16.7383 9.9097 16.9461 9.371 16.9352C8.78051 16.9233 7.64095 16.6212 6.79405 16.363C5.7581 16.0463 4.93192 15.8789 5.00443 15.341C5.04069 15.061 5.45249 14.7744 6.23723 14.4816Z" fill="white"/>
<rect x="0.5" y="0.95459" width="29" height="29" rx="9.5" stroke="white"/>
</svg>
