<svg width="30" height="30" viewBox="0 0 30 30" fill="none" xmlns="http://www.w3.org/2000/svg">
<rect x="1" y="1" width="28" height="28" rx="9" fill="white"/>
<path d="M6.23723 14.027C11.07 12.0514 14.2918 10.7489 15.9027 10.1196C20.5076 8.32275 21.4632 8.01066 22.0874 8.00009C22.2247 7.99803 22.5303 8.02987 22.7297 8.18117C22.8954 8.30877 22.9421 8.48134 22.9654 8.6025C22.9861 8.72354 23.0146 8.99941 22.9913 9.21475C22.7426 11.6745 21.6627 17.6434 21.1136 20.3984C20.8831 21.5641 20.4247 21.9549 19.9818 21.9931C19.0184 22.0762 18.288 21.3961 17.3557 20.8228C15.8975 19.9252 15.074 19.3666 13.6573 18.4909C12.0205 17.4788 13.0823 16.9225 14.0147 16.0135C14.2581 15.7755 18.5004 12.1552 18.5807 11.8269C18.591 11.7858 18.6014 11.6327 18.503 11.552C18.4072 11.471 18.2647 11.4987 18.1611 11.5206C18.0135 11.5517 15.6852 12.9974 11.1684 15.8574C10.508 16.2837 9.9097 16.4915 9.371 16.4806C8.78051 16.4687 7.64095 16.1666 6.79405 15.9085C5.7581 15.5918 4.93192 15.4243 5.00443 14.8864C5.04069 14.6064 5.45249 14.3199 6.23723 14.027Z" fill="#21B9E5"/>
<rect x="1" y="1" width="28" height="28" rx="9" stroke="#21B9E5" stroke-width="2"/>
</svg>
