<svg width="198" height="257" viewBox="0 0 198 257" fill="none" xmlns="http://www.w3.org/2000/svg">
<g clip-path="url(#clip0_562_2)">
<path d="M151.692 39.2774C152.581 39.1431 153.436 38.8346 154.206 38.3696C154.975 37.9046 155.646 37.2921 156.18 36.5672C156.713 35.8423 157.099 35.0191 157.314 34.1448C157.53 33.2704 157.571 32.362 157.436 31.4714L154.829 16.7164C154.792 16.3854 154.653 16.0742 154.431 15.8255C154.21 15.5769 153.917 15.4032 153.593 15.3284C153.269 15.2536 152.93 15.2813 152.623 15.4078C152.315 15.5343 152.054 15.7533 151.876 16.0346L143.501 27.4003C142.841 28.3239 142.007 29.1083 141.045 29.7087C140.082 30.3091 139.011 30.7136 137.892 30.8993C136.774 31.085 135.629 31.0482 134.525 30.7909C133.42 30.5336 132.376 30.061 131.454 29.3999C130.531 28.7388 129.748 27.9022 129.148 26.938C128.548 25.9738 128.143 24.9006 127.957 23.78C127.771 22.6594 127.807 21.5133 128.063 20.407C128.32 19.3006 128.791 18.2557 129.45 17.332L137.88 5.78497C138.064 5.51754 138.167 5.20278 138.177 4.87813C138.187 4.55348 138.104 4.2327 137.937 3.95407C137.77 3.67544 137.527 3.45066 137.236 3.30665C136.945 3.16264 136.619 3.10546 136.297 3.14187L121.568 5.74434C120.683 5.87789 119.833 6.18615 119.068 6.65131C118.303 7.11648 117.638 7.72924 117.111 8.45404C116.585 9.17884 116.207 10.0013 116 10.8736C115.794 11.7459 115.762 12.6507 115.907 13.5355L118.967 33.2823L64.2227 108.115L49.8259 110.659C49.0828 110.767 48.3689 111.023 47.7255 111.41C47.082 111.798 46.522 112.31 46.0781 112.916C45.6342 113.522 45.3153 114.211 45.1398 114.943C44.9644 115.674 44.9357 116.433 45.0559 117.175L47.221 129.429C47.2821 129.69 47.4148 129.929 47.6042 130.119C47.7935 130.308 48.032 130.441 48.2926 130.503C48.5533 130.564 48.8257 130.551 49.0793 130.465C49.3329 130.38 49.5575 130.225 49.7278 130.018L56.5768 120.212C57.682 118.646 59.3597 117.581 61.2451 117.248C63.1305 116.915 65.0716 117.341 66.6463 118.432C67.4425 118.973 68.1224 119.668 68.6456 120.476C69.1688 121.284 69.5247 122.19 69.6923 123.138C69.8599 124.086 69.8356 125.059 69.6211 125.998C69.4065 126.936 69.006 127.822 68.4432 128.603L61.5943 138.409C61.4211 138.626 61.3187 138.892 61.3015 139.17C61.2843 139.447 61.3531 139.724 61.4982 139.961C61.6432 140.198 61.8576 140.385 62.1123 140.496C62.3671 140.607 62.6498 140.637 62.922 140.581L75.155 138.42C75.8912 138.313 76.5991 138.061 77.2381 137.68C77.877 137.299 78.4346 136.795 78.879 136.197C79.3233 135.6 79.6458 134.921 79.8278 134.198C80.0099 133.476 80.0478 132.724 79.9398 131.987L77.377 117.482L132.214 42.203L151.692 39.2774Z" fill="#A4AEC9"/>
<path d="M79.2294 101.252C78.7338 100.915 78.3106 100.481 77.985 99.9778C77.6594 99.4742 77.4379 98.9105 77.3336 98.3199C77.2292 97.7292 77.2441 97.1236 77.3774 96.539C77.5108 95.9543 77.7599 95.4025 78.11 94.916L114.43 45.0013C115.124 44.0178 116.178 43.3487 117.362 43.1394C118.546 42.9302 119.766 43.1977 120.754 43.8839C121.737 44.5795 122.406 45.6354 122.615 46.8217C122.825 48.0081 122.558 49.2291 121.874 50.2193L85.4707 100.149C84.7761 101.107 83.7373 101.757 82.5731 101.963C81.4089 102.168 80.2101 101.913 79.2294 101.252Z" fill="#8B9EC6"/>
</g>
<g clip-path="url(#clip1_562_2)">
<path d="M-46.2675 169.455L-28.9239 151.898L-15.3371 138.057L31.7722 181.815C32.7037 182.718 33.8053 183.427 35.0124 183.899C36.2195 184.372 37.5075 184.599 38.8002 184.568C40.0929 184.536 41.3642 184.246 42.5389 183.715C43.7137 183.184 44.7684 182.423 45.6402 181.476L152.806 68.2703L167.793 82.2983L185.155 98.8197L77.8547 211.92C68.0027 222.05 54.5304 227.885 40.3369 228.169C26.1433 228.454 12.3624 223.165 1.9593 213.441L-46.2675 169.455Z" fill="#68DDFF"/>
<path opacity="0.25" d="M-28.924 151.898L-15.3372 138.057L31.7721 181.816C32.7036 182.718 33.8052 183.427 35.0123 183.899C36.2195 184.372 37.5074 184.599 38.8001 184.568C40.0928 184.536 41.3641 184.246 42.5389 183.715C43.7136 183.184 44.7683 182.423 45.6401 181.476L152.806 68.2704L167.793 82.2984L61.2248 196.398C56.4132 201.517 49.7806 204.551 42.7305 204.859C35.6803 205.166 28.7661 202.722 23.4513 198.044L-28.924 151.898Z" fill="#21B9E5"/>
</g>
<defs>
<clipPath id="clip0_562_2">
<rect width="126" height="123" fill="white" transform="translate(28.0547 21.9227) rotate(-10.0199)"/>
</clipPath>
<clipPath id="clip1_562_2">
<rect width="78.8324" height="220.588" fill="white" transform="translate(62.1956 256.425) rotate(-142.088)"/>
</clipPath>
</defs>
</svg>
