<svg width="24" height="24" viewBox="0 0 24 24" fill="none" xmlns="http://www.w3.org/2000/svg">
<path d="M7.375 2.44665H7.14062C7.26953 2.44665 7.375 2.3418 7.375 2.21364V2.44665H16.2812V2.21364C16.2812 2.3418 16.3867 2.44665 16.5156 2.44665H16.2812V4.54369H18.3906V2.21364C18.3906 1.18551 17.5498 0.349609 16.5156 0.349609H7.14062C6.10644 0.349609 5.26562 1.18551 5.26562 2.21364V4.54369H7.375V2.44665ZM22.1406 4.54369H1.51562C0.99707 4.54369 0.578125 4.96018 0.578125 5.47571V6.40772C0.578125 6.53588 0.683594 6.64073 0.8125 6.64073H2.58203L3.30566 21.8734C3.35254 22.8666 4.17871 23.65 5.17773 23.65H18.4785C19.4805 23.65 20.3037 22.8695 20.3506 21.8734L21.0742 6.64073H22.8437C22.9727 6.64073 23.0781 6.53588 23.0781 6.40772V5.47571C23.0781 4.96018 22.6592 4.54369 22.1406 4.54369ZM18.2529 21.553H5.40332L4.69434 6.64073H18.9619L18.2529 21.553Z" fill="#C4C4C4"/>
</svg>
