<svg width="30" height="31" viewBox="0 0 30 31" fill="none" xmlns="http://www.w3.org/2000/svg">
<g clip-path="url(#clip0_232_849)">
<path d="M14.2479 0.459321C11.8404 0.488384 6.66445 0.884009 3.76945 3.53995C1.61601 5.6737 0.864139 8.82838 0.776014 12.7293C0.702889 16.6162 0.614764 23.9156 7.6507 25.9031V28.9303C7.6507 28.9303 7.60664 30.1415 8.40727 30.3899C9.39351 30.7021 9.95508 29.7703 10.8926 28.769L12.641 26.7918C17.4551 27.1921 21.1423 26.2696 21.5669 26.1328C22.5438 25.8206 28.046 25.1174 28.9451 17.8171C29.8676 10.2778 28.496 5.52745 26.0201 3.3787H26.0051C25.2579 2.69057 22.2551 0.502446 15.5463 0.478071C15.5463 0.478071 15.0485 0.444321 14.2479 0.458384V0.459321ZM14.3304 2.57901C15.0138 2.57432 15.4291 2.60338 15.4291 2.60338C21.1076 2.61838 23.8179 4.32745 24.4573 4.90307C26.5423 6.68995 27.6166 10.9724 26.8301 17.2668C26.0829 23.3699 21.6204 23.7562 20.7945 24.0196C20.4429 24.1321 17.1954 24.9328 13.1041 24.6693C13.1041 24.6693 10.0573 28.3462 9.10476 29.2931C8.95383 29.459 8.77758 29.5078 8.66508 29.4834C8.50383 29.444 8.45508 29.2443 8.46445 28.9706L8.49352 23.9465C2.52633 22.2965 2.87789 16.0706 2.94164 12.8184C3.01476 9.5662 3.62508 6.90557 5.44195 5.1037C7.88789 2.89213 12.2829 2.59401 14.3285 2.57901H14.3304ZM14.7804 5.83026C14.7313 5.82976 14.6826 5.83899 14.637 5.85742C14.5915 5.87584 14.5501 5.90309 14.5151 5.93761C14.4802 5.97212 14.4524 6.0132 14.4334 6.0585C14.4144 6.10379 14.4046 6.15239 14.4045 6.20151C14.4045 6.41151 14.5751 6.57745 14.7804 6.57745C15.7099 6.55977 16.6338 6.72629 17.4986 7.06741C18.3635 7.40853 19.1523 7.91749 19.8195 8.56495C21.1816 9.88776 21.8454 11.6653 21.8707 13.9893C21.8707 14.1946 22.0366 14.3653 22.2466 14.3653V14.3503C22.3456 14.3505 22.4407 14.3116 22.5111 14.2421C22.5815 14.1725 22.6216 14.078 22.6226 13.979C22.6681 12.8851 22.4907 11.7933 22.1012 10.7701C21.7116 9.74687 21.1181 8.81353 20.3566 8.02682C18.8726 6.57651 16.992 5.82932 14.7804 5.82932V5.83026ZM9.83883 6.68995C9.57347 6.65117 9.30283 6.70444 9.07195 6.84088H9.05227C8.51626 7.15508 8.0334 7.55219 7.62164 8.01745C7.27945 8.41307 7.09383 8.81338 7.04508 9.1987C7.01601 9.42838 7.0357 9.65807 7.10414 9.87745L7.12851 9.89245C7.51383 11.0249 8.01726 12.1143 8.63226 13.1399C9.42447 14.5808 10.3994 15.9134 11.5329 17.1046L11.5666 17.1534L11.6201 17.1928L11.6538 17.2321L11.6932 17.2659C12.8887 18.4027 14.2245 19.3822 15.6682 20.1806C17.3182 21.0787 18.3195 21.5034 18.9204 21.6796V21.689C19.0966 21.7424 19.257 21.7668 19.4182 21.7668C19.9303 21.7293 20.4152 21.5214 20.7954 21.1762C21.2585 20.7643 21.6512 20.2795 21.9579 19.7409V19.7315C22.2457 19.1896 22.1482 18.6768 21.7329 18.3299C20.9012 17.6029 20.0017 16.9572 19.047 16.4015C18.4076 16.0546 17.7579 16.2646 17.4944 16.6162L16.9329 17.324C16.6451 17.6756 16.122 17.6268 16.122 17.6268L16.107 17.6362C12.206 16.6396 11.1654 12.6899 11.1654 12.6899C11.1654 12.6899 11.1166 12.1528 11.4776 11.879L12.1807 11.3128C12.5173 11.039 12.7516 10.3903 12.3907 9.74995C11.8389 8.79384 11.1945 7.89421 10.467 7.06401C10.3079 6.86829 10.0847 6.73512 9.83695 6.68807L9.83883 6.68995ZM15.4291 7.8037C14.9313 7.8037 14.9313 8.55557 15.4338 8.55557C16.0528 8.56561 16.6638 8.69754 17.2318 8.94382C17.7998 9.1901 18.3137 9.5459 18.7441 9.99088C19.1368 10.424 19.4385 10.9316 19.6314 11.4834C19.8244 12.0353 19.9045 12.6203 19.8673 13.2037C19.869 13.3024 19.9093 13.3966 19.9795 13.466C20.0498 13.5354 20.1445 13.5745 20.2432 13.5749L20.2582 13.5946C20.3577 13.5939 20.4529 13.5541 20.5232 13.4837C20.5936 13.4134 20.6334 13.3182 20.6341 13.2187C20.6679 11.729 20.2048 10.4793 19.2963 9.47807C18.3832 8.47682 17.1091 7.91526 15.4826 7.8037H15.4291ZM16.0451 9.82495C15.5323 9.80995 15.5126 10.5768 16.0207 10.5918C17.2563 10.6556 17.8563 11.2799 17.9351 12.5643C17.9368 12.6618 17.9766 12.7548 18.046 12.8233C18.1154 12.8918 18.2088 12.9304 18.3063 12.9309H18.3213C18.3715 12.9287 18.4207 12.9166 18.4661 12.8953C18.5115 12.8739 18.5521 12.8437 18.5857 12.8064C18.6193 12.7692 18.6452 12.7256 18.6618 12.6782C18.6783 12.6308 18.6853 12.5807 18.6823 12.5306C18.5941 10.8562 17.681 9.91307 16.0601 9.82588H16.0451V9.82495Z" fill="white"/>
</g>
<defs>
<clipPath id="clip0_232_849">
<rect width="30" height="30" fill="white" transform="translate(0 0.45459)"/>
</clipPath>
</defs>
</svg>
