<svg width="171" height="280" viewBox="0 0 171 280" fill="none" xmlns="http://www.w3.org/2000/svg">
<g clip-path="url(#clip0_116_5026)">
<path fill-rule="evenodd" clip-rule="evenodd" d="M13.8358 346.622L1.08622 -0.0174959L171 -5.98779L149.476 344.411L13.8358 346.622Z" fill="#6D9AFF"/>
<g style="mix-blend-mode:soft-light">
<path fill-rule="evenodd" clip-rule="evenodd" d="M27.3974 -0.948088L32.2815 161.978H105.798L108.088 -1.80617L120.099 -1.26231L118.753 173.895L159.317 183.672L171 -5.98779L27.3974 -0.948088Z" fill="#D1C0FF"/>
</g>
<path fill-rule="evenodd" clip-rule="evenodd" d="M154.227 267.026C154.227 267.026 138.12 279.656 99.835 289.155C61.5498 298.654 21.9922 281.312 10.7454 270.652L13.8237 346.61L149.476 344.374L154.227 267.026Z" fill="#8CB9FF"/>
<path fill-rule="evenodd" clip-rule="evenodd" d="M10.7454 262.627C10.7454 262.627 11.9573 305.58 50.6545 309.145C89.3517 312.71 129.43 261.902 154.99 254.687L149.476 344.374L13.8237 346.622L10.7454 262.627Z" fill="#A6D4FF"/>
<path fill-rule="evenodd" clip-rule="evenodd" d="M50.5212 228.099L46.0491 143.173L126.049 139.245L122.026 228.099H50.5212Z" fill="url(#paint0_radial_116_5026)"/>
<path fill-rule="evenodd" clip-rule="evenodd" d="M46.0491 143.173H44.5706L48.8487 228.099H50.5212L46.0491 143.173Z" fill="#6D5BBD"/>
<path fill-rule="evenodd" clip-rule="evenodd" d="M54.3994 224.956H118.45L122.026 144.236L50.6666 146.098L54.3994 224.956Z" fill="#6D5BBD"/>
<path fill-rule="evenodd" clip-rule="evenodd" d="M99.6774 144.816L94.0298 224.956H118.45L122.026 144.236L99.6774 144.816Z" fill="#663EA2"/>
<path fill-rule="evenodd" clip-rule="evenodd" d="M19.9925 128.38L152.7 127.691L159.317 10.7869L14.8538 13.204L19.9925 128.38Z" fill="#663EA2"/>
<path d="M9.11529 -0.0314749L8.52173 -0.0131836L19.2637 346.63L19.8573 346.612L9.11529 -0.0314749Z" fill="#6D5BBD"/>
<path d="M164.707 -6.02131L146.843 344.444L147.436 344.474L165.301 -5.99125L164.707 -6.02131Z" fill="#6D5BBD"/>
<path fill-rule="evenodd" clip-rule="evenodd" d="M14.9266 14.8356L155.657 12.2009L150.93 127.703L19.9925 128.38L14.9266 14.8356Z" fill="#89D3FF"/>
<path fill-rule="evenodd" clip-rule="evenodd" d="M127.988 220.895L129.637 152.418L152.7 151.548L148.106 220.895H127.988Z" fill="#6D5BBD"/>
<path fill-rule="evenodd" clip-rule="evenodd" d="M129.637 152.418L128.364 152.902L127.079 220.896H127.988L129.637 152.418Z" fill="#663EA2"/>
<path fill-rule="evenodd" clip-rule="evenodd" d="M19.7864 171.622L40.9954 170.317V201.643H22.0043L19.7864 171.622Z" fill="url(#paint1_radial_116_5026)"/>
<path fill-rule="evenodd" clip-rule="evenodd" d="M19.7864 171.622L19.0714 171.997L20.9378 201.643H22.0043L19.7864 171.622Z" fill="#6D5BBD"/>
<path fill-rule="evenodd" clip-rule="evenodd" d="M22.5012 173.266L24.3433 199.528H38.7533V172.227L22.5012 173.266Z" fill="#663EA2"/>
<path fill-rule="evenodd" clip-rule="evenodd" d="M32.2815 172.638V199.528H24.3433L22.5012 173.266L32.2815 172.638Z" fill="#6D5BBD"/>
<path d="M145.452 217.826L130.679 217.306L132.121 156.201L148.87 154.896V155.234L145.452 217.826ZM131.285 216.738L144.895 217.209L148.24 155.573L132.703 156.781L131.285 216.738Z" fill="#663EA2"/>
<path style="mix-blend-mode:screen" opacity="0.46" d="M81.6559 136.465C124.547 136.465 159.317 108.918 159.317 74.9373C159.317 40.9564 124.547 13.4094 81.6559 13.4094C38.7649 13.4094 3.99487 40.9564 3.99487 74.9373C3.99487 108.918 38.7649 136.465 81.6559 136.465Z" fill="url(#paint2_radial_116_5026)"/>
<path d="M56.3021 67.0456C56.9485 62.3805 57.8938 55.387 59.1381 46.0649L63.9131 46.6934C63.6222 48.1598 63.2667 50.3674 62.8466 53.3163C61.9821 61.2525 61.4852 65.6839 61.3559 66.6105C60.8357 71.0455 60.026 75.4419 58.932 79.7717C58.3107 81.8952 57.9565 84.0874 57.8777 86.298C57.9336 86.536 57.9661 86.7788 57.9746 87.0231V89.5611L53.1996 89.8028C53.0178 87.8812 52.739 84.9686 52.3876 81.0649C52.1937 78.9137 52.0321 76.3837 51.9028 73.4751L51.0423 81.1132C50.6545 84.606 50.4606 86.4068 50.4606 86.5397V88.9568H45.6977V88.8118C45.0513 85.5406 43.9888 78.3577 42.5103 67.2631C41.7672 61.6046 41.3827 55.905 41.3589 50.1982V47.7811H46.2067V50.1982C46.336 55.8611 46.8055 61.5112 47.6125 67.1181L48.57 56.6036C48.9009 53.3111 49.4925 50.0499 50.3394 46.8505L54.9811 48.0591V50.4762C54.9811 51.6928 55.3003 55.2984 55.9386 61.2928C56.0113 63.2386 56.1688 65.124 56.3021 67.0456Z" fill="white"/>
<path d="M63.7677 76.9557C64.8584 76.6899 65.9613 76.4602 67.0884 76.2548C67.2419 72.2262 67.7186 67.392 68.5185 61.752C69.2456 56.9178 69.9607 52.1158 70.6636 47.346H71.2211V47.2614L76.0689 47.0076L76.2143 49.4247C76.4401 52.5352 76.8447 55.6301 77.4262 58.6944C78.2342 63.0935 78.719 66.0545 78.8805 67.5773C79.0017 68.7859 79.1714 71.3601 79.3653 75.3725L81.2923 75.5176L80.856 80.3518H79.6441C80.1288 84.0983 80.3712 86.3422 80.3712 87.0835V89.5006H75.5235V87.0835C75.5235 86.6605 75.2811 84.4247 74.8084 80.3518C73.7579 80.3629 72.7093 80.4437 71.6695 80.5935C71.6695 81.1132 71.5483 82.1042 71.3908 83.5787C71.2699 84.6138 71.2051 85.6547 71.1969 86.6968V89.1139H66.3491V86.6968C66.3491 86.4671 66.4945 84.6664 66.7854 81.2703C65.4401 81.5241 63.9979 81.8263 62.4467 82.1767L61.3559 77.5479L63.7677 76.9557ZM72.0452 75.6505C72.8451 75.6505 73.6692 75.578 74.4691 75.5538C74.4691 73.9464 74.2388 71.5051 73.9843 68.2178C73.8268 66.7797 73.5965 65.1118 73.3178 63.2144C72.7279 67.823 72.3038 71.9684 72.0452 75.6505V75.6505Z" fill="white"/>
<path d="M93.9571 53.1713C94.054 54.0979 94.151 55.6327 94.2479 57.7759C94.3206 60.0802 94.2843 62.7552 94.1389 65.8008C94.0177 69.3539 93.9571 71.8194 93.9571 73.1972C93.9571 74.4782 93.9571 75.7593 94.0177 77.0404C94.1712 81.6571 94.2479 84.5859 94.2479 85.8267V88.2438H89.4002V85.8267C89.4002 84.6423 89.3032 81.8223 89.1093 77.3667C89.1093 76.0494 89.0123 74.7562 89.0123 73.4752C89.0123 72.1941 89.1093 69.6198 89.3032 66.0304C89.4244 62.9848 89.4567 60.3099 89.4002 58.0055C89.3396 56.9904 89.2547 55.4192 89.1578 53.3042C87.9459 53.3042 86.0431 53.3042 83.5708 53.1592L83.8616 48.325L86.2855 48.47H90.8545C91.5574 48.47 92.5876 48.47 93.9328 48.325C95.2781 48.1799 96.3567 48.1799 97.1202 48.1799H99.5441V53.0142H97.1202C96.3688 52.9779 95.3144 53.0384 93.9571 53.1713Z" fill="white"/>
<path d="M105.325 89.1017L104.658 90.3103L102.731 89.2467H102.295L102.198 88.8721L100.417 87.9052C100.732 87.3372 101.168 86.5879 101.713 85.6573C101.617 84.7388 101.568 82.4183 101.568 78.7081C101.568 76.158 101.568 73.8134 101.471 71.6742L100.465 69.6559L101.277 69.2329V68.3628C101.132 65.9456 100.901 63.7219 100.611 61.619V49.0379H103.034C103.619 49.0271 104.202 48.9787 104.78 48.8928C105.358 48.807 105.941 48.7586 106.525 48.7478C107.451 48.7798 108.373 48.8686 109.288 49.0137C110.218 49.1663 111.158 49.2552 112.1 49.2796H114.524V54.1138C112.658 54.2078 110.788 54.1309 108.937 53.8842C108.138 53.7204 107.327 53.6234 106.513 53.5941C106.19 53.5761 105.866 53.5761 105.543 53.5941V61.3773C105.769 63.319 105.963 65.4461 106.125 67.7585C106.767 67.7585 108.234 67.6618 110.5 67.6618C111.639 67.5738 112.767 67.3796 113.869 67.0817L114.984 71.7467C113.38 72.1663 111.734 72.4095 110.076 72.4719C108.149 72.4719 106.925 72.4719 106.44 72.5565V84.2312C106.985 84.2312 107.991 84.1103 109.47 83.9411C110.506 83.7933 111.55 83.7126 112.597 83.6994H115.021V88.5337H112.597C111.404 88.5651 110.214 88.6701 109.034 88.8479C107.805 89.0236 106.566 89.1084 105.325 89.1017Z" fill="white"/>
<path d="M125.892 74.1639C127.015 76.8469 128.154 79.5178 129.309 82.1767C130.513 84.8681 131.881 87.4835 133.406 90.0081L129.261 92.5099C126.963 88.6261 124.938 84.5878 123.201 80.4242C123.395 83.3127 123.492 85.4035 123.492 86.7208V89.138H118.644V86.7208C118.644 85.9151 118.515 83.2402 118.256 78.696C118.192 77.4552 118.192 74.9575 118.256 71.2029C118.344 68.7015 118.247 66.197 117.966 63.7098C117.589 60.4764 117.398 57.224 117.396 53.9688V53.7271C117.396 53.3404 117.396 52.9536 117.396 52.5185L116.572 50.6453L117.723 50.1739L117.966 49.062L119.505 49.4004C120.721 48.8645 122.03 48.569 123.359 48.5303C128.085 48.5303 130.449 52.2164 130.449 59.5886C130.344 64.7794 128.764 69.8339 125.892 74.1639ZM123.153 69.2571C124.819 66.3033 125.712 62.9778 125.746 59.5886C125.746 55.4231 124.991 53.3404 123.48 53.3404C123.069 53.3513 122.662 53.4163 122.268 53.5337C122.268 55.2015 122.426 57.7758 122.728 61.2927C123.031 64.8096 123.177 67.4684 123.153 69.2571V69.2571Z" fill="white"/>
<path d="M157.923 133.625H12.9632V134.217H157.923V133.625Z" fill="#6D5BBD"/>
<g style="mix-blend-mode:soft-light">
<path fill-rule="evenodd" clip-rule="evenodd" d="M10.7454 262.627C10.7454 262.627 2.40724 261.141 -2.96165 276.296C-8.33054 291.451 -2.10117 312.77 -15.6385 322.62L-14.4266 346.634H13.8237L10.7454 262.627Z" fill="#8CB9FF"/>
</g>
<path fill-rule="evenodd" clip-rule="evenodd" d="M81.6559 145.288V141.42L108.028 140.127L107.252 144.49L81.6559 145.288Z" fill="white"/>
<path fill-rule="evenodd" clip-rule="evenodd" d="M109.373 144.563L110.876 139.982L116.632 139.704L115.008 144.418L109.373 144.563Z" fill="white"/>
<path fill-rule="evenodd" clip-rule="evenodd" d="M72.5785 228.099L73.0632 224.956H84.6373V228.099H72.5785Z" fill="white"/>
<path fill-rule="evenodd" clip-rule="evenodd" d="M87.2429 228.099L88.6973 224.956H95.4356L93.7632 228.099H87.2429Z" fill="white"/>
<path fill-rule="evenodd" clip-rule="evenodd" d="M40.9954 233.307H128.352L126.049 280.598H42.3285L40.9954 233.307Z" fill="#FFA29F"/>
<path fill-rule="evenodd" clip-rule="evenodd" d="M46.0491 277.033L43.3708 235.435L126.049 234.552L122.922 277.033H46.0491Z" fill="#FFE0BB"/>
<path fill-rule="evenodd" clip-rule="evenodd" d="M68.2518 273.033L66.24 240.414L105.798 238.831L100.877 273.033H68.2518Z" fill="#FF9ABB"/>
<path fill-rule="evenodd" clip-rule="evenodd" d="M54.6297 250.819L118.753 249.562V262.579L54.6297 260.802V250.819Z" fill="white"/>
<path fill-rule="evenodd" clip-rule="evenodd" d="M72.5785 263.812V265.89L96.3325 266.567L97.0112 264.561L72.5785 263.812Z" fill="white"/>
<g style="mix-blend-mode:soft-light">
<path d="M155.402 17.3616H15.0477V17.9538H155.402V17.3616Z" fill="white"/>
<path d="M155.16 23.4165H15.3144V24.0087H155.16V23.4165Z" fill="white"/>
<path d="M15.5773 29.3587L15.5767 29.9509L154.913 30.0964L154.914 29.5043L15.5773 29.3587Z" fill="white"/>
<path d="M15.83 35.3009L15.829 35.8931L154.669 36.1105L154.669 35.5184L15.83 35.3009Z" fill="white"/>
<path d="M16.0671 41.1912L16.0659 41.7834L154.408 42.0483L154.41 41.4561L16.0671 41.1912Z" fill="white"/>
<path d="M16.3197 47.0484L16.3182 47.6406L154.164 47.9765L154.165 47.3843L16.3197 47.0484Z" fill="white"/>
<path d="M16.5844 52.8514L16.5826 53.4436L153.943 53.85L153.945 53.2578L16.5844 52.8514Z" fill="white"/>
<path d="M16.8369 58.6366L16.8349 59.2288L153.71 59.7052L153.712 59.113L16.8369 58.6366Z" fill="white"/>
<path d="M17.0895 64.3675L17.0871 64.9597L153.478 65.5057L153.48 64.9135L17.0895 64.3675Z" fill="white"/>
<path d="M16.6233 69.6803V70.2725H152.53V69.6803H16.6233Z" fill="white"/>
<path d="M17.5668 75.6986L17.5639 76.2908L152.996 76.9508L152.999 76.3586L17.5668 75.6986Z" fill="white"/>
<path d="M17.8192 81.3258L17.816 81.918L152.775 82.6461L152.779 82.0539L17.8192 81.3258Z" fill="white"/>
<path d="M18.044 86.8805L18.0406 87.4727L152.539 88.2452L152.543 87.653L18.044 86.8805Z" fill="white"/>
<path d="M18.2963 92.4217L18.2925 93.0139L152.318 93.8537L152.322 93.2615L18.2963 92.4217Z" fill="white"/>
<path d="M18.5364 97.9205L18.5324 98.5127L152.097 99.4193L152.101 98.8272L18.5364 97.9205Z" fill="white"/>
<path d="M18.761 103.368L18.7568 103.96L151.861 104.91L151.865 104.318L18.761 103.368Z" fill="white"/>
<path d="M19.0011 108.793L18.9965 109.385L151.639 110.401L151.644 109.808L19.0011 108.793Z" fill="white"/>
<path d="M19.241 114.199L19.2361 114.791L151.43 115.872L151.435 115.28L19.241 114.199Z" fill="white"/>
<path d="M19.4655 119.526L19.4605 120.118L151.205 121.242L151.211 120.65L19.4655 119.526Z" fill="white"/>
<path d="M19.7053 124.858L19.6999 125.45L150.996 126.638L151.001 126.046L19.7053 124.858Z" fill="white"/>
</g>
<g style="mix-blend-mode:multiply" opacity="0.31">
<path fill-rule="evenodd" clip-rule="evenodd" d="M118.45 224.956H84.6372L82.8678 159.754L51.1272 156.056L50.6666 146.098L122.026 144.236L118.45 224.956Z" fill="#7C006D"/>
</g>
<path fill-rule="evenodd" clip-rule="evenodd" d="M92.8178 183.539L92.7209 183.225L92.6603 183.031C92.0058 181.182 89.7274 176.239 83.9949 176.082C76.8687 176.287 75.0145 183.805 75.0145 183.805V224.956H92.8663V183.72L92.8178 183.539Z" fill="#54ABFF"/>
<path fill-rule="evenodd" clip-rule="evenodd" d="M92.8663 183.72L75.0145 183.805C75.0145 183.805 76.8687 176.287 83.9949 176.082C89.7274 176.239 92.0058 181.182 92.6603 183.031L92.7209 183.225L92.8178 183.539L92.8663 183.72Z" fill="#FFDDFF"/>
<path fill-rule="evenodd" clip-rule="evenodd" d="M79.5229 177.424L87.4368 176.868V174.33H79.5229V177.424Z" fill="#A6D4FF"/>
<path fill-rule="evenodd" clip-rule="evenodd" d="M75.7295 190.657L91.1817 189.702V203.782L75.7295 203.42V190.657Z" fill="#A6D4FF"/>
<g style="mix-blend-mode:multiply" opacity="0.31">
<path fill-rule="evenodd" clip-rule="evenodd" d="M22.5012 176.082L28.5851 177.424L30.3909 199.528H38.7533V172.227L22.5012 173.266V176.082Z" fill="#7C006D"/>
</g>
<g style="mix-blend-mode:multiply" opacity="0.31">
<path fill-rule="evenodd" clip-rule="evenodd" d="M22.0043 201.643L22.5012 202.827H39.5047V201.643H22.0043Z" fill="#7C006D"/>
</g>
<g style="mix-blend-mode:multiply" opacity="0.31">
<path fill-rule="evenodd" clip-rule="evenodd" d="M118.256 228.099L117.42 230.443L50.6666 229.271L50.5212 228.099H118.256Z" fill="#7C006D"/>
</g>
<path fill-rule="evenodd" clip-rule="evenodd" d="M133.842 161.978H146.919L146.24 167.767H133.842V161.978Z" fill="#C397FF"/>
<path fill-rule="evenodd" clip-rule="evenodd" d="M135.83 213.306V209.45H141.829L141.526 213.306H135.83Z" fill="#C397FF"/>
<path fill-rule="evenodd" clip-rule="evenodd" d="M69.8516 236.836V239.338L103.519 238.081V236.836H69.8516Z" fill="#FF9ABB"/>
</g>
<defs>
<radialGradient id="paint0_radial_116_5026" cx="0" cy="0" r="1" gradientUnits="userSpaceOnUse" gradientTransform="translate(86.0431 183.672) scale(42.333 42.2151)">
<stop stop-color="#F8F0F4"/>
<stop offset="0.98" stop-color="#D9D1E5"/>
</radialGradient>
<radialGradient id="paint1_radial_116_5026" cx="0" cy="0" r="1" gradientUnits="userSpaceOnUse" gradientTransform="translate(30.3909 185.98) scale(13.404 13.3667)">
<stop stop-color="#F8F0F4"/>
<stop offset="0.98" stop-color="#D9D1E5"/>
</radialGradient>
<radialGradient id="paint2_radial_116_5026" cx="0" cy="0" r="1" gradientUnits="userSpaceOnUse" gradientTransform="translate(81.2778 75.7032) scale(77.638 61.6704)">
<stop stop-color="#C5FFFF"/>
<stop offset="1"/>
</radialGradient>
<clipPath id="clip0_116_5026">
<rect width="201" height="354" fill="white" transform="translate(-30 -6)"/>
</clipPath>
</defs>
</svg>
