<svg width="148" height="250" viewBox="0 0 148 250" fill="none" xmlns="http://www.w3.org/2000/svg">
<g clip-path="url(#clip0_116_292)">
<path d="M148.032 190.096C148.096 193.235 147.613 196.361 146.605 199.335C145.794 201.442 144.757 202.577 143.589 202.577H141.967L140.637 198.914L139.794 196.677C138.886 192.238 138.886 187.662 139.794 183.224L141.967 177.324H143.589C145.989 177.454 148.032 183.159 148.032 190.096Z" fill="#A7ACC2"/>
<path d="M141.935 177.453H140.346L138.172 183.353C137.265 187.792 137.265 192.368 138.172 196.806L140.346 202.706H141.935C144.4 202.706 146.411 197.066 146.411 190.096C146.411 183.126 144.4 177.453 141.935 177.453Z" fill="#21B9E5"/>
<path d="M144.789 190.096C144.789 197.066 142.778 202.706 140.313 202.706C137.848 202.706 135.87 197.066 135.87 190.096C135.87 183.126 137.88 177.453 140.313 177.453C142.746 177.453 144.789 183.159 144.789 190.096Z" fill="#A4AEC9"/>
<path d="M140.346 177.875H139.729V178.588C139.714 178.663 139.714 178.74 139.729 178.815C139.714 178.912 139.714 179.01 139.729 179.107V179.755H140.313C140.67 179.755 140.962 179.334 140.962 178.815C140.962 178.296 140.702 177.875 140.346 177.875Z" fill="#21B9E5"/>
<path d="M140.41 178.815C140.41 179.334 140.118 179.755 139.762 179.755C139.405 179.755 139.145 179.334 139.145 178.815C139.145 178.296 139.437 177.875 139.762 177.875C140.086 177.875 140.41 178.296 140.41 178.815Z" fill="#C8CEDF"/>
<path d="M143.265 183.159H142.616V183.872V184.067C142.616 184.067 142.616 184.261 142.616 184.358V185.007H143.2C143.524 185.007 143.784 184.553 143.751 184.034C143.719 183.516 143.589 183.159 143.265 183.159Z" fill="#21B9E5"/>
<path d="M143.362 184.067C143.362 184.585 143.135 185.039 142.778 185.039C142.421 185.039 142.129 184.65 142.097 184.164C142.065 183.678 142.324 183.191 142.681 183.159C143.038 183.127 143.329 183.548 143.362 184.067Z" fill="#C8CEDF"/>
<path d="M143.329 195.121H142.713V195.834V196.126C142.713 196.126 142.713 196.32 142.713 196.417V197.066H143.297C143.621 197.066 143.881 196.612 143.848 196.093C143.816 195.575 143.686 195.088 143.329 195.121Z" fill="#21B9E5"/>
<path d="M143.427 196.126C143.427 196.644 143.232 197.066 142.875 197.098C142.519 197.131 142.227 196.709 142.194 196.191C142.162 195.672 142.421 195.218 142.778 195.218C143.135 195.218 143.427 195.542 143.427 196.126Z" fill="#C8CEDF"/>
<path d="M140.346 200.048H139.729V200.794C139.714 200.858 139.714 200.924 139.729 200.988C139.714 201.085 139.714 201.183 139.729 201.28V201.928H140.313C140.67 201.928 140.962 201.507 140.962 200.988C140.962 200.47 140.702 200.048 140.346 200.048Z" fill="#21B9E5"/>
<path d="M140.41 200.988C140.41 201.507 140.118 201.928 139.762 201.928C139.405 201.928 139.145 201.507 139.145 200.988C139.145 200.47 139.437 200.048 139.762 200.048C140.086 200.048 140.41 200.47 140.41 200.988Z" fill="#C8CEDF"/>
<path d="M143.848 189.156H143.2V189.869C143.182 189.944 143.182 190.022 143.2 190.096C143.2 190.096 143.2 190.291 143.2 190.355V191.036H143.784C144.108 191.036 144.4 190.615 144.4 190.096C144.4 189.577 144.173 189.156 143.848 189.156Z" fill="#21B9E5"/>
<path d="M143.881 190.096C143.881 190.615 143.589 191.036 143.265 191.036C142.94 191.036 142.616 190.615 142.616 190.096C142.616 189.577 142.908 189.156 143.265 189.156C143.621 189.156 143.881 189.642 143.881 190.096Z" fill="#C8CEDF"/>
<path d="M88.0614 247.993C88.0614 251.235 75.8336 254.25 58.5136 255.417C53.1944 255.806 47.3887 256 41.291 256C15.3435 256 -5.47925 252.402 -5.47925 247.993C-5.51025 247.821 -5.51025 247.646 -5.47925 247.474L1.78601 210.94L3.60232 201.799C3.60232 203.257 20.4357 204.424 41.1937 204.424C46.8697 204.424 52.2538 204.425 57.0865 204.198C69.8981 203.776 78.7851 202.868 78.7851 201.799L80.6014 210.94L87.8668 247.474C87.9642 247.633 88.0302 247.809 88.0614 247.993Z" fill="#59637C"/>
<path d="M116.117 30.2477V154.178C116.14 165.201 112.522 175.922 105.825 184.68C99.1275 193.437 89.7251 199.739 79.077 202.609C74.8444 203.733 70.4829 204.3 66.1033 204.295H16.4788C9.89088 204.316 3.3639 203.034 -2.72585 200.522C-8.8156 198.011 -14.3476 194.319 -19.003 189.66C-23.6584 185.001 -27.345 179.467 -29.8502 173.377C-32.3555 167.288 -33.6298 160.762 -33.5998 154.178V29.0807C-33.2935 10.6528 -25.7535 -6.91656 -12.6055 -19.8392C0.542461 -32.7619 18.2452 -40.0025 36.6854 -40H45.767C64.2072 -40.0025 81.9098 -32.7619 95.0578 -19.8392C108.206 -6.91656 115.746 10.6528 116.052 29.0807L116.117 30.2477Z" fill="#41D4FF"/>
<path opacity="0.2" d="M116.117 30.5719V154.502C116.117 165.504 112.488 176.199 105.792 184.931C99.096 193.663 89.7063 199.944 79.077 202.804C74.8439 203.926 70.4827 204.492 66.1033 204.489H16.4788C5.15751 204.481 -5.82444 200.626 -14.6649 193.557C-23.5053 186.488 -29.679 176.626 -32.1727 165.589C-24.5218 170.072 -15.8079 172.423 -6.93883 172.396H42.6857C47.0651 172.4 51.4263 171.833 55.6594 170.711C66.286 167.847 75.6726 161.564 82.3678 152.833C89.0631 144.102 92.6941 133.41 92.6995 122.409V-1.61822C92.7095 -9.741 91.3046 -17.8036 88.5479 -25.4448C97.1579 -18.8684 104.127 -10.3888 108.91 -0.67038C113.693 9.04807 116.16 19.7414 116.117 30.5719Z" fill="#21B9E5"/>
<path d="M116.117 29.8263H115.793C110.811 28.2373 105.682 27.1513 100.484 26.5846C61.1266 22.5216 21.4555 22.5216 -17.9016 26.5846C-23.1002 27.1513 -28.2288 28.2373 -33.2106 29.8263C-33.3234 29.8674 -33.4433 29.8858 -33.5633 29.8803C-33.6833 29.8748 -33.8009 29.8455 -33.9095 29.7943C-34.0181 29.743 -34.1154 29.6708 -34.1959 29.5817C-34.2763 29.4926 -34.3383 29.3884 -34.3782 29.2752C-34.4248 29.1649 -34.4482 29.0463 -34.4471 28.9266C-34.446 28.8069 -34.4203 28.6887 -34.3717 28.5793C-34.323 28.47 -34.2524 28.3717 -34.1643 28.2907C-34.0762 28.2096 -33.9724 28.1475 -33.8593 28.1082C-28.8006 26.5165 -23.5965 25.4306 -18.3233 24.8665C21.3243 20.7602 61.2903 20.7602 100.938 24.8665C106.21 25.4367 111.414 26.5225 116.474 28.1082C116.694 28.208 116.869 28.3861 116.965 28.6078C117.061 28.8296 117.071 29.079 116.993 29.3076C116.912 29.4689 116.786 29.6036 116.631 29.6956C116.476 29.7876 116.297 29.8329 116.117 29.8263Z" fill="#59637C"/>
<path d="M116.117 144.421C116.011 144.448 115.899 144.448 115.793 144.421C110.795 142.934 105.67 141.914 100.484 141.373C61.1266 137.31 21.4554 137.31 -17.9017 141.373C-23.088 141.914 -28.2129 142.934 -33.2107 144.421C-33.324 144.478 -33.4481 144.511 -33.5749 144.517C-33.7018 144.524 -33.8285 144.503 -33.947 144.458C-34.0655 144.412 -34.1732 144.342 -34.263 144.252C-34.3527 144.163 -34.4227 144.055 -34.4682 143.936C-34.5138 143.818 -34.5341 143.691 -34.5276 143.565C-34.5212 143.438 -34.4882 143.314 -34.4308 143.201C-34.3735 143.087 -34.2929 142.987 -34.1945 142.907C-34.096 142.827 -33.9818 142.768 -33.8593 142.735C-28.8062 141.122 -23.5999 140.036 -18.3233 139.493C21.322 135.344 61.2925 135.344 100.938 139.493C106.213 140.042 111.419 141.128 116.474 142.735C116.691 142.828 116.866 143 116.962 143.217C117.058 143.433 117.069 143.678 116.993 143.902C116.912 144.063 116.786 144.198 116.631 144.29C116.476 144.382 116.297 144.427 116.117 144.421Z" fill="#59637C"/>
<path opacity="0.2" d="M116.117 30.5719V31.2851H115.793C110.805 29.751 105.677 28.7193 100.484 28.2055C61.1266 24.1425 21.4554 24.1425 -17.9016 28.2055C-23.0946 28.7193 -28.2231 29.751 -33.2107 31.2851H-33.535V29.3725C-28.5581 27.9427 -23.4695 26.9342 -18.3233 26.3577C21.3242 22.2515 61.2903 22.2515 100.938 26.3577C106.074 26.9318 111.152 27.9403 116.117 29.3725V30.5719Z" fill="#59637C"/>
<path opacity="0.2" d="M116.117 143.999V145.879C116.011 145.907 115.899 145.907 115.793 145.879C110.795 144.393 105.67 143.373 100.484 142.832C61.1266 138.769 21.4554 138.769 -17.9016 142.832C-23.0879 143.373 -28.2129 144.393 -33.2107 145.879C-33.3166 145.91 -33.4291 145.91 -33.535 145.879V143.999C-28.5647 142.542 -23.4738 141.533 -18.3233 140.984C21.322 136.835 61.2925 136.835 100.938 140.984C106.077 141.535 111.157 142.544 116.117 143.999Z" fill="#59637C"/>
<path opacity="0.25" d="M87.9641 247.474L80.6987 210.94L79.077 202.804C74.8439 203.926 70.4827 204.492 66.1032 204.489H16.4788C12.0993 204.492 7.7381 203.926 3.50502 202.804L1.8833 210.94C6.61775 212.362 11.5351 213.083 16.4788 213.08H21.9926C31.4724 213.085 40.5759 216.787 47.3663 223.398C54.1567 230.009 58.098 239.008 58.3515 248.479V255.416C75.6714 254.249 87.8991 251.364 87.8991 247.993C87.9518 247.825 87.9739 247.65 87.9641 247.474Z" fill="#50B6DD"/>
<path d="M50.924 0.650954C50.924 2.5744 50.3534 4.45467 49.2842 6.05396C48.215 7.65325 46.6953 8.89971 44.9173 9.63578C43.1393 10.3719 41.1829 10.5644 39.2954 10.1892C37.4079 9.81394 35.6742 8.88774 34.3134 7.52765C32.9526 6.16757 32.0258 4.43475 31.6504 2.54826C31.2749 0.661777 31.4676 -1.29362 32.2041 -3.07065C32.9405 -4.84769 34.1877 -6.36654 35.7878 -7.43515C37.388 -8.50376 39.2692 -9.07416 41.1937 -9.07416C43.7743 -9.07416 46.2493 -8.04956 48.0741 -6.22575C49.8989 -4.40193 50.924 -1.92831 50.924 0.650954Z" fill="#DAEDF7"/>
<path d="M46.2535 0.650951C46.2535 1.63191 45.9625 2.59083 45.4172 3.40647C44.8719 4.22211 44.0969 4.85785 43.1901 5.23324C42.2833 5.60864 41.2855 5.70686 40.3229 5.51549C39.3603 5.32411 38.476 4.85172 37.782 4.15808C37.088 3.46444 36.6154 2.58068 36.4239 1.61858C36.2324 0.656467 36.3307 -0.340764 36.7063 -1.24705C37.0819 -2.15334 37.718 -2.92796 38.5341 -3.47295C39.3502 -4.01794 40.3096 -4.30885 41.291 -4.30885C41.9439 -4.31316 42.5911 -4.18782 43.1951 -3.94009C43.7992 -3.69237 44.348 -3.3272 44.8096 -2.86578C45.2713 -2.40435 45.6367 -1.85584 45.8846 -1.25215C46.1324 -0.648449 46.2578 -0.00158262 46.2535 0.650951Z" fill="#5E899D"/>
<path d="M33.1176 -0.159485C33.278 -0.159485 33.4347 -0.111964 33.5681 -0.0229134C33.7014 0.0661373 33.8053 0.192713 33.8667 0.340799C33.9281 0.488885 33.9441 0.651872 33.9128 0.809079C33.8815 0.966286 33.8043 1.11065 33.6909 1.22399C33.5775 1.33733 33.4331 1.41452 33.2758 1.44579C33.1185 1.47706 32.9554 1.46102 32.8073 1.39968C32.6591 1.33835 32.5324 1.23449 32.4433 1.10122C32.3542 0.967942 32.3067 0.811228 32.3067 0.650941C32.3067 0.436003 32.3921 0.22988 32.5442 0.0778952C32.6963 -0.0740892 32.9025 -0.159485 33.1176 -0.159485Z" fill="#5E899D"/>
<path d="M35.5177 7.23163C35.9655 7.23163 36.3286 6.86879 36.3286 6.4212C36.3286 5.97362 35.9655 5.61078 35.5177 5.61078C35.0699 5.61078 34.7068 5.97362 34.7068 6.4212C34.7068 6.86879 35.0699 7.23163 35.5177 7.23163Z" fill="#5E899D"/>
<path d="M40.4802 8.82007C40.4802 8.65978 40.5278 8.50306 40.6169 8.36979C40.706 8.23652 40.8325 8.13266 40.9807 8.07132C41.1289 8.00998 41.2919 7.99395 41.4492 8.02522C41.6065 8.05649 41.751 8.13368 41.8644 8.24702C41.9778 8.36036 42.0551 8.50477 42.0863 8.66198C42.1176 8.81918 42.1016 8.98212 42.0402 9.13021C41.9788 9.27829 41.8748 9.40487 41.7415 9.49392C41.6081 9.58297 41.4514 9.63049 41.291 9.63049C41.076 9.63049 40.8698 9.5451 40.7177 9.39311C40.5657 9.24113 40.4802 9.035 40.4802 8.82007Z" fill="#5E899D"/>
<path d="M47.0968 7.23163C47.5446 7.23163 47.9076 6.86879 47.9076 6.4212C47.9076 5.97362 47.5446 5.61078 47.0968 5.61078C46.649 5.61078 46.2859 5.97362 46.2859 6.4212C46.2859 6.86879 46.649 7.23163 47.0968 7.23163Z" fill="#5E899D"/>
<path d="M49.4645 1.62347C49.3041 1.62347 49.1474 1.57595 49.014 1.4869C48.8807 1.39785 48.7768 1.27127 48.7154 1.12319C48.654 0.975102 48.638 0.812165 48.6693 0.654958C48.7006 0.49775 48.7778 0.35334 48.8912 0.24C49.0046 0.12666 49.149 0.0494718 49.3063 0.0182014C49.4636 -0.0130691 49.6266 0.00296305 49.7748 0.0643023C49.923 0.125642 50.0497 0.229547 50.1388 0.36282C50.2279 0.496094 50.2753 0.652759 50.2753 0.813046C50.2753 1.02798 50.19 1.23411 50.0379 1.38609C49.8858 1.53808 49.6795 1.62347 49.4645 1.62347Z" fill="#5E899D"/>
<path d="M43.3992 0.650972V80.4293C43.3992 80.9882 43.1771 81.5241 42.7818 81.9193C42.3864 82.3144 41.8502 82.5365 41.291 82.5365C40.7319 82.5365 40.1956 82.3144 39.8002 81.9193C39.4049 81.5241 39.1828 80.9882 39.1828 80.4293V0.650972C39.1828 0.0921326 39.4049 -0.443788 39.8002 -0.838947C40.1956 -1.23411 40.7319 -1.45612 41.291 -1.45612C41.8502 -1.45612 42.3864 -1.23411 42.7818 -0.838947C43.1771 -0.443788 43.3992 0.0921326 43.3992 0.650972Z" fill="#A3D3EA"/>
<path d="M78.5581 80.4293V120.626C78.5761 120.766 78.5761 120.908 78.5581 121.048C78.4674 121.523 78.2137 121.951 77.8406 122.259C77.4675 122.567 76.9986 122.735 76.5148 122.734H6.13225C5.64849 122.735 5.17957 122.567 4.80649 122.259C4.4334 121.951 4.17957 121.523 4.08887 121.048C4.07088 120.908 4.07088 120.766 4.08887 120.626V80.4293C4.08887 79.8705 4.31105 79.3345 4.70642 78.9394C5.10179 78.5442 5.63794 78.3222 6.19708 78.3222C6.75622 78.3222 7.29247 78.5442 7.68784 78.9394C8.08321 79.3345 8.30539 79.8705 8.30539 80.4293V118.519H74.4065V80.4293C74.4065 79.8705 74.6287 79.3345 75.024 78.9394C75.4194 78.5442 75.9557 78.3222 76.5148 78.3222C77.0739 78.3222 77.6101 78.5442 78.0055 78.9394C78.4008 79.3345 78.623 79.8705 78.623 80.4293H78.5581Z" fill="#A3D3EA"/>
<path d="M8.24042 120.626C8.25773 120.766 8.25773 120.908 8.24042 121.048C8.14289 121.525 7.8827 121.954 7.5042 122.262C7.1257 122.569 6.65236 122.736 6.16468 122.734H-17.8368V180.825C-17.8321 181.266 -17.9684 181.698 -18.226 182.057C-18.424 182.327 -18.6827 182.547 -18.9812 182.699C-19.2798 182.851 -19.6099 182.931 -19.945 182.932C-20.5016 182.924 -21.0329 182.699 -21.4265 182.306C-21.8201 181.912 -22.0449 181.381 -22.0532 180.825V120.626C-22.0449 120.07 -21.8201 119.539 -21.4265 119.146C-21.0329 118.752 -20.5016 118.528 -19.945 118.519H6.16468C6.71818 118.528 7.24607 118.754 7.63446 119.148C8.02284 119.542 8.24049 120.073 8.24042 120.626Z" fill="#A3D3EA"/>
<path d="M104.668 120.626V180.825C104.668 181.384 104.446 181.92 104.05 182.315C103.655 182.71 103.119 182.932 102.56 182.932C102.006 182.923 101.478 182.698 101.09 182.303C100.701 181.909 100.484 181.378 100.484 180.825V122.734H76.4823C75.9946 122.736 75.5212 122.569 75.1427 122.262C74.7642 121.954 74.504 121.525 74.4065 121.048C74.3892 120.908 74.3892 120.766 74.4065 120.626C74.4065 120.068 74.6286 119.532 75.024 119.137C75.4194 118.741 75.9556 118.519 76.5148 118.519H102.624C103.172 118.536 103.692 118.766 104.073 119.159C104.455 119.552 104.668 120.079 104.668 120.626Z" fill="#A3D3EA"/>
<path opacity="0.5" d="M102.624 123.803V182.932C102.071 182.923 101.543 182.698 101.155 182.303C100.766 181.909 100.548 181.378 100.549 180.825V122.734H-17.8692V180.825C-17.8645 181.266 -18.0008 181.698 -18.2584 182.057H-19.6855V123.803C-19.6855 123.073 -19.395 122.372 -18.878 121.855C-18.361 121.338 -17.6597 121.048 -16.9286 121.048H99.8351C100.569 121.048 101.274 121.337 101.796 121.853C102.318 122.369 102.616 123.07 102.624 123.803Z" fill="#72A6CB"/>
<path d="M142.227 190.096C142.236 191.842 142.117 193.587 141.87 195.315V195.672C141.87 195.672 141.87 195.672 141.87 195.866V196.126V196.904V197.26V197.584C141.87 197.876 141.675 198.103 141.578 198.33V198.525L141.351 198.816C141.292 198.899 141.214 198.966 141.124 199.011H-36V180.501H140.054C140.8 180.501 141.448 182.024 141.837 184.358C142.134 186.256 142.264 188.176 142.227 190.096Z" fill="#50B6DD"/>
<path d="M78.558 80.4293C78.558 80.9881 78.336 81.5241 77.9406 81.9193C77.5452 82.3144 77.009 82.5364 76.4498 82.5364H59.5516C59.6751 82.0794 59.7618 81.6133 59.811 81.1425C59.811 80.9156 59.811 80.6562 59.811 80.4293C59.8071 79.7171 59.709 79.0086 59.5191 78.3222H76.4175C76.697 78.3179 76.9746 78.3692 77.2342 78.4732C77.4937 78.5771 77.73 78.7317 77.9292 78.9278C78.1284 79.1238 78.2866 79.3576 78.3945 79.6154C78.5025 79.8732 78.5581 80.1498 78.558 80.4293Z" fill="#A3D3EA"/>
<path d="M59.8434 80.4293C59.8373 81.1413 59.7392 81.8496 59.5515 82.5364C59.2272 83.5089 58.7407 84.1573 58.1569 84.1573H56.7946V82.6661C56.5795 81.9844 56.4701 81.2738 56.4702 80.559C56.4675 79.844 56.5769 79.133 56.7946 78.4518V76.831H58.1569C58.7407 76.831 59.2272 77.4793 59.5515 78.4518C59.7304 79.0964 59.8284 79.7606 59.8434 80.4293Z" fill="#5E899D"/>
<path d="M58.4813 80.4293C58.4914 81.1424 58.3929 81.8529 58.1893 82.5364C57.865 83.5089 57.3785 84.1573 56.7946 84.1573C56.2108 84.1573 55.6919 83.5089 55.4 82.5364C55.1964 81.8529 55.098 81.1424 55.1081 80.4293C55.0959 79.7161 55.1944 79.0053 55.4 78.3222C55.6919 77.3497 56.2108 76.7014 56.7946 76.7014C57.3785 76.7014 57.865 77.3497 58.1893 78.3222C58.3949 79.0053 58.4935 79.7161 58.4813 80.4293Z" fill="#DAEDF7"/>
<path d="M57.5081 80.4293C57.525 80.6667 57.525 80.905 57.5081 81.1425C57.5081 81.9529 57.1514 82.5364 56.827 82.5364H25.1711C25.0363 82.0804 24.9387 81.6142 24.8792 81.1425C24.8792 80.9156 24.8792 80.6562 24.8792 80.4293C24.8765 79.7143 24.9859 79.0033 25.2036 78.3222H56.8595C57.2163 78.3222 57.5081 79.4244 57.5081 80.4293Z" fill="#A3D3EA"/>
<path d="M29.5823 80.4293C29.5823 80.6562 29.5823 80.9155 29.5823 81.1425C29.5331 81.6133 29.4463 82.0794 29.3227 82.5364C28.9984 83.5089 28.4794 84.1573 27.8956 84.1573H26.5658V82.6661V82.2446C26.4315 81.6929 26.3661 81.1268 26.3712 80.559C26.3579 79.7982 26.4787 79.0411 26.728 78.3222V76.831H28.0254C28.8038 76.7013 29.5823 78.3546 29.5823 80.4293Z" fill="#5E899D"/>
<path d="M28.2199 80.4293C28.2138 81.1413 28.1157 81.8496 27.9281 82.5364C27.6037 83.5089 27.0848 84.1573 26.5334 84.1573C25.982 84.1573 25.4306 83.5089 25.1386 82.5364C24.9236 81.8547 24.8143 81.1441 24.8144 80.4293C24.8116 79.7143 24.921 79.0033 25.1386 78.3222C25.4306 77.3497 25.9496 76.7014 26.5334 76.7014C27.1172 76.7014 27.6037 77.3497 27.9281 78.3222C28.1179 79.0086 28.2161 79.7171 28.2199 80.4293Z" fill="#DAEDF7"/>
<path d="M26.6631 80.4293C26.6631 80.6886 26.6631 80.9156 26.6631 81.1425C26.6213 81.407 26.5562 81.6674 26.4685 81.9205C26.4685 82.3095 26.1766 82.5364 25.982 82.5364H5.93761C5.42422 82.467 4.95252 82.2165 4.6076 81.8301C4.26267 81.4438 4.06715 80.947 4.05637 80.4293C4.05637 79.8705 4.27854 79.3345 4.67391 78.9394C5.06928 78.5442 5.60554 78.3222 6.16468 78.3222H25.982C26.3388 78.3222 26.6631 79.4244 26.6631 80.4293Z" fill="#A3D3EA"/>
<path d="M57.4757 81.1425C57.4757 81.9529 57.119 82.5364 56.7946 82.5364H29.2904C29.4139 82.0794 29.5006 81.6133 29.5498 81.1425H57.4757Z" fill="#72A6CB"/>
<path d="M76.0282 82.666V118.714H5.90515V82.666C5.93773 82.2848 6.11258 81.9298 6.39501 81.6716C6.67744 81.4133 7.04677 81.2708 7.42957 81.2721H26.6307C26.589 81.5367 26.5239 81.797 26.4361 82.0501C26.4361 82.4391 26.1442 82.666 25.9495 82.666H8.24043V118.649H74.3416V82.666H59.5516C59.6751 82.2091 59.7618 81.743 59.811 81.2721H74.4714C74.8597 81.2625 75.2371 81.4014 75.5264 81.6604C75.8158 81.9195 75.9952 82.2792 76.0282 82.666Z" fill="#72A6CB"/>
<path d="M43.3992 0.650987V78.4519H42.1343V-1.29401C42.515 -1.13261 42.8388 -0.861285 43.0642 -0.514743C43.2895 -0.168201 43.4062 0.237729 43.3992 0.650987Z" fill="#72A6CB"/>
<path d="M8.1186 113.74L2.36322 126.009L3.62597 126.601L9.38135 114.332L8.1186 113.74Z" fill="#B06B5D"/>
<path d="M0.143784 116.814L-0.44809 118.076L11.8282 123.826L12.4201 122.564L0.143784 116.814Z" fill="#B06B5D"/>
<path d="M5.90519 128.05C4.3592 128.05 2.84791 127.592 1.56247 126.733C0.277021 125.875 -0.724792 124.655 -1.31642 123.227C-1.90804 121.8 -2.06285 120.229 -1.76124 118.713C-1.45963 117.198 -0.71523 115.806 0.377952 114.713C1.47113 113.621 2.86399 112.876 4.38028 112.575C5.89656 112.274 7.46821 112.428 8.89652 113.02C10.3248 113.611 11.5456 114.612 12.4045 115.897C13.2634 117.182 13.7219 118.692 13.7219 120.237C13.7219 121.263 13.5197 122.279 13.1269 123.227C12.7341 124.175 12.1583 125.036 11.4324 125.762C10.7066 126.487 9.84488 127.063 8.89652 127.455C7.94816 127.848 6.93169 128.05 5.90519 128.05ZM5.90519 114.532C4.77617 114.532 3.67256 114.867 2.73382 115.494C1.79507 116.121 1.0634 117.012 0.631345 118.054C0.199286 119.097 0.0862252 120.244 0.306487 121.351C0.526748 122.457 1.07038 123.474 1.86872 124.272C2.66706 125.07 3.68422 125.613 4.79155 125.833C5.89888 126.053 7.04664 125.94 8.08972 125.509C9.1328 125.077 10.0243 124.345 10.6516 123.407C11.2788 122.469 11.6137 121.366 11.6137 120.237C11.6179 119.485 11.4734 118.74 11.1884 118.044C10.9035 117.348 10.4838 116.715 9.95325 116.182C9.42274 115.649 8.79194 115.226 8.09724 114.937C7.40254 114.648 6.65757 114.5 5.90519 114.5V114.532Z" fill="#EB8E7C"/>
<path d="M7.39716 120.205C7.39716 120.5 7.30959 120.788 7.14565 121.034C6.98171 121.279 6.74876 121.47 6.47614 121.583C6.20351 121.696 5.90352 121.725 5.61411 121.668C5.32469 121.61 5.05882 121.468 4.85017 121.26C4.64151 121.051 4.49943 120.785 4.44187 120.496C4.3843 120.207 4.41377 119.907 4.52669 119.634C4.63962 119.362 4.83088 119.129 5.07624 118.965C5.32159 118.801 5.61003 118.714 5.90511 118.714C6.10226 118.709 6.29827 118.745 6.48129 118.818C6.6643 118.892 6.83052 119.001 6.96996 119.141C7.10939 119.28 7.21913 119.446 7.29254 119.629C7.36595 119.812 7.4016 120.008 7.39716 120.205Z" fill="#A4AEC9"/>
<path d="M6.74847 120.205C6.74847 120.429 6.65966 120.643 6.50151 120.801C6.34336 120.959 6.1288 121.048 5.90515 121.048C5.68149 121.048 5.46703 120.959 5.30888 120.801C5.15073 120.643 5.06192 120.429 5.06192 120.205C5.06192 119.981 5.15073 119.767 5.30888 119.609C5.46703 119.451 5.68149 119.362 5.90515 119.362C6.01589 119.362 6.12561 119.384 6.22793 119.426C6.33024 119.469 6.4232 119.531 6.50151 119.609C6.57982 119.687 6.64185 119.78 6.68423 119.882C6.72661 119.985 6.74847 120.094 6.74847 120.205Z" fill="#C8CEDF"/>
<path d="M79.2095 113.868L73.4541 126.137L74.7168 126.728L80.4722 114.46L79.2095 113.868Z" fill="#B06B5D"/>
<path d="M71.1261 116.806L70.5343 118.069L82.8105 123.819L83.4024 122.557L71.1261 116.806Z" fill="#B06B5D"/>
<path d="M76.8715 128.05C75.3255 128.05 73.8143 127.592 72.5288 126.733C71.2434 125.875 70.2415 124.655 69.6499 123.227C69.0583 121.8 68.9035 120.229 69.2051 118.713C69.5067 117.198 70.2511 115.806 71.3443 114.713C72.4375 113.621 73.8303 112.876 75.3466 112.575C76.8629 112.274 78.4345 112.428 79.8629 113.02C81.2912 113.611 82.512 114.612 83.3709 115.897C84.2298 117.182 84.6882 118.692 84.6882 120.237C84.6882 122.309 83.8647 124.297 82.3988 125.762C80.9329 127.227 78.9446 128.05 76.8715 128.05ZM76.8715 114.532C75.7439 114.538 74.6434 114.879 73.709 115.509C72.7745 116.14 72.0479 117.033 71.6208 118.076C71.1938 119.12 71.0852 120.266 71.3092 121.37C71.5331 122.475 72.0793 123.488 72.8789 124.283C73.6785 125.078 74.6958 125.618 75.8022 125.835C76.9087 126.053 78.0548 125.938 79.0959 125.505C80.1371 125.073 81.0267 124.341 81.6525 123.404C82.2784 122.466 82.6124 121.364 82.6124 120.237C82.6167 119.483 82.4712 118.735 82.1842 118.037C81.8972 117.339 81.4745 116.704 80.9406 116.171C80.4066 115.637 79.772 115.214 79.0736 114.928C78.3751 114.641 77.6266 114.495 76.8715 114.5V114.532Z" fill="#EB8E7C"/>
<path d="M78.3959 120.205C78.4023 120.508 78.3184 120.805 78.1549 121.06C77.9913 121.315 77.7556 121.515 77.4776 121.636C77.1997 121.756 76.8922 121.791 76.5944 121.736C76.2966 121.681 76.022 121.538 75.8055 121.326C75.5891 121.115 75.4406 120.843 75.3791 120.547C75.3176 120.25 75.3459 119.942 75.4603 119.662C75.5747 119.382 75.77 119.142 76.0213 118.973C76.2727 118.804 76.5686 118.714 76.8715 118.714C77.0701 118.71 77.2676 118.745 77.4524 118.818C77.6372 118.891 77.8055 119 77.9475 119.139C78.0895 119.278 78.2023 119.444 78.2793 119.627C78.3563 119.81 78.3959 120.006 78.3959 120.205Z" fill="#A4AEC9"/>
<path d="M77.7148 120.205C77.7194 120.317 77.7006 120.429 77.6599 120.533C77.6191 120.637 77.5572 120.732 77.478 120.811C77.3987 120.89 77.3039 120.952 77.1995 120.993C77.0951 121.034 76.9835 121.052 76.8715 121.048C76.6478 121.048 76.4334 120.959 76.2752 120.801C76.1171 120.643 76.0282 120.429 76.0282 120.205C76.0282 119.981 76.1171 119.767 76.2752 119.609C76.4334 119.451 76.6478 119.362 76.8715 119.362C76.9835 119.358 77.0951 119.376 77.1995 119.417C77.3039 119.458 77.3987 119.52 77.478 119.599C77.5572 119.678 77.6191 119.773 77.6599 119.877C77.7006 119.981 77.7194 120.093 77.7148 120.205Z" fill="#C8CEDF"/>
<path d="M43.0846 75.0536L38.3654 85.1227L39.4227 85.6177L44.1419 75.5487L43.0846 75.0536Z" fill="#B06B5D"/>
<path d="M36.4101 77.4244L35.9148 78.4811L45.9892 83.1978L46.4845 82.1411L36.4101 77.4244Z" fill="#B06B5D"/>
<path d="M41.291 86.8478C40.008 86.8478 38.7539 86.4676 37.6871 85.7552C36.6203 85.0428 35.7889 84.0303 35.298 82.8456C34.807 81.6609 34.6785 80.3573 34.9288 79.0996C35.1791 77.842 35.7969 76.6867 36.7041 75.78C37.6113 74.8733 38.7672 74.2558 40.0255 74.0056C41.2839 73.7555 42.5882 73.8839 43.7735 74.3746C44.9588 74.8653 45.9718 75.6963 46.6846 76.7625C47.3974 77.8287 47.7779 79.0821 47.7779 80.3644C47.7779 82.0839 47.0945 83.733 45.8779 84.9489C44.6614 86.1648 43.0114 86.8478 41.291 86.8478ZM41.291 75.7288C40.3609 75.7288 39.4516 76.0045 38.6782 76.521C37.9048 77.0375 37.302 77.7716 36.946 78.6305C36.5901 79.4894 36.4969 80.4345 36.6784 81.3463C36.8598 82.2581 37.3078 83.0957 37.9655 83.753C38.6233 84.4104 39.4613 84.858 40.3736 85.0394C41.2858 85.2208 42.2314 85.1277 43.0908 84.772C43.9502 84.4162 44.6846 83.8137 45.2014 83.0407C45.7182 82.2677 45.994 81.3589 45.994 80.4293C45.994 79.1826 45.4985 77.9871 44.6165 77.1056C43.7345 76.224 42.5383 75.7288 41.291 75.7288Z" fill="#EB8E7C"/>
<path d="M42.5236 80.4293C42.5236 80.6729 42.4512 80.9111 42.3158 81.1137C42.1804 81.3163 41.9879 81.4742 41.7627 81.5674C41.5375 81.6606 41.2897 81.685 41.0506 81.6375C40.8115 81.59 40.5919 81.4727 40.4195 81.3004C40.2472 81.1281 40.1298 80.9086 40.0823 80.6697C40.0347 80.4307 40.0591 80.183 40.1524 79.9579C40.2457 79.7328 40.4036 79.5405 40.6063 79.4051C40.809 79.2697 41.0473 79.1974 41.2911 79.1974C41.6179 79.1974 41.9315 79.3273 42.1626 79.5583C42.3937 79.7893 42.5236 80.1026 42.5236 80.4293Z" fill="#A4AEC9"/>
<path d="M41.3235 81.1425C41.7176 81.1425 42.037 80.8232 42.037 80.4293C42.037 80.0354 41.7176 79.7161 41.3235 79.7161C40.9294 79.7161 40.6099 80.0354 40.6099 80.4293C40.6099 80.8232 40.9294 81.1425 41.3235 81.1425Z" fill="#C8CEDF"/>
</g>
<defs>
<clipPath id="clip0_116_292">
<rect width="184" height="296" fill="white" transform="translate(-36 -40)"/>
</clipPath>
</defs>
</svg>
