<?xml version="1.0" encoding="utf-8"?><svg viewBox="0 0 632 788" xmlns="http://www.w3.org/2000/svg" xmlns:xlink="http://www.w3.org/1999/xlink"><style>:root>svg{display:none}:root>svg:target{display:block}</style><svg fill="none" viewBox="0 0 11 8" id="arrow" xmlns="http://www.w3.org/2000/svg"><path d="M10.354 4.354a.5.5 0 000-.708L7.172.464a.5.5 0 10-.708.708L9.293 4 6.464 6.828a.5.5 0 10.708.708l3.182-3.182zM0 4.5h10v-1H0v1z" fill="#21B9E5"/></svg><svg fill="none" viewBox="0 0 11 8" id="arrow-link" xmlns="http://www.w3.org/2000/svg"><path d="M10.354 4.354a.5.5 0 000-.708L7.172.464a.5.5 0 10-.708.708L9.293 4 6.464 6.828a.5.5 0 10.708.708l3.182-3.182zM0 4.5h10v-1H0v1z" fill="#21B9E5"/></svg><svg fill="none" viewBox="0 0 53 24" id="big-arrow" xmlns="http://www.w3.org/2000/svg"><path d="M52.06 13.06a1.5 1.5 0 000-2.12l-9.545-9.547a1.5 1.5 0 10-2.122 2.122L48.88 12l-8.486 8.485a1.5 1.5 0 102.122 2.122l9.546-9.546zM0 13.5h51v-3H0v3z" fill="#21B9E5"/></svg><svg fill="none" viewBox="0 0 60 48" id="blue-checkmark" xmlns="http://www.w3.org/2000/svg"><g clip-path="url(#da)"><path fill-rule="evenodd" clip-rule="evenodd" d="M10.374 47.324h26.34a10.363 10.363 0 007.326-3.059 10.48 10.48 0 003.046-7.364V10.423a10.819 10.819 0 00-.149-1.764c5.029-4.078 9.694-6.352 13.061-5.533C44.981-3.129 26.394 30.04 22.826 36.58L9.72 16.945l12.24 7.216c7.38-9.517 15.361-16.775 22.252-20.925A10.364 10.364 0 0040.793.845 10.315 10.315 0 0036.715 0H10.374A10.362 10.362 0 003.05 3.06a10.478 10.478 0 00-3.044 7.363V36.9a10.48 10.48 0 003.045 7.363 10.363 10.363 0 007.323 3.06z" fill="#41D4FF"/></g><defs><clipPath id="da"><path fill="#fff" d="M0 0h60v47.324H0z"/></clipPath></defs></svg><svg fill="none" viewBox="0 0 22 22" id="burger" xmlns="http://www.w3.org/2000/svg"><path d="M3.438 3.781a1.031 1.031 0 100-2.062 1.031 1.031 0 000 2.062zm0 7.907a1.031 1.031 0 100-2.063 1.031 1.031 0 000 2.063zM11 3.781a1.031 1.031 0 100-2.062 1.031 1.031 0 000 2.062zm0 7.907a1.031 1.031 0 100-2.063 1.031 1.031 0 000 2.063zm7.563-7.907a1.031 1.031 0 100-2.062 1.031 1.031 0 000 2.062zm0 7.907a1.031 1.031 0 100-2.063 1.031 1.031 0 000 2.063zM11 19.938a1.031 1.031 0 100-2.063 1.031 1.031 0 000 2.063zm7.563 0a1.031 1.031 0 100-2.063 1.031 1.031 0 000 2.063z" fill="#41D4FF" stroke="#41D4FF" stroke-width="1.5" stroke-linecap="round" stroke-linejoin="round"/></svg><svg fill="none" viewBox="0 0 26 25" id="cart" xmlns="http://www.w3.org/2000/svg"><path d="M25.777 4.198a1.047 1.047 0 00-.821-.414H6.13L5.39.8C5.282.33 4.87 0 4.379 0H1.04C.465 0 0 .47 0 1.05 0 1.63.465 2.1 1.04 2.1h2.545l4.214 17.344c.11.47.52.801 1.012.801h12.013c.574 0 1.04-.47 1.04-1.05 0-.58-.466-1.049-1.04-1.049H9.604l-.601-2.458h13.463c.465 0 .875-.332 1.012-.774l2.49-9.832c.082-.304 0-.635-.191-.884zM12.423 22.786c0 .93-.747 1.685-1.669 1.685a1.677 1.677 0 01-1.669-1.685c0-.93.747-1.685 1.67-1.685.921 0 1.668.755 1.668 1.685zm8.62 0c0 .93-.747 1.685-1.67 1.685-.921 0-1.669-.755-1.669-1.685s.748-1.685 1.67-1.685c.922 0 1.669.755 1.669 1.685z" fill="#2F4085"/></svg><svg fill="none" viewBox="0 0 24 23" id="letter" xmlns="http://www.w3.org/2000/svg"><path d="M21.282.413L1.765 7.99a1.316 1.316 0 00.063 2.48l8.352 2.75 2.75 8.352a1.315 1.315 0 002.48.064l7.578-19.518A1.316 1.316 0 0021.283.413zM6.145 9.116L16.4 5.136l-5.535 5.535-4.72-1.555zm8.139 8.139l-1.556-4.72 5.536-5.536-3.98 10.256z" fill="#45D5FF"/></svg><svg fill="none" viewBox="0 0 19 19" id="mail" xmlns="http://www.w3.org/2000/svg"><path d="M15.273 15.955h-12a1.5 1.5 0 01-1.5-1.5V5.389a1.5 1.5 0 011.5-1.434h12a1.5 1.5 0 011.5 1.5v9a1.5 1.5 0 01-1.5 1.5zm-12-9.1v7.6h12v-7.6l-6 4-6-4zm.6-1.4l5.4 3.6 5.4-3.6h-10.8z" fill="#fff"/></svg><svg fill="none" viewBox="0 0 632 788" id="man" xmlns="http://www.w3.org/2000/svg"><g clip-path="url(#ia)"><path d="M280.037 356.651s35.475-17.418 64.077-12.676c28.603 4.743 67.227 11.878 88.69 11.878 21.463 0 71.173-9.484 71.173-9.484s7.14-13.297-19.778-37.939c-26.917-24.643-55.342-52.964-56.938-62.448-1.597-9.485-3.149-15.823-3.149-15.823l83.812 7.136s-1.552 8.864 6.341 26.858c7.893 17.995 72.637 58.903 97.115 97.506 24.478 38.604 22.527 33.241 6.74 53.186-15.787 19.944-55.564 36.387-127.402 46.271-93.567 12.853-156.758-5.629-156.758-5.629l-59.467-85.54 5.544-13.296z" fill="#fff" stroke="#263238" stroke-linecap="round" stroke-linejoin="round"/><path d="M389.169 392.994s-24.523 43.479-27.671 67.191m186.38-52.565a95.8 95.8 0 0014.501-.399m-60.087-54.515s-7.938 14.981-1.596 26.859a51.225 51.225 0 0037.027 26.814" stroke="#263238" stroke-linecap="round" stroke-linejoin="round"/><path d="M305.269 86.958s17.427 21.052 16.718 32.664c-.71 11.612-4.435 15.202 1.419 22.471 5.853 7.269 21.063 13.075 19.6 21.762-1.464 8.687-15.21 15.246-15.21 15.246s6.518 9.44 5.055 14.493l-1.463 5.097s7.272 8.864 5.809 13.075c-1.464 4.21-3.592 10.858-3.592 10.858s5.809 21.053.709 31.025c-5.099 9.972-21.063 16.709-39.91 15.956-18.846-.754-32.682 41.351-34.855 54.426-2.173 13.075-.709 19.59 2.173 23.933 2.883 4.344 35.476 4.432 62.437 26.859 26.962 22.426 38.447 50.038 45.01 113.905 6.563 63.866 20.31 260.43 20.31 260.43l19.689 134.248 21.818 83.545s-146.604 39.889-210.815 33.909c-64.211-5.986-99.332-25.443-99.332-25.443s23.015-180.387 23.015-192.531c0-12.144-76.317-302.712-76.317-302.712s-18.181-67.811-13.304-89.573c4.878-21.762 50.908-56.908 64.212-70.249 13.303-13.34 36.362-38.736 36.362-61.739s-44.744-81.728-50.375-110.802a160.142 160.142 0 010-56.067s-5.588 18.083-8.071 8.111c-2.483-9.972 11.175-26.592 11.175-26.592s-9.313.62-4.967-13.297c4.346-13.916 13.703-21.806 13.703-15.6a57.56 57.56 0 00.62 12.453c.621 1.862 9.978-3.723 54.234-30.492 44.256-26.77 92.813-19.945 95.918-16.178 3.104 3.768-4.435-14.98 11.839-5.008 16.275 9.972 39.911 30.537 37.383 53.54-2.528 23.003-10.997 28.277-10.997 28.277z" fill="#fff" stroke="#263238" stroke-linecap="round" stroke-linejoin="round"/><path d="M213.431 157.738c-3.725 3.147-5.588 9.973-9.357 1.906-3.769-8.066-12.461-22.426-33.613-16.842-21.152 5.585-17.472 28.055-13.747 41.751 3.459 12.498 0 51.634-5.277 60.099-10.465-27.568-42.349-72.465-47.05-96.841a160.142 160.142 0 010-56.067s-5.587 18.083-8.07 8.111c-2.484-9.972 11.174-26.592 11.174-26.592s-9.312.62-4.966-13.297c4.346-13.916 13.702-21.806 13.702-15.6a57.624 57.624 0 00.621 12.453c.621 1.862 9.978-3.723 54.234-30.492 44.256-26.77 92.813-19.945 95.917-16.178 3.104 3.768-4.434-14.98 11.84-5.008 16.275 9.972 39.91 30.537 37.383 53.54-2.528 23.003-10.51 27.967-10.909 28.188-.399.222.887-1.906-22.172-15.734-24.922-14.936-62.305-1.24-47.36 14.36 14.944 15.601 4.434 21.141-11.22 32.355-15.653 11.213-7.316 36.786-11.13 39.888z" fill="#263238" stroke="#263238" stroke-linecap="round" stroke-linejoin="round"/><path d="M192.855 155.877s-17.427-18.039-29.888-8.864c-12.461 9.174-4.967 36.742 2.483 43.567 7.45 6.826 31.795 19.324 36.762 8.865" fill="#fff"/><path d="M192.855 155.877s-17.427-18.039-29.888-8.864c-12.461 9.174-4.967 36.742 2.483 43.567 7.45 6.826 31.795 19.324 36.762 8.865" stroke="#263238" stroke-linecap="round" stroke-linejoin="round"/><path d="M301.499 118.381a34.077 34.077 0 00-35.741 3.28" stroke="#263238" stroke-width="2" stroke-linecap="round" stroke-linejoin="round"/><path d="M301.145 139.079s-8.869 8.865-28.514 0" stroke="#263238" stroke-linecap="round" stroke-linejoin="round"/><path d="M294.404 269.782s-33.613 2.571-51.706-14.271c0 0 14.368 31.778 26.164 39.268 0-.177 12.416-25.662 25.542-24.997z" fill="#263238" stroke="#263238" stroke-linecap="round" stroke-linejoin="round"/><path d="M108.334 329.748a143.935 143.935 0 0122.837 7.358c16.851 6.869 83.502 62.271 113.434 83.456 29.933 21.186 57.914 29.872 67.892 10.593 9.977-19.28-8.869-46.715-15.565-58.548-6.696-11.834-23.059-13.297-29.933-18.704a19.724 19.724 0 01-4.789-5.363c4.701 3.989 36.008 4.699 62.083 26.593 26.828 22.471 38.446 50.038 45.009 113.905 6.563 63.867 20.31 260.43 20.31 260.43l19.689 134.249 21.818 83.545s-146.604 39.888-210.815 33.908c-64.211-5.986-99.332-25.443-99.332-25.443s23.015-180.387 23.015-192.53c0-12.144-76.317-302.713-76.317-302.713s-18.181-67.811-13.303-89.573c3.813-17.994 35.342-44.72 53.967-61.163z" fill="#41D4FF" stroke="#263238" stroke-linecap="round" stroke-linejoin="round"/><path d="M190.638 715.651a109.335 109.335 0 01-17.029 12.809M292.63 590.799s-51.75 75.833-93.345 116.742m260.214-466.479s25.942 9.573 24.745 19.545a16.54 16.54 0 01-15.965 15.158" stroke="#263238" stroke-linecap="round" stroke-linejoin="round"/><path d="M364.336 186.591c-1.73 18.482.355 33.817 4.7 34.216 4.346.399 9.224-14.271 10.953-32.753 1.73-18.482-.354-33.773-4.656-34.216-4.301-.443-9.223 14.272-10.997 32.753z" fill="#fff" stroke="#263238" stroke-linecap="round" stroke-linejoin="round"/><path d="M344.248 184.686c1.729-18.482 6.651-33.108 10.953-32.709l20.132 1.861-6.297 66.969-20.132-1.905c-4.346-.399-6.43-15.734-4.656-34.216z" fill="#41D4FF" stroke="#263238" stroke-linecap="round" stroke-linejoin="round"/><path d="M573.731 163.855a26.604 26.604 0 00-10.199-3.635c-6.43-1.019-174.541-11.301-181.237-9.75-6.696 1.551-6.962 3.368-6.962 3.368l-6.297 66.969a22.175 22.175 0 0013.304 6.737c9.755 1.817 174.806 11.302 178.132 11.834 3.326.532 4.435-1.33 5.987-.931 1.552.399 7.272-74.592 7.272-74.592zm-107.447-10.504a17.729 17.729 0 017.982-7.579c4.789-1.596 17.738-.798 16.319 3.59l-1.153 4.432-23.148-.443zm-32.726-2.394s8.869-8.376 16.363-6.781c5.853 1.241 3.991 8.864 3.991 8.864l-20.354-2.083z" fill="#fff" stroke="#263238" stroke-linecap="round" stroke-linejoin="round"/><path d="M407.217 150.16s8.869-8.377 16.363-6.782c5.854 1.241 3.991 8.865 3.991 8.865l-20.354-2.083z" fill="#fff" stroke="#263238" stroke-linecap="round" stroke-linejoin="round"/><path d="M409.213 156.941s-1.597 22.736 2.394 35.102c3.991 12.365 8.869 24.687 8.869 24.687m30.243-58.194s-7.583 12.765-5.188 17.729c2.394 4.964 3.592 8.376 3.592 8.376m16.452-25.706a67.235 67.235 0 00-6.785 18.748m24.522-17.152a80.117 80.117 0 00-5.986 18.349c-.399 5.983 1.596 10.77 3.193 10.371 1.596-.399 18.713-19.147 25.099-22.161m12.904 8.997s-15.166 15.557-16.762 21.54c-1.597 5.984 4.434 29.474 4.434 29.474" stroke="#263238" stroke-linecap="round" stroke-linejoin="round"/><path d="M345.4 174.093h-11.573a24.09 24.09 0 00-3.991 13.562 34.428 34.428 0 002.793 15.557l11.574 1.595s-2.394-21.939 1.197-30.714zm215.826 14.759l10.598.532c-1.729 21.717-4.079 49.329-5.144 49.063-1.064-.266-2.66 1.418-5.986.931-3.326-.488-168.51-10.017-178.133-11.834a22.175 22.175 0 01-13.303-6.737l2.971-31.556 188.997-.399z" fill="#41D4FF" stroke="#263238" stroke-linecap="round" stroke-linejoin="round"/><path d="M454.621 279.577s-27.316-20.476-33.569-28.41c-6.252-7.933-5.454-9.307-4.434-12.498 1.02-3.191 4.434-6.781 6.785-13.297 2.35-6.515 11.973-9.573 15.565 1.197a22.148 22.148 0 01-2.395 20.343 9.484 9.484 0 00-1.596 4.787" fill="#fff"/><path d="M454.621 279.577s-27.316-20.476-33.569-28.41c-6.252-7.933-5.454-9.307-4.434-12.498 1.02-3.191 4.434-6.781 6.785-13.297 2.35-6.515 11.973-9.573 15.565 1.197a22.148 22.148 0 01-2.395 20.343 9.484 9.484 0 00-1.596 4.787" stroke="#263238" stroke-linecap="round" stroke-linejoin="round"/><path d="M561.492 200.331c-1.951 20.609.399 37.673 5.188 38.116 4.79.443 10.288-15.867 12.239-36.476 1.952-20.609-.399-37.673-5.188-38.116-4.789-.443-10.288 15.867-12.239 36.476zM91.838 345.571s32.416 1.595 66.517 50.57 33.214 112.265 15.786 140.719a259.32 259.32 0 01-39.511 49.019l-28.469 139.08s24.478 86.16 30.021 120.952c5.544 34.792 69.622 170.729 70.42 173.119.798 2.39 45.054 56.11 45.852 62.45.798 6.33 17.383 49.02 21.33 57.61 3.947 8.6 0 11.04-8.869 8.87s-19.778-15.03-19.778-15.03 4.745 31.03 6.342 39.54c1.596 8.51 13.303 8.86 8.868 16.57-4.434 7.72-27.671-2.35-31.617-3.94-3.947-1.6-42.704-4.74-53.79-14.23a78.64 78.64 0 01-23.725-44.32c-1.596-15.02-3.148-64.8-7.893-87.71-4.745-22.91-108.379-174.713-121.815-212.741C8.071 788.072.976 733.025 2.527 723.363c1.553-9.662 0-165.229 3.193-217.394 3.193-52.166 26.075-108.277 39.511-128.044 13.437-19.767 46.607-32.354 46.607-32.354z" fill="#fff" stroke="#263238" stroke-linecap="round" stroke-linejoin="round"/><path d="M134.542 585.879l10.554-57.617a92.099 92.099 0 0024.567-24.554" stroke="#263238" stroke-linecap="round" stroke-linejoin="round"/></g><defs><clipPath id="ia"><path fill="#fff" transform="matrix(-1 0 0 1 632 0)" d="M0 0h632v813H0z"/></clipPath></defs></svg><svg fill="none" viewBox="0 0 19 19" id="marker" xmlns="http://www.w3.org/2000/svg"><path d="M13.023 7.705a3.75 3.75 0 00-7.5 0c0 1.294 1.244 3.773 3.75 7.24 2.505-3.467 3.75-5.946 3.75-7.24zm-3.75 9.75c-3.5-4.568-5.25-7.818-5.25-9.75a5.25 5.25 0 1110.5 0c0 1.932-1.75 5.182-5.25 9.75zm0-6.75a3 3 0 110-6 3 3 0 010 6zm0-1.5a1.5 1.5 0 100-3 1.5 1.5 0 000 3z" fill="#fff"/></svg><svg fill="none" viewBox="0 0 16 16" id="menu-arrow" xmlns="http://www.w3.org/2000/svg"><path d="M7.727 14.667V8m0 0V1.333m0 6.667h6.667M7.727 8H1.061" stroke="#21B9E5" stroke-width="2" stroke-linecap="round"/></svg><svg fill="none" viewBox="0 0 184 291" id="model" xmlns="http://www.w3.org/2000/svg"><g clip-path="url(#la)"><path d="M184.032 225.096a27.062 27.062 0 01-1.427 9.239c-.811 2.107-1.848 3.242-3.016 3.242h-1.622l-1.33-3.663-.843-2.237a33.56 33.56 0 010-13.453l2.173-5.9h1.622c2.4.13 4.443 5.835 4.443 12.772z" fill="#A7ACC2"/><path d="M177.935 212.453h-1.59l-2.173 5.9a33.56 33.56 0 000 13.453l2.173 5.9h1.59c2.465 0 4.476-5.64 4.476-12.61s-2.011-12.643-4.476-12.643z" fill="#21B9E5"/><path d="M180.789 225.096c0 6.97-2.011 12.61-4.476 12.61s-4.443-5.64-4.443-12.61 2.01-12.643 4.443-12.643 4.476 5.706 4.476 12.643z" fill="#A4AEC9"/><path d="M176.346 212.875h-.617v.713a.578.578 0 000 .227.953.953 0 000 .292v.648h.584c.357 0 .649-.421.649-.94 0-.519-.26-.94-.616-.94z" fill="#21B9E5"/><path d="M176.41 213.815c0 .519-.292.94-.648.94-.357 0-.617-.421-.617-.94 0-.519.292-.94.617-.94.324 0 .648.421.648.94z" fill="#C8CEDF"/><path d="M179.265 218.159h-.649v1.848h.584c.324 0 .584-.454.551-.973-.032-.518-.162-.875-.486-.875z" fill="#21B9E5"/><path d="M179.362 219.067c0 .518-.227.972-.584.972s-.649-.389-.681-.875c-.032-.486.227-.973.584-1.005.357-.032.648.389.681.908z" fill="#C8CEDF"/><path d="M179.329 230.121h-.616v1.945h.584c.324 0 .584-.454.551-.973-.032-.518-.162-1.005-.519-.972z" fill="#21B9E5"/><path d="M179.427 231.126c0 .518-.195.94-.552.972-.356.033-.648-.389-.681-.907-.032-.519.227-.973.584-.973s.649.324.649.908z" fill="#C8CEDF"/><path d="M176.346 235.048h-.617v.746a.424.424 0 000 .194.953.953 0 000 .292v.648h.584c.357 0 .649-.421.649-.94 0-.518-.26-.94-.616-.94z" fill="#21B9E5"/><path d="M176.41 235.988c0 .519-.292.94-.648.94-.357 0-.617-.421-.617-.94 0-.518.292-.94.617-.94.324 0 .648.422.648.94z" fill="#C8CEDF"/><path d="M179.848 224.156h-.648v.713a.484.484 0 000 .227v.94h.584c.324 0 .616-.421.616-.94 0-.518-.227-.94-.552-.94z" fill="#21B9E5"/><path d="M179.881 225.096c0 .519-.292.94-.616.94-.325 0-.649-.421-.649-.94 0-.518.292-.94.649-.94.356 0 .616.486.616.94z" fill="#C8CEDF"/><path d="M124.061 282.993c0 3.242-12.227 6.257-29.547 7.424-5.32.389-11.125.583-17.223.583-25.947 0-46.77-3.598-46.77-8.007a1.46 1.46 0 010-.519l7.265-36.534 1.816-9.141c0 1.458 16.834 2.625 37.592 2.625 5.676 0 11.06.001 15.892-.226 12.812-.422 21.699-1.33 21.699-2.399l1.816 9.141 7.266 36.534c.097.159.163.335.194.519z" fill="#59637C"/><path d="M152.117 65.248v123.93a50.04 50.04 0 01-10.292 30.502 50.08 50.08 0 01-26.748 17.929 50.327 50.327 0 01-12.974 1.686H52.479a49.945 49.945 0 01-35.482-14.635A49.89 49.89 0 012.4 189.178V64.081a70.23 70.23 0 0120.995-48.92A70.305 70.305 0 0172.684-5h9.082a70.305 70.305 0 0149.291 20.16 70.227 70.227 0 0120.994 48.92l.065 1.168z" fill="#41D4FF"/><path opacity=".2" d="M152.117 65.572v123.93a50.005 50.005 0 01-10.325 30.429 50.053 50.053 0 01-26.715 17.873 50.5 50.5 0 01-12.974 1.685H52.479a49.937 49.937 0 01-31.144-10.932 49.888 49.888 0 01-17.508-27.968 49.616 49.616 0 0025.234 6.807h49.625c4.38.003 8.74-.563 12.973-1.685a50.084 50.084 0 0026.709-17.878 50.034 50.034 0 0010.331-30.424V33.382a69.948 69.948 0 00-4.151-23.827A70.156 70.156 0 01144.91 34.33a70.12 70.12 0 017.207 31.242z" fill="#21B9E5"/><path d="M152.117 64.826h-.324a78.315 78.315 0 00-15.309-3.241 576.448 576.448 0 00-118.386 0A78.304 78.304 0 002.79 64.826a.907.907 0 01-1.167-.55.875.875 0 01.519-1.168 80.19 80.19 0 0115.536-3.242 578.848 578.848 0 01119.261 0 81.127 81.127 0 0115.536 3.242.973.973 0 01.519 1.2.945.945 0 01-.876.518zm0 114.595a.658.658 0 01-.324 0 84.389 84.389 0 00-15.309-3.048 576.434 576.434 0 00-118.386 0 84.38 84.38 0 00-15.309 3.048.906.906 0 01-1.052-.169.896.896 0 01-.265-.687.905.905 0 01.669-.83 77.012 77.012 0 0115.536-3.242 572.909 572.909 0 01119.261 0 77.897 77.897 0 0115.536 3.242.938.938 0 01.519 1.167.947.947 0 01-.876.519z" fill="#59637C"/><path opacity=".2" d="M152.117 65.572v.713h-.324a78.307 78.307 0 00-15.309-3.08 576.434 576.434 0 00-118.386 0 78.302 78.302 0 00-15.309 3.08h-.324v-1.913a92.322 92.322 0 0115.212-3.014 578.848 578.848 0 01119.261 0 91.402 91.402 0 0115.179 3.014v1.2zm0 113.427v1.88a.635.635 0 01-.324 0 84.472 84.472 0 00-15.309-3.047 576.434 576.434 0 00-118.386 0 84.465 84.465 0 00-15.309 3.047.577.577 0 01-.324 0v-1.88a86.77 86.77 0 0115.212-3.015 572.909 572.909 0 01119.261 0 86.8 86.8 0 0115.179 3.015z" fill="#59637C"/><path opacity=".25" d="M123.964 282.474l-7.265-36.534-1.622-8.136a50.5 50.5 0 01-12.974 1.685H52.479c-4.38.003-8.74-.563-12.974-1.685l-1.622 8.136a50.633 50.633 0 0014.596 2.14h5.514a36.402 36.402 0 0125.373 10.318 36.363 36.363 0 0110.986 25.081v6.937c17.319-1.167 29.547-4.052 29.547-7.423.053-.168.075-.343.065-.519z" fill="#50B6DD"/><path d="M86.924 35.651a9.721 9.721 0 01-6.007 8.985 9.735 9.735 0 01-10.604-2.108 9.724 9.724 0 016.88-16.602 9.733 9.733 0 016.881 2.848 9.723 9.723 0 012.85 6.877z" fill="#DAEDF7"/><path d="M82.254 35.651a4.958 4.958 0 01-3.064 4.582 4.965 4.965 0 01-6.766-3.614 4.957 4.957 0 012.11-5.092 4.965 4.965 0 012.757-.836 4.933 4.933 0 014.594 3.057c.247.604.373 1.25.368 1.903zm-4.152-8.169a.81.81 0 11-1.62 0 .81.81 0 011.62 0zm-6.584 3.209a.81.81 0 100-1.621.81.81 0 000 1.621zm-2.4 4.149a.812.812 0 110 1.624.812.812 0 010-1.623zm2.4 7.392a.81.81 0 100-1.622.81.81 0 000 1.622zm4.962 1.588a.81.81 0 111.62 0 .81.81 0 01-1.62 0zm6.617-1.588a.81.81 0 100-1.622.81.81 0 000 1.622zm2.368-5.609a.812.812 0 110-1.623.812.812 0 010 1.623zm-2.368-5.932a.81.81 0 100-1.621.81.81 0 000 1.621z" fill="#5E899D"/><path d="M79.4 35.65v79.779a2.106 2.106 0 01-2.109 2.107 2.11 2.11 0 01-2.108-2.107V35.651a2.107 2.107 0 013.599-1.49c.395.395.617.931.617 1.49z" fill="#A3D3EA"/><path d="M114.558 115.429v40.198c.018.139.018.281 0 .421a2.076 2.076 0 01-2.043 1.686H42.132a2.076 2.076 0 01-2.043-1.686 1.648 1.648 0 010-.421v-40.198a2.11 2.11 0 014.216 0v38.09h66.101v-38.09a2.112 2.112 0 012.109-2.107 2.107 2.107 0 012.108 2.107h-.065z" fill="#A3D3EA"/><path d="M44.24 155.626c.018.14.018.282 0 .422a2.11 2.11 0 01-2.075 1.686H18.163v58.091c.005.441-.131.873-.389 1.232a2.142 2.142 0 01-1.719.875 2.14 2.14 0 01-2.108-2.107v-60.199a2.137 2.137 0 012.108-2.107h26.11a2.112 2.112 0 012.075 2.107zm96.428 0v60.199a2.107 2.107 0 01-2.108 2.107 2.107 2.107 0 01-2.076-2.107v-58.091h-24.002a2.112 2.112 0 01-2.076-1.686 1.752 1.752 0 010-.422 2.112 2.112 0 012.109-2.107h26.109a2.11 2.11 0 012.044 2.107z" fill="#A3D3EA"/><path opacity=".5" d="M138.624 158.803v59.129a2.106 2.106 0 01-2.075-2.107v-58.091H18.131v58.091c.005.441-.132.873-.39 1.232h-1.427v-58.254a2.756 2.756 0 012.758-2.755h116.763a2.79 2.79 0 012.789 2.755z" fill="#72A6CB"/><path d="M178.227 225.096a35.592 35.592 0 01-.357 5.219v2.27c0 .291-.195.518-.292.745v.195l-.227.291a.618.618 0 01-.227.195H0v-18.51h176.054c.746 0 1.394 1.523 1.783 3.857.297 1.898.427 3.818.39 5.738z" fill="#50B6DD"/><path d="M114.558 115.429a2.107 2.107 0 01-2.108 2.107H95.552a8.9 8.9 0 00.259-1.393v-.714a8.072 8.072 0 00-.292-2.107h16.898a2.112 2.112 0 011.978 1.293c.107.258.163.535.163.814z" fill="#A3D3EA"/><path d="M95.843 115.429a8.256 8.256 0 01-.291 2.107c-.325.973-.811 1.621-1.395 1.621h-1.362v-1.491a6.999 6.999 0 010-4.214v-1.621h1.362c.584 0 1.07.648 1.395 1.621a8.11 8.11 0 01.291 1.977z" fill="#5E899D"/><path d="M94.481 115.429a7.03 7.03 0 01-.292 2.107c-.324.973-.81 1.621-1.394 1.621-.584 0-1.103-.648-1.395-1.621a7.026 7.026 0 01-.292-2.107 6.898 6.898 0 01.292-2.107c.292-.972.81-1.621 1.395-1.621.583 0 1.07.649 1.394 1.621.206.683.304 1.394.292 2.107z" fill="#DAEDF7"/><path d="M93.508 115.429c.017.238.017.476 0 .714 0 .81-.357 1.393-.681 1.393H61.171a8.81 8.81 0 01-.292-1.393v-.714a6.835 6.835 0 01.325-2.107h31.655c.357 0 .65 1.102.65 2.107z" fill="#A3D3EA"/><path d="M65.582 115.429v.713a8.8 8.8 0 01-.26 1.394c-.324.973-.843 1.621-1.426 1.621h-1.33v-1.912a6.874 6.874 0 01-.195-1.686 6.48 6.48 0 01.357-2.237v-1.491h1.297c.779-.13 1.557 1.524 1.557 3.598z" fill="#5E899D"/><path d="M64.22 115.429a8.26 8.26 0 01-.292 2.107c-.324.973-.843 1.621-1.395 1.621-.551 0-1.102-.648-1.394-1.621a6.997 6.997 0 01-.325-2.107 6.835 6.835 0 01.325-2.107c.292-.972.81-1.621 1.394-1.621.584 0 1.07.649 1.395 1.621.19.687.288 1.395.292 2.107z" fill="#DAEDF7"/><path d="M62.663 115.429v.714a4.575 4.575 0 01-.194.778c0 .389-.292.615-.487.615H41.938a2.168 2.168 0 01-1.882-2.107 2.11 2.11 0 012.109-2.107h19.817c.357 0 .681 1.102.681 2.107z" fill="#A3D3EA"/><path d="M93.476 116.142c0 .811-.357 1.394-.681 1.394H65.29c.124-.457.21-.923.26-1.394h27.926z" fill="#72A6CB"/><path d="M112.028 117.666v36.048H41.905v-36.048a1.522 1.522 0 011.525-1.394h19.2a4.51 4.51 0 01-.194.778c0 .389-.292.616-.486.616H44.24v35.983h66.102v-35.983h-14.79c.123-.457.21-.923.259-1.394h14.66a1.526 1.526 0 011.557 1.394zM79.4 35.65v77.802h-1.266V33.706A2.076 2.076 0 0179.4 35.65z" fill="#72A6CB"/><path d="M44.119 148.74l-5.756 12.269 1.263.592 5.755-12.269-1.262-.592z" fill="#B06B5D"/><path d="M36.144 151.814l-.592 1.262 12.276 5.75.592-1.262-12.276-5.75z" fill="#B06B5D"/><path d="M41.905 163.05a7.815 7.815 0 01-7.666-9.337 7.814 7.814 0 0110.658-5.693 7.811 7.811 0 01-2.992 15.03zm0-13.518a5.71 5.71 0 00-5.599 6.819 5.707 5.707 0 007.784 4.158 5.712 5.712 0 003.524-5.272 5.702 5.702 0 00-3.517-5.3 5.706 5.706 0 00-2.192-.437v.032z" fill="#EB8E7C"/><path d="M43.397 155.205a1.494 1.494 0 01-.92 1.378 1.496 1.496 0 01-1.627-.323 1.495 1.495 0 01-.323-1.626 1.494 1.494 0 011.378-.92 1.456 1.456 0 011.492 1.491z" fill="#A4AEC9"/><path d="M42.748 155.205a.842.842 0 01-1.44.596.842.842 0 01.92-1.375.859.859 0 01.456.456.846.846 0 01.064.323z" fill="#C8CEDF"/><path d="M115.209 148.868l-5.755 12.269 1.263.591 5.755-12.268-1.263-.592z" fill="#B06B5D"/><path d="M107.126 151.806l-.592 1.263 12.277 5.75.591-1.262-12.276-5.751z" fill="#B06B5D"/><path d="M112.872 163.05a7.815 7.815 0 01-7.667-9.337 7.818 7.818 0 0115.483 1.524 7.811 7.811 0 01-7.816 7.813zm0-13.518a5.713 5.713 0 00-5.251 3.544 5.705 5.705 0 007.475 7.429 5.708 5.708 0 003.516-5.268 5.697 5.697 0 00-3.538-5.309 5.697 5.697 0 00-2.202-.428v.032z" fill="#EB8E7C"/><path d="M114.396 155.205a1.53 1.53 0 01-.918 1.431 1.522 1.522 0 01-2.099-1.089 1.53 1.53 0 01.642-1.574c.252-.169.548-.259.85-.259a1.495 1.495 0 011.525 1.491z" fill="#A4AEC9"/><path d="M113.715 155.205a.815.815 0 01-.515.788.821.821 0 01-.328.055.845.845 0 01-.597-1.439.845.845 0 01.597-.247.821.821 0 01.606.237.818.818 0 01.237.606z" fill="#C8CEDF"/><path d="M79.085 110.054l-4.72 10.069 1.058.495 4.719-10.069-1.057-.495z" fill="#B06B5D"/><path d="M72.41 112.424l-.495 1.057 10.074 4.717.495-1.057-10.074-4.717z" fill="#B06B5D"/><path d="M77.291 121.848a6.485 6.485 0 01-4.587-11.068 6.484 6.484 0 017.07-1.405 6.478 6.478 0 012.104 10.574 6.488 6.488 0 01-4.587 1.899zm0-11.119a4.709 4.709 0 00-4.345 2.902 4.696 4.696 0 001.02 5.122 4.704 4.704 0 008.028-3.324 4.702 4.702 0 00-4.703-4.7z" fill="#EB8E7C"/><path d="M78.524 115.429a1.234 1.234 0 01-2.105.871 1.228 1.228 0 01-.267-1.342 1.23 1.23 0 012.01-.4c.232.231.362.545.362.871z" fill="#A4AEC9"/><path d="M77.323 116.143a.714.714 0 100-1.428.714.714 0 000 1.428z" fill="#C8CEDF"/></g><defs><clipPath id="la"><path fill="#fff" transform="translate(0 -5)" d="M0 0h184v296H0z"/></clipPath></defs></svg><svg fill="none" viewBox="0 0 19 19" id="phone" xmlns="http://www.w3.org/2000/svg"><g clip-path="url(#ma)"><path d="M8.188 5.635l-2.537-2.93c-.293-.337-.829-.335-1.169.005L2.396 4.8c-.621.622-.799 1.546-.44 2.286A21.906 21.906 0 0012.127 17.27c.74.36 1.662.181 2.283-.44l2.106-2.11c.341-.341.342-.88.002-1.173l-2.94-2.524c-.308-.264-.786-.23-1.094.08l-1.023 1.024a.346.346 0 01-.415.066 10.917 10.917 0 01-4.02-4.025.347.347 0 01.066-.416l1.02-1.02c.31-.31.343-.79.076-1.1v.002z" stroke="#fff" stroke-width="2" stroke-linecap="round" stroke-linejoin="round"/></g><defs><clipPath id="ma"><path fill="#fff" transform="translate(.272 .955)" d="M0 0h18v18H0z"/></clipPath></defs></svg><svg fill="none" viewBox="0 0 30 30" id="tg" xmlns="http://www.w3.org/2000/svg"><rect x="1" y="1" width="28" height="28" rx="9" fill="#fff"/><path d="M6.237 14.027c4.833-1.976 8.055-3.278 9.666-3.907 4.605-1.797 5.56-2.11 6.184-2.12.138-.002.443.03.643.181.165.128.212.3.235.421.021.122.05.397.026.613-.248 2.46-1.328 8.428-1.877 11.183-.23 1.166-.69 1.557-1.132 1.595-.964.083-1.694-.597-2.626-1.17-1.459-.898-2.282-1.456-3.699-2.332-1.636-1.012-.575-1.569.358-2.477.243-.239 4.485-3.859 4.566-4.187.01-.041.02-.194-.078-.275-.096-.081-.238-.053-.342-.031-.148.03-2.476 1.476-6.993 4.336-.66.427-1.258.634-1.797.624-.59-.012-1.73-.314-2.577-.573-1.036-.316-1.862-.484-1.79-1.022.037-.28.448-.566 1.233-.859z" fill="#21B9E5"/><rect x="1" y="1" width="28" height="28" rx="9" stroke="#21B9E5" stroke-width="2"/></svg><svg fill="none" viewBox="0 0 30 31" id="tg-footer" xmlns="http://www.w3.org/2000/svg"><rect x=".5" y=".955" width="29" height="29" rx="9.5" fill="#00A1CF"/><path d="M6.237 14.482c4.833-1.976 8.055-3.278 9.666-3.908 4.605-1.797 5.56-2.109 6.184-2.12.138-.001.443.03.643.182.165.127.212.3.235.421.021.121.05.397.026.612-.248 2.46-1.328 8.429-1.877 11.184-.23 1.166-.69 1.556-1.132 1.595-.964.083-1.694-.597-2.626-1.17-1.459-.898-2.282-1.457-3.699-2.332-1.636-1.013-.575-1.569.358-2.478.243-.238 4.485-3.858 4.566-4.187.01-.04.02-.194-.078-.274-.096-.081-.238-.054-.342-.032-.148.031-2.476 1.477-6.993 4.337-.66.426-1.258.634-1.797.623-.59-.012-1.73-.314-2.577-.572-1.036-.317-1.862-.484-1.79-1.022.037-.28.448-.567 1.233-.86z" fill="#fff"/><rect x=".5" y=".955" width="29" height="29" rx="9.5" stroke="#fff"/></svg><svg fill="none" viewBox="0 0 30 30" id="viber" xmlns="http://www.w3.org/2000/svg"><g clip-path="url(#pa)"><path d="M14.248.005C11.841.034 6.665.429 3.77 3.085 1.616 5.22.864 8.374.776 12.275.703 16.16.615 23.46 7.651 25.448v3.027s-.044 1.212.757 1.46c.986.312 1.547-.62 2.485-1.62l1.748-1.978c4.814.4 8.501-.522 8.926-.659.977-.312 6.48-1.015 7.378-8.316.923-7.539-.449-12.29-2.925-14.438h-.015c-.747-.688-3.75-2.876-10.458-2.9 0 0-.498-.034-1.299-.02zm.083 2.12c.683-.005 1.098.024 1.098.024 5.679.015 8.39 1.724 9.028 2.3 2.085 1.786 3.16 6.069 2.373 12.363-.747 6.103-5.21 6.49-6.035 6.753-.352.112-3.6.913-7.69.65 0 0-3.048 3.677-4 4.623-.15.166-.327.215-.44.19-.16-.039-.21-.238-.2-.512l.029-5.024c-5.967-1.65-5.616-7.876-5.552-11.128.073-3.253.683-5.913 2.5-7.715 2.446-2.212 6.841-2.51 8.887-2.525h.002zm.45 3.25a.372.372 0 00-.376.372c0 .21.17.376.376.376A7.044 7.044 0 0119.82 8.11c1.362 1.323 2.026 3.1 2.05 5.425 0 .205.167.376.377.376v-.015a.375.375 0 00.376-.372 8.077 8.077 0 00-2.266-5.952c-1.484-1.45-3.365-2.197-5.576-2.197zm-4.942.86a1.174 1.174 0 00-.767.151h-.02a5.884 5.884 0 00-1.43 1.177c-.342.395-.528.796-.577 1.181-.029.23-.01.46.06.679l.024.015a16.9 16.9 0 001.504 3.247 19.105 19.105 0 002.9 3.965l.034.049.053.039.034.04.04.033a19.382 19.382 0 003.974 2.915c1.65.898 2.652 1.323 3.253 1.499v.01c.176.053.336.077.497.077a2.298 2.298 0 001.378-.59 5.683 5.683 0 001.162-1.436v-.01c.288-.541.19-1.054-.225-1.4a17.309 17.309 0 00-2.686-1.93c-.64-.346-1.289-.136-1.552.216l-.562.707c-.288.352-.81.303-.81.303l-.016.01c-3.9-.997-4.941-4.947-4.941-4.947s-.05-.537.312-.81l.703-.567c.337-.274.57-.922.21-1.563a16.866 16.866 0 00-1.924-2.686 1.069 1.069 0 00-.63-.376l.002.002zm5.59 1.114c-.497 0-.497.752.005.752a4.712 4.712 0 013.31 1.435 4.369 4.369 0 011.123 3.213.378.378 0 00.376.371l.015.02a.379.379 0 00.376-.376c.034-1.49-.429-2.74-1.337-3.74-.914-1.002-2.188-1.563-3.814-1.675h-.054zm.616 2.021c-.513-.015-.532.752-.024.767 1.236.064 1.836.688 1.914 1.973a.373.373 0 00.372.366h.015a.378.378 0 00.36-.4c-.088-1.675-1-2.618-2.622-2.705h-.015z" fill="#21B9E5"/></g><defs><clipPath id="pa"><path fill="#fff" d="M0 0h30v30H0z"/></clipPath></defs></svg><svg fill="none" viewBox="0 0 30 31" id="viber-footer" xmlns="http://www.w3.org/2000/svg"><g clip-path="url(#qa)"><path d="M14.248.46C11.84.487 6.664.883 3.769 3.54 1.616 5.674.864 8.828.776 12.73.703 16.615.615 23.915 7.651 25.902v3.027s-.044 1.212.756 1.46c.987.312 1.548-.62 2.486-1.621l1.748-1.977c4.814.4 8.501-.522 8.926-.66.977-.311 6.479-1.015 7.378-8.315.923-7.54-.449-12.29-2.925-14.438h-.015c-.747-.688-3.75-2.877-10.459-2.9 0 0-.497-.035-1.298-.02zm.082 2.119c.684-.005 1.1.024 1.1.024 5.678.015 8.388 1.724 9.027 2.3 2.085 1.787 3.16 6.07 2.373 12.364-.747 6.103-5.21 6.49-6.035 6.753-.352.112-3.6.913-7.69.65 0 0-3.048 3.676-4 4.623-.151.166-.327.215-.44.19-.161-.039-.21-.239-.2-.512l.029-5.024c-5.968-1.65-5.616-7.876-5.552-11.129.073-3.252.683-5.912 2.5-7.714 2.446-2.212 6.84-2.51 8.886-2.525h.002zm.45 3.251a.372.372 0 00-.375.372c0 .21.17.375.375.375a7.043 7.043 0 015.04 1.988c1.362 1.323 2.025 3.1 2.05 5.424 0 .206.167.376.377.376v-.015a.375.375 0 00.376-.371 8.077 8.077 0 00-2.266-5.952c-1.484-1.45-3.365-2.198-5.577-2.198v.001zm-4.941.86a1.174 1.174 0 00-.767.15h-.02a5.884 5.884 0 00-1.43 1.177c-.343.396-.528.796-.577 1.182-.029.23-.01.46.06.678l.024.015a16.9 16.9 0 001.503 3.248 19.102 19.102 0 002.9 3.965l.035.048.053.04.034.04.04.033a19.377 19.377 0 003.974 2.915c1.65.898 2.652 1.322 3.252 1.499v.009c.177.053.337.078.498.078a2.299 2.299 0 001.377-.59 5.687 5.687 0 001.163-1.436v-.01c.288-.541.19-1.054-.225-1.401a17.32 17.32 0 00-2.686-1.928c-.64-.347-1.29-.137-1.553.214l-.561.708c-.288.352-.811.303-.811.303l-.015.01c-3.901-.997-4.942-4.947-4.942-4.947s-.048-.537.313-.811l.703-.566c.336-.274.57-.923.21-1.563a16.872 16.872 0 00-1.924-2.686 1.07 1.07 0 00-.63-.376l.002.002zm5.59 1.114c-.498 0-.498.752.005.752a4.712 4.712 0 013.31 1.435 4.368 4.368 0 011.123 3.213.378.378 0 00.376.37l.015.02a.378.378 0 00.376-.375c.034-1.49-.43-2.74-1.338-3.74-.913-1.002-2.187-1.564-3.813-1.675h-.054zm.616 2.02c-.513-.014-.532.753-.024.768 1.235.064 1.835.688 1.914 1.972a.373.373 0 00.371.367h.015a.38.38 0 00.361-.4c-.088-1.675-1.001-2.618-2.622-2.705h-.015v-.001z" fill="#fff"/></g><defs><clipPath id="qa"><path fill="#fff" transform="translate(0 .455)" d="M0 0h30v30H0z"/></clipPath></defs></svg><svg fill="none" viewBox="0 0 169 287" id="washing" xmlns="http://www.w3.org/2000/svg"><g clip-path="url(#ra)"><path d="M153.543 222.481l-89.198 24.104L7.27 50.239l96.685-26.127 49.588 198.369z" fill="#DAE5F9"/><path opacity=".25" d="M93.333 55.254L97.534 70.8l2.167 8.019 2.034 7.527 25.167 103.474c.885 3.273-6.014 8.122-16.122 12.083l-9.115 2.463c-15.137 4.09-28.066 4.072-29.216-.183L41.91 102.162 37.886 87.27l-4.2-15.547 59.647-16.47z" fill="#41D4FF"/><path d="M150.964 212.291l10.348 38.293c.024.377-.041.754-.19 1.1-.15.345-.38.65-.67.889a35.439 35.439 0 01-11.724 7.031 207.07 207.07 0 01-26.489 9.265l-11.881 3.211-12.534 3.387-11.097 1.593-6.169.438a19.146 19.146 0 01-6.641-.663 2.196 2.196 0 01-1.582-1.329l-10.348-38.293c.398 1.473 3.519 2.034 8.549 1.904a141.489 141.489 0 0016.94-1.944l12.534-3.387 11.882-3.21a239.27 239.27 0 0026.489-9.265c8.273-3.641 13.114-7.056 12.583-9.02z" fill="#21B9E5"/><path d="M92.665 26.285l10.304 38.13c.973 3.6-10.394 10.008-26.613 15.269l-9.278 2.507a137.025 137.025 0 01-27.15 4.878c-7.028.494-11.79-.326-12.365-2.453L17.303 46.65l75.362-20.365z" fill="#97A1B7"/><path d="M100.17 6.873l5.13 18.983c.486 1.8-3.674 4.504-10.689 7.63l-6.408 2.785a283.434 283.434 0 01-30.202 9.742l-8.302 2.243-12.533 3.387a140.737 140.737 0 01-16.763 2.598c-7.634.834-12.427.548-12.913-1.252L2.36 34.006l97.81-27.133z" fill="#21B9E5"/><path d="M100.17 6.873c1.017 3.764-20.28 12.855-46.974 20.069-26.694 7.213-49.67 10.086-50.688 6.322-1.017-3.764 20.117-12.81 46.974-20.068 26.857-7.258 49.67-10.087 50.688-6.323z" fill="#41D4FF"/><path opacity=".15" d="M94.611 33.485l8.358 30.93c.973 3.6-10.394 10.008-26.613 15.268l-3.051-11.291a8.857 8.857 0 00-1.55-3.117 8.815 8.815 0 00-2.628-2.274 8.764 8.764 0 00-3.297-1.076 8.725 8.725 0 00-3.451.288 137.04 137.04 0 01-27.15 4.879c-7.028.494-11.791-.326-12.366-2.453l-2.918-10.8a295.674 295.674 0 0074.71-20.19l-.044-.164z" fill="#21B9E5"/><path opacity=".5" d="M97.208 70.888a111.884 111.884 0 01-20.852 8.795l-9.278 2.508a137.039 137.039 0 01-27.15 4.878l-3.965.194 4.024 14.891 3.64-.105a150.93 150.93 0 0027.15-4.879 7.398 7.398 0 015.562.698 7.478 7.478 0 013.502 4.404l28.928 99.296c10.108-3.96 17.006-8.81 16.121-12.083L99.723 86.012l-2.034-7.528-.48-7.596z" fill="#97A1B7"/><path opacity=".25" d="M36.99 50.988l50.103 185.411a141.489 141.489 0 01-16.94 1.944L20.225 53.586a140.716 140.716 0 0016.763-2.598zM88.203 36.27l50.015 185.084a231.012 231.012 0 01-30.07 10.233l-8.301 2.244L49.699 48.256l7.65-2.067a283.423 283.423 0 0030.854-9.919z" fill="#fff"/><path opacity=".5" d="M150.964 212.291l10.348 38.293c.024.377-.041.754-.19 1.1-.15.345-.38.65-.67.889a35.456 35.456 0 01-11.724 7.031 207.224 207.224 0 01-26.489 9.265l-10.347-38.293a239.277 239.277 0 0026.489-9.266c8.273-3.64 13.114-7.055 12.583-9.019z" fill="#21B9E5"/></g><defs><clipPath id="ra"><path fill="#fff" transform="rotate(-15.122 100.076 13.283)" d="M0 0h101.839v269.279H0z"/></clipPath></defs></svg><svg fill="none" viewBox="0 0 137 250" id="waterdrop" xmlns="http://www.w3.org/2000/svg"><path d="M137 227.51c-.221 31.79-10.011 62.18-27.24 84.558C92.53 334.445 69.256 347 45 347c-24.256 0-47.53-12.555-64.76-34.932C-36.99 289.69-46.78 259.3-47 227.51-47 122.212 44.996-17 44.996-17S137 122.212 137 227.51z" fill="#58CBEC"/></svg></svg>